<svg xmlns="http://www.w3.org/2000/svg">
<defs>
<font id="Caviar Dreams:Version 4.00" horiz-adv-x="3072"><font-face font-family="Caviar Dreams" font-weight="400" font-stretch="normal" units-per-em="2048" panose-1="2 11 4 2 2 2 4 2 5 4" ascent="2005" descent="-375" x-height="4" bbox="-400 -375 2239 2005" underline-thickness="150" underline-position="-217" unicode-range="U+0020-fb05" /><missing-glyph horiz-adv-x="1835" d="M942 291 q0 22 -4 22 l-21 0 l0 -32 l19 0 l0 10 l6 0 ZM1481 819 q0 23 -6 23 l-21 0 l0 -31 l19 0 l0 8 l8 0 ZM1104 1268 q8 0 14 10 q10 14 10 39 q-2 22 -10 37 q-8 10 -16 10 q-10 0 -17 -10 q-10 -13 -10 -37 q2 -25 10 -37 q9 -12 19 -12 ZM1456 930 q12 0 19 10 q8 12 8 39 q0 22 -10 37 q-7 10 -17 10 q-10 0 -16 -10 q-8 -15 -8 -37 q0 -25 10 -39 q6 -10 14 -10 ZM377 557 q12 0 18 10 q8 15 8 39 q0 25 -10 37 q-6 10 -16 10 q-12 0 -19 -10 q-8 -10 -8 -37 q0 -24 10 -37 q7 -12 17 -12 ZM754 229 q10 15 10 39 q0 25 -8 37 q-8 10 -19 10 q-10 0 -18 -10 q-8 -12 -8 -37 q0 -26 8 -39 q6 -10 16 -10 q10 0 19 10 ZM401 811 q0 20 -6 20 l-20 0 l0 -30 l18 0 l0 10 l8 0 ZM958 291 l0 -41 l-22 0 l0 10 l-19 0 l0 -35 q0 -8 15 -8 l0 -16 l-64 0 l0 16 q13 0 13 4 l0 92 q0 4 -13 4 l0 17 l101 0 l0 -43 l-11 0 ZM1294 315 l-8 0 l0 19 l49 0 l0 -19 q-10 0 -12 -6 l-29 -51 l0 -37 q0 -4 13 -4 l0 -16 l-60 0 l0 16 q13 0 13 4 l0 37 l-29 51 q-4 6 -12 6 l0 19 l57 0 l0 -19 l-8 0 l12 -26 l14 26 ZM580 1366 l-7 0 l0 18 l45 0 l0 -18 q-8 0 -12 -6 l-24 -53 l0 -37 q0 -4 12 -4 l0 -17 l-64 0 l0 17 q15 0 15 4 l0 37 l-31 53 q-2 6 -8 6 l0 18 l53 0 l0 -18 l-8 0 l16 -29 l13 29 ZM395 1196 l-8 0 l0 18 l47 0 l0 -18 q-8 0 -10 -6 l-29 -51 l0 -37 q0 -4 13 -4 l0 -19 l-62 0 l0 19 q12 0 12 4 l0 37 l-26 51 q-4 6 -13 6 l0 18 l56 0 l0 -18 l-8 0 l14 -29 l14 29 ZM1497 819 l0 -39 l-24 0 l0 8 l-19 0 l0 -32 q0 -8 14 -8 l0 -19 l-61 0 l0 19 q12 0 12 4 l0 90 q0 4 -12 4 l0 18 l100 0 l0 -45 l-10 0 ZM1475 485 l-9 0 l0 19 l50 0 l0 -19 q-11 0 -13 -6 l-28 -51 l0 -37 q0 -4 12 -4 l0 -16 l-60 0 l0 16 q13 0 13 4 l0 37 l-29 51 q-4 6 -12 6 l0 19 l55 0 l0 -19 l-6 0 l12 -26 l15 26 ZM350 1319 l0 -47 q0 -4 19 -
<glyph glyph-name="space" unicode="  " d="" /><glyph glyph-name="exclam" unicode="!" d="M215 165 q37 0 63.5 -26 q26.5 -26 26.5 -63 q0 -38 -26.5 -64 q-26.5 -26 -63.5 -26 q-37 0 -63.5 26 q-26.5 26 -26.5 64 q0 37 26.5 63 q26.5 26 63.5 26 ZM258 1600 l0 -1324 l-90 0 l0 1324 l90 0 Z" /><glyph glyph-name="quotedbl" unicode="&quot;" d="M125 997 l0 600 l90 0 l0 -600 l-90 0 ZM360 997 l0 600 l90 0 l0 -600 l-90 0 Z" /><glyph glyph-name="numbersign" unicode="#" d="M763 985 l230 0 l111 445 l90 0 l-111 -445 l445 0 l-23 -90 l-445 0 l-57 -230 l445 0 l-23 -90 l-445 0 l-111 -445 l-90 0 l111 445 l-230 0 l-111 -445 l-90 0 l111 445 l-445 0 l23 90 l445 0 l57 230 l-445 0 l23 90 l445 0 l111 445 l90 0 l-111 -445 ZM970 895 l-230 0 l-57 -230 l230 0 l57 230 Z" /><glyph glyph-name="dollar" unicode="$" d="M556 856 l0 -667 q100 15 176 91 q94 94 94 228 q0 133 -94 227 q-74 74 -176 121 ZM466 1413 q-62 -10 -108 -57 q-61 -60 -61 -146 q0 -86 60 -146 q42 -42 109 -79 l0 428 ZM466 891 q-104 45 -170 112 q-86 85 -86 207 q0 119 86 205 q72 73 170 84 l0 163 l90 0 l0 -165 q88 -15 155 -81 q47 -46 67 -108 l-78 -31 q-17 46 -51 80 q-41 40 -93 53 l0 -464 q137 -53 236 -151 q119 -119 119 -287 q0 -170 -119 -289 q-101 -101 -236 -117 l0 -140 l-90 0 l0 139 q-144 11 -251 118 q-95 96 -115 226 l82 30 q12 -115 94 -196 q81 -81 190 -92 l0 704 Z" /><glyph glyph-name="percent" unicode="%" d="M1107 1314 l-918 -1311 l-74 51 l918 1311 l74 -51 ZM311 1215 q96 0 163.5 -67.5 q67.5 -67.5 67.5 -163.5 q0 -96 -67.5 -163.5 q-67.5 -67.5 -163.5 -67.5 q-96 0 -163.5 67.5 q-67.5 67.5 -67.5 163.5 q0 96 67.5 163.5 q67.5 67.5 163.5 67.5 ZM311 1128 q-60 0 -102 -42 q-42 -42 -42 -102 q0 -60 42 -102 q42 -42 102 -42 q59 0 101.5 42 q42.5 42 42.5 102 q0 60 -42.5 102 q-42.5 42 -101.5 42 ZM911 615 q96 0 163.5 -67.5 q67.5 -67.5 67.5 -163.5 q0 -96 -67.5 -163.5 q-67.5 -67.5 -163.5 -67.5 q-96 0 -163.5 67.5 q-67.5 67.5 -67.5 163.5 q0 96 67.5 163.5 q67.5 67.5 163.5 67.5 ZM911 528 q-60 0 -102 -42 q-42 -42 -42 -102 q0 -60 42 -102 q42 -42 102 -42 q59 0 101.5 42 q42.5 42 42.5 102 q0 60 -42.5 102 q-42.5 42 -101.5 42 Z" /><glyph glyph-name="ampersand" unicode="&amp;" d="M915 331 q-13 5 -25 12 q-48 27 -120 102 q-48 44 -68 55 q-22 12 -44 12 q-13 0 -25 -3 q-36 -10 -54 -42 q-13 -22 -13 -44 q0 -12 4 -25 q10 -36 39 -52 q19 -10 52 -10 q18 0 41 3 l-9 -82 q-25 -7 -50 -7 q-40 0 -78 21 q-60 33 -79 104 q-7 25 -7 48 q0 44 24 86 q37 64 107 83 q25 7 49 7 q44 0 85 -24 q40 -22 104 -89 q58 -53 85 -68 q30 -17 62 -17 q18 0 36 5 q52 14 79 61 q17 31 17 63 q0 17 -5 35 q-14 51 -60 78 q-28 16 -63 16 q-25 0 -54 -8 l-1 89 q28 8 56 8 q53 0 104 -29 q78 -44 102 -131 q8 -30 8 -58 q0 -55 -29 -105 q-44 -78 -132 -102 q-26 -7 -50 -8 q-33 -108 -119 -194 q-139 -140 -335 -140 q-196 0 -335 139 q-139 139 -139 336 q0 196 137 342 q94 101 244 151 q-72 31 -147.5 111.5 q-75.5 80.5 -75.5 221.5 q0 138 99 237.5 q99 99.5 240 99.5 q140 0 240 -99 q55 -53 76 -119 l-81 -32 q-18 49 -59 90 q-73 72 -176 72 q-103 0 -176 -72.5 q-73 -72.5 -73 -176.5 q0 -103 70.5 -178 q70.5 -75 130.5 -98 q60 -23 150 -24 l0 -84 l-72 -2 q-219 -41 -329 -161 q-110 -120 -110 -279 q0 -160 113 -273 q113 -113 273 -113 q159 0 272 113 q66 66 94 148 Z" /><glyph glyph-name="quotesingle" unicode="&#39;" d="M125 997 l0 600 l90 0 l0 -600 l-90 0 Z" /><glyph glyph-name="parenleft" unicode="(" d="M603 1628 q-135 -62 -244 -199 q-181 -228 -181 -629 q0 -402 181 -630 q109 -137 244 -202 l0 -85 q-168 58 -299 223 q-204 254 -204 694 q0 439 204 694 q131 165 299 223 l0 -89 Z" /><glyph glyph-name="parenright" unicode=")" d="M100 1717 q168 -58 299 -223 q204 -255 204 -694 q0 -440 -204 -694 q-131 -165 -299 -223 l0 85 q135 65 244 202 q181 228 181 630 q0 401 -181 629 q-109 137 -244 199 l0 89 Z" /><glyph glyph-name="asterisk" unicode="*" d="M445 1384 l174 122 l52 -74 l-193 -135 l193 -135 l-52 -74 l-174 122 l0 -213 l-90 0 l0 214 l-175 -123 l-52 74 l193 135 l-193 135 l52 74 l175 -123 l0 214 l90 0 l0 -213 Z" /><glyph glyph-name="plus" unicode="+" d="M480 547 l-355 0 l0 90 l355 0 l0 355 l90 0 l0 -355 l355 0 l0 -90 l-355 0 l0 -355 l-90 0 l0 355 Z" /><glyph glyph-name="comma" unicode="," d="M279 166 l-185 -385 l-84 0 l103 385 l166 0 Z" /><glyph glyph-name="hyphen" unicode="-­" d="M125 637 l590 0 l0 -90 l-590 0 l0 90 Z" /><glyph glyph-name="period" unicode="." d="M190 165 q37 0 63.5 -26 q26.5 -26 26.5 -63 q0 -38 -26.5 -64 q-26.5 -26 -63.5 -26 q-37 0 -63.5 26 q-26.5 26 -26.5 64 q0 37 26.5 63 q26.5 26 63.5 26 Z" /><glyph glyph-name="slash" unicode="/" d="M674 1600 l103 0 l-725 -1600 l-102 0 l724 1600 Z" /><glyph glyph-name="zero" unicode="0" d="M1079 1051 q0 188 -133 320.5 q-133 132.5 -321 132.5 q-188 0 -321 -132.5 q-133 -132.5 -133 -320.5 l0 -530 q0 -188 133 -320.5 q133 -132.5 321 -132.5 q188 0 321 132.5 q133 132.5 133 320.5 l0 530 ZM1174 521 q0 -227 -160.5 -388 q-160.5 -161 -388.5 -161 q-227 0 -388 161 q-161 161 -161 388 l0 530 q0 227 161 388 q161 161 388 161 q228 0 388.5 -161 q160.5 -161 160.5 -388 l0 -530 Z" /><glyph glyph-name="one" unicode="1" d="M717 1600 l0 -1600 l-90 0 l0 1442 l-95 0 l123 158 l62 0 Z" /><glyph glyph-name="two" unicode="2" d="M156 0 q46 310 211.5 433.5 q165.5 123.5 292.5 219 q127 95.5 236 214.5 q109 119 109 277 q0 159 -112 271 q-112 112 -271 112 q-157 0 -270 -112 q-96 -96 -110 -229 l-91 33 q23 150 134 262 q140 141 337 141 q198 0 337.5 -140 q139.5 -140 139.5 -338 q0 -197 -137 -344 q-93 -101 -220 -196 q-127 -95 -286 -214 q-159 -119 -198 -300 l841 0 l0 -90 l-943 0 Z" /><glyph glyph-name="three" unicode="3" d="M569 893 l-75 2 l0 90 q93 1 152.5 24 q59.5 23 129 97 q69.5 74 69.5 176 q0 103 -72 174.5 q-72 71.5 -174 71.5 q-101 0 -174 -71 q-40 -41 -59 -92 l-86 34 q22 70 77 123 q101 100 242 100 q143 0 242.5 -100.5 q99.5 -100.5 99.5 -239.5 q0 -142 -76 -223.5 q-76 -81.5 -142 -108.5 q144 -48 239 -150 q137 -147 137 -344 q0 -198 -139.5 -338 q-139.5 -140 -337.5 -140 q-197 0 -337 141 q-111 112 -134 262 l91 33 q14 -133 110 -229 q113 -112 270 -112 q159 0 271 112 q112 112 112 271 q0 158 -109 277 q-109 119 -327 160 Z" /><glyph glyph-name="four" unicode="4" d="M833 1600 l90 0 l0 -1042 l153 0 l0 -90 l-153 0 l0 -468 l-90 0 l0 468 l-660 0 l660 1132 ZM833 1406 l-505 -848 l505 0 l0 848 Z" /><glyph glyph-name="five" unicode="5" d="M282 1103 q50 16 112 30 q64 11 124 11 q110 0 211 -35 q226 -77 336 -284 q69 -129 69 -264 q0 -84 -26 -169 q-69 -225 -276 -336 q-126 -67 -260 -67 q-85 0 -173 27 q-180 55 -282 194 l64 71 q85 -126 246 -175 q72 -22 142 -22 q112 0 218 56 q173 92 231 280 q22 72 22 142 q0 112 -57 219 q-92 172 -280 238 q-81 28 -178 28 q-127 0 -282 -49 l-72 63 l184 507 l0 32 l500 0 l0 -90 l-425 0 l-148 -407 Z" /><glyph glyph-name="six" unicode="6" d="M307 842 q-133 -133 -133 -321 q0 -188 133 -320.5 q133 -132.5 321 -132.5 q188 0 321 132.5 q133 132.5 133 320.5 q0 188 -133 321 q-133 133 -321 133 q-188 0 -321 -133 ZM272 940 q151 131 356 131 q228 0 388.5 -161 q160.5 -161 160.5 -389 q0 -227 -160.5 -388 q-160.5 -161 -388.5 -161 q-227 0 -388 161 q-155 155 -161 371 l-6 0 q10 353 170 577 q160 224 396 488 q14 16 27 31 l124 0 q-20 -25 -42 -50 q-263 -294 -417 -513 q-33 -46 -59 -97 Z" /><glyph glyph-name="seven" unicode="7" d="M1096 1600 q-6 -260 -268.5 -554 q-262.5 -294 -416.5 -513 q-154 -219 -164 -533 l-94 0 q10 353 170 577 q160 224 396 488 q236 264 275 445 l-841 0 l0 90 l943 0 Z" /><glyph glyph-name="eight" unicode="8" d="M624 75 l2 0 q20 -2 40 -2 q159 0 271 112 q112 112 112 271 q0 158 -109 277 q-106 116 -315 158 q-209 -42 -315 -158 q-109 -119 -109 -277 q0 -159 112 -271 q112 -112 271 -112 q20 0 40 2 ZM625 -20 q-20 -2 -41 -2 q-198 0 -337.5 140 q-139.5 140 -139.5 338 q0 197 137 344 q95 102 239 150 q-66 27 -142 108.5 q-76 81.5 -76 223.5 q0 139 99.5 239.5 q99.5 100.5 242.5 100.5 l36 0 q143 0 242.5 -100.5 q99.5 -100.5 99.5 -239.5 q0 -142 -76 -223.5 q-76 -81.5 -142 -108.5 q144 -48 239 -150 q137 -147 137 -344 q0 -198 -139.5 -338 q-139.5 -140 -337.5 -140 q-20 0 -41 2 ZM624 1527 q-8 1 -17 1 q-102 0 -174 -71.5 q-72 -71.5 -72 -174.5 q0 -102 69.5 -176 q69.5 -74 128.5 -97 q30 -11 66 -17 q36 6 66 17 q59 23 128.5 97 q69.5 74 69.5 176 q0 103 -72 174.5 q-72 71.5 -174 71.5 q-9 0 -17 -1 l-2 0 Z" /><glyph glyph-name="nine" unicode="9" d="M943 730 q133 133 133 321 q0 188 -133 320.5 q-133 132.5 -321 132.5 q-188 0 -321 -132.5 q-133 -132.5 -133 -320.5 q0 -188 133 -321 q133 -133 321 -133 q188 0 321 133 ZM978 632 q-151 -131 -356 -131 q-228 0 -388.5 161 q-160.5 161 -160.5 389 q0 227 160.5 388 q160.5 161 388.5 161 q227 0 388 -161 q155 -155 161 -371 l6 0 q-10 -353 -170 -577 q-160 -224 -396 -488 q-14 -16 -27 -31 l-124 0 q20 25 42 50 q263 294 417 513 q33 46 59 97 Z" /><glyph glyph-name="colon" unicode=":" d="M215 165 q37 0 63.5 -26 q26.5 -26 26.5 -63 q0 -38 -26.5 -64 q-26.5 -26 -63.5 -26 q-37 0 -63.5 26 q-26.5 26 -26.5 64 q0 37 26.5 63 q26.5 26 63.5 26 ZM215 782 q37 0 63.5 -26 q26.5 -26 26.5 -63 q0 -38 -26.5 -64 q-26.5 -26 -63.5 -26 q-37 0 -63.5 26 q-26.5 26 -26.5 64 q0 37 26.5 63 q26.5 26 63.5 26 Z" /><glyph glyph-name="semicolon" unicode=";&#x37e;" d="M352 166 l-185 -385 l-84 0 l103 385 l166 0 ZM215 782 q37 0 63.5 -26 q26.5 -26 26.5 -63 q0 -38 -26.5 -64 q-26.5 -26 -63.5 -26 q-37 0 -63.5 26 q-26.5 26 -26.5 64 q0 37 26.5 63 q26.5 26 63.5 26 Z" /><glyph glyph-name="less" unicode="&lt;" d="M1249 145 l-1149 418 l1149 418 l0 -96 l-886 -322 l886 -322 l0 -96 Z" /><glyph glyph-name="equal" unicode="=" d="M125 797 l800 0 l0 -90 l-800 0 l0 90 ZM125 477 l800 0 l0 -90 l-800 0 l0 90 Z" /><glyph glyph-name="greater" unicode="&gt;" d="M100 241 l886 322 l-886 322 l0 96 l1149 -418 l-1149 -418 l0 96 Z" /><glyph glyph-name="question" unicode="?" d="M567 818 q-117 -103 -177 -229 q-40 -82 -40 -166 q0 -64 23 -129 l-83 -29 q-28 80 -28 158 q0 104 49 204 q80 167 241 289 q95 92 136 178 q26 53 26 108 q0 41 -14 82 q-35 98 -128 143 q-53 25 -107 25 q-41 0 -83 -15 q-97 -34 -142 -126 q-25 -52 -25 -105 l-88 4 l0 8 q0 65 32 129 q62 127 194 173 q58 20 114 20 q74 0 146 -34 q126 -61 172 -192 q20 -57 20 -113 q0 -74 -35 -146 q-61 -127 -203 -237 ZM326 165 q37 0 63.5 -26 q26.5 -26 26.5 -63 q0 -38 -26.5 -64 q-26.5 -26 -63.5 -26 q-37 0 -63.5 26 q-26.5 26 -26.5 64 q0 37 26.5 63 q26.5 26 63.5 26 Z" /><glyph glyph-name="at" unicode="@" d="M1088 483 l0 132 q-17 75 -74 132 q-82 83 -198 83 q-116 0 -197.5 -82.5 q-81.5 -82.5 -81.5 -199.5 q0 -115 81.5 -197 q81.5 -82 197.5 -82 q116 0 198 82 q57 57 74 132 ZM1086 313 q-121 -127 -272 -127 q-150 0 -257 107 q-107 107 -107 255 q0 151 107 258 q107 107 257 107 q151 0 272 -127 l0 114 l81 0 l0 -648 q18 -43 55 -43 q44 0 122 110.5 q78 110.5 78 227.5 q0 251 -178.5 429.5 q-178.5 178.5 -429.5 178.5 q-251 0 -428.5 -178.5 q-177.5 -178.5 -177.5 -429.5 q0 -251 177.5 -428.5 q177.5 -177.5 428.5 -177.5 q172 0 251 49 l57 -60 q-120 -70 -308 -70 q-284 0 -486.5 202 q-202.5 202 -202.5 485 q0 284 202.5 486.5 q202.5 202.5 486.5 202.5 q285 0 486 -202.5 q201 -202.5 201 -486.5 q0 -127 -92.5 -272 q-92.5 -145 -204.5 -145 q-13 0 -25 2 q-86 18 -93 100 l0 81 Z" /><glyph glyph-name="A" unicode="a" d="M890 703 l-244 671 l-244 -671 l488 0 ZM923 613 l-554 0 l-223 -613 l-96 0 l596 1637 l595 -1637 l-95 0 l-223 613 Z" /><glyph glyph-name="B" unicode="b" d="M434 1600 q123 0 210.5 -87 q87.5 -87 87.5 -210 q0 -124 -127 -231 q112 -23 211 -132 q160 -161 160 -389 q0 -227 -160 -393 q-149 -154 -356 -157 l0 -1 l-310 0 l0 1600 l284 0 ZM240 1005 l0 -915 l220 0 l0 -1 q167 11 288 137 q133 137 133 325 q0 188 -133 321 q-133 133 -321 133 l-187 0 ZM240 1510 l0 -409 l217 0 q75 7 128 56 q61 56 61 146 q0 90 -61 148.5 q-61 58.5 -151 58.5 l-194 0 Z" /><glyph glyph-name="C" unicode="c" d="M1427 255 l68 -61 q-234 -213 -551 -213 q-340 0 -579.5 239.5 q-239.5 239.5 -239.5 579.5 q0 339 239.5 579 q239.5 240 579.5 240 q317 0 551 -213 l-68 -62 q-206 183 -483 183 q-301 0 -514 -213 q-213 -213 -213 -514 q0 -302 213 -515 q213 -213 514 -213 q277 0 483 183 Z" /><glyph glyph-name="D" unicode="d" d="M240 1506 l0 -1413 l7 0 q356 0 547 192 q213 213 213 515 q0 301 -213 515 q-191 191 -547 191 l-7 0 ZM240 1598 l7 0 q395 0 612 -218 q240 -241 240 -580 q0 -340 -240 -580 q-217 -218 -612 -218 l-7 0 l0 -2 l-90 0 l0 1600 l90 0 l0 -2 Z" /><glyph glyph-name="E" unicode="e" d="M950 1600 l0 -90 l-710 0 l0 -665 l710 0 l0 -90 l-710 0 l0 -665 l710 0 l0 -90 l-800 0 l0 1600 l800 0 Z" /><glyph glyph-name="F" unicode="f" d="M850 1600 l0 -90 l-610 0 l0 -665 l610 0 l0 -90 l-610 0 l0 -755 l-90 0 l0 1600 l700 0 Z" /><glyph glyph-name="G" unicode="g" d="M1489 199 q-228 -218 -545 -218 q-340 0 -579.5 239.5 q-239.5 239.5 -239.5 579.5 q0 339 239.5 579 q239.5 240 579.5 240 q317 0 551 -213 l-68 -62 q-206 183 -483 183 q-301 0 -514 -213 q-213 -213 -213 -514 q0 -302 213 -515 q213 -213 514 -213 q258 0 455 159 l0 488 l90 0 l0 -520 Z" /><glyph glyph-name="H" unicode="h" d="M240 717 l0 -717 l-90 0 l0 1600 l90 0 l0 -793 l670 0 l0 793 l90 0 l0 -1600 l-90 0 l0 717 l-670 0 Z" /><glyph glyph-name="I" unicode="i" d="M260 1600 l0 -1600 l-90 0 l0 1600 l90 0 Z" /><glyph glyph-name="J" unicode="j" d="M702 304 q0 -152 -80 -232 q-85 -86 -206 -86 q-121 0 -206 85.5 q-85 85.5 -85 187.5 l59 23 q20 -108 85 -162 q54 -46 122 -46 q12 0 25 2 q83 0 143 59 q53 53 53 179 l0 1286 l90 0 l0 -1296 Z" /><glyph glyph-name="K" unicode="k" d="M240 775 l0 -775 l-90 0 l0 1600 l90 0 l0 -681 l511 681 l116 0 l-480 -644 l620 -956 l-111 0 l-568 884 l-88 -109 Z" /><glyph glyph-name="L" unicode="l" d="M150 0 l0 1600 l90 0 l0 -1510 l620 0 l0 -90 l-710 0 Z" /><glyph glyph-name="M" unicode="m" d="M253 1600 l601 -1040 l600 1040 l103 0 l-4 -7 l0 -1593 l-90 0 l0 1437 l-609 -1054 l-610 1054 l0 -1437 l-90 0 l0 1593 l-4 7 l103 0 Z" /><glyph glyph-name="N" unicode="n" d="M150 1600 l99 0 l822 -1423 l0 1423 l90 0 l0 -1600 l-90 0 l-831 1437 l0 -1437 l-90 0 l0 1600 Z" /><glyph glyph-name="O" unicode="o" d="M946 1623 q340 0 580.5 -240.5 q240.5 -240.5 240.5 -580.5 q0 -340 -240.5 -580.5 q-240.5 -240.5 -580.5 -240.5 q-340 0 -580.5 240.5 q-240.5 240.5 -240.5 580.5 q0 340 240.5 580.5 q240.5 240.5 580.5 240.5 ZM946 1531 q-302 0 -515.5 -213.5 q-213.5 -213.5 -213.5 -515.5 q0 -302 213.5 -516 q213.5 -214 515.5 -214 q302 0 515.5 214 q213.5 214 213.5 516 q0 302 -213.5 515.5 q-213.5 213.5 -515.5 213.5 Z" /><glyph glyph-name="P" unicode="p" d="M240 555 l0 -555 l-90 0 l0 1600 l420 0 q183 -25 311 -153 q153 -153 153 -369 q0 -217 -153 -370 q-153 -153 -369 -153 l-272 0 ZM240 1509 l0 -863 l272 0 q178 0 304.5 126.5 q126.5 126.5 126.5 305.5 q0 179 -126.5 305 q-126.5 126 -304.5 126 l-272 0 Z" /><glyph glyph-name="Q" unicode="q" d="M946 1531 q-302 0 -515.5 -213.5 q-213.5 -213.5 -213.5 -515.5 q0 -302 213.5 -516 q213.5 -214 515.5 -214 q302 0 515.5 214 q213.5 214 213.5 516 q0 302 -213.5 515.5 q-213.5 213.5 -515.5 213.5 ZM937 -19 q-334 3 -571 241 q-241 240 -241 580 q0 340 240.5 580.5 q240.5 240.5 580.5 240.5 q340 0 580.5 -240.5 q240.5 -240.5 240.5 -580.5 q0 -340 -240 -580 q-174 -174 -399 -222 q5 -2 10 -3 q73 -20 197 -98 q84 -45 118 -55 q21 -6 41 -6 q36 0 70 19 q53 30 69 88 q5 16 6 32 l91 0 q-2 -27 -10 -55 q-27 -94 -112 -142 q-54 -31 -112 -31 q-33 0 -67 10 q-60 16 -170 86 q-102 54 -145 66 q-29 8 -57 8 q-50 0 -96 -26 q-74 -42 -96 -123 q-4 -12 -5 -24 l-91 0 q2 24 9 49 q33 116 139 176 q10 5 20 10 Z" /><glyph glyph-name="R" unicode="r" d="M240 1509 l0 -863 l272 0 q178 0 304.5 126.5 q126.5 126.5 126.5 305.5 q0 179 -126.5 305 q-126.5 126 -304.5 126 l-272 0 ZM539 556 q-13 -1 -27 -1 l-272 0 l0 -555 l-90 0 l0 1600 l420 0 q183 -25 311 -153 q153 -153 153 -369 q0 -217 -153 -370 q-106 -106 -243 -139 l369 -569 l-111 0 l-357 556 Z" /><glyph glyph-name="S" unicode="s" d="M548 886 q-171 57 -270 156 q-99 99 -99 240 q0 138 99 237.5 q99 99.5 240 99.5 q140 0 240 -99 q55 -53 76 -119 l-81 -32 q-18 49 -59 90 q-73 72 -176 72 q-103 0 -176 -72.5 q-73 -72.5 -73 -176.5 q0 -103 73 -176 q68 -67 188 -123 q192 -62 323 -193 q139 -138 139 -334 q0 -197 -139 -336 q-139 -139 -335 -139 q-196 0 -335 140 q-111 111 -133 258 l85 31 q14 -130 111 -227 q113 -113 272 -113 q160 0 273 113 q113 113 113 273 q0 159 -113 272 q-99 99 -243 158 Z" /><glyph glyph-name="T" unicode="t" d="M545 1510 l0 -1510 l-90 0 l0 1510 l-405 0 l0 90 l900 0 l0 -90 l-405 0 Z" /><glyph glyph-name="U" unicode="u" d="M1104 1600 l91 0 l0 -1150 q-25 -183 -153 -311 q-153 -153 -369 -153 q-217 0 -370 153 q-153 153 -153 369 l0 1092 l91 0 l0 -1092 q0 -178 126.5 -304.5 q126.5 -126.5 305.5 -126.5 q179 0 305 126.5 q126 126.5 126 304.5 l0 1092 Z" /><glyph glyph-name="V" unicode="v" d="M145 1600 l500 -1374 l500 1374 l96 0 l-596 -1637 l-595 1637 l95 0 Z" /><glyph glyph-name="W" unicode="w" d="M791 240 l0 1360 l90 0 l0 -1360 q23 -43 57 -77 q90 -87 214 -87 q124 0 214.5 88.5 q90.5 88.5 90.5 213.5 l0 1222 l90 0 l0 -1230 q-3 -156 -115 -268 q-116 -116 -280 -116 q-163 0 -279 115 q-21 20 -37 41 q-16 -21 -37 -41 q-116 -115 -279 -115 q-164 0 -279 116 q-113 112 -116 268 l0 1230 l90 0 l0 -1222 q0 -125 90.5 -213.5 q90.5 -88.5 214.5 -88.5 q124 0 214 87 q34 34 57 77 Z" /><glyph glyph-name="X" unicode="x" d="M50 0 l507 879 l-416 721 l103 0 l364 -632 l366 632 l103 0 l-418 -721 l509 -879 l-103 0 l-457 790 l-456 -790 l-102 0 Z" /><glyph glyph-name="Y" unicode="y" d="M600 647 l-550 953 l103 0 l492 -853 l493 853 l103 0 l-551 -953 l0 -647 l-90 0 l0 647 Z" /><glyph glyph-name="Z" unicode="z" d="M1022 1510 l-872 0 l0 90 l1027 0 l-873 -1510 l873 0 l0 -90 l-1027 0 l872 1510 Z" /><glyph glyph-name="bracketleft" unicode="[" d="M215 -285 l220 0 l0 -90 l-310 0 l0 1975 l310 0 l0 -90 l-220 0 l0 -1795 Z" /><glyph glyph-name="backslash" unicode="\" d="M777 0 l-102 0 l-725 1600 l103 0 l724 -1600 Z" /><glyph glyph-name="bracketright" unicode="]" d="M345 1510 l-220 0 l0 90 l310 0 l0 -1975 l-310 0 l0 90 l220 0 l0 1795 Z" /><glyph glyph-name="asciicircum" unicode="^" d="M513 1600 l308 -534 l-104 0 l-256 443 l-256 -443 l-105 0 l309 534 l104 0 Z" /><glyph glyph-name="underscore" unicode="_" d="M25 -30 l1000 0 l0 -90 l-1000 0 l0 90 Z" /><glyph glyph-name="grave" unicode="`" d="M316 1387 l163 -187 l-84 0 l-245 187 l166 0 Z" /><glyph glyph-name="a" unicode="a" d="M1210 0 l-90 0 l0 200 q-26 -35 -57 -67 q-161 -161 -389 -161 q-227 0 -388 161 q-161 161 -161 388 q0 228 161 389 q161 161 388 161 q228 0 389 -161 q31 -32 57 -67 l0 139 l90 0 l0 -982 ZM1120 432 l0 178 q-25 132 -125 232 q-133 133 -321 133 q-188 0 -321 -133 q-133 -133 -133 -321 q0 -188 133 -320.5 q133 -132.5 321 -132.5 q188 0 321 133 q100 100 125 231 Z" /><glyph glyph-name="b" unicode="b" d="M150 1600 l90 0 l0 -756 q25 34 57 66 q161 161 388 161 q228 0 388.5 -161 q160.5 -161 160.5 -389 q0 -227 -160.5 -388 q-160.5 -161 -388.5 -161 q-227 0 -388 161 q-32 32 -57 66 l0 -199 l-90 0 l0 1600 ZM240 615 l0 -188 q26 -128 124 -226 q133 -133 321 -133 q188 0 321 132.5 q133 132.5 133 320.5 q0 188 -133 321 q-133 133 -321 133 q-188 0 -321 -133 q-98 -98 -124 -227 Z" /><glyph glyph-name="c" unicode="c" d="M992 236 l95 -34 q-26 -36 -59 -69 q-161 -161 -389 -161 q-227 0 -388 161 q-161 161 -161 389 q0 227 161 388 q161 161 388 161 q228 0 389 -161 q33 -33 59 -68 l-95 -35 q-15 18 -32 36 q-133 132 -321 132 q-187 0 -320 -132.5 q-133 -132.5 -133 -320.5 q0 -188 133 -321 q133 -133 320 -133 q188 0 321 133 q17 17 32 35 Z" /><glyph glyph-name="d" unicode="d" d="M1210 0 l-90 0 l0 200 q-26 -35 -57 -67 q-161 -161 -389 -161 q-227 0 -388 161 q-161 161 -161 388 q0 228 161 389 q161 161 388 161 q228 0 389 -161 q31 -32 57 -67 l0 757 l90 0 l0 -1600 ZM1120 432 l0 178 q-25 132 -125 232 q-133 133 -321 133 q-188 0 -321 -133 q-133 -133 -133 -321 q0 -188 133 -320.5 q133 -132.5 321 -132.5 q188 0 321 133 q100 100 125 231 Z" /><glyph glyph-name="e" unicode="e" d="M337 184 q127 -116 302 -116 q188 0 321 133 q17 17 32 35 l95 -34 q-26 -36 -59 -69 q-161 -161 -389 -161 q-227 0 -388 161 q-161 161 -161 389 q0 227 161 388 q161 161 388 161 q195 0 341 -117 q24 -20 48 -44 q9 -9 17 -18 l-68 -68 l-640 -640 ZM911 885 q-117 90 -272 90 q-187 0 -320 -132.5 q-133 -132.5 -133 -320.5 q0 -155 90 -272 l635 635 Z" /><glyph glyph-name="f" unicode="f" d="M280 892 l0 -892 l-90 0 l0 892 l-100 0 l0 90 l100 0 l0 266 q6 111 85 191 q82 76 189 76 q56 0 118 -21 l-28 -80 q-42 18 -81 18 q-71 0 -134 -57 q-56 -55 -59 -133 l0 -260 l200 0 l0 -90 l-200 0 Z" /><glyph glyph-name="g" unicode="g" d="M1119 615 q-26 129 -124 227 q-133 133 -321 133 q-188 0 -321 -133 q-133 -133 -133 -321 q0 -188 133 -321 q133 -133 321 -133 q188 0 321 133 q97 97 124 225 l0 190 ZM1117 195 q-25 -32 -54 -62 q-161 -161 -389 -161 q-227 0 -388 161 q-161 161 -161 388 q0 228 161 388.5 q161 160.5 388 160.5 q228 0 389 -160 q31 -32 57 -67 l0 139 l90 0 l0 -763 q0 -221 -157 -378 q-161 -161 -388 -161 q-228 0 -389 161 q-33 33 -59 69 l95 34 q15 -18 32 -35 q133 -133 321 -133 q187 0 320 133 q121 121 132 286 Z" /><glyph glyph-name="h" unicode="h" d="M150 1600 l90 0 l0 -669 q114 110 274 110 q174 0 283 -109 q109 -109 112 -275 l0 -657 l-90 0 l0 649 q0 125 -90.5 213.5 q-90.5 88.5 -214.5 88.5 q-124 0 -214 -87 q-40 -40 -60 -83 l0 -781 l-90 0 l0 1600 Z" /><glyph glyph-name="i" unicode="i" d="M260 982 l0 -982 l-90 0 l0 982 l90 0 ZM215 1330 q37 0 63.5 -26 q26.5 -26 26.5 -63 q0 -38 -26.5 -64 q-26.5 -26 -63.5 -26 q-37 0 -63.5 26 q-26.5 26 -26.5 64 q0 37 26.5 63 q26.5 26 63.5 26 Z" /><glyph glyph-name="j" unicode="j" d="M49 -138 q121 14 121 136 l0 984 l90 0 l0 -982 q0 -211 -211 -228 l0 90 ZM215 1330 q37 0 63.5 -26 q26.5 -26 26.5 -63 q0 -38 -26.5 -64 q-26.5 -26 -63.5 -26 q-37 0 -63.5 26 q-26.5 26 -26.5 64 q0 37 26.5 63 q26.5 26 63.5 26 Z" /><glyph glyph-name="k" unicode="k" d="M629 982 l-242 -300 l386 -682 l-112 0 l-333 610 l-88 -109 l0 -501 l-90 0 l0 1400 l90 0 l0 -755 l273 337 l116 0 Z" /><glyph glyph-name="l" unicode="l" d="M240 1600 l0 -1600 l-90 0 l0 1600 l90 0 Z" /><glyph glyph-name="m" unicode="m" d="M150 982 l90 0 l0 -23 q84 81 201 81 q121 0 206 -85 q23 -23 40 -50 q17 26 41 50 q85 85 206 85 q121 0 206 -85 q81 -82 85 -197 l0 -758 l-90 0 l0 758 l1 0 q-4 78 -59 133 q-60 59 -143 59 q-83 0 -142.5 -59 q-59.5 -59 -59.5 -147 l0 -744 l-90 0 l0 758 l1 0 q-4 78 -59 133 q-60 59 -143 59 q-83 0 -142 -59 q-52 -51 -59 -125 l0 -766 l-90 0 l0 982 Z" /><glyph glyph-name="n" unicode="n" d="M240 763 l0 -763 l-90 0 l0 982 l90 0 l0 -63 q123 122 286 122 q174 0 283 -109 q109 -109 112 -275 l0 -657 l-90 0 l0 649 q0 125 -90.5 213.5 q-90.5 88.5 -214.5 88.5 q-124 0 -214 -87 q-49 -49 -72 -101 Z" /><glyph glyph-name="o" unicode="o" d="M639 1071 q228 0 388.5 -161 q160.5 -161 160.5 -389 q0 -227 -160.5 -388 q-160.5 -161 -388.5 -161 q-227 0 -388 161 q-161 161 -161 388 q0 228 161 389 q161 161 388 161 ZM639 975 q-188 0 -321 -133 q-133 -133 -133 -321 q0 -188 133 -320.5 q133 -132.5 321 -132.5 q188 0 321 132.5 q133 132.5 133 320.5 q0 188 -133 321 q-133 133 -321 133 Z" /><glyph glyph-name="p" unicode="p" d="M150 982 l90 0 l0 -138 q25 34 57 66 q161 160 388 160 q228 0 388.5 -160.5 q160.5 -160.5 160.5 -388.5 q0 -227 -160.5 -388 q-160.5 -161 -388.5 -161 q-227 0 -388 161 q-32 32 -57 66 l0 -574 l-90 0 l0 1357 ZM240 615 l0 -188 q26 -129 124 -227 q133 -133 321 -133 q188 0 321 133 q133 133 133 321 q0 188 -133 321 q-133 133 -321 133 q-188 0 -321 -133 q-98 -98 -124 -227 Z" /><glyph glyph-name="q" unicode="q" d="M1185 -375 l-90 0 l0 575 q-26 -35 -57 -67 q-161 -161 -389 -161 q-227 0 -388 161 q-161 161 -161 388 q0 228 161 388.5 q161 160.5 388 160.5 q228 0 389 -160 q31 -32 57 -67 l0 139 l90 0 l0 -1357 ZM1095 432 l0 178 q-25 132 -125 232 q-133 133 -321 133 q-188 0 -321 -133 q-133 -133 -133 -321 q0 -188 133 -321 q133 -133 321 -133 q188 0 321 133 q100 100 125 232 Z" /><glyph glyph-name="r" unicode="r" d="M150 982 l90 0 l0 -179 q28 40 65 77 q119 119 244 125 l0 -98 q-85 -4 -176 -95 q-128 -127 -133 -305 l0 -507 l-90 0 l0 982 Z" /><glyph glyph-name="s" unicode="s" d="M420 505 q-115 62 -159 106 q-69 69 -69 166 q0 98 69 167.5 q69 69.5 166 69.5 q98 0 162 -64 q62 -63 62 -143 l0 -5 l-78 -31 q-10 76 -47.5 114 q-37.5 38 -98.5 38 q-60 0 -103 -42.5 q-43 -42.5 -43 -103.5 q0 -60 43 -103 q25 -25 106 -76 q128 -70 182 -124 q85 -86 85 -205 q0 -122 -85 -207.5 q-85 -85.5 -206 -85.5 q-121 0 -206 85.5 q-85 85.5 -85 187.5 l89 23 q0 -88 59.5 -147 q59.5 -59 142.5 -59 q83 0 142.5 59 q59.5 59 59.5 144 q0 83 -59 142 q-32 32 -129 94 Z" /><glyph glyph-name="t" unicode="t" d="M290 982 l0 418 l90 0 l0 -418 l200 0 l0 -90 l-200 0 l0 -892 l-90 0 l0 892 l-200 0 l0 90 l200 0 Z" /><glyph glyph-name="u" unicode="u" d="M555 -14 q-184 0 -293 109 q-109 109 -112 275 l0 612 l90 0 l0 -604 q0 -125 91 -213 q90 -89 223 -89 q124 0 214.5 88.5 q90.5 88.5 90.5 213.5 l0 604 l90 0 l0 -612 q-3 -166 -112 -275 q-109 -109 -282 -109 Z" /><glyph glyph-name="v" unicode="v" d="M532 164 l378 818 l104 0 l-482 -1009 l-482 1009 l104 0 l378 -818 Z" /><glyph glyph-name="w" unicode="w" d="M642 260 l0 722 l90 0 l0 -700 q0 -88 59.5 -147 q59.5 -59 142.5 -59 q83 0 143 59 q55 55 59 133 l-1 0 l0 714 l90 0 l0 -714 q-4 -115 -85 -196 q-85 -86 -206 -86 q-121 0 -206 86 q-23 23 -40 48 q-17 -25 -41 -48 q-85 -86 -206 -86 q-121 0 -206 86 q-81 81 -85 196 l0 714 l90 0 l0 -714 l-1 0 q4 -78 60 -133 q59 -59 142 -59 q83 0 143 59 q51 51 58 125 Z" /><glyph glyph-name="x" unicode="x" d="M741 982 l-253 -438 l-3 -5 l3 -5 l308 -534 l-104 0 l-256 443 l-256 -443 l-105 0 l309 534 l3 5 l-3 5 l-253 438 l104 0 l201 -347 l200 347 l105 0 Z" /><glyph glyph-name="y" unicode="y" d="M503 88 l-222 -463 l-88 0 l265 556 l-383 801 l102 0 l326 -704 l326 704 l101 0 l-427 -895 l0 1 Z" /><glyph glyph-name="z" unicode="z" d="M657 892 l-507 0 l0 90 l662 0 l-508 -892 l546 0 l0 -90 l-700 0 l507 892 Z" /><glyph glyph-name="braceleft" unicode="{" d="M125 653 q9 -3 20 -3 q46 0 123 44 q115 66 151 195 q19 72 19 152 q0 44 -6 90 q-14 72 -14 135 q0 67 16 126 q30 112 133 170 q65 38 136 38 q19 0 38 -3 l0 -75 q-18 3 -36 3 q-52 0 -101 -27 q-75 -43 -97 -126 q-15 -55 -15 -125 q0 -30 3 -64 q16 -76 16 -149 q0 -85 -21 -165 q-44 -158 -185 -239 q-17 -9 -35 -17 q18 -9 35 -18 q141 -81 185 -239 q21 -80 21 -165 q0 -73 -16 -149 q-3 -34 -3 -64 q0 -70 15 -125 q22 -83 97 -125 q51 -28 104 -28 q16 0 33 2 l0 -74 q-19 -3 -38 -3 q-71 0 -136 38 q-103 58 -133 171 q-16 59 -16 126 q0 63 14 134 q6 46 6 90 q0 80 -19 152 q-36 129 -151 195 q-77 44 -123 44 q-11 0 -20 -3 l0 81 Z" /><glyph glyph-name="bar" unicode="|" d="M240 1600 l0 -1975 l-90 0 l0 1975 l90 0 Z" /><glyph glyph-name="braceright" unicode="}" d="M741 572 q-9 3 -20 3 q-46 0 -123 -44 q-115 -66 -151 -195 q-19 -72 -19 -152 q0 -44 6 -90 q14 -71 14 -134 q0 -67 -16 -126 q-30 -113 -133 -171 q-65 -38 -136 -38 q-19 0 -38 3 l0 74 q17 -2 33 -2 q53 0 104 28 q75 42 97 125 q15 55 15 125 q0 30 -3 64 q-16 76 -16 149 q0 85 21 165 q44 158 185 239 q17 9 35 18 q-18 8 -35 17 q-141 81 -185 239 q-21 80 -21 165 q0 73 16 149 q3 34 3 64 q0 70 -15 125 q-22 83 -97 126 q-49 27 -101 27 q-18 0 -36 -3 l0 75 q19 3 38 3 q71 0 136 -38 q103 -58 133 -170 q16 -59 16 -126 q0 -63 -14 -135 q-6 -46 -6 -90 q0 -80 19 -152 q36 -129 151 -195 q77 -44 123 -44 q11 0 20 3 l0 -81 Z" /><glyph glyph-name="asciitilde" unicode="~" d="M638 861 q188 -109 273 -109 q15 0 27 3 q77 23 108 100 q15 38 15 77 l91 -14 q-4 -48 -23 -97 q-46 -111 -156 -148 q-25 -8 -56 -8 q-105 0 -278 99 q-190 109 -274 109 q-14 0 -26 -3 q-77 -23 -108 -100 q-15 -39 -16 -77 l-90 14 q2 48 22 97 q46 111 157 148 q25 8 55 8 q106 0 279 -99 Z" /><glyph glyph-name="exclamdown" unicode="¡" d="M215 1439 q-37 0 -63.5 26 q-26.5 26 -26.5 63 q0 38 26.5 64 q26.5 26 63.5 26 q37 0 63.5 -26 q26.5 -26 26.5 -64 q0 -37 -26.5 -63 q-26.5 -26 -63.5 -26 ZM172 4 l0 1324 l90 0 l0 -1324 l-90 0 Z" /><glyph glyph-name="cent" unicode="¢" d="M551 705 q143 2 246 105 q13 13 28 31 l87 -32 q-26 -35 -52 -62 q-129 -129 -309 -131 l0 -154 l-90 0 l0 161 q-131 23 -231 124 q-131 130 -131 315 q0 184 131 315 q100 100 231 124 l0 161 l90 0 l0 -154 q180 -2 309 -131 q26 -27 52 -61 l-87 -33 q-15 18 -28 32 q-103 102 -246 104 l0 -714 ZM461 1410 q-95 -22 -168 -95 q-105 -105 -105 -253 q0 -148 105 -252 q73 -74 168 -96 l0 696 Z" /><glyph glyph-name="sterling" unicode="£" d="M448 555 q3 -21 5 -43 q2 -22 2 -44 q0 -204 -170 -405 q125 45 246 45 q72 0 143 -16 q99 -23 188 -23 q80 0 151 18 l17 -89 q-81 -20 -168 -20 q-89 0 -183 22 q-98 21 -173 21 q-68 0 -117 -17 q-104 -38 -202 -87 l-87 103 q124 110 156 149 q108 128 108 292 q0 22 -2 44 q-2 25 -6 50 l-228 0 l0 90 l209 0 q-26 95 -75 189 q-111 180 -125 343 q-2 19 -2 38 q0 139 92 249 q103 123 266 138 q19 1 38 1 q139 0 250 -92 q124 -105 139 -267 q3 -23 3 -44 q0 -63 -22 -114 l-86 29 q15 43 15 95 q0 14 -1 28 q-12 123 -107 203 q-84 70 -190 70 q-14 0 -28 -1 q-124 -11 -204 -106 q-70 -84 -70 -189 q0 -15 1 -30 q10 -113 78 -256 q86 -138 122 -284 l197 0 l0 -90 l-180 0 Z" /><glyph glyph-name="currency" unicode="¤" d="M303 1462 q108 89 253 89 q145 0 253 -89 l139 139 l64 -64 l-139 -139 q89 -108 89 -253 q0 -145 -89 -253 l139 -139 l-64 -64 l-139 139 q-108 -89 -253 -89 q-145 0 -253 89 l-139 -139 l-64 64 l139 139 q-89 108 -89 253 q0 145 89 253 l-139 139 l64 64 l139 -139 ZM745 1398 q-81 63 -189 63 q-108 0 -189 -63 q-18 -13 -34 -29 q-17 -17 -30 -35 q-63 -81 -63 -189 q0 -108 63 -189 q13 -18 30 -34 q16 -17 34 -30 q81 -63 189 -63 q108 0 189 63 q18 13 35 30 q16 16 29 34 q63 81 63 189 q0 108 -63 189 q-13 18 -29 35 q-17 16 -35 29 Z" /><glyph glyph-name="yen" unicode="¥" d="M650 755 l488 845 l103 0 l-489 -845 l294 0 l0 -90 l-346 0 l-10 -18 l0 -102 l356 0 l0 -90 l-356 0 l0 -455 l-90 0 l0 455 l-354 0 l0 90 l354 0 l0 102 l-10 18 l-344 0 l0 90 l292 0 l-488 845 l103 0 l487 -845 l10 0 Z" /><glyph glyph-name="brokenbar" unicode="¦" d="M240 1600 l0 -849 l-90 0 l0 849 l90 0 ZM240 474 l0 -849 l-90 0 l0 849 l90 0 Z" /><glyph glyph-name="section" unicode="§" d="M881 345 q11 14 26 29 q63 63 63 223 q0 159 -113 272 q-99 99 -243 158 q-171 57 -270 156 q-43 43 -67 94 q-11 -14 -26 -29 q-63 -63 -63 -223 q0 -159 113 -272 q99 -99 243 -158 q171 -57 270 -156 q43 -43 67 -94 ZM250 1362 q-5 29 -5 61 q0 138 99 237.5 q99 99.5 240 99.5 q140 0 240 -99 q55 -53 76 -119 l-81 -32 q-18 49 -59 90 q-73 72 -176 72 q-103 0 -176 -72.5 q-73 -72.5 -73 -176.5 q0 -103 73 -176 q68 -67 188 -123 q192 -62 323 -193 q139 -138 139 -334 q0 -197 -89 -286 q-36 -36 -61 -51 q5 -29 5 -61 q0 -138 -99 -237.5 q-99 -99.5 -240 -99.5 q-140 0 -240 99 q-55 53 -76 119 l81 32 q18 -49 59 -90 q73 -72 176 -72 q103 0 176 72.5 q73 72.5 73 176.5 q0 103 -73 176 q-68 67 -188 123 q-192 62 -323 193 q-139 138 -139 334 q0 197 89 286 q36 36 61 51 Z" /><glyph glyph-name="dieresis" unicode="¨" d="M215 1330 q37 0 63.5 -26 q26.5 -26 26.5 -63 q0 -38 -26.5 -64 q-26.5 -26 -63.5 -26 q-37 0 -63.5 26 q-26.5 26 -26.5 64 q0 37 26.5 63 q26.5 26 63.5 26 ZM515 1330 q37 0 63.5 -26 q26.5 -26 26.5 -63 q0 -38 -26.5 -64 q-26.5 -26 -63.5 -26 q-37 0 -63.5 26 q-26.5 26 -26.5 64 q0 37 26.5 63 q26.5 26 63.5 26 Z" /><glyph glyph-name="copyright" unicode="©" d="M917 442 l68 -25 q-20 -28 -40 -48 q-97 -97 -234 -97 q-137 0 -234 97 q-97 97 -97 234 q0 137 97 234 q97 97 234 97 q137 0 234 -97 q20 -20 40 -48 l-68 -25 q-11 14 -21 25 q-77 76 -185 76 q-108 0 -185 -76.5 q-77 -76.5 -77 -185.5 q0 -108 77 -185 q77 -77 185 -77 q108 0 185 77 q10 10 21 24 ZM700 1204 q248 0 424 -176 q176 -176 176 -425 q0 -249 -176 -425 q-176 -176 -424 -176 q-249 0 -425 176 q-176 176 -176 425 q0 249 176 425 q176 176 425 176 ZM700 1133 q-220 0 -375 -155 q-155 -155 -155 -375 q0 -219 155 -374.5 q155 -155.5 375 -155.5 q219 0 374 155.5 q155 155.5 155 374.5 q0 220 -155 375 q-155 155 -374 155 Z" /><glyph glyph-name="ordfeminine" unicode="ª" d="M131 944 l575 0 l0 -31 l-606 0 l0 628 l31 0 l0 -597 ZM778 1071 l-55 0 l0 85 q-2 -3 -17 -19 q-80 -79 -192 -79 q-113 0 -192 79.5 q-79 79.5 -79 191.5 q0 112 79 191.5 q79 79.5 192 79.5 q112 0 192 -79 q15 -16 17 -19 l0 55 l55 0 l0 -486 ZM723 1286 l0 85 q-11 62 -59 109 q-62 62 -150 62 q-89 0 -151.5 -62.5 q-62.5 -62.5 -62.5 -150.5 q0 -89 62.5 -151 q62.5 -62 151.5 -62 q88 0 150 62 q48 47 59 108 Z" /><glyph glyph-name="guillemotleft" unicode="«" d="M444 462 l436 460 l0 -104 l-331 -356 l331 -356 l0 -105 l-436 461 ZM100 462 l429 460 l0 -104 l-331 -356 l331 -356 l0 -105 l-429 461 Z" /><glyph glyph-name="registered" unicode="®" d="M467 1371 l0 -378 l116 0 q78 0 133.5 55.5 q55.5 55.5 55.5 133.5 q0 78 -55.5 133.5 q-55.5 55.5 -133.5 55.5 l-116 0 ZM730 721 l-138 215 l-125 0 l0 -155 l-55 0 l0 644 l198 0 q86 -12 146 -72 q71 -71 71 -172 q0 -102 -71 -174 q-50 -49 -104 -62 l130 -200 q53 30 98 74 q124 125 124 300 q0 176 -124 300 q-124 124 -299 124 q-176 0 -300 -124 q-124 -124 -124 -300 q0 -175 124 -300 q59 -58 129 -89 q28 -13 58 -21 q53 -14 113 -14 q78 0 149 26 ZM782.5 684 q-88.5 -46 -201.5 -46 q-200 0 -340.5 141 q-140.5 141 -140.5 340 q0 199 140.5 340 q140.5 141 340.5 141 q198 0 339 -141 q141 -141 141 -340 q0 -199 -141 -340 q-49 -49 -137.5 -95 Z" /><glyph glyph-name="macron" unicode="¯" d="M125 1427 l590 0 l0 -90 l-590 0 l0 90 Z" /><glyph glyph-name="degree" unicode="°" d="M381 1600 q96 0 163.5 -67.5 q67.5 -67.5 67.5 -163.5 q0 -96 -67.5 -163.5 q-67.5 -67.5 -163.5 -67.5 q-96 0 -163.5 67.5 q-67.5 67.5 -67.5 163.5 q0 96 67.5 163.5 q67.5 67.5 163.5 67.5 ZM381 1529 q-66 0 -113 -47 q-47 -47 -47 -113 q0 -66 47 -113 q47 -47 113 -47 q66 0 113 47 q47 47 47 113 q0 66 -47 113 q-47 47 -113 47 Z" /><glyph glyph-name="plusminus" unicode="±" d="M480 547 l-355 0 l0 90 l355 0 l0 355 l90 0 l0 -355 l355 0 l0 -90 l-355 0 l0 -355 l-90 0 l0 355 ZM125 90 l800 0 l0 -90 l-800 0 l0 90 Z" /><glyph glyph-name="uni00B2" unicode="²" d="M128 629 q32 200 141.5 275.5 q109.5 75.5 191.5 132 q82 56.5 151 126.5 q69 70 69 162 q0 93 -69 156.5 q-69 63.5 -164 63.5 q-94 0 -162 -63 q-60 -55 -71 -148 l-90 31 q16 98 91 168 q96 89 232 89 q137 0 231.5 -87.5 q94.5 -87.5 94.5 -209.5 q0 -120 -91 -211 q-62 -62 -145 -119 q-83 -57 -189 -130 q-97 -68 -119 -162 l544 0 l0 -74 l-646 0 Z" /><glyph glyph-name="uni00B3" unicode="³" d="M412 1165 l-63 1 l0 74 q73 0 108 12.5 q35 12.5 77.5 54.5 q42.5 42 42.5 101 q0 59 -42.5 98.5 q-42.5 39.5 -101.5 39.5 q-58 0 -100 -38 q-24 -23 -41 -65 l-84 30 q17 51 55 84 q71 65 170 65 q101 0 169.5 -64 q68.5 -64 68.5 -150 q0 -88 -51.5 -139 q-51.5 -51 -72.5 -59 q71 -22 136 -86 q91 -91 91 -212 q0 -121 -94.5 -208.5 q-94.5 -87.5 -231.5 -87.5 q-136 0 -232 89 q-75 69 -91 168 l90 30 q11 -93 71 -148 q68 -62 162 -62 q95 0 164 63.5 q69 63.5 69 155.5 q0 93 -67.5 161 q-67.5 68 -201.5 92 Z" /><glyph glyph-name="acute" unicode="´" d="M479 1387 l-245 -187 l-84 0 l163 187 l166 0 Z" /><glyph glyph-name="mu" unicode="µ" d="M808 111 q-5 -5 -11 -11 q-109 -109 -283 -109 q-160 0 -274 110 l0 -476 l-90 0 l0 1357 l90 0 l0 -731 q20 -43 60 -83 q90 -87 214 -87 q124 0 215 89 q58 57 79 130 l0 682 l88 0 l0 -982 l-88 0 l0 111 Z" /><glyph glyph-name="paragraph" unicode="¶" d="M815 1602 l0 -1977 l-90 0 l0 1021 l-152 0 q-216 0 -369 153 q-153 153 -153 370 q0 216 153 369 q128 128 311 153 l80 0 l0 1 l491 0 l0 -90 l-88 0 l0 -1977 l-90 0 l0 1977 l-93 0 Z" /><glyph glyph-name="periodcentered" unicode="·&#x2219;" d="M202 876 q31 0 53.5 -22 q22.5 -22 22.5 -54 q0 -32 -22.5 -54 q-22.5 -22 -53.5 -22 q-32 0 -54.5 22 q-22.5 22 -22.5 54 q0 32 22.5 54 q22.5 22 54.5 22 Z" /><glyph glyph-name="cedilla" unicode="¸" d="M156 0 l-3 -29 l-1 -6 l1 0 l-3 -40 q14 -7 28 -15 q60 -39 68 -94 q1 -7 1 -14 q0 -45 -43 -78 q-51 -39 -130 -39 q-34 0 -64 7 l11 55 q21 -7 46 -7 q45 0 74 23 q25 19 25 46 l0 7 q-5 32 -40 55 q-35 21 -77 22 l43 107 l64 0 Z" /><glyph glyph-name="uni00B9" unicode="¹" d="M530 1600 l0 -980 l-90 0 l0 865 l-72 0 l97 115 l65 0 Z" /><glyph glyph-name="ordmasculine" unicode="º" d="M529 1116 q108 5 166 62 q62 62 62 151 q0 88 -62 151 q-58 57 -166 62 q-109 -5 -166 -62 q-63 -63 -63 -151 q0 -89 63 -151 q57 -57 166 -62 ZM514 1058 q-113 0 -192 79.5 q-79 79.5 -79 191.5 q0 112 79 191.5 q79 79.5 192 79.5 l29 0 q113 0 192 -79.5 q79 -79.5 79 -191.5 q0 -112 -79 -191.5 q-79 -79.5 -192 -79.5 l-29 0 ZM131 944 l575 0 l0 -31 l-606 0 l0 628 l31 0 l0 -597 Z" /><glyph glyph-name="guillemotright" unicode="»" d="M100 1 l0 105 l331 356 l-331 356 l0 104 l436 -460 l-436 -461 ZM451 1 l0 105 l331 356 l-331 356 l0 104 l429 -460 l-429 -461 Z" /><glyph glyph-name="questiondown" unicode="¿" d="M389 786 q117 103 177 229 q40 82 40 166 q0 64 -23 129 l83 29 q28 -80 28 -158 q0 -104 -49 -204 q-80 -167 -241 -289 q-95 -92 -136 -178 q-26 -53 -26 -108 q0 -41 14 -82 q35 -98 128 -143 q53 -25 107 -25 q41 0 83 15 q97 34 142 126 q25 52 25 105 l88 -4 l0 -8 q0 -65 -32 -129 q-62 -127 -194 -173 q-58 -20 -114 -20 q-74 0 -146 34 q-126 61 -172 192 q-20 57 -20 113 q0 74 35 146 q61 127 203 237 ZM630 1439 q-37 0 -63.5 26 q-26.5 26 -26.5 63 q0 38 26.5 64 q26.5 26 63.5 26 q37 0 63.5 -26 q26.5 -26 26.5 -64 q0 -37 -26.5 -63 q-26.5 -26 -63.5 -26 Z" /><glyph glyph-name="AE" unicode="æ" d="M1551 1600 l0 -90 l-710 0 l0 -665 l710 0 l0 -90 l-710 0 l0 -665 l710 0 l0 -90 l-800 0 l0 613 l-322 0 l-263 -613 l-126 0 l711 1597 l0 3 l800 0 ZM751 1373 l-289 -670 l289 0 l0 670 Z" /><glyph glyph-name="Ccedilla" unicode="ç" d="M773 -3 q-232 47 -408 224 q-240 239 -240 579 q0 339 239.5 579 q239.5 240 579.5 240 q317 0 551 -213 l-68 -62 q-206 183 -483 183 q-301 0 -514 -213 q-213 -213 -213 -514 q0 -302 213 -515 q213 -213 514 -213 q277 0 483 183 l68 -61 q-234 -213 -551 -213 q-55 0 -107 6 l-2 -16 l-1 -6 l1 0 l-3 -40 q14 -7 28 -15 q60 -39 68 -94 q1 -7 1 -14 q0 -45 -43 -78 q-51 -39 -130 -39 q-34 0 -64 7 l11 55 q21 -7 46 -7 q45 0 74 23 q25 19 25 46 l0 7 q-5 32 -40 55 q-35 21 -77 22 l42 104 Z" /><glyph glyph-name="Eth" unicode="ð" d="M210 845 l0 755 l90 0 l0 -2 l7 0 q395 0 612 -218 q240 -241 240 -580 q0 -340 -240 -580 q-217 -218 -612 -218 l-7 0 l0 -2 l-90 0 l0 755 l-160 0 l0 90 l160 0 ZM300 845 l370 0 l0 -90 l-370 0 l0 -662 l7 0 q356 0 547 192 q213 213 213 515 q0 301 -213 515 q-191 191 -547 191 l-7 0 l0 -661 Z" /><glyph glyph-name="multiply" unicode="×" d="M525 528 l-251 -251 l-64 64 l251 251 l-251 251 l64 64 l251 -251 l251 251 l63 -64 l-251 -251 l251 -251 l-63 -64 l-251 251 Z" /><glyph glyph-name="Oslash" unicode="ø" d="M1213 1483 q-123 48 -267 48 q-302 0 -515.5 -213.5 q-213.5 -213.5 -213.5 -515.5 q0 -302 214 -516 q77 -77 166 -127 l616 1324 ZM678 121 q124 -49 268 -49 q302 0 515.5 214 q213.5 214 213.5 516 q0 302 -213 516 q-78 77 -167 126 l-617 -1323 ZM1334 1528 q103 -56 193 -145 q240 -241 240 -581 q0 -340 -240.5 -580.5 q-240.5 -240.5 -580.5 -240.5 q-165 0 -306 57 l-86 -184 l-82 38 l86 184 q-103 56 -192 146 q-241 240 -241 580 q0 340 240.5 580.5 q240.5 240.5 580.5 240.5 q165 0 306 -57 l86 184 l82 -38 l-86 -184 Z" /><glyph glyph-name="Thorn" unicode="þ" d="M240 1323 l330 0 q183 -25 311 -153 q153 -153 153 -369 q0 -217 -153 -370 q-153 -153 -369 -153 l-272 0 l0 -278 l-90 0 l0 1600 l90 0 l0 -277 ZM240 369 l272 0 q178 0 304.5 126.5 q126.5 126.5 126.5 305.5 q0 179 -126.5 305 q-126.5 126 -304.5 126 l-272 0 l0 -863 Z" /><glyph glyph-name="germandbls" unicode="ß" d="M431 1608 l16 0 q121 0 206 -70 q91 -75 99 -227 l0 -17 q0 -140 -129 -222 q358 -143 371 -521 q0 -227 -160 -393 q-149 -154 -356 -157 l0 -1 l-167 0 l0 90 l167 0 l0 -1 q167 11 288 137 q133 137 133 325 q0 188 -133 321 q-133 133 -355 133 l0 96 q139 7 196 59.5 q57 52.5 57 141.5 q0 88 -56 152 q-53 60 -151 60 l-11 0 q-106 -4 -158 -65.5 q-52 -61.5 -58 -182.5 l0 -1266 l-90 0 l0 1281 q10 162 85 242 q75 80 206 85 Z" /><glyph glyph-name="ae" unicode="æ" d="M1038 739 q-30 55 -78 103 q-133 133 -321 133 q-188 0 -321 -133 q-133 -133 -133 -321 q0 -188 133 -320.5 q133 -132.5 321 -132.5 q188 0 321 133 q48 48 78 102 q34 60 47 129 l0 178 q-13 69 -47 129 ZM1973 663 q-32 103 -108 179 q-133 133 -321 133 q-188 0 -321 -133 q-27 -27 -48 -55 l0 -124 l798 0 ZM1175 256 q21 -29 48 -55 q133 -133 321 -133 q188 0 321 133 q23 23 43 48 l96 -34 q-17 -28 -71 -82 q-161 -161 -389 -161 q-214 0 -369 143 l0 -115 l-90 0 l0 200 q-26 -35 -57 -67 q-161 -161 -389 -161 q-227 0 -388 161 q-161 161 -161 388 q0 228 161 389 q161 161 388 161 q228 0 389 -161 q31 -32 57 -67 l0 139 l90 0 l0 -54 q155 143 369 143 q228 0 389 -161 q142 -143 148 -338 l-906 1 l0 -317 Z" /><glyph glyph-name="ccedilla" unicode="ç" d="M544 -20 q-167 27 -293 153 q-161 161 -161 389 q0 227 161 388 q161 161 388 161 q228 0 389 -161 q33 -33 59 -68 l-95 -35 q-15 18 -32 36 q-133 132 -321 132 q-187 0 -320 -132.5 q-133 -132.5 -133 -320.5 q0 -188 133 -321 q133 -133 320 -133 q188 0 321 133 q17 17 32 35 l95 -34 q-26 -36 -59 -69 q-161 -161 -389 -161 q-13 0 -26 1 l0 -2 l-1 -6 l1 0 l-3 -40 q14 -7 28 -15 q60 -39 68 -94 q1 -7 1 -14 q0 -45 -43 -78 q-51 -39 -130 -39 q-34 0 -64 7 l11 55 q21 -7 46 -7 q45 0 74 23 q25 19 25 46 l0 7 q-5 32 -40 55 q-35 21 -77 22 l35 87 Z" /><glyph glyph-name="eth" unicode="ð" d="M318 842 q-133 -133 -133 -321 q0 -188 133 -320.5 q133 -132.5 321 -132.5 q188 0 321 132.5 q133 132.5 133 320.5 q0 188 -133 321 q-133 133 -321 133 q-188 0 -321 -133 ZM957 971 q37 -27 71 -61 q160 -161 160 -389 q0 -227 -160.5 -388 q-160.5 -161 -388.5 -161 q-227 0 -388 161 q-161 161 -161 388 q0 228 161 389 q161 161 388 161 q33 0 65 -3 l-54 60 l-168 0 l0 90 l87 0 l-104 115 l128 0 l115 -115 l164 0 l0 -90 l-73 0 l158 -157 Z" /><glyph glyph-name="divide" unicode="÷" d="M125 659 l800 0 l0 -90 l-800 0 l0 90 ZM525 903 q37 0 63.5 -26 q26.5 -26 26.5 -63 q0 -38 -26.5 -64 q-26.5 -26 -63.5 -26 q-37 0 -63.5 26 q-26.5 26 -26.5 64 q0 37 26.5 63 q26.5 26 63.5 26 ZM525 503 q37 0 63.5 -26 q26.5 -26 26.5 -63 q0 -38 -26.5 -64 q-26.5 -26 -63.5 -26 q-37 0 -63.5 26 q-26.5 26 -26.5 64 q0 37 26.5 63 q26.5 26 63.5 26 Z" /><glyph glyph-name="oslash" unicode="ø" d="M827 937 q-86 39 -188 39 q-188 0 -321 -133 q-133 -133 -133 -321 q0 -188 133 -320 q27 -28 57 -49 l452 784 ZM904 891 l-453 -783 q86 -39 188 -39 q188 0 321 132.5 q133 132.5 133 320.5 q0 188 -133 321 q-27 27 -56 48 ZM327 70 q-40 28 -76 64 q-161 161 -161 388 q0 228 161 389 q161 161 388 161 q129 0 237 -52 l122 212 l79 -41 l-125 -216 q40 -28 76 -64 q160 -161 160 -389 q0 -227 -160.5 -388 q-160.5 -161 -388.5 -161 q-129 0 -236 52 l-123 -213 l-79 38 l126 220 Z" /><glyph glyph-name="thorn" unicode="þ" d="M240 844 q25 34 57 66 q161 160 388 160 q228 0 388.5 -160.5 q160.5 -160.5 160.5 -388.5 q0 -227 -160.5 -388 q-160.5 -161 -388.5 -161 q-227 0 -388 161 q-32 32 -57 66 l0 -574 l-90 0 l0 1975 l90 0 l0 -756 ZM240 427 q26 -129 124 -227 q133 -133 321 -133 q188 0 321 133 q133 133 133 321 q0 188 -133 321 q-133 133 -321 133 q-188 0 -321 -133 q-98 -98 -124 -227 l0 -188 Z" /><glyph glyph-name="Aogonek" unicode="&#x104;" d="M890 703 l-244 671 l-244 -671 l488 0 ZM1131 41 l-208 572 l-554 0 l-223 -613 l-96 0 l596 1637 l595 -1637 l-95 0 q-75 -38 -85 -102 q-2 -18 -2 -34 q0 -48 22 -74 q30 -36 80 -36 q30 0 58 14 l22 -50 q-56 -23 -111 -23 q-73 0 -117 49 q-35 39 -35 96 q0 14 2 29 q14 99 151 172 Z" /><glyph glyph-name="aogonek" unicode="&#x105;" d="M1120 432 l0 178 q-25 132 -125 232 q-133 133 -321 133 q-188 0 -321 -133 q-133 -133 -133 -321 q0 -188 133 -320.5 q133 -132.5 321 -132.5 q188 0 321 133 q100 100 125 231 ZM1120 46 l0 154 q-26 -35 -57 -67 q-161 -161 -389 -161 q-227 0 -388 161 q-161 161 -161 388 q0 228 161 389 q161 161 388 161 q228 0 389 -161 q31 -32 57 -67 l0 139 l90 0 l0 -982 l-90 0 q-71 -39 -80 -102 q-2 -18 -2 -34 q0 -48 22 -74 q30 -36 80 -36 q30 0 58 14 l22 -50 q-56 -23 -111 -23 q-73 0 -117 49 q-35 39 -35 96 q0 14 2 29 q15 103 161 177 Z" /><glyph glyph-name="Cacute" unicode="&#x106;" d="M1427 255 l68 -61 q-234 -213 -551 -213 q-340 0 -579.5 239.5 q-239.5 239.5 -239.5 579.5 q0 339 239.5 579 q239.5 240 579.5 240 q317 0 551 -213 l-68 -62 q-206 183 -483 183 q-301 0 -514 -213 q-213 -213 -213 -514 q0 -302 213 -515 q213 -213 514 -213 q277 0 483 183 ZM1129 2005 l-245 -187 l-84 0 l163 187 l166 0 Z" /><glyph glyph-name="cacute" unicode="&#x107;" d="M992 236 l95 -34 q-26 -36 -59 -69 q-161 -161 -389 -161 q-227 0 -388 161 q-161 161 -161 389 q0 227 161 388 q161 161 388 161 q228 0 389 -161 q33 -33 59 -68 l-95 -35 q-15 18 -32 36 q-133 132 -321 132 q-187 0 -320 -132.5 q-133 -132.5 -133 -320.5 q0 -188 133 -321 q133 -133 320 -133 q188 0 321 133 q17 17 32 35 ZM858 1387 l-245 -187 l-84 0 l163 187 l166 0 Z" /><glyph glyph-name="Ccircumflex" unicode="&#x108;" d="M1427 255 l68 -61 q-234 -213 -551 -213 q-340 0 -579.5 239.5 q-239.5 239.5 -239.5 579.5 q0 339 239.5 579 q239.5 240 579.5 240 q317 0 551 -213 l-68 -62 q-206 183 -483 183 q-301 0 -514 -213 q-213 -213 -213 -514 q0 -302 213 -515 q213 -213 514 -213 q277 0 483 183 ZM958 1942 l238 -234 l-104 0 l-186 143 l-176 -143 l-105 0 l229 234 l104 0 Z" /><glyph glyph-name="ccircumflex" unicode="&#x109;" d="M992 236 l95 -34 q-26 -36 -59 -69 q-161 -161 -389 -161 q-227 0 -388 161 q-161 161 -161 389 q0 227 161 388 q161 161 388 161 q228 0 389 -161 q33 -33 59 -68 l-95 -35 q-15 18 -32 36 q-133 132 -321 132 q-187 0 -320 -132.5 q-133 -132.5 -133 -320.5 q0 -188 133 -321 q133 -133 320 -133 q188 0 321 133 q17 17 32 35 ZM686 1324 l238 -234 l-104 0 l-186 143 l-176 -143 l-105 0 l229 234 l104 0 Z" /><glyph glyph-name="Cdotaccent" unicode="&#x10a;" d="M1427 255 l68 -61 q-234 -213 -551 -213 q-340 0 -579.5 239.5 q-239.5 239.5 -239.5 579.5 q0 339 239.5 579 q239.5 240 579.5 240 q317 0 551 -213 l-68 -62 q-206 183 -483 183 q-301 0 -514 -213 q-213 -213 -213 -514 q0 -302 213 -515 q213 -213 514 -213 q277 0 483 183 ZM941 1921 q31 0 53.5 -22 q22.5 -22 22.5 -54 q0 -32 -22.5 -54 q-22.5 -22 -53.5 -22 q-32 0 -54.5 22 q-22.5 22 -22.5 54 q0 32 22.5 54 q22.5 22 54.5 22 Z" /><glyph glyph-name="cdotaccent" unicode="&#x10b;" d="M992 236 l95 -34 q-26 -36 -59 -69 q-161 -161 -389 -161 q-227 0 -388 161 q-161 161 -161 389 q0 227 161 388 q161 161 388 161 q228 0 389 -161 q33 -33 59 -68 l-95 -35 q-15 18 -32 36 q-133 132 -321 132 q-187 0 -320 -132.5 q-133 -132.5 -133 -320.5 q0 -188 133 -321 q133 -133 320 -133 q188 0 321 133 q17 17 32 35 ZM639 1303 q31 0 53.5 -22 q22.5 -22 22.5 -54 q0 -32 -22.5 -54 q-22.5 -22 -53.5 -22 q-32 0 -54.5 22 q-22.5 22 -22.5 54 q0 32 22.5 54 q22.5 22 54.5 22 Z" /><glyph glyph-name="Ccaron" unicode="&#x10c;" d="M1427 255 l68 -61 q-234 -213 -551 -213 q-340 0 -579.5 239.5 q-239.5 239.5 -239.5 579.5 q0 339 239.5 579 q239.5 240 579.5 240 q317 0 551 -213 l-68 -62 q-206 183 -483 183 q-301 0 -514 -213 q-213 -213 -213 -514 q0 -302 213 -515 q213 -213 514 -213 q277 0 483 183 ZM754 1708 l-229 234 l105 0 l176 -143 l186 143 l104 0 l-238 -234 l-104 0 Z" /><glyph glyph-name="ccaron" unicode="&#x10d;" d="M992 236 l95 -34 q-26 -36 -59 -69 q-161 -161 -389 -161 q-227 0 -388 161 q-161 161 -161 389 q0 227 161 388 q161 161 388 161 q228 0 389 -161 q33 -33 59 -68 l-95 -35 q-15 18 -32 36 q-133 132 -321 132 q-187 0 -320 -132.5 q-133 -132.5 -133 -320.5 q0 -188 133 -321 q133 -133 320 -133 q188 0 321 133 q17 17 32 35 ZM532 1090 l-229 234 l105 0 l176 -143 l186 143 l104 0 l-238 -234 l-104 0 Z" /><glyph glyph-name="Dcaron" unicode="&#x10e;" d="M240 1506 l0 -1413 l7 0 q356 0 547 192 q213 213 213 515 q0 301 -213 515 q-191 191 -547 191 l-7 0 ZM240 1598 l7 0 q395 0 612 -218 q240 -241 240 -580 q0 -340 -240 -580 q-217 -218 -612 -218 l-7 0 l0 -2 l-90 0 l0 1600 l90 0 l0 -2 ZM568 1608 l-229 234 l105 0 l176 -143 l186 143 l104 0 l-238 -234 l-104 0 Z" /><glyph glyph-name="dcaron" unicode="&#x10f;" d="M1210 0 l-90 0 l0 200 q-26 -35 -57 -67 q-161 -161 -389 -161 q-227 0 -388 161 q-161 161 -161 388 q0 228 161 389 q161 161 388 161 q228 0 389 -161 q31 -32 57 -67 l0 757 l90 0 l0 -1600 ZM1120 432 l0 178 q-25 132 -125 232 q-133 133 -321 133 q-188 0 -321 -133 q-133 -133 -133 -321 q0 -188 133 -320.5 q133 -132.5 321 -132.5 q188 0 321 133 q100 100 125 231 ZM1357 1427 q-23 5 -40 23 q-27 26 -27 64 q0 37 26.5 63 q26.5 26 63.5 26 q37 0 63.5 -26 q26.5 -26 26.5 -63 q0 -21 -7 -39 l-98 -198 l-65 0 l57 150 Z" /><glyph glyph-name="Dcroat" unicode="&#x110;" d="M210 845 l0 755 l90 0 l0 -2 l7 0 q395 0 612 -218 q240 -241 240 -580 q0 -340 -240 -580 q-217 -218 -612 -218 l-7 0 l0 -2 l-90 0 l0 755 l-160 0 l0 90 l160 0 ZM300 845 l370 0 l0 -90 l-370 0 l0 -662 l7 0 q356 0 547 192 q213 213 213 515 q0 301 -213 515 q-191 191 -547 191 l-7 0 l0 -661 Z" /><glyph glyph-name="dcroat" unicode="&#x111;" d="M1120 432 l0 178 q-25 132 -125 232 q-133 133 -321 133 q-188 0 -321 -133 q-133 -133 -133 -321 q0 -188 133 -320.5 q133 -132.5 321 -132.5 q188 0 321 133 q100 100 125 231 ZM1210 1283 l0 -1283 l-90 0 l0 200 q-26 -35 -57 -67 q-161 -161 -389 -161 q-227 0 -388 161 q-161 161 -161 388 q0 228 161 389 q161 161 388 161 q228 0 389 -161 q31 -32 57 -67 l0 440 l-291 0 l0 90 l291 0 l0 227 l90 0 l0 -227 l99 0 l0 -90 l-99 0 Z" /><glyph glyph-name="Eogonek" unicode="&#x118;" d="M776 0 l-626 0 l0 1600 l800 0 l0 -90 l-710 0 l0 -665 l710 0 l0 -90 l-710 0 l0 -665 l710 0 l0 -90 l-107 0 q-64 -42 -73 -102 q-2 -18 -2 -34 q0 -48 22 -74 q30 -36 80 -36 q30 0 58 14 l22 -50 q-56 -23 -111 -23 q-73 0 -117 49 q-35 39 -35 96 q0 14 2 29 q10 73 87 131 Z" /><glyph glyph-name="eogonek" unicode="&#x119;" d="M911 885 q-117 90 -272 90 q-187 0 -320 -132.5 q-133 -132.5 -133 -320.5 q0 -155 90 -272 l635 635 ZM894 28 q-133 -56 -255 -56 q-227 0 -388 161 q-161 161 -161 389 q0 227 161 388 q161 161 388 161 q195 0 341 -117 q24 -20 48 -44 q9 -9 17 -18 l-68 -68 l-640 -640 q127 -116 302 -116 q188 0 321 133 q17 17 32 35 l95 -34 q-26 -36 -59 -69 q-36 -36 -74 -63 q-67 -108 -77 -173 q-2 -18 -2 -34 q0 -48 22 -74 q30 -36 80 -36 q30 0 58 14 l22 -50 q-56 -23 -111 -23 q-73 0 -117 49 q-35 39 -35 96 q0 14 2 29 q9 65 98 160 Z" /><glyph glyph-name="Gcircumflex" unicode="&#x11c;" d="M1489 199 q-228 -218 -545 -218 q-340 0 -579.5 239.5 q-239.5 239.5 -239.5 579.5 q0 339 239.5 579 q239.5 240 579.5 240 q317 0 551 -213 l-68 -62 q-206 183 -483 183 q-301 0 -514 -213 q-213 -213 -213 -514 q0 -302 213 -515 q213 -213 514 -213 q258 0 455 159 l0 488 l90 0 l0 -520 ZM958 1942 l238 -234 l-104 0 l-186 143 l-176 -143 l-105 0 l229 234 l104 0 Z" /><glyph glyph-name="gcircumflex" unicode="&#x11d;" d="M1119 615 q-26 129 -124 227 q-133 133 -321 133 q-188 0 -321 -133 q-133 -133 -133 -321 q0 -188 133 -321 q133 -133 321 -133 q188 0 321 133 q97 97 124 225 l0 190 ZM1117 195 q-25 -32 -54 -62 q-161 -161 -389 -161 q-227 0 -388 161 q-161 161 -161 388 q0 228 161 388.5 q161 160.5 388 160.5 q228 0 389 -160 q31 -32 57 -67 l0 139 l90 0 l0 -763 q0 -221 -157 -378 q-161 -161 -388 -161 q-228 0 -389 161 q-33 33 -59 69 l95 34 q15 -18 32 -35 q133 -133 321 -133 q187 0 320 133 q121 121 132 286 ZM715 1324 l238 -234 l-104 0 l-186 143 l-176 -143 l-105 0 l229 234 l104 0 Z" /><glyph glyph-name="Gbreve" unicode="&#x11e;" d="M1489 199 q-228 -218 -545 -218 q-340 0 -579.5 239.5 q-239.5 239.5 -239.5 579.5 q0 339 239.5 579 q239.5 240 579.5 240 q317 0 551 -213 l-68 -62 q-206 183 -483 183 q-301 0 -514 -213 q-213 -213 -213 -514 q0 -302 213 -515 q213 -213 514 -213 q258 0 455 159 l0 488 l90 0 l0 -520 ZM789 1956 q8 -53 46 -91 q48 -48 116 -48 q67 0 115 48 q39 38 46 91 l73 0 q-8 -83 -68 -143 q-68 -69 -166 -69 q-99 0 -167 69 q-65 66 -69 143 l74 0 Z" /><glyph glyph-name="gbreve" unicode="&#x11f;" d="M1119 615 q-26 129 -124 227 q-133 133 -321 133 q-188 0 -321 -133 q-133 -133 -133 -321 q0 -188 133 -321 q133 -133 321 -133 q188 0 321 133 q97 97 124 225 l0 190 ZM1117 195 q-25 -32 -54 -62 q-161 -161 -389 -161 q-227 0 -388 161 q-161 161 -161 388 q0 228 161 388.5 q161 160.5 388 160.5 q228 0 389 -160 q31 -32 57 -67 l0 139 l90 0 l0 -763 q0 -221 -157 -378 q-161 -161 -388 -161 q-228 0 -389 161 q-33 33 -59 69 l95 34 q15 -18 32 -35 q133 -133 321 -133 q187 0 320 133 q121 121 132 286 ZM507 1338 q8 -53 46 -91 q48 -48 116 -48 q67 0 115 48 q39 38 46 91 l73 0 q-8 -83 -68 -143 q-68 -69 -166 -69 q-99 0 -167 69 q-65 66 -69 143 l74 0 Z" /><glyph glyph-name="Gdotaccent" unicode="&#x120;" d="M1489 199 q-228 -218 -545 -218 q-340 0 -579.5 239.5 q-239.5 239.5 -239.5 579.5 q0 339 239.5 579 q239.5 240 579.5 240 q317 0 551 -213 l-68 -62 q-206 183 -483 183 q-301 0 -514 -213 q-213 -213 -213 -514 q0 -302 213 -515 q213 -213 514 -213 q258 0 455 159 l0 488 l90 0 l0 -520 ZM941 1921 q31 0 53.5 -22 q22.5 -22 22.5 -54 q0 -32 -22.5 -54 q-22.5 -22 -53.5 -22 q-32 0 -54.5 22 q-22.5 22 -22.5 54 q0 32 22.5 54 q22.5 22 54.5 22 Z" /><glyph glyph-name="gdotaccent" unicode="&#x121;" d="M1119 615 q-26 129 -124 227 q-133 133 -321 133 q-188 0 -321 -133 q-133 -133 -133 -321 q0 -188 133 -321 q133 -133 321 -133 q188 0 321 133 q97 97 124 225 l0 190 ZM1117 195 q-25 -32 -54 -62 q-161 -161 -389 -161 q-227 0 -388 161 q-161 161 -161 388 q0 228 161 388.5 q161 160.5 388 160.5 q228 0 389 -160 q31 -32 57 -67 l0 139 l90 0 l0 -763 q0 -221 -157 -378 q-161 -161 -388 -161 q-228 0 -389 161 q-33 33 -59 69 l95 34 q15 -18 32 -35 q133 -133 321 -133 q187 0 320 133 q121 121 132 286 ZM668 1303 q31 0 53.5 -22 q22.5 -22 22.5 -54 q0 -32 -22.5 -54 q-22.5 -22 -53.5 -22 q-32 0 -54.5 22 q-22.5 22 -22.5 54 q0 32 22.5 54 q22.5 22 54.5 22 Z" /><glyph glyph-name="Gcommaaccent" unicode="&#x122;" d="M773 -3 q-232 47 -408 224 q-240 239 -240 579 q0 339 239.5 579 q239.5 240 579.5 240 q317 0 551 -213 l-68 -62 q-206 183 -483 183 q-301 0 -514 -213 q-213 -213 -213 -514 q0 -302 213 -515 q213 -213 514 -213 q258 0 455 159 l0 488 l90 0 l0 -520 q-228 -218 -545 -218 q-55 0 -107 6 l-2 -16 l-1 -6 l1 0 l-3 -40 q14 -7 28 -15 q60 -39 68 -94 q1 -7 1 -14 q0 -45 -43 -78 q-51 -39 -130 -39 q-34 0 -64 7 l11 55 q21 -7 46 -7 q45 0 74 23 q25 19 25 46 l0 7 q-5 32 -40 55 q-35 21 -77 22 l42 104 Z" /><glyph glyph-name="gcommaaccent" unicode="&#x123;" d="M1119 615 q-26 129 -124 227 q-133 133 -321 133 q-188 0 -321 -133 q-133 -133 -133 -321 q0 -188 133 -321 q133 -133 321 -133 q188 0 321 133 q97 97 124 225 l0 190 ZM1117 195 q-25 -32 -54 -62 q-161 -161 -389 -161 q-227 0 -388 161 q-161 161 -161 388 q0 228 161 388.5 q161 160.5 388 160.5 q228 0 389 -160 q31 -32 57 -67 l0 139 l90 0 l0 -763 q0 -221 -157 -378 q-161 -161 -388 -161 q-228 0 -389 161 q-33 33 -59 69 l95 34 q15 -18 32 -35 q133 -133 321 -133 q187 0 320 133 q121 121 132 286 ZM717 1311 q23 -5 40 -23 q27 -26 27 -64 q0 -37 -26.5 -63 q-26.5 -26 -63.5 -26 q-37 0 -63.5 26 q-26.5 26 -26.5 63 q0 21 7 39 l98 198 l65 0 l-57 -150 Z" /><glyph glyph-name="Hcircumflex" unicode="&#x124;" d="M240 717 l0 -717 l-90 0 l0 1600 l90 0 l0 -793 l670 0 l0 793 l90 0 l0 -1600 l-90 0 l0 717 l-670 0 ZM623 1942 l238 -234 l-104 0 l-186 143 l-176 -143 l-105 0 l229 234 l104 0 Z" /><glyph glyph-name="hcircumflex" unicode="&#x125;" d="M150 1600 l90 0 l0 -669 q114 110 274 110 q174 0 283 -109 q109 -109 112 -275 l0 -657 l-90 0 l0 649 q0 125 -90.5 213.5 q-90.5 88.5 -214.5 88.5 q-124 0 -214 -87 q-40 -40 -60 -83 l0 -781 l-90 0 l0 1600 ZM623 1942 l238 -234 l-104 0 l-186 143 l-176 -143 l-105 0 l229 234 l104 0 Z" /><glyph glyph-name="Hbar" unicode="&#x126;" d="M995 1310 l0 -1310 l-90 0 l0 717 l-670 0 l0 -717 l-90 0 l0 1310 l-75 0 l0 90 l75 0 l0 200 l90 0 l0 -200 l670 0 l0 200 l90 0 l0 -200 l75 0 l0 -90 l-75 0 ZM235 1310 l0 -503 l670 0 l0 503 l-670 0 Z" /><glyph glyph-name="hbar" unicode="&#x127;" d="M150 1373 l0 227 l90 0 l0 -227 l410 0 l0 -90 l-410 0 l0 -352 q114 110 274 110 q174 0 283 -109 q109 -109 112 -275 l0 -657 l-90 0 l0 649 q0 125 -90.5 213.5 q-90.5 88.5 -214.5 88.5 q-124 0 -214 -87 q-40 -40 -60 -83 l0 -781 l-90 0 l0 1283 l-100 0 l0 90 l100 0 Z" /><glyph glyph-name="Iogonek" unicode="&#x12e;" d="M170 10 l0 1590 l90 0 l0 -1600 l-37 0 q-64 -42 -73 -102 q-2 -18 -2 -34 q0 -48 22 -74 q30 -36 80 -36 q30 0 58 14 l22 -50 q-56 -23 -111 -23 q-73 0 -117 49 q-35 39 -35 96 q0 14 2 29 q11 79 101 141 Z" /><glyph glyph-name="iogonek" unicode="&#x12f;" d="M215 1330 q37 0 63.5 -26 q26.5 -26 26.5 -63 q0 -38 -26.5 -64 q-26.5 -26 -63.5 -26 q-37 0 -63.5 26 q-26.5 26 -26.5 64 q0 37 26.5 63 q26.5 26 63.5 26 ZM170 7 l0 975 l90 0 l0 -982 l-32 0 q-64 -42 -73 -102 q-2 -18 -2 -34 q0 -48 22 -74 q30 -36 80 -36 q30 0 58 14 l22 -50 q-56 -23 -111 -23 q-73 0 -117 49 q-35 39 -35 96 q0 14 2 29 q11 77 96 138 Z" /><glyph glyph-name="dotlessi" unicode="&#x131;" d="M260 982 l0 -982 l-90 0 l0 982 l90 0 Z" /><glyph glyph-name="ij" unicode="&#x133;" d="M260 982 l0 -982 l-90 0 l0 982 l90 0 ZM215 1330 q37 0 63.5 -26 q26.5 -26 26.5 -63 q0 -38 -26.5 -64 q-26.5 -26 -63.5 -26 q-37 0 -63.5 26 q-26.5 26 -26.5 64 q0 37 26.5 63 q26.5 26 63.5 26 ZM479 -138 q121 14 121 136 l0 984 l90 0 l0 -982 q0 -211 -211 -228 l0 90 ZM645 1330 q37 0 63.5 -26 q26.5 -26 26.5 -63 q0 -38 -26.5 -64 q-26.5 -26 -63.5 -26 q-37 0 -63.5 26 q-26.5 26 -26.5 64 q0 37 26.5 63 q26.5 26 63.5 26 Z" /><glyph glyph-name="Jcircumflex" unicode="&#x134;" d="M702 304 q0 -152 -80 -232 q-85 -86 -206 -86 q-121 0 -206 85.5 q-85 85.5 -85 187.5 l59 23 q20 -108 85 -162 q54 -46 122 -46 q12 0 25 2 q83 0 143 59 q53 53 53 179 l0 1286 l90 0 l0 -1296 ZM681 1942 l238 -234 l-104 0 l-186 143 l-176 -143 l-105 0 l229 234 l104 0 Z" /><glyph glyph-name="jcircumflex" unicode="&#x135;" d="M263 1324 l238 -234 l-104 0 l-186 143 l-176 -143 l-105 0 l229 234 l104 0 ZM49 -138 q121 14 121 136 l0 984 l90 0 l0 -982 q0 -211 -211 -228 l0 90 Z" /><glyph glyph-name="Kcommaaccent" unicode="&#x136;" d="M862 1600 l-415 -601 l699 -999 l-109 0 l-647 924 l-172 -246 l0 -678 l-91 0 l0 1600 l91 0 l0 -766 l535 766 l109 0 ZM604 -57 q85 0 118 -26 q45 -35 45 -84 l0 -10 q-6 -55 -69 -102 q-56 -31 -118 -31 q-35 0 -73 10 l19 58 q32 -13 62 -13 q35 0 68 17 q28 21 34 49 q1 6 1 12 q0 21 -16 37 q-20 19 -71 20 l0 63 Z" /><glyph glyph-name="kcommaaccent" unicode="&#x137;" d="M629 982 l-242 -300 l386 -682 l-112 0 l-333 610 l-88 -109 l0 -501 l-90 0 l0 1400 l90 0 l0 -755 l273 337 l116 0 ZM429 -57 q85 0 117 -26 q46 -35 46 -84 l0 -10 q-6 -55 -69 -102 q-56 -31 -118 -31 q-35 0 -74 10 l20 58 q31 -13 62 -13 q35 0 68 17 q28 21 34 49 q1 6 1 12 q0 21 -16 37 q-20 19 -71 20 l0 63 Z" /><glyph glyph-name="kgreenlandic" unicode="&#x138;" d="M629 982 l-242 -300 l386 -682 l-112 0 l-333 610 l-88 -109 l0 -501 l-90 0 l0 982 l90 0 l0 -337 l273 337 l116 0 Z" /><glyph glyph-name="Lacute" unicode="&#x139;" d="M127 0 l0 1600 l91 0 l0 -1510 l609 0 l0 -90 l-700 0 ZM697 1904 l-245 -187 l-84 0 l163 187 l166 0 Z" /><glyph glyph-name="lacute" unicode="&#x13a;" d="M216 1600 l0 -1600 l-90 0 l0 1600 l90 0 ZM335 1945 l-245 -187 l-84 0 l163 187 l166 0 Z" /><glyph glyph-name="Lcommaaccent" unicode="&#x13b;" d="M492 0 l-365 0 l0 1600 l91 0 l0 -1510 l609 0 l0 -90 l-271 0 l-3 -29 l-1 -6 l1 0 l-3 -40 q14 -7 28 -15 q60 -39 68 -94 q1 -7 1 -14 q0 -45 -43 -78 q-51 -39 -130 -39 q-34 0 -64 7 l11 55 q21 -7 46 -7 q45 0 74 23 q25 19 25 46 l0 7 q-5 32 -40 55 q-35 21 -77 22 l43 107 Z" /><glyph glyph-name="lcommaaccent" unicode="&#x13c;" d="M152 0 l-25 0 l0 1600 l91 0 l0 -1600 l-2 0 l-3 -29 l-1 -6 l1 0 l-3 -40 q14 -7 28 -15 q60 -39 68 -94 q1 -7 1 -14 q0 -45 -43 -78 q-51 -39 -130 -39 q-34 0 -64 7 l11 55 q21 -7 46 -7 q45 0 74 23 q25 19 25 46 l0 7 q-5 32 -40 55 q-35 21 -77 22 l43 107 Z" /><glyph glyph-name="Lcaron" unicode="&#x13d;" d="M127 0 l0 1600 l91 0 l0 -1510 l609 0 l0 -90 l-700 0 ZM667 1435 q-23 4 -40 22 q-27 26 -27 65 q0 37 26.5 62.5 q26.5 25.5 63.5 25.5 q37 0 63.5 -25.5 q26.5 -25.5 26.5 -62.5 q0 -22 -7 -40 l-98 -198 l-65 0 l57 151 Z" /><glyph glyph-name="lcaron" unicode="&#x13e;" d="M218 1600 l0 -1600 l-91 0 l0 1600 l91 0 ZM384 1435 q-23 4 -40 22 q-27 26 -27 65 q0 37 26.5 62.5 q26.5 25.5 64.5 25.5 q36 0 62.5 -25.5 q26.5 -25.5 26.5 -62.5 q0 -22 -7 -40 l-98 -198 l-65 0 l57 151 Z" /><glyph glyph-name="Ldot" unicode="&#x13f;" d="M127 0 l0 1600 l91 0 l0 -1510 l609 0 l0 -90 l-700 0 ZM706 876 q31 0 53.5 -22.5 q22.5 -22.5 22.5 -53.5 q0 -32 -22.5 -54 q-22.5 -22 -53.5 -22 q-31 0 -54 22 q-23 22 -23 54 q0 31 23 53.5 q23 22.5 54 22.5 Z" /><glyph glyph-name="ldot" unicode="&#x140;" d="M203 1600 l0 -1600 l-91 0 l0 1600 l91 0 ZM393 876 q30 0 52.5 -22.5 q22.5 -22.5 22.5 -53.5 q0 -32 -22.5 -54 q-22.5 -22 -52.5 -22 q-32 0 -54.5 22 q-22.5 22 -22.5 54 q0 31 22.5 53.5 q22.5 22.5 54.5 22.5 Z" /><glyph glyph-name="Lslash" unicode="&#x141;" d="M319 787 l455 370 l0 -106 l-455 -370 l0 -591 l610 0 l0 -90 l-700 0 l0 606 l-229 -185 l0 106 l229 186 l0 887 l90 0 l0 -813 Z" /><glyph glyph-name="lslash" unicode="&#x142;" d="M167 805 l0 795 l91 0 l0 -721 l167 137 l0 -106 l-167 -137 l0 -773 l-91 0 l0 699 l-167 -137 l0 107 l167 136 Z" /><glyph glyph-name="Ncommaaccent" unicode="&#x145;" d="M150 1600 l99 0 l822 -1423 l0 1423 l90 0 l0 -1600 l-90 0 l-831 1437 l0 -1437 l-90 0 l0 1600 ZM623 -57 q85 0 117 -26 q46 -35 46 -84 l0 -10 q-6 -55 -69 -102 q-56 -31 -118 -31 q-35 0 -74 10 l20 58 q31 -13 62 -13 q35 0 68 17 q28 21 34 49 q1 6 1 12 q0 21 -16 37 q-20 19 -71 20 l0 63 Z" /><glyph glyph-name="ncommaaccent" unicode="&#x146;" d="M240 763 l0 -763 l-90 0 l0 982 l90 0 l0 -63 q123 122 286 122 q174 0 283 -109 q109 -109 112 -275 l0 -657 l-90 0 l0 649 q0 125 -90.5 213.5 q-90.5 88.5 -214.5 88.5 q-124 0 -214 -87 q-49 -49 -72 -101 ZM503 -57 q85 0 117 -26 q46 -35 46 -84 l0 -10 q-6 -55 -69 -102 q-56 -31 -118 -31 q-35 0 -74 10 l20 58 q31 -13 62 -13 q35 0 68 17 q28 21 34 49 q1 6 1 12 q0 21 -16 37 q-20 19 -71 20 l0 63 Z" /><glyph glyph-name="napostrophe" unicode="&#x149;" d="M240 763 l0 -763 l-90 0 l0 982 l90 0 l0 -63 q123 122 286 122 q174 0 283 -109 q109 -109 112 -275 l0 -657 l-90 0 l0 649 q0 125 -90.5 213.5 q-90.5 88.5 -214.5 88.5 q-124 0 -214 -87 q-49 -49 -72 -101 ZM88 1402 q-23 4 -40 22 q-27 26 -27 65 q0 37 26.5 62.5 q26.5 25.5 64.5 25.5 q36 0 62.5 -25.5 q26.5 -25.5 26.5 -62.5 q0 -22 -7 -40 l-98 -198 l-65 0 l57 151 Z" /><glyph glyph-name="Eng" unicode="&#x14a;" d="M1070 2 l-830 1435 l0 -1437 l-90 0 l0 1600 l99 0 l821 -1421 l0 765 l1 0 l0 656 l90 0 l0 -1600 l-1 0 q-10 -277 -151 -346 l-41 45 q105 95 105 249 q0 26 -3 54 Z" /><glyph glyph-name="eng" unicode="&#x14b;" d="M831 544 l0 105 q0 125 -90.5 213.5 q-90.5 88.5 -214.5 88.5 q-124 0 -214 -87 q-49 -49 -72 -101 l0 -763 l-90 0 l0 982 l90 0 l0 -63 q123 122 286 122 q174 0 283 -109 q109 -109 112 -275 l0 -657 l-1 0 q-20 -249 -151 -346 l-40 40 q82 57 101 266 l0 584 l1 0 Z" /><glyph glyph-name="OE" unicode="&#x152;" d="M1330 1510 q86 -52 162 -127 q225 -226 239 -538 l439 0 l0 -90 l-439 0 q-16 -310 -239 -533 q-79 -79 -168 -132 l846 0 l0 -90 l-1000 0 q-121 -19 -259 -19 q-340 0 -580.5 240.5 q-240.5 240.5 -240.5 580.5 q0 340 240.5 580.5 q240.5 240.5 580.5 240.5 q138 0 259 -23 l1000 0 l0 -90 l-840 0 ZM1639 845 q-14 274 -212 473 q-78 77 -167 126 q-44 24 -90 42 q-120 45 -259 45 q-302 0 -515.5 -213.5 q-213.5 -213.5 -213.5 -515.5 q0 -302 213.5 -516 q213.5 -214 515.5 -214 q139 0 259 45 q46 18 90 42 q89 49 167 127 q196 197 212 469 q1 23 1 47 q0 22 -1 43 Z" /><glyph glyph-name="oe" unicode="&#x153;" d="M318 842 q-133 -133 -133 -321 q0 -188 133 -320.5 q133 -132.5 321 -132.5 q188 0 321 132.5 q133 132.5 133 320.5 q0 188 -133 321 q-133 133 -321 133 q-188 0 -321 -133 ZM1126 779 q29 -55 45 -116 l758 0 q-32 103 -108 179 q-133 133 -321 133 q-188 0 -321 -133 q-30 -30 -53 -63 ZM1125 263 q24 -32 54 -62 q133 -133 321 -133 q188 0 321 133 q23 23 43 48 l96 -34 q-17 -28 -71 -82 q-161 -161 -389 -161 q-227 0 -388 161 q-23 23 -42 47 q-20 -24 -42 -47 q-161 -161 -389 -161 q-227 0 -388 161 q-161 161 -161 388 q0 228 161 389 q161 161 388 161 q228 0 389 -161 q22 -23 42 -47 q19 24 42 47 q161 161 388 161 q228 0 389 -161 q142 -143 148 -338 l-851 1 q2 -26 2 -52 q0 -142 -63 -258 Z" /><glyph glyph-name="Rcommaaccent" unicode="&#x156;" d="M218 1508 l0 -862 l271 0 q178 0 304.5 126 q126.5 126 126.5 306 q0 179 -126.5 304.5 q-126.5 125.5 -304.5 125.5 l-271 0 ZM516 555 q-13 -1 -27 -1 l-271 0 l0 -554 l-91 0 l0 1600 l420 0 q183 -25 311 -153 q153 -154 153 -369 q0 -217 -153 -370 q-106 -106 -243 -139 l369 -569 l-111 0 l-357 555 ZM462 -57 q85 0 118 -26 q45 -35 45 -84 l0 -10 q-6 -55 -69 -102 q-56 -31 -118 -31 q-35 0 -73 10 l19 58 q32 -13 62 -13 q35 0 68 17 q28 21 34 49 q1 6 1 12 q0 21 -16 37 q-20 19 -71 20 l0 63 Z" /><glyph glyph-name="rcommaaccent" unicode="&#x157;" d="M459 903 q-73 -15 -149 -92 q-128 -127 -132 -304 l0 -507 l-91 0 l0 982 l91 0 l0 -179 q27 40 64 77 q83 83 168 110 l49 -87 ZM122 -57 q85 0 118 -26 q45 -35 45 -84 l0 -10 q-5 -55 -69 -102 q-55 -31 -117 -31 q-36 0 -74 10 l19 58 q32 -13 62 -13 q36 0 68 17 q29 21 34 49 q1 6 1 12 q0 21 -15 37 q-21 19 -72 20 l0 63 Z" /><glyph glyph-name="Scedilla" unicode="&#x15e;" d="M478 -17 q-170 13 -295 138 q-111 111 -133 258 l85 31 q14 -130 111 -227 q113 -113 272 -113 q160 0 273 113 q113 113 113 273 q0 159 -113 272 q-99 99 -243 158 q-171 57 -270 156 q-99 99 -99 240 q0 138 99 237.5 q99 99.5 240 99.5 q140 0 240 -99 q55 -53 76 -119 l-81 -32 q-18 49 -59 90 q-73 72 -176 72 q-103 0 -176 -72.5 q-73 -72.5 -73 -176.5 q0 -103 73 -176 q68 -67 188 -123 q192 -62 323 -193 q139 -138 139 -334 q0 -197 -139 -336 q-129 -129 -306 -138 l-1 -11 l-1 -6 l1 0 l-3 -40 q14 -7 28 -15 q60 -39 68 -94 q1 -7 1 -14 q0 -45 -43 -78 q-51 -39 -130 -39 q-34 0 -64 7 l11 55 q21 -7 46 -7 q45 0 74 23 q25 19 25 46 l0 7 q-5 32 -40 55 q-35 21 -77 22 l36 90 Z" /><glyph glyph-name="scedilla" unicode="&#x15f;" d="M362 -21 q-93 13 -162 83 q-85 85 -85 187 l89 23 q0 -88 59.5 -147 q59.5 -59 142.5 -59 q83 0 142.5 59 q59.5 59 59.5 144 q0 83 -59 142 q-32 32 -129 94 q-115 62 -159 106 q-69 69 -69 166 q0 98 69 167.5 q69 69.5 166 69.5 q98 0 162 -64 q62 -63 62 -143 l0 -5 l-78 -31 q-10 76 -47.5 114 q-37.5 38 -98.5 38 q-60 0 -103 -42.5 q-43 -42.5 -43 -103.5 q0 -60 43 -103 q25 -25 106 -76 q128 -70 182 -124 q85 -86 85 -205 q0 -122 -85 -207 q-76 -77 -180 -85 l-1 -6 l-1 -6 l1 0 l-3 -40 q14 -7 28 -15 q60 -39 68 -94 q1 -7 1 -14 q0 -45 -43 -78 q-51 -39 -130 -39 q-34 0 -64 7 l11 55 q21 -7 46 -7 q45 0 74 23 q25 19 25 46 l0 7 q-5 32 -40 55 q-35 21 -77 22 l35 86 Z" /><glyph glyph-name="Tcommaaccent" unicode="&#x162;" d="M464 0 l-9 0 l0 1510 l-405 0 l0 90 l900 0 l0 -90 l-405 0 l0 -1510 l-17 0 l-3 -29 l-1 -6 l1 0 l-3 -40 q14 -7 28 -15 q60 -39 68 -94 q1 -7 1 -14 q0 -45 -43 -78 q-51 -39 -130 -39 q-34 0 -64 7 l11 55 q21 -7 46 -7 q45 0 74 23 q25 19 25 46 l0 7 q-5 32 -40 55 q-35 21 -77 22 l43 107 Z" /><glyph glyph-name="tcommaaccent" unicode="&#x163;" d="M299 0 l-9 0 l0 892 l-200 0 l0 90 l200 0 l0 418 l90 0 l0 -418 l200 0 l0 -90 l-200 0 l0 -892 l-17 0 l-3 -29 l-1 -6 l1 0 l-3 -40 q14 -7 28 -15 q60 -39 68 -94 q1 -7 1 -14 q0 -45 -43 -78 q-51 -39 -130 -39 q-34 0 -64 7 l11 55 q21 -7 46 -7 q45 0 74 23 q25 19 25 46 l0 7 q-5 32 -40 55 q-35 21 -77 22 l43 107 Z" /><glyph glyph-name="tcaron" unicode="&#x165;" d="M236 982 l0 417 l90 0 l0 -417 l200 0 l0 -91 l-200 0 l0 -891 l-90 0 l0 891 l-200 0 l0 91 l200 0 ZM525 1402 q-23 4 -40 22 q-27 26 -27 65 q0 37 26.5 62.5 q26.5 25.5 64.5 25.5 q36 0 62.5 -25.5 q26.5 -25.5 26.5 -62.5 q0 -22 -7 -40 l-98 -198 l-65 0 l57 151 Z" /><glyph glyph-name="Tbar" unicode="&#x166;" d="M455 845 l0 665 l-405 0 l0 90 l900 0 l0 -90 l-405 0 l0 -665 l255 0 l0 -90 l-255 0 l0 -755 l-90 0 l0 755 l-255 0 l0 90 l255 0 Z" /><glyph glyph-name="tbar" unicode="&#x167;" d="M90 605 l200 0 l0 287 l-200 0 l0 90 l200 0 l0 418 l90 0 l0 -418 l200 0 l0 -90 l-200 0 l0 -287 l200 0 l0 -90 l-200 0 l0 -515 l-90 0 l0 515 l-200 0 l0 90 Z" /><glyph glyph-name="Uogonek" unicode="&#x172;" d="M854 17 q-84 -31 -181 -31 q-217 0 -370 153 q-153 153 -153 369 l0 1092 l91 0 l0 -1092 q0 -178 126.5 -304.5 q126.5 -126.5 305.5 -126.5 q179 0 305 126.5 q126 126.5 126 304.5 l0 1092 l91 0 l0 -1150 q-25 -183 -153 -311 q-41 -41 -86 -70 q-89 -107 -99 -172 q-2 -18 -2 -34 q0 -48 22 -74 q30 -36 80 -36 q30 0 58 14 l22 -50 q-56 -23 -111 -23 q-73 0 -117 49 q-35 39 -35 96 q0 14 2 29 q9 65 78 149 Z" /><glyph glyph-name="uogonek" unicode="&#x173;" d="M733 22 q-79 -36 -178 -36 q-184 0 -293 109 q-109 109 -112 275 l0 612 l90 0 l0 -604 q0 -125 91 -213 q90 -89 223 -89 q124 0 214.5 88.5 q90.5 88.5 90.5 213.5 l0 604 l90 0 l0 -612 q-3 -166 -112 -275 q-7 -7 -14 -13 q-64 -120 -74 -184 q-2 -18 -2 -34 q0 -48 22 -74 q30 -36 80 -36 q30 0 58 14 l22 -50 q-56 -23 -111 -23 q-73 0 -117 49 q-35 39 -35 96 q0 14 2 29 q9 63 65 153 Z" /><glyph glyph-name="longs" unicode="&#x17f;" d="M215 0 l-91 0 l0 1248 q7 111 85 191 q82 76 189 76 q56 0 119 -22 l-29 -80 q-42 18 -81 18 q-70 0 -134 -56 q-55 -56 -58 -134 l0 -1241 Z" /><glyph glyph-name="florin" unicode="&#x192;" d="M229 0 l-1 0 l0 -79 q-12 -284 -290 -284 l0 83 q189 0 200 198 l0 973 l-99 0 l0 91 l99 0 l0 266 q7 111 85 191 q83 76 189 76 q57 0 119 -22 l-28 -80 q-42 18 -82 18 q-70 0 -133 -56 q-56 -56 -59 -134 l0 -259 l200 0 l0 -91 l-200 0 l0 -891 Z" /><glyph glyph-name="Aringacute" unicode="&#x1fa;" d="M887 714 l-254 671 l-256 -671 l510 0 ZM630 1690 q-25 0 -41.5 -17 q-16.5 -17 -16.5 -42 q0 -22 16.5 -39 q16.5 -17 41.5 -17 q23 0 40 17 q17 17 17 39 q0 25 -17 42 q-17 17 -40 17 ZM603 1753 l108 151 l166 0 l-196 -161 q20 -9 37 -24 q35 -37 35 -88 q0 -49 -35 -84 q-19 -19 -39 -26 l580 -1521 l-95 0 l-244 624 l-576 0 l-249 -624 l-96 0 l586 1518 q-23 9 -42 29 q-36 35 -36 84 q0 51 36 88 q26 26 60 34 Z" /><glyph glyph-name="aringacute" unicode="&#x1fb;" d="M1079 432 l0 110 q-25 132 -125 232 q-133 133 -321 133 q-188 0 -321 -122 q-133 -122 -133 -299 q0 -176 133 -297 q133 -121 321 -121 q188 0 321 133 q100 100 125 231 ZM627 1174 q-25 0 -42 -17 q-17 -17 -17 -42 q0 -22 17 -39 q17 -17 42 -17 q23 0 40 17 q17 17 17 39 q0 25 -17 42 q-17 17 -40 17 ZM676 1229 q20 -9 38 -26 q35 -37 35 -88 q0 -49 -35 -84 q-20 -21 -45 -30 q205 -11 353 -159 q31 -32 57 -67 l0 139 l90 0 l0 -914 l-90 0 l0 200 q-26 -35 -57 -67 q-161 -161 -389 -161 q-227 0 -388 149.5 q-161 149.5 -161 364.5 q0 218 153 358.5 q153 140.5 351 156.5 q-27 8 -48 30 q-36 35 -36 84 q0 51 36 88 q24 23 55 31 l153 171 l167 0 l-239 -176 Z" /><glyph glyph-name="circumflex" unicode="&#x2c6;" d="M454 1324 l238 -234 l-104 0 l-186 143 l-176 -143 l-105 0 l229 234 l104 0 Z" /><glyph glyph-name="caron" unicode="&#x2c7;" d="M350 1090 l-229 234 l105 0 l176 -143 l186 143 l104 0 l-238 -234 l-104 0 Z" /><glyph glyph-name="uni02C9" unicode="&#x2c9;" d="M150 1227 l590 0 l0 -70 l-590 0 l0 70 Z" /><glyph glyph-name="breve" unicode="&#x2d8;" d="M279 1338 q8 -53 46 -91 q48 -48 116 -48 q67 0 115 48 q39 38 46 91 l73 0 q-8 -83 -68 -143 q-68 -69 -166 -69 q-99 0 -167 69 q-65 66 -69 143 l74 0 Z" /><glyph glyph-name="dotaccent" unicode="&#x2d9;" d="M202 1303 q31 0 53.5 -22 q22.5 -22 22.5 -54 q0 -32 -22.5 -54 q-22.5 -22 -53.5 -22 q-32 0 -54.5 22 q-22.5 22 -22.5 54 q0 32 22.5 54 q22.5 22 54.5 22 Z" /><glyph glyph-name="ring" unicode="&#x2da;" d="M382 1362 q51 0 87 -36 q36 -36 36 -87 q0 -50 -36 -86 q-36 -36 -87 -36 q-51 0 -87 36 q-36 36 -36 86 q0 51 36 87 q36 36 87 36 ZM382 1297 q-24 0 -41 -17 q-17 -17 -17 -41 q0 -23 17 -40 q17 -17 41 -17 q23 0 40 17 q17 17 17 40 q0 24 -17 41 q-17 17 -40 17 Z" /><glyph glyph-name="ogonek" unicode="&#x2db;" d="M197 18 q-93 -47 -104 -120 q-2 -18 -2 -34 q0 -48 22 -74 q30 -36 80 -36 q30 0 58 14 l22 -50 q-56 -23 -111 -23 q-73 0 -117 49 q-35 39 -35 96 q0 14 2 29 q15 104 165 179 l20 -30 Z" /><glyph glyph-name="tilde" unicode="&#x2dc;" d="M407 1255 q75 -60 124 -60 l5 0 q50 3 70 84 l69 0 q-21 -129 -99 -152 q-21 -6 -42 -6 q-57 0 -115 46 q-75 59 -124 59 l-5 0 q-50 -3 -70 -84 l-70 0 q22 129 100 152 q21 6 42 6 q57 0 115 -45 Z" /><glyph glyph-name="hungarumlaut" unicode="&#x2dd;" d="M479 1348 l-245 -187 l-84 0 l163 187 l166 0 ZM708 1348 l-245 -187 l-84 0 l163 187 l166 0 Z" /><glyph glyph-name="tonos" unicode="&#x384;" d="M414 1600 l-245 -187 l-84 0 l163 187 l166 0 Z" /><glyph glyph-name="dieresistonos" unicode="&#x385;" d="M578 1600 l-201 -187 l-83 0 l117 187 l167 0 ZM617 1536 q25 0 44 -18 q19 -18 19 -43 q0 -27 -19 -45 q-19 -18 -44 -18 q-26 0 -44.5 18 q-18.5 18 -18.5 45 q0 25 18.5 43 q18.5 18 44.5 18 ZM187 1536 q25 0 44 -18 q19 -18 19 -43 q0 -27 -19 -45 q-19 -18 -44 -18 q-26 0 -44.5 18 q-18.5 18 -18.5 45 q0 25 18.5 43 q18.5 18 44.5 18 Z" /><glyph glyph-name="anoteleia" unicode="&#x387;" d="M139 1134 q30 0 53 -22.5 q23 -22.5 23 -53.5 q0 -32 -23 -54 q-23 -22 -53 -22 q-32 0 -54.5 22 q-22.5 22 -22.5 54 q0 31 22.5 53.5 q22.5 22.5 54.5 22.5 Z" /><glyph glyph-name="iotadieresistonos" unicode="&#x390;" d="M253 982 l0 -982 l-89 0 l0 982 l89 0 ZM385 1377 l-201 -187 l-83 0 l117 187 l167 0 ZM424 1313 q25 0 44 -18 q19 -18 19 -43 q0 -27 -19 -45 q-19 -18 -44 -18 q-26 0 -44.5 18 q-18.5 18 -18.5 45 q0 25 18.5 43 q18.5 18 44.5 18 ZM-6 1313 q25 0 44 -18 q19 -18 19 -43 q0 -27 -19 -45 q-19 -18 -44 -18 q-26 0 -44.5 18 q-18.5 18 -18.5 45 q0 25 18.5 43 q18.5 18 44.5 18 Z" /><glyph glyph-name="Gamma" unicode="&#x393;" d="M827 1600 l0 -91 l-609 0 l0 -1509 l-91 0 l0 1600 l700 0 Z" /><glyph glyph-name="uni0394" unicode="&#x394;" d="M34 1 l-68 0 l583 1599 l109 0 l590 -1600 l-1214 0 l0 1 ZM1119 90 l-516 1397 l-509 -1397 l1025 0 Z" /><glyph glyph-name="Theta" unicode="&#x398;" d="M890 1622 q341 0 581.5 -240 q240.5 -240 240.5 -580 q0 -341 -240.5 -581 q-240.5 -240 -581.5 -240 q-339 0 -579.5 240 q-240.5 240 -240.5 581 q0 340 240.5 580 q240.5 240 579.5 240 ZM890 1531 q-301 0 -514.5 -214 q-213.5 -214 -213.5 -515 q0 -302 213.5 -516 q213.5 -214 514.5 -214 q302 0 516 214 q214 214 214 516 q0 301 -214 515 q-214 214 -516 214 ZM439 847 l905 0 l0 -90 l-905 0 l0 90 Z" /><glyph glyph-name="Iota" unicode="&#x399;" d="M229 1600 l0 -1600 l-91 0 l0 1600 l91 0 Z" /><glyph glyph-name="Lambda" unicode="&#x39b;" d="M692 1600 l590 -1600 l-95 0 l-550 1487 l-542 -1486 l-95 0 l583 1599 l109 0 Z" /><glyph glyph-name="Xi" unicode="&#x39e;" d="M169 847 l905 0 l0 -90 l-905 0 l0 90 ZM57 1601 l1132 0 l0 -91 l-1132 0 l0 91 ZM57 91 l1132 0 l0 -90 l-1132 0 l0 90 Z" /><glyph glyph-name="Pi" unicode="&#x3a0;" d="M197 1509 l0 -1509 l-91 0 l0 1600 l1000 0 l0 -1600 l-90 0 l0 1509 l-819 0 Z" /><glyph glyph-name="Sigma" unicode="&#x3a3;" d="M27 1599 l1147 0 l0 -91 l-1050 0 l585 -709 l-585 -709 l1050 0 l0 -90 l-1147 0 l0 131 l566 668 l-566 668 l0 132 Z" /><glyph glyph-name="Phi" unicode="&#x3a6;" d="M847 334 l0 905 q-306 -8 -483 -131 q-189 -134 -189 -322 q0 -188 189 -320 q177 -124 483 -132 ZM938 239 l0 -235 l-91 0 l0 235 q-346 9 -550 160 q-218 161 -218 388 q0 228 218 388 q204 150 550 159 l0 264 l91 0 l0 -264 q347 -9 552 -159 q217 -160 217 -388 q0 -227 -217 -388 q-205 -151 -552 -160 ZM938 1239 l0 -905 q308 8 484 132 q189 132 189 320 q0 188 -189 322 q-176 123 -484 131 Z" /><glyph glyph-name="Psi" unicode="&#x3a8;" d="M955 352 l0 -348 l-90 0 l0 348 q-347 9 -550 160 q-207 161 -213 392 l0 694 l91 0 l0 -699 q0 -187 188 -320 q177 -124 484 -132 l0 1151 l90 0 l0 -1151 q308 8 484 132 q189 133 189 325 l6 0 l0 694 l91 0 l0 -700 q-2 -226 -218 -386 q-204 -151 -552 -160 Z" /><glyph glyph-name="alpha" unicode="&#x3b1;" d="M1109 234 q-34 -53 -80 -101 q-161 -161 -389 -161 q-227 0 -388 161 q-161 161 -161 387 q0 229 161 389.5 q161 160.5 388 160.5 q228 0 389 -160 q50 -51 80 -154 l72 226 l89 0 l-113 -491 l113 -491 l-89 0 l-72 234 ZM1066 495 q0 238 -105 347 q-133 133 -321 133 q-188 0 -321 -133.5 q-133 -133.5 -133 -321.5 q0 -188 133 -320 q133 -132 321 -132 q188 0 321 132 q102 102 105 295 Z" /><glyph glyph-name="beta" unicode="&#x3b2;" d="M229 1521.5 q93 99.5 234 99.5 q143 0 242.5 -100 q99.5 -100 99.5 -239 q0 -143 -76 -224.5 q-76 -81.5 -143 -108.5 q145 -47 240 -149 q137 -147 137 -344 q0 -198 -139.5 -338 q-139.5 -140 -337.5 -140 q-101 0 -187 37 l29 91 q73 -33 158 -33 q159 0 271 111.5 q112 111.5 112 271.5 q0 158 -109 277 q-109 119 -328 160 l-74 2 l0 89 q93 1 152 24.5 q59 23.5 129 97.5 q70 74 70 176 q0 103 -72 174 q-72 71 -174 71 q-101 0 -168.5 -75 q-67.5 -75 -67.5 -203 l0 -1620 l-91 0 l0 1631 q0 162 93 261.5 Z" /><glyph glyph-name="gamma" unicode="&#x3b3;" d="M457 0 l-412 982 l105 0 l353 -841 l358 841 l105 0 l-414 -977 l0 -380 l-95 0 l0 375 Z" /><glyph glyph-name="delta" unicode="&#x3b4;" d="M309 841.5 q-133 -133.5 -133 -321.5 q0 -188 133 -320 q133 -132 321 -132 q188 0 321 132 q133 132 133 320 q0 188 -133 321.5 q-133 133.5 -321 133.5 q-188 0 -321 -133.5 ZM810 1070 q96 -47 232.5 -184 q136.5 -137 136.5 -366 q0 -226 -160.5 -387 q-160.5 -161 -388.5 -161 q-227 0 -388 161 q-161 161 -161 387 q0 229 162 390 q141 141 401 169 l-426 515 l712 0 l0 -90 l-499 0 q283 -387 379 -434 Z" /><glyph glyph-name="epsilon" unicode="&#x3b5;" d="M353 455 q-37 -7 -102 -54 q-65 -47 -65 -144 q0 -75 73.5 -128.5 q73.5 -53.5 193.5 -53.5 q175 11 298 186 l-1 -147 q-133 -135 -297 -135 q-148 0 -249.5 76.5 q-101.5 76.5 -101.5 213.5 q0 135 160 232 q-160 97 -160 243 q0 137 101.5 195.5 q101.5 58.5 249.5 58.5 q160 0 297 -127 l0 -122 q-121 154 -297 154 q-120 0 -193.5 -37 q-73.5 -37 -73.5 -111 q0 -109 65 -155.5 q65 -46.5 102 -55.5 l247 0 l0 -89 l-247 0 Z" /><glyph glyph-name="zeta" unicode="&#x3b6;" d="M916 1570 q-615 -617 -701 -1051 q-14 -69 -14 -127 q0 -310 386 -322 q280 -9 280 -216 q-34 -181 -204 -187 l0 94 q106 0 113 105 l0 6 q0 106 -182 106 q-481 11 -481 399 q0 46 8 98 q63 484 640 1034 l-606 0 l0 91 l761 0 l0 -30 Z" /><glyph glyph-name="eta" unicode="&#x3b7;" d="M193 762 l0 -762 l-91 0 l0 982 l91 0 l0 -63 q122 122 285 122 q174 0 283 -109.5 q109 -109.5 112 -274.5 l0 -1032 l-90 0 l0 1023 q0 126 -90.5 214 q-90.5 88 -214.5 88 q-124 0 -214 -87 q-49 -48 -71 -101 Z" /><glyph glyph-name="theta" unicode="&#x3b8;" d="M1094 786 q0 340 -133 529 q-133 189 -321 189 q-188 0 -321 -189 q-133 -189 -133 -529 q0 -340 133 -529 q133 -189 321 -189 q188 0 321 189 q133 189 133 529 ZM1189 786 q0 -379 -160.5 -596.5 q-160.5 -217.5 -387.5 -217.5 q-228 0 -389 217.5 q-161 217.5 -161 596.5 q0 378 161 596 q161 218 389 218 q227 0 387.5 -218 q160.5 -218 160.5 -596 ZM333 831 l615 0 l0 -90 l-615 0 l0 90 Z" /><glyph glyph-name="iota" unicode="&#x3b9;" d="M253 982 l0 -982 l-89 0 l0 982 l89 0 Z" /><glyph glyph-name="kappa" unicode="&#x3ba;" d="M705 982 l-242 -300 l385 -682 l-110 0 l-334 610 l-200 -222 l0 -388 l-91 0 l0 982 l91 0 l0 -450 l385 450 l116 0 Z" /><glyph glyph-name="lambda" unicode="&#x3bb;" d="M532 798 l372 -798 l-100 0 l-324 686 l-322 -686 l-101 0 l373 800 l-281 601 l100 0 l282 -603 l1 0 Z" /><glyph glyph-name="uni03BC" unicode="&#x3bc;" d="M781 111 q-4 -5 -10 -12 q-110 -108 -283 -108 q-160 0 -273 110 l0 -476 l-91 0 l0 1357 l91 0 l0 -731 q19 -43 59 -84 q90 -86 214 -86 q124 0 215 89 q58 57 78 130 l0 682 l89 0 l0 -982 l-89 0 l0 111 Z" /><glyph glyph-name="nu" unicode="&#x3bd;" d="M154 982 l316 -750 l319 750 l105 0 l-424 -1016 l-421 1016 l105 0 Z" /><glyph glyph-name="xi" unicode="&#x3be;" d="M651 -10.5 q-281 22.5 -420.5 145.5 q-139.5 123 -139.5 321 q0 197 137 344 q95 102 240 149 q-67 27 -143 97.5 q-76 70.5 -76 212.5 q19 339 436 340 l246 1 l0 -83 l-213 0 q-361 0 -361 -250 l0 -8 q0 -102 64 -164.5 q64 -62.5 183 -109.5 l319 -1 l0 -89 l-301 2 q-219 -45 -328 -164 q-109 -119 -109 -277 q0 -160 112 -254.5 q112 -94.5 418.5 -129 q306.5 -34.5 306.5 -252.5 l0 -23 q-34 -135 -212 -152 l0 105 q115 0 122 82 l0 6 q0 129 -281 151.5 Z" /><glyph glyph-name="pi" unicode="&#x3c0;" d="M449 891 l0 -891 l-89 0 l0 891 l-292 0 l0 91 l1126 0 l0 -91 l-292 0 l0 -891 l-89 0 l0 891 l-364 0 Z" /><glyph glyph-name="rho" unicode="&#x3c1;" d="M104 654 q43 163 175.5 289 q132.5 126 359.5 126 q228 0 388.5 -160 q160.5 -160 160.5 -389 q0 -226 -160.5 -387 q-160.5 -161 -388.5 -161 q-227 0 -388 161 q-32 32 -56 66 l0 -574 l-91 0 l0 1029 ZM195 614 l0 -188 q24 -129 123 -226 q133 -133 321 -133 q188 0 321 132.5 q133 132.5 133 320.5 q0 188 -133 321.5 q-133 133.5 -321 133.5 q-188 0 -321 -133 q-99 -99 -123 -228 Z" /><glyph glyph-name="sigma1" unicode="&#x3c2;" d="M639.5 -16 q-201.5 40 -364 157 q-162.5 117 -162.5 315 q0 197 137 344 q149 165 479 185 l216 -1 l0 -89 l-166 0 q-308 -9 -440 -145 q-132 -136 -132 -294 q0 -160 134.5 -248.5 q134.5 -88.5 362 -140 q227.5 -51.5 227.5 -213.5 l0 -23 q-34 -158 -213 -175 l0 105 q116 0 123 105 l0 6 q0 72 -201.5 112 Z" /><glyph glyph-name="sigma" unicode="&#x3c3;" d="M321 841.5 q-133 -133.5 -133 -321.5 q0 -188 133 -320 q133 -132 321 -132 q188 0 321 132 q133 132 133 320 q0 188 -133 321.5 q-133 133.5 -321 133.5 q-188 0 -321 -133.5 ZM1048 891 q143 -155 143 -371 q0 -226 -160.5 -387 q-160.5 -161 -388.5 -161 q-227 0 -388 161 q-161 161 -161 387 q0 229 161 389.5 q161 160.5 388 160.5 q170 0 301 -88 l332 0 l0 -91 l-227 0 Z" /><glyph glyph-name="tau" unicode="&#x3c4;" d="M564 891 l0 -891 l-89 0 l0 891 l-405 0 l0 91 l900 0 l0 -91 l-406 0 Z" /><glyph glyph-name="upsilon" unicode="&#x3c5;" d="M555 -14 q-184 0 -293 109 q-109 109 -112 275 l0 612 l90 0 l0 -604 q0 -125 91 -213 q90 -89 223 -89 q124 0 214.5 88.5 q90.5 88.5 90.5 213.5 l0 604 l90 0 l0 -612 q-3 -166 -112 -275 q-109 -109 -282 -109 Z" /><glyph glyph-name="phi" unicode="&#x3c6;" d="M607 -17 q-206 11 -354 161 q-162 160 -162 387 q0 228 162 389 q53 54 81 71 l34 -96 q-25 -21 -47 -43 q-134 -134 -134 -321 q0 -188 133 -321 q129 -130 272 -130 l8 0 l0 841 q17 106 121 106 q73 0 188 -51 q281 -126 281 -445 q0 -227 -161 -387 q-140 -142 -332 -160 l0 -353 l-90 0 l0 352 ZM691 98 q191 33 270 111 q134 134 134 322 q0 233 -197 346 q-101 57 -152 57 q-51 0 -54 -55 l-1 -781 Z" /><glyph glyph-name="chi" unicode="&#x3c7;" d="M548 269 l-389 -638 l-102 0 l439 722 l-382 629 l103 0 l331 -544 l330 544 l103 0 l-382 -629 l439 -722 l-102 0 l-388 638 Z" /><glyph glyph-name="psi" unicode="&#x3c8;" d="M708 -17 l0 -341 l-97 0 l0 341 q-201 13 -347 161 q-162 160 -162 387 l0 452 l96 0 l0 -452 q0 -188 133 -321 q129 -130 272 -130 l8 0 l0 903 l97 0 l0 -903 l8 0 q144 0 273 130 q132 133 132 321 l0 452 l97 0 l0 -452 q0 -227 -162 -387 q-146 -148 -348 -161 Z" /><glyph glyph-name="omega" unicode="&#x3c9;" d="M732 223 l-7 0 l0 529 l89 0 l0 -529 l-9 0 q8 -12 16 -23 q6 -8 13 -15 q59 -130 212 -130 q154 0 236 119 q82 119 82 375 q0 233 -120 417 l0 16 l89 0 q126 -216 126 -433 q0 -284 -103.5 -430.5 q-103.5 -146.5 -296.5 -146.5 q-191 0 -289 159 q-97 -159 -288 -159 q-194 0 -298.5 146.5 q-104.5 146.5 -104.5 430.5 q0 220 135 433 l90 0 l0 -9 q-130 -170 -130 -424 q0 -256 82 -375 q82 -119 236 -119 q154 0 214 130 q6 8 11 16 q8 10 15 22 Z" /><glyph glyph-name="afii10051" unicode="&#x402;" d="M562 561 l0 -561 l-89 0 l0 1509 l-405 0 l0 91 l900 0 l0 -91 l-406 0 l0 -704 q28 37 63 69 q150 139 383 139 q233 0 391 -139 q148 -112 148 -403 q0 -294 -148 -416 q-43 -37 -91 -65 l-60 65 q37 23 73 53 q133 117 135 351 q-2 233 -135 350 q-136 119 -323 119 q-188 0 -312 -119 q-113 -108 -124 -248 Z" /><glyph glyph-name="afii10053" unicode="&#x404;" d="M1188 847 l0 -90 l-985 0 q14 -273 213 -471 q213 -214 514 -214 q302 0 516 214 q115 114 168 255 l98 0 q-59 -178 -200 -319 q-241 -241 -582 -241 q-339 0 -579.5 240 q-240.5 240 -240.5 581 q0 340 240.5 580 q240.5 240 579.5 240 q341 0 582 -239 q70 -72 119 -150 l-111 0 q-33 43 -74 84 q-214 214 -516 214 q-301 0 -514 -214 q-199 -198 -213 -470 l985 0 Z" /><glyph glyph-name="afii10058" unicode="&#x409;" d="M1162 0 l0 1509 l-819 0 l0 -1226 q0 -122 -82.5 -205.5 q-82.5 -83.5 -203.5 -83.5 l0 91 q83 0 140 56 q56 56 56 153 l0 1306 l1000 0 l0 -757 l524 0 q166 -4 274.5 -123 q108.5 -119 108.5 -292 q0 -185 -108.5 -305 q-108.5 -120 -274.5 -123 l-615 0 ZM1253 752 l0 -662 l516 0 q124 0 213 101.5 q89 101.5 89 234.5 q0 125 -89 225.5 q-89 100.5 -213 100.5 l-516 0 Z" /><glyph glyph-name="afii10059" unicode="&#x40a;" d="M1023 0 l0 755 l-819 0 l0 -755 l-91 0 l0 1600 l91 0 l0 -755 l819 0 l0 755 l90 0 l0 -757 l534 0 q167 -4 275.5 -123 q108.5 -119 108.5 -292 q0 -185 -108.5 -305 q-108.5 -120 -275.5 -123 l-624 0 ZM1113 752 l0 -662 l526 0 q125 0 214 101.5 q89 101.5 89 234.5 q0 125 -89 225.5 q-89 100.5 -214 100.5 l-526 0 Z" /><glyph glyph-name="afii10060" unicode="&#x40b;" d="M553 561 l0 -561 l-89 0 l0 1509 l-405 0 l0 91 l900 0 l0 -91 l-406 0 l0 -704 q28 37 63 69 q150 139 383 139 q233 0 379 -139 q144 -138 144 -432 l0 -442 l-98 0 l1 451 q0 239 -125 364 q-119 118 -295 118 l-16 0 q-188 -5 -312 -124 q-112 -108 -124 -248 Z" /><glyph glyph-name="afii10145" unicode="&#x40f;" d="M589 1 l-487 0 l0 1599 l91 0 l0 -1509 l890 0 l0 1509 l91 0 l0 -1600 l-496 0 l0 -375 l-89 0 l0 376 Z" /><glyph glyph-name="afii10018" unicode="&#x411;" d="M119 845 l0 755 l700 0 l0 -91 l-610 0 l0 -664 l517 0 q167 -3 275.5 -122.5 q108.5 -119.5 108.5 -292.5 q0 -185 -108.5 -305 q-108.5 -120 -275.5 -123 l-517 0 l0 -2 l-90 0 l0 2 l-6 0 l0 91 l6 0 l0 662 l-6 0 l0 90 l6 0 ZM209 755 l0 -662 l509 0 q125 0 213.5 101 q88.5 101 88.5 235 q0 124 -88.5 225 q-88.5 101 -213.5 101 l-509 0 Z" /><glyph glyph-name="afii10020" unicode="&#x413;" d="M827 1600 l0 -91 l-609 0 l0 -1509 l-91 0 l0 1600 l700 0 Z" /><glyph glyph-name="afii10021" unicode="&#x414;" d="M1041 98 l0 1411 l-578 0 q33 -162 33 -348 q0 -681 -356 -1063 l901 0 ZM1133 98 l88 0 l0 -473 l-89 0 l0 375 l-1020 0 l0 -375 l-89 0 l0 473 l10 0 q372 428 372 1063 q0 188 -57 439 l784 0 l1 -1502 Z" /><glyph glyph-name="afii10024" unicode="&#x416;" d="M1003 835 l535 765 l109 0 l-415 -601 l699 -999 l-109 0 l-648 924 l-171 -245 l0 -679 l-91 0 l0 679 l-171 245 l-647 -924 l-110 0 l699 999 l-415 601 l110 0 l534 -765 l0 765 l91 0 l0 -765 Z" /><glyph glyph-name="afii10025" unicode="&#x417;" d="M786.5 664 q-83.5 96 -235.5 96 l-378 0 l0 90 l378 0 q152 0 235.5 95.5 q83.5 95.5 83.5 249.5 q0 154 -107.5 241.5 q-107.5 87.5 -249.5 87.5 q-233 0 -411 -131 l0 88 q171 127 388 127 q205 0 340 -109.5 q135 -109.5 135 -291.5 q0 -282 -193 -402 q193 -97 193 -401 q0 -182 -135 -292.5 q-135 -110.5 -340 -110.5 q-221 0 -388 135 l0 113 q134 -153 388 -153 q143 0 261.5 82 q118.5 82 118.5 236 q0 154 -83.5 250 Z" /><glyph glyph-name="afii10026" unicode="&#x418;" d="M1391 1600 l0 -1600 l-90 0 l0 1455 l-1039 -1455 l-139 0 l0 1600 l91 0 l0 -1490 l1063 1490 l114 0 Z" /><glyph glyph-name="afii10029" unicode="&#x41b;" d="M343 283 q0 -122 -82.5 -205.5 q-82.5 -83.5 -203.5 -83.5 l0 91 q83 0 140 56 q56 56 56 153 l0 1306 l1000 0 l0 -1600 l-91 0 l0 1509 l-819 0 l0 -1226 Z" /><glyph glyph-name="afii10033" unicode="&#x41f;" d="M197 1509 l0 -1509 l-91 0 l0 1600 l1000 0 l0 -1600 l-90 0 l0 1509 l-819 0 Z" /><glyph glyph-name="afii10037" unicode="&#x423;" d="M1321 1600 q-790 -1409 -953 -1536 q-100 -77 -186 -77 q-55 0 -106 32 l44 79 q50 -27 95 -27 q21 0 40 6 q61 17 226 270 l142 231 l-668 1022 l103 0 l613 -937 l547 937 l103 0 Z" /><glyph glyph-name="afii10038" unicode="&#x424;" d="M755 392 l0 787 q-267 -8 -422 -114 q-168 -116 -168 -279 q0 -164 168 -279 q155 -107 422 -115 ZM845 293 l0 -289 l-90 0 l0 289 q-308 9 -490 145 q-197 145 -197 348 q0 205 197 350 q182 133 490 142 l0 320 l90 0 l0 -320 q310 -9 493 -142 q195 -145 195 -350 q0 -203 -195 -348 q-183 -136 -493 -145 ZM845 1179 l0 -787 q269 8 424 115 q167 115 167 279 q0 163 -167 279 q-155 106 -424 114 Z" /><glyph glyph-name="afii10040" unicode="&#x426;" d="M1180 0 l-1067 0 l0 1600 l91 0 l0 -1510 l890 0 l0 1510 l91 0 l0 -1503 l84 0 l0 -472 l-89 0 l0 375 Z" /><glyph glyph-name="afii10041" unicode="&#x427;" d="M1061 1040 l0 560 l89 0 l0 -1600 l-89 0 l0 795 q-28 -36 -63 -68 q-150 -139 -383 -139 q-233 0 -378 139 q-145 137 -145 431 l0 442 l98 0 l-1 -451 q0 -238 125 -363 q119 -119 295 -119 l17 0 q187 6 311 125 q112 107 124 248 Z" /><glyph glyph-name="afii10042" unicode="&#x428;" d="M113 1600 l91 0 l0 -1509 l664 0 l0 1509 l90 0 l0 -1509 l664 0 l0 1509 l91 0 l0 -1599 l-1600 0 l0 1599 Z" /><glyph glyph-name="afii10043" unicode="&#x429;" d="M1708 1 l-1595 0 l0 1599 l91 0 l0 -1509 l664 0 l0 1509 l90 0 l0 -1509 l664 0 l0 1509 l91 0 l0 -1502 l85 0 l0 -473 l-90 0 l0 376 Z" /><glyph glyph-name="afii10044" unicode="&#x42a;" d="M407 843 l0 666 l-384 0 l0 91 l474 0 l0 -757 l522 0 q166 -4 274.5 -123 q108.5 -119 108.5 -292 q0 -185 -108.5 -305 q-108.5 -120 -274.5 -123 l-614 0 l0 90 l2 0 l0 662 l-2 0 l0 91 l2 0 ZM497 752 l0 -662 l514 0 q124 0 213 101.5 q89 101.5 89 234.5 q0 125 -89 225.5 q-89 100.5 -213 100.5 l-514 0 Z" /><glyph glyph-name="afii10045" unicode="&#x42b;" d="M1476 1600 l0 -1600 l-90 0 l0 1600 l90 0 ZM105 0 l0 1600 l91 0 l0 -757 l531 0 q167 -4 275.5 -123 q108.5 -119 108.5 -292 q0 -185 -108.5 -305 q-108.5 -120 -275.5 -123 l-622 0 ZM196 752 l0 -662 l523 0 q125 0 214 101.5 q89 101.5 89 234.5 q0 125 -89 225.5 q-89 100.5 -214 100.5 l-523 0 Z" /><glyph glyph-name="afii10046" unicode="&#x42c;" d="M105 0 l0 1600 l91 0 l0 -757 l531 0 q167 -4 275.5 -123 q108.5 -119 108.5 -292 q0 -185 -108.5 -305 q-108.5 -120 -275.5 -123 l-622 0 ZM196 752 l0 -662 l523 0 q125 0 214 101.5 q89 101.5 89 234.5 q0 125 -89 225.5 q-89 100.5 -214 100.5 l-523 0 Z" /><glyph glyph-name="afii10047" unicode="&#x42d;" d="M1579 847 q-14 272 -212 470 q-214 214 -515 214 q-302 0 -516 -214 q-41 -41 -74 -84 l-112 0 q50 78 120 150 q241 239 582 239 q339 0 579.5 -240 q240.5 -240 240.5 -580 q0 -341 -240.5 -581 q-240.5 -240 -579.5 -240 q-341 0 -582 241 q-142 141 -200 319 l97 0 q53 -141 169 -255 q214 -214 516 -214 q301 0 515 214 q198 198 212 471 l-985 0 l0 90 l985 0 Z" /><glyph glyph-name="afii10048" unicode="&#x42e;" d="M1418 1531 q-301 0 -515 -214 q-214 -214 -214 -515 q0 -302 214 -516 q214 -214 515 -214 q302 0 515.5 214 q213.5 214 213.5 516 q0 301 -213.5 515 q-213.5 214 -515.5 214 ZM598 755 l-394 0 l0 -755 l-91 0 l0 1600 l91 0 l0 -755 l394 0 q15 312 240 538 q240 239 580 239 q340 0 580.5 -240 q240.5 -240 240.5 -580 q0 -341 -240.5 -581 q-240.5 -240 -580.5 -240 q-340 0 -580 241 q-224 223 -240 533 Z" /><glyph glyph-name="afii10049" unicode="&#x42f;" d="M613 1508 q-178 0 -304.5 -125.5 q-126.5 -125.5 -126.5 -304.5 q0 -180 126.5 -306 q126.5 -126 304.5 -126 l271 0 l0 862 l-271 0 ZM229 0 l-111 0 l369 569 q-137 33 -243 139 q-153 153 -153 370 q0 215 153 369 q128 128 311 153 l420 0 l0 -1600 l-91 0 l0 554 l-271 0 q-14 0 -28 1 l-356 -555 Z" /><glyph glyph-name="afii10066" unicode="&#x431;" d="M382 841.5 q-133 -133.5 -133 -321.5 q0 -188 133 -320 q133 -132 321 -132 q188 0 321 132 q133 132 133 320 q0 188 -133 321.5 q-133 133.5 -321 133.5 q-188 0 -321 -133.5 ZM205 755 q40 83 111 155 q161 160 387 160 q228 0 388.5 -160.5 q160.5 -160.5 160.5 -389.5 q0 -226 -160.5 -387 q-160.5 -161 -388.5 -161 q-226 0 -387 161 q-144 143 -160 338 l-8 0 q-38 190 -38 349 q0 318 150 521 q186 251 430 251 q51 0 103 -10 q140 -29 227 -29 q105 0 132 42 l0 -89 q-27 -40 -125 -40 q-83 0 -218 29 q-53 11 -102 11 q-226 0 -383 -232 q-121 -178 -121 -450 q0 -34 2 -69 Z" /><glyph glyph-name="afii10067" unicode="&#x432;" d="M202 542 l280 0 l0 1 q97 4 149.5 57 q52.5 53 52.5 118 q0 65 -52.5 117.5 q-52.5 52.5 -149.5 57.5 l0 1 l-280 0 l0 -352 ZM202 442 l0 -352 l280 0 l0 1 q97 5 149.5 57.5 q52.5 52.5 52.5 117.5 q0 65 -52.5 118 q-52.5 53 -149.5 57 l0 1 l-280 0 ZM113 984 l372 0 l0 -1 q130 -6 210 -85.5 q80 -79.5 80 -179.5 l0 -1 q0 -99 -79 -179 q-29 -28 -61 -46 q32 -18 61 -45 q79 -81 79 -180 l0 -1 q0 -100 -80 -179.5 q-80 -79.5 -210 -85.5 l0 -1 l-372 0 l0 984 Z" /><glyph glyph-name="afii10068" unicode="&#x433;" d="M202 891 l0 -891 l-89 0 l0 982 l494 0 l0 -91 l-405 0 Z" /><glyph glyph-name="afii10069" unicode="&#x434;" d="M938 98 l80 0 l0 -473 l-90 0 l0 375 l-782 0 l0 -375 l-89 0 l0 473 l80 0 q3 3 5 4 q213 212 213 628 q0 85 -9 161 q-6 47 -15 91 l607 0 l0 -884 ZM255 90 l594 0 l0 801 l-411 0 q8 -76 8 -161 q0 -405 -191 -640 Z" /><glyph glyph-name="afii10072" unicode="&#x436;" d="M721 533 l385 449 l116 0 l-243 -300 l386 -682 l-111 0 l-333 610 l-200 -221 l0 -389 l-91 0 l0 389 l-199 221 l-334 -610 l-111 0 l386 682 l-242 300 l115 0 l385 -449 l0 449 l91 0 l0 -449 Z" /><glyph glyph-name="afii10073" unicode="&#x437;" d="M615 494 q30 -16 57 -36 q105 -79 105 -190 q0 -111 -104.5 -190 q-104.5 -79 -251.5 -79 q-147 0 -251 79 q-104 79 -104 190 l0 10 l96 0 l0 -10 q0 -81 76 -138.5 q76 -57.5 183 -57.5 q108 0 183.5 57.5 q75.5 57.5 75.5 138.5 q0 81 -75 139 q-46 33 -101 48 l-226 0 l0 89 l258 0 q37 15 69 39 q75 56 75 138 q0 81 -75.5 138 q-75.5 57 -183.5 57 q-107 0 -183 -56 q-66 -51 -75 -119 l-96 0 q9 98 103 170 q104 79 251 79 q147 0 251.5 -79.5 q104.5 -79.5 104.5 -189.5 q0 -111 -105 -190 q-27 -21 -57 -37 Z" /><glyph glyph-name="afii10074" unicode="&#x438;" d="M102 982 l89 0 l0 -832 l628 832 l97 0 l0 -982 l-90 0 l0 839 l-635 -838 l0 -1 l-89 0 l0 982 Z" /><glyph glyph-name="afii10076" unicode="&#x43a;" d="M705 982 l-242 -300 l385 -682 l-110 0 l-334 610 l-200 -222 l0 -388 l-91 0 l0 982 l91 0 l0 -450 l385 450 l116 0 Z" /><glyph glyph-name="afii10077" unicode="&#x43b;" d="M1012 982 l0 -982 l-89 0 l0 891 l-656 0 l0 -665 q0 -210 -210 -227 l0 89 q121 14 121 136 l0 758 l834 0 Z" /><glyph glyph-name="afii10078" unicode="&#x43c;" d="M555 134 l367 848 l96 0 l0 -982 l-90 0 l0 760 l-329 -760 l-89 0 l-330 760 l0 -760 l-89 0 l0 982 l96 0 l368 -848 Z" /><glyph glyph-name="afii10079" unicode="&#x43d;" d="M925 0 l-89 0 l0 486 l-656 0 l0 -486 l-89 0 l0 982 l89 0 l0 -405 l656 0 l0 405 l89 0 l0 -982 Z" /><glyph glyph-name="afii10081" unicode="&#x43f;" d="M191 891 l0 -891 l-89 0 l0 982 l834 0 l0 -982 l-89 0 l0 891 l-656 0 Z" /><glyph glyph-name="afii10084" unicode="&#x442;" d="M585 891 l0 -891 l-89 0 l0 891 l-405 0 l0 91 l900 0 l0 -91 l-406 0 Z" /><glyph glyph-name="afii10085" unicode="&#x443;" d="M232 -374 l-101 0 l259 556 l-373 800 l101 0 l322 -686 l324 686 l100 0 l-632 -1356 Z" /><glyph glyph-name="afii10086" unicode="&#x444;" d="M1158 632 l0 -224 q29 -117 120 -208 q133 -133 321 -133 q187 0 320 132.5 q133 132.5 133 320.5 q0 188 -133 321.5 q-133 133.5 -320 133.5 q-188 0 -321 -133 q-91 -91 -120 -210 ZM1068 408 l0 224 q-28 119 -120 210 q-132 133 -320 133 q-188 0 -321 -133.5 q-133 -133.5 -133 -321.5 q0 -188 133 -320.5 q133 -132.5 321 -132.5 q188 0 320 133 q92 91 120 208 ZM1158 848 q24 32 53 62 q161 159 388 159 q228 0 388 -160 q160 -160 160 -389 q0 -226 -160 -387 q-160 -161 -388 -161 q-227 0 -388 161 q-29 29 -53 60 l0 -551 l-90 0 l0 551 q-24 -31 -52 -60 q-162 -161 -388 -161 q-229 0 -389 161 q-160 161 -160 387 q0 229 160 389 q160 160 389 160 q226 0 388 -159 q28 -30 52 -62 l0 551 l90 0 l0 -551 Z" /><glyph glyph-name="afii10087" unicode="&#x445;" d="M322 519 l-288 463 l105 0 l236 -379 l235 379 l105 0 l-288 -463 l322 -519 l-104 0 l-270 434 l-271 -434 l-104 0 l322 519 Z" /><glyph glyph-name="afii10088" unicode="&#x446;" d="M937 0 l-824 0 l0 982 l89 0 l0 -892 l656 0 l0 892 l89 0 l0 -884 l79 0 l0 -473 l-89 0 l0 375 Z" /><glyph glyph-name="afii10089" unicode="&#x447;" d="M1003 812 l0 177 l90 0 l0 -989 l-90 0 l0 560 q-22 -32 -51 -59 q-139 -139 -372 -139 q-233 0 -366 139 q-134 137 -134 431 l0 57 l98 0 l-1 -66 q0 -239 113 -363 q109 -119 284 -119 l17 0 q187 6 300 125 q102 106 112 246 Z" /><glyph glyph-name="afii10090" unicode="&#x448;" d="M102 982 l91 0 l0 -891 l437 0 l0 891 l91 0 l0 -891 l438 0 l0 891 l90 0 l0 -981 l-1147 0 l0 981 Z" /><glyph glyph-name="afii10091" unicode="&#x449;" d="M1267 1 l-1143 0 l0 981 l91 0 l0 -891 l437 0 l0 891 l91 0 l0 -891 l438 0 l0 891 l90 0 l0 -884 l85 0 l0 -473 l-89 0 l0 376 Z" /><glyph glyph-name="afii10092" unicode="&#x44a;" d="M287 0 l0 891 l-253 0 l0 91 l343 0 l0 -404 l421 0 l0 -1 q130 -6 220 -85 q92 -80 92 -203 l0 -1 q0 -122 -92 -202 q-90 -79 -220 -85 l0 -1 l-511 0 ZM377 90 l417 0 l0 1 q98 5 162 58 q64 52 64 139 q0 89 -64 142 q-64 52 -162 56 l0 2 l-417 0 l0 -398 Z" /><glyph glyph-name="afii10093" unicode="&#x44b;" d="M202 90 l531 0 l0 1 q97 5 162 58 q63 52 63 139 q0 89 -63 142 q-65 52 -162 56 l0 2 l-531 0 l0 -398 ZM1334 0 l-89 0 l0 982 l89 0 l0 -982 ZM113 0 l0 982 l89 0 l0 -404 l534 0 l0 -1 q131 -6 221 -85 q92 -80 92 -203 l0 -1 q0 -122 -92 -202 q-90 -79 -221 -85 l0 -1 l-623 0 Z" /><glyph glyph-name="afii10094" unicode="&#x44c;" d="M202 90 l418 0 l0 1 q97 5 162 58 q63 52 63 139 q0 89 -63 142 q-65 52 -162 56 l0 2 l-418 0 l0 -398 ZM113 0 l0 982 l89 0 l0 -404 l421 0 l0 -1 q130 -6 221 -85 q92 -80 92 -203 l0 -1 q0 -122 -92 -202 q-91 -79 -221 -85 l0 -1 l-510 0 Z" /><glyph glyph-name="afii10095" unicode="&#x44d;" d="M1022 663 q-32 98 -112 179 q-133 133 -321 133 q-188 0 -321 -133 q-55 -55 -86 -123 l-101 0 q34 105 119 191 q160 160 389 160 q226 0 387.5 -160.5 q161.5 -160.5 161.5 -389.5 q0 -226 -161.5 -387 q-161.5 -161 -387.5 -161 q-229 0 -389 161 q-32 31 -51 54 l133 0 q129 -119 307 -119 q188 0 321 132 q133 132 133 320 q0 27 -4 51 l-614 0 l0 92 l597 0 Z" /><glyph glyph-name="afii10096" unicode="&#x44e;" d="M770 841.5 q-133 -133.5 -133 -321.5 q0 -188 133 -320 q133 -132 321 -132 q187 0 320 132 q133 132 133 320 q0 188 -133 321.5 q-133 133.5 -320 133.5 q-188 0 -321 -133.5 ZM543 486 l-341 0 l0 -486 l-89 0 l0 982 l89 0 l0 -405 l342 0 q18 192 160 333 q160 160 387 160 q228 0 388 -160.5 q160 -160.5 160 -389.5 q0 -226 -160 -387 q-160 -161 -388 -161 q-227 0 -387 161 q-150 149 -161 353 Z" /><glyph glyph-name="afii10097" unicode="&#x44f;" d="M699 891 l-304 0 l0 -1 q-98 -4 -161 -56 q-64 -53 -64 -141 q0 -88 64 -140 q63 -53 161 -58 l0 -1 l304 0 l0 397 ZM788 982 l0 -982 l-89 0 l0 404 l-241 0 l-21 -47 l-58 -123 l-109 -234 l-99 0 l190 407 q-111 13 -190 83 q-92 80 -92 202 l0 1 q0 123 92 203 q90 79 220 85 l0 1 l397 0 Z" /><glyph glyph-name="afii10099" unicode="&#x452;" d="M805 648 q0 126 -90.5 214 q-90.5 88 -214.5 88 q-124 0 -213 -87 q-41 -39 -60 -82 l0 -781 l-91 0 l0 1283 l-113 0 l0 89 l113 0 l0 228 l91 0 l0 -228 l219 0 l0 -89 l-219 0 l0 -352 q113 110 273 110 q174 0 283 -109.5 q109 -109.5 112 -274.5 l0 -714 q0 -122 -82.5 -205 q-82.5 -83 -203.5 -83 l0 90 q83 0 140 57 q56 55 56 153 l0 693 Z" /><glyph glyph-name="afii10101" unicode="&#x454;" d="M794 663 l0 -92 l-615 0 q-3 -24 -3 -51 q0 -188 133 -320 q133 -132 321 -132 q177 0 306 119 l134 0 q-19 -23 -51 -54 q-161 -161 -389 -161 q-227 0 -388 161 q-161 161 -161 387 q0 229 161 389.5 q161 160.5 388 160.5 q228 0 389 -160 q85 -86 119 -191 l-101 0 q-32 68 -86 123 q-133 133 -321 133 q-188 0 -322 -133 q-79 -81 -112 -179 l598 0 Z" /><glyph glyph-name="afii10106" unicode="&#x459;" d="M1016 90 l417 0 l0 1 q98 5 162 58 q64 52 64 139 q0 89 -64 142 q-64 52 -162 56 l0 2 l-417 0 l0 -398 ZM925 891 l-656 0 l0 -665 q0 -210 -210 -227 l0 89 q121 14 121 136 l0 758 l834 0 l0 -402 l423 -2 l0 -1 q130 -6 220 -85 q92 -80 92 -203 l0 -1 q0 -122 -92 -202 q-90 -79 -220 -85 l0 -1 l-512 0 l0 891 Z" /><glyph glyph-name="afii10107" unicode="&#x45a;" d="M936 90 l417 0 l0 1 q98 5 162 58 q64 52 64 139 q0 89 -64 142 q-64 52 -162 56 l0 2 l-417 0 l0 -398 ZM847 0 l0 486 l-656 0 l0 -486 l-89 0 l0 982 l89 0 l0 -405 l656 0 l0 405 l89 0 l0 -404 l421 0 l0 -1 q130 -6 220 -85 q92 -80 92 -203 l0 -1 q0 -122 -92 -202 q-90 -79 -220 -85 l0 -1 l-510 0 Z" /><glyph glyph-name="afii10108" unicode="&#x45b;" d="M136 1372 l0 228 l91 0 l0 -228 l219 0 l0 -89 l-219 0 l0 -352 q113 110 273 110 q174 0 283 -109.5 q109 -109.5 112 -274.5 l0 -657 l-90 0 l0 648 q0 126 -90.5 214 q-90.5 88 -214.5 88 q-124 0 -213 -87 q-41 -39 -60 -82 l0 -781 l-91 0 l0 1283 l-113 0 l0 89 l113 0 Z" /><glyph glyph-name="afii10109" unicode="&#x45c;" d="M705 982 l-242 -300 l385 -682 l-110 0 l-334 610 l-200 -222 l0 -388 l-91 0 l0 982 l91 0 l0 -450 l385 450 l116 0 ZM587 1378 l-245 -187 l-84 0 l163 187 l166 0 Z" /><glyph glyph-name="afii10193" unicode="&#x45f;" d="M474 0 l-372 0 l0 982 l89 0 l0 -892 l656 0 l0 892 l89 0 l0 -982 l-372 0 l0 -375 l-90 0 l0 375 Z" /><glyph glyph-name="afii10050" unicode="&#x490;" d="M827 1512 l0 -3 l-609 0 l0 -1509 l-91 0 l0 1600 l674 0 l0 271 l90 0 l0 -359 l-64 0 Z" /><glyph glyph-name="afii10098" unicode="&#x491;" d="M202 891 l0 -891 l-89 0 l0 982 l466 0 l0 270 l90 0 l0 -361 l-467 0 Z" /><glyph glyph-name="endash" unicode="&#x2013;" d="M50 637 l771 0 l0 -90 l-771 0 l0 90 Z" /><glyph glyph-name="emdash" unicode="&#x2014;" d="M50 637 l1407 0 l0 -90 l-1407 0 l0 90 Z" /><glyph glyph-name="afii00208" unicode="&#x2015;" d="M-75 637 l2111 0 l0 -90 l-2111 0 l0 90 Z" /><glyph glyph-name="underscoredbl" unicode="&#x2017;" d="M25 -255 l1000 0 l0 -90 l-1000 0 l0 90 ZM25 -30 l1000 0 l0 -90 l-1000 0 l0 90 Z" /><glyph glyph-name="quoteleft" unicode="&#x2018;" d="M163 1461 q23 -5 41 -23 q26 -26 26 -64 q0 -37 -26.5 -63 q-26.5 -26 -63.5 -26 q-37 0 -63.5 26 q-26.5 26 -26.5 63 q0 21 7 39 l98 198 l65 0 l-57 -150 Z" /><glyph glyph-name="quoteright" unicode="&#x2019;" d="M117 1435 q-23 5 -40 23 q-27 26 -27 64 q0 37 26.5 63 q26.5 26 63.5 26 q37 0 63.5 -26 q26.5 -26 26.5 -63 q0 -21 -7 -39 l-98 -198 l-65 0 l57 150 Z" /><glyph glyph-name="quotesinglbase" unicode="&#x201a;" d="M117 -13 q-23 5 -40 23 q-27 26 -27 64 q0 37 26.5 63 q26.5 26 63.5 26 q37 0 63.5 -26 q26.5 -26 26.5 -63 q0 -21 -7 -39 l-98 -198 l-65 0 l57 150 Z" /><glyph glyph-name="quotereversed" unicode="&#x201b;" d="M500 1285 l-65 0 l-98 198 q-7 18 -7 39 q0 37 26.5 63 q26.5 26 63.5 26 q37 0 63.5 -26 q26.5 -26 26.5 -63 q0 -38 -27 -64 q-17 -18 -40 -23 l57 -150 Z" /><glyph glyph-name="quotedblleft" unicode="&#x201c;" d="M163 1461 q23 -5 41 -23 q26 -26 26 -64 q0 -37 -26.5 -63 q-26.5 -26 -63.5 -26 q-37 0 -63.5 26 q-26.5 26 -26.5 63 q0 21 7 39 l98 198 l65 0 l-57 -150 ZM415 1461 q23 -5 41 -23 q26 -26 26 -64 q0 -37 -26.5 -63 q-26.5 -26 -63.5 -26 q-37 0 -63.5 26 q-26.5 26 -26.5 63 q0 21 7 39 l98 198 l65 0 l-57 -150 Z" /><glyph glyph-name="quotedblright" unicode="&#x201d;" d="M117 1435 q-23 5 -40 23 q-27 26 -27 64 q0 37 26.5 63 q26.5 26 63.5 26 q37 0 63.5 -26 q26.5 -26 26.5 -63 q0 -21 -7 -39 l-98 -198 l-65 0 l57 150 ZM369 1435 q-23 5 -40 23 q-27 26 -27 64 q0 37 26.5 63 q26.5 26 63.5 26 q37 0 63.5 -26 q26.5 -26 26.5 -63 q0 -21 -7 -39 l-98 -198 l-65 0 l57 150 Z" /><glyph glyph-name="quotedblbase" unicode="&#x201e;" d="M117 -13 q-23 5 -40 23 q-27 26 -27 64 q0 37 26.5 63 q26.5 26 63.5 26 q37 0 63.5 -26 q26.5 -26 26.5 -63 q0 -21 -7 -39 l-98 -198 l-65 0 l57 150 ZM369 -13 q-23 5 -40 23 q-27 26 -27 64 q0 37 26.5 63 q26.5 26 63.5 26 q37 0 63.5 -26 q26.5 -26 26.5 -63 q0 -21 -7 -39 l-98 -198 l-65 0 l57 150 Z" /><glyph glyph-name="dagger" unicode="&#x2020;" d="M350 1596 l0 218 l58 0 l0 -218 l250 0 l0 -58 l-250 0 l0 -1365 l-58 0 l0 1365 l-250 0 l0 58 l250 0 Z" /><glyph glyph-name="daggerdbl" unicode="&#x2021;" d="M350 1538 l-250 0 l0 58 l250 0 l0 218 l58 0 l0 -218 l250 0 l0 -58 l-250 0 l0 -485 l250 0 l0 -58 l-250 0 l0 -822 l-58 0 l0 822 l-250 0 l0 58 l250 0 l0 485 Z" /><glyph glyph-name="bullet" unicode="&#x2022;" d="M380 895 q61 0 106.5 -44 q45.5 -44 45.5 -108 q0 -63 -45.5 -107 q-45.5 -44 -106.5 -44 q-63 0 -108.5 44 q-45.5 44 -45.5 107 q0 64 45.5 108 q45.5 44 108.5 44 Z" /><glyph glyph-name="ellipsis" unicode="&#x2026;" d="M190 165 q37 0 63.5 -26 q26.5 -26 26.5 -63 q0 -38 -26.5 -64 q-26.5 -26 -63.5 -26 q-37 0 -63.5 26 q-26.5 26 -26.5 64 q0 37 26.5 63 q26.5 26 63.5 26 ZM873 165 q37 0 63.5 -26 q26.5 -26 26.5 -63 q0 -38 -26.5 -64 q-26.5 -26 -63.5 -26 q-37 0 -63.5 26 q-26.5 26 -26.5 64 q0 37 26.5 63 q26.5 26 63.5 26 ZM1556 165 q37 0 63.5 -26 q26.5 -26 26.5 -63 q0 -38 -26.5 -64 q-26.5 -26 -63.5 -26 q-37 0 -63.5 26 q-26.5 26 -26.5 64 q0 37 26.5 63 q26.5 26 63.5 26 Z" /><glyph glyph-name="perthousand" unicode="&#x2030;" d="M1107 1314 l-918 -1311 l-74 51 l918 1311 l74 -51 ZM311 1215 q96 0 163.5 -67.5 q67.5 -67.5 67.5 -163.5 q0 -96 -67.5 -163.5 q-67.5 -67.5 -163.5 -67.5 q-96 0 -163.5 67.5 q-67.5 67.5 -67.5 163.5 q0 96 67.5 163.5 q67.5 67.5 163.5 67.5 ZM311 1128 q-60 0 -102 -42 q-42 -42 -42 -102 q0 -60 42 -102 q42 -42 102 -42 q59 0 101.5 42 q42.5 42 42.5 102 q0 60 -42.5 102 q-42.5 42 -101.5 42 ZM911 615 q96 0 163.5 -67.5 q67.5 -67.5 67.5 -163.5 q0 -96 -67.5 -163.5 q-67.5 -67.5 -163.5 -67.5 q-96 0 -163.5 67.5 q-67.5 67.5 -67.5 163.5 q0 96 67.5 163.5 q67.5 67.5 163.5 67.5 ZM911 528 q-60 0 -102 -42 q-42 -42 -42 -102 q0 -60 42 -102 q42 -42 102 -42 q59 0 101.5 42 q42.5 42 42.5 102 q0 60 -42.5 102 q-42.5 42 -101.5 42 ZM1461 615 q96 0 163.5 -67.5 q67.5 -67.5 67.5 -163.5 q0 -96 -67.5 -163.5 q-67.5 -67.5 -163.5 -67.5 q-96 0 -163.5 67.5 q-67.5 67.5 -67.5 163.5 q0 96 67.5 163.5 q67.5 67.5 163.5 67.5 ZM1461 528 q-60 0 -102 -42 q-42 -42 -42 -102 q0 -60 42 -102 q42 -42 102 -42 q59 0 101.5 42 q42.5 42 42.5 102 q0 60 -42.5 102 q-42.5 42 -101.5 42 Z" /><glyph glyph-name="minute" unicode="&#x2032;" d="M125 997 l0 600 l90 0 l0 -600 l-90 0 Z" /><glyph glyph-name="second" unicode="&#x2033;" d="M125 997 l0 600 l90 0 l0 -600 l-90 0 ZM305 997 l0 600 l90 0 l0 -600 l-90 0 Z" /><glyph glyph-name="guilsinglleft" unicode="&#x2039;" d="M100 462 l429 460 l0 -104 l-331 -356 l331 -356 l0 -105 l-429 461 Z" /><glyph glyph-name="guilsinglright" unicode="&#x203a;" d="M100 1 l0 105 l331 356 l-331 356 l0 104 l429 -460 l-429 -461 Z" /><glyph glyph-name="exclamdbl" unicode="&#x203c;" d="M215 165 q37 0 63.5 -26 q26.5 -26 26.5 -63 q0 -38 -26.5 -64 q-26.5 -26 -63.5 -26 q-37 0 -63.5 26 q-26.5 26 -26.5 64 q0 37 26.5 63 q26.5 26 63.5 26 ZM258 1600 l0 -1324 l-90 0 l0 1324 l90 0 ZM645 165 q37 0 63.5 -26 q26.5 -26 26.5 -63 q0 -38 -26.5 -64 q-26.5 -26 -63.5 -26 q-37 0 -63.5 26 q-26.5 26 -26.5 64 q0 37 26.5 63 q26.5 26 63.5 26 ZM688 1600 l0 -1324 l-90 0 l0 1324 l90 0 Z" /><glyph glyph-name="fraction" unicode="&#x2044;&#x2215;" d="M591 1430 l-917 -1311 l-74 51 l918 1311 l73 -51 Z" /><glyph glyph-name="franc" unicode="&#x20a3;" d="M212 468 l0 1132 l700 0 l0 -90 l-610 0 l0 -665 l610 0 l0 -90 l-610 0 l0 -287 l288 0 l0 -90 l-288 0 l0 -378 l-90 0 l0 378 l-162 0 l0 90 l162 0 Z" /><glyph glyph-name="lira" unicode="&#x20a4;" d="M299 755 q-17 40 -37 79 q-111 180 -125 343 q-2 19 -2 38 q0 139 92 249 q103 123 266 138 q19 1 38 1 q139 0 250 -92 q124 -105 139 -267 q3 -23 3 -44 q0 -63 -22 -114 l-86 29 q15 43 15 95 q0 14 -1 28 q-12 123 -107 203 q-84 70 -190 70 q-14 0 -28 -1 q-124 -11 -204 -106 q-70 -84 -70 -189 q0 -15 1 -30 q10 -113 78 -256 q53 -85 87 -174 l232 0 l0 -90 l-202 0 q16 -59 23 -120 l179 0 l0 -90 l-173 0 q-6 -198 -170 -392 q125 45 246 45 q72 0 143 -16 q99 -23 188 -23 q80 0 151 18 l17 -89 q-81 -20 -168 -20 q-89 0 -183 22 q-98 21 -173 21 q-68 0 -117 -17 q-104 -38 -202 -87 l-87 103 q124 110 156 149 q106 126 108 286 l-236 0 l0 90 l229 0 q-8 60 -26 120 l-203 0 l0 90 l171 0 Z" /><glyph glyph-name="peseta" unicode="&#x20a7;" d="M231 1509 l0 -863 l245 0 q160 0 274 126.5 q114 126.5 114 305.5 q0 179 -114 305 q-114 126 -274 126 l-245 0 ZM917 892 q-34 -101 -109 -184 q-138 -153 -332 -153 l-245 0 l0 -555 l-81 0 l0 1600 l378 0 q164 -25 280 -153 q138 -153 138 -369 q0 -50 -7 -96 l84 0 l0 418 l90 0 l0 -418 l248 0 q53 32 119 32 q98 0 162 -64 q62 -63 62 -143 l0 -5 l-78 -31 q-10 76 -47.5 114 q-37.5 38 -98.5 38 q-60 0 -103 -42.5 q-43 -42.5 -43 -103.5 q0 -60 43 -103 q25 -25 106 -76 q128 -70 182 -124 q85 -86 85 -205 q0 -122 -85 -207.5 q-85 -85.5 -206 -85.5 q-121 0 -206 85.5 q-85 85.5 -85 187.5 l89 23 q0 -88 59.5 -147 q59.5 -59 142.5 -59 q83 0 142.5 59 q59.5 59 59.5 144 q0 83 -59 142 q-32 32 -129 94 q-115 62 -159 106 q-69 69 -69 166 q0 63 29 115 l-161 0 l0 -892 l-90 0 l0 892 l-106 0 Z" /><glyph glyph-name="Euro" unicode="&#x20ac;" d="M268 885 l0 166 q0 227 161 388 q161 161 388 161 q228 0 388 -161 l-67 -67 q-133 132 -321 132 q-188 0 -321 -132.5 q-133 -132.5 -133 -320.5 l0 -166 l657 0 l-18 -90 l-639 0 l0 -120 l615 0 l-18 -90 l-597 0 l0 -64 q0 -188 133 -320.5 q133 -132.5 321 -132.5 q188 0 321 133 q82 82 114 185 l98 0 q-34 -142 -145 -253 q-160 -161 -388 -161 q-227 0 -388 161 q-161 161 -161 388 l0 64 l-168 0 l18 90 l150 0 l0 120 l-126 0 l18 90 l108 0 Z" /><glyph glyph-name="afii61352" unicode="&#x2116;" d="M1894 1543 l35 0 l0 -632 l-710 0 l0 35 l675 0 l0 597 ZM1502 1131 q101 5 155 58 q58 57 58 140 q0 82 -58 140 q-54 53 -155 58 q-101 -5 -155 -58 q-58 -58 -58 -140 q0 -83 58 -140 q54 -53 155 -58 ZM1487 1054 q-115 0 -195 80.5 q-80 80.5 -80 194.5 q0 114 80 194.5 q80 80.5 195 80.5 l29 0 q115 0 195 -80.5 q80 -80.5 80 -194.5 q0 -114 -80 -194.5 q-80 -80.5 -195 -80.5 l-29 0 ZM125 1600 l99 0 l822 -1423 l0 1423 l90 0 l0 -1600 l-90 0 l-831 1437 l0 -1437 l-90 0 l0 1600 Z" /><glyph glyph-name="trademark" unicode="&#x2122;" d="M497 1556 l-158 0 l0 -604 l-57 0 l0 604 l-182 0 l0 52 l453 0 l267 -409 l266 409 l65 0 l-9 -13 l0 -643 l-56 0 l0 556 l-266 -410 l-267 410 l0 -556 l-56 0 l0 604 Z" /><glyph glyph-name="Omega" unicode="&#x2126;" d="M804 1600 q316 0 507.5 -223 q191.5 -223 191.5 -602 q0 -278 -152.5 -467 q-152.5 -189 -274.5 -219 l325 0 l0 -89 l-535 0 l0 89 q216 50 381.5 225 q165.5 175 165.5 461 q0 342 -167 545.5 q-167 203.5 -447 203.5 l-5 0 q-280 0 -447 -203.5 q-167 -203.5 -167 -545.5 q0 -286 165.5 -461 q165.5 -175 381.5 -225 l0 -89 l-535 0 l0 89 l325 0 q-122 30 -274.5 219 q-152.5 189 -152.5 467 q0 379 191.5 602 q191.5 223 507.5 223 l15 0 Z" /><glyph glyph-name="arrowleft" unicode="&#x2190;" d="M284 963 l0 -127 l1411 0 l0 -91 l-1411 0 l0 -127 l-171 173 l171 172 Z" /><glyph glyph-name="arrowup" unicode="&#x2191;" d="M684 1414 l-128 0 l0 -1411 l-90 0 l0 1411 l-127 0 l172 171 l173 -171 Z" /><glyph glyph-name="arrowright" unicode="&#x2192;" d="M1695 791 l-171 -173 l0 127 l-1411 0 l0 91 l1411 0 l0 127 l171 -172 Z" /><glyph glyph-name="arrowdown" unicode="&#x2193;" d="M511 3 l-172 171 l127 0 l0 1411 l90 0 l0 -1411 l128 0 l-173 -171 Z" /><glyph glyph-name="arrowboth" unicode="&#x2194;" d="M1524 836 l0 127 l171 -172 l-171 -173 l0 127 l-1240 0 l0 -127 l-171 173 l171 172 l0 -127 l1240 0 Z" /><glyph glyph-name="arrowupdn" unicode="&#x2195;" d="M950 174 l127 0 l-172 -171 l-173 171 l128 0 l0 1240 l-128 0 l173 171 l172 -171 l-127 0 l0 -1240 Z" /><glyph glyph-name="arrowupdnbse" unicode="&#x21a8;" d="M951 174 l127 0 l-172 -171 l-173 171 l128 0 l0 1240 l-128 0 l173 171 l172 -171 l-127 0 l0 -1240 ZM733 1682 l345 0 l0 -90 l-345 0 l0 90 ZM733 0 l345 0 l0 -91 l-345 0 l0 91 Z" /><glyph glyph-name="partialdiff" unicode="&#x2202;" d="M838 766 q-547 -69 -681 -409 q-14 -52 -14 -94 q0 -176 241 -178 q324 34 454 681 ZM840 848 q8 98 8 180 q0 438 -213 478 q-42 7 -81 7 q-197 0 -327 -189 l-42 83 q147 178 360 178 q70 0 148 -19 q241 -61 241 -512 q0 -133 -22 -301 q-115 -733 -531 -743 q-324 0 -324 248 q0 50 14 111 q127 400 769 479 Z" /><glyph glyph-name="Delta" unicode="&#x2206;" d="M34 1 l-68 0 l583 1599 l109 0 l590 -1600 l-1214 0 l0 1 ZM1119 90 l-516 1397 l-509 -1397 l1025 0 Z" /><glyph glyph-name="product" unicode="&#x220f;" d="M197 1509 l0 -1883 l-91 0 l0 1974 l1113 0 l0 -1974 l-90 0 l0 1883 l-932 0 Z" /><glyph glyph-name="summation" unicode="&#x2211;" d="M1083 1600 l0 -91 l-890 0 l418 -896 l-418 -896 l890 0 l0 -91 l-1026 0 l453 987 l-453 987 l1026 0 Z" /><glyph glyph-name="minus" unicode="&#x2212;" d="M125 637 l800 0 l0 -90 l-800 0 l0 90 Z" /><glyph glyph-name="radical" unicode="&#x221a;" d="M867 294 l572 1446 l96 0 l-703 -1819 l-632 797 l-98 -44 l-45 57 l296 167 l514 -604 Z" /><glyph glyph-name="infinity" unicode="&#x221e;" d="M1056 815 q0 97 -68.5 166 q-68.5 69 -166.5 69 q-97 0 -171 -67 q-71 -66 -97 -195 q26 -129 97 -194 q74 -67 171 -67 q98 0 166.5 69 q68.5 69 68.5 219 ZM1128 815 q0 -179 -90 -268.5 q-90 -89.5 -217 -89.5 q-127 0 -221 87 q-65 61 -90 139 q-13 -29 -65.5 -77.5 q-52.5 -48.5 -143.5 -48.5 q-91 0 -155.5 63.5 q-64.5 63.5 -64.5 179.5 q0 93 64.5 157.5 q64.5 64.5 155.5 64.5 q91 0 143.5 -49.5 q52.5 -49.5 65.5 -78.5 q25 78 90 139 q94 87 221 87 q127 0 217 -89.5 q90 -89.5 90 -215.5 ZM151 790 q0 -74 43.5 -118 q43.5 -44 106.5 -44 q62 0 107 42.5 q45 42.5 69 117.5 q-24 76 -69 118.5 q-45 42.5 -107 42.5 q-63 0 -106.5 -43.5 q-43.5 -43.5 -43.5 -115.5 Z" /><glyph glyph-name="integral" unicode="&#x222b;" d="M326 -79 q-12 -284 -290 -284 l0 83 q189 0 200 198 l0 1514 q23 284 291 284 l1 -72 q-181 -6 -202 -209 l0 -1514 Z" /><glyph glyph-name="approxequal" unicode="&#x2248;" d="M638 996 q188 -109 273 -109 q15 0 27 3 q77 23 108 100 q15 38 15 77 l91 -14 q-4 -48 -23 -97 q-46 -111 -156 -148 q-25 -8 -56 -8 q-105 0 -278 99 q-190 109 -274 109 q-14 0 -26 -3 q-77 -23 -108 -100 q-15 -39 -16 -77 l-90 14 q2 48 22 97 q46 111 157 148 q25 8 55 8 q106 0 279 -99 ZM638 701 q188 -109 273 -109 q15 0 27 3 q77 23 108 100 q15 38 15 77 l91 -14 q-4 -48 -23 -97 q-46 -111 -156 -148 q-25 -8 -56 -8 q-105 0 -278 99 q-190 109 -274 109 q-14 0 -26 -3 q-77 -23 -108 -100 q-15 -39 -16 -77 l-90 14 q2 48 22 97 q46 111 157 148 q25 8 55 8 q106 0 279 -99 Z" /><glyph glyph-name="lessequal" unicode="&#x2264;" d="M1249 145 l-1149 418 l1149 418 l0 -96 l-886 -322 l886 -322 l0 -96 ZM149 90 l1100 0 l0 -90 l-1100 0 l0 90 Z" /><glyph glyph-name="greaterequal" unicode="&#x2265;" d="M100 241 l886 322 l-886 322 l0 96 l1149 -418 l-1149 -418 l0 96 ZM100 90 l1100 0 l0 -90 l-1100 0 l0 90 Z" /><glyph glyph-name="integraltp" unicode="&#x2320;" d="M315 -362 l-89 0 l0 1794 q23 284 291 284 l1 -72 q-181 -6 -203 -209 l0 -1797 Z" /><glyph glyph-name="integralbt" unicode="&#x2321;" d="M316 1716 l89 0 l0 -1794 q-23 -284 -292 -284 l0 72 q181 6 203 209 l0 1797 Z" /><glyph glyph-name="uniEEC9" unicode="&#xeec9;" d="M738 1330 q37 0 63.5 -26 q26.5 -26 26.5 -63 q0 -38 -26.5 -64 q-26.5 -26 -63.5 -26 q-37 0 -63.5 26 q-26.5 26 -26.5 64 q0 37 26.5 63 q26.5 26 63.5 26 ZM693 892 l-413 0 l0 -892 l-90 0 l0 892 l-100 0 l0 90 l100 0 l0 266 q6 111 85 191 q82 76 189 76 q56 0 118 -21 l-28 -80 q-42 18 -81 18 q-71 0 -134 -57 q-56 -55 -59 -133 l0 -260 l503 0 l0 -982 q0 -211 -211 -228 l0 90 q121 14 121 136 l0 894 Z" /><glyph glyph-name="uniEECA" unicode="&#xeeca;" d="M673 892 l-393 0 l0 -892 l-90 0 l0 892 l-100 0 l0 90 l100 0 l0 266 q6 111 85 191 q82 76 189 76 q56 0 118 -21 l-28 -80 q-42 18 -81 18 q-71 0 -134 -57 q-56 -55 -59 -133 l0 -260 l483 0 l0 -179 q28 40 65 77 q119 119 244 125 l0 -98 q-85 -4 -176 -95 q-128 -127 -133 -305 l0 -507 l-90 0 l0 892 Z" /><glyph glyph-name="uniEECB" unicode="&#xeecb;" d="M210 982 l393 0 l0 428 q-70 22 -150 22 q-121 0 -184 -57 q-56 -55 -59 -133 l0 -260 ZM120 982 l0 266 q6 111 85 191 q82 76 239 76 q146 0 249 -55 l0 -478 l200 0 l0 -90 l-200 0 l0 -892 l-90 0 l0 892 l-393 0 l0 -892 l-90 0 l0 892 l-100 0 l0 90 l100 0 Z" /><glyph glyph-name="uniEECD" unicode="&#xeecd;" d="M641 892 l-361 0 l0 -892 l-90 0 l0 892 l-100 0 l0 90 l100 0 l0 266 q6 111 85 191 q82 76 189 76 q56 0 118 -21 l-28 -80 q-42 18 -81 18 q-71 0 -134 -57 q-56 -55 -59 -133 l0 -260 l420 0 l326 -704 l326 704 l101 0 l-427 -895 l0 1 l-222 -463 l-88 0 l265 556 l-340 711 Z" /><glyph glyph-name="uniEECE" unicode="&#xeece;" d="M280 892 l0 -892 l-90 0 l0 892 l-100 0 l0 90 l100 0 l0 266 q6 111 85 191 q82 76 189 76 q56 0 118 -21 l-28 -80 q-42 18 -81 18 q-71 0 -134 -57 q-56 -55 -59 -133 l0 -260 l433 0 l0 266 q6 111 85 191 q82 76 189 76 q56 0 118 -21 l-28 -80 q-42 18 -81 18 q-71 0 -134 -57 q-56 -55 -59 -133 l0 -260 l533 0 l0 418 l90 0 l0 -418 l200 0 l0 -90 l-200 0 l0 -892 l-90 0 l0 892 l-533 0 l0 -892 l-90 0 l0 892 l-433 0 Z" /><glyph glyph-name="uniEECF" unicode="&#xeecf;" d="M280 892 l0 -892 l-90 0 l0 892 l-100 0 l0 90 l100 0 l0 266 q6 111 85 191 q82 76 189 76 q56 0 118 -21 l-28 -80 q-42 18 -81 18 q-71 0 -134 -57 q-56 -55 -59 -133 l0 -260 l433 0 l0 266 q6 111 85 191 q82 76 189 76 q56 0 118 -21 l-28 -80 q-42 18 -81 18 q-71 0 -134 -57 q-56 -55 -59 -133 l0 -260 l420 0 l326 -704 l326 704 l101 0 l-427 -895 l0 1 l-222 -463 l-88 0 l265 556 l-340 711 l-361 0 l0 -892 l-90 0 l0 892 l-433 0 Z" /><glyph glyph-name="uniEED0" unicode="&#xeed0;" d="M280 892 l0 -892 l-90 0 l0 892 l-100 0 l0 90 l100 0 l0 266 q6 111 85 191 q82 76 189 76 q56 0 118 -21 l-28 -80 q-42 18 -81 18 q-71 0 -134 -57 q-56 -55 -59 -133 l0 -260 l533 0 l0 418 l90 0 l0 -418 l467 0 l326 -704 l326 704 l101 0 l-427 -895 l0 1 l-222 -463 l-88 0 l265 556 l-340 711 l-408 0 l0 -892 l-90 0 l0 892 l-533 0 Z" /><glyph glyph-name="uniEED9" unicode="&#xeed9;" d="M820 892 l-440 0 l0 -892 l-90 0 l0 892 l-200 0 l0 90 l200 0 l0 418 l90 0 l0 -418 l530 0 l0 -179 q28 40 65 77 q119 119 244 125 l0 -98 q-85 -4 -176 -95 q-128 -127 -133 -305 l0 -507 l-90 0 l0 892 Z" /><glyph glyph-name="uniEEDA" unicode="&#xeeda;" d="M380 892 l0 -892 l-90 0 l0 892 l-200 0 l0 90 l200 0 l0 418 l90 0 l0 -418 l580 0 l0 418 l90 0 l0 -418 l200 0 l0 -90 l-200 0 l0 -892 l-90 0 l0 892 l-580 0 Z" /><glyph glyph-name="uniEEDB" unicode="&#xeedb;" d="M788 892 l-408 0 l0 -892 l-90 0 l0 892 l-200 0 l0 90 l200 0 l0 418 l90 0 l0 -418 l470 0 l0 -6 l323 -698 l326 704 l101 0 l-427 -895 l0 1 l-222 -463 l-88 0 l265 556 l-340 711 Z" /><glyph glyph-name="uniEEDC" unicode="&#xeedc;" d="M380 892 l0 -892 l-90 0 l0 892 l-200 0 l0 90 l200 0 l0 418 l90 0 l0 -418 l1111 0 l-515 -891 l553 0 l0 -91 l-709 0 l514 892 l-954 0 Z" /><glyph glyph-name="uniF001" unicode="&#xf001;" d="M280 0 l-90 0 l0 892 l-100 0 l0 90 l100 0 l0 266 q6 111 85 191 q82 76 189 76 q56 0 118 -21 l-28 -80 q-42 18 -81 18 q-71 0 -134 -57 q-56 -55 -59 -133 l0 -1242 ZM783 982 l0 -982 l-90 0 l0 982 l90 0 ZM738 1330 q37 0 63.5 -26 q26.5 -26 26.5 -63 q0 -38 -26.5 -64 q-26.5 -26 -63.5 -26 q-37 0 -63.5 26 q-26.5 26 -26.5 64 q0 37 26.5 63 q26.5 26 63.5 26 Z" /><glyph glyph-name="uniF002" unicode="&#xf002;" d="M673 1410 q-70 22 -150 22 q-121 0 -184 -57 q-56 -55 -59 -133 l0 -1242 l-90 0 l0 892 l-100 0 l0 90 l100 0 l0 266 q6 111 85 191 q82 76 239 76 q146 0 249 -55 l0 -1460 l-90 0 l0 1410 Z" /><glyph glyph-name="uniFB00" unicode="&#xfb00;" d="M280 892 l0 -892 l-90 0 l0 892 l-100 0 l0 90 l100 0 l0 266 q6 111 85 191 q82 76 189 76 q56 0 118 -21 l-28 -80 q-42 18 -81 18 q-71 0 -134 -57 q-56 -55 -59 -133 l0 -260 l433 0 l0 266 q6 111 85 191 q82 76 189 76 q56 0 118 -21 l-28 -80 q-42 18 -81 18 q-71 0 -134 -57 q-56 -55 -59 -133 l0 -260 l200 0 l0 -90 l-200 0 l0 -892 l-90 0 l0 892 l-433 0 Z" /><glyph glyph-name="uniFB01" unicode="&#xfb01;" d="M738 1330 q37 0 63.5 -26 q26.5 -26 26.5 -63 q0 -38 -26.5 -64 q-26.5 -26 -63.5 -26 q-37 0 -63.5 26 q-26.5 26 -26.5 64 q0 37 26.5 63 q26.5 26 63.5 26 ZM693 892 l-413 0 l0 -892 l-90 0 l0 892 l-100 0 l0 90 l100 0 l0 266 q6 111 85 191 q82 76 189 76 q56 0 118 -21 l-28 -80 q-42 18 -81 18 q-71 0 -134 -57 q-56 -55 -59 -133 l0 -260 l503 0 l0 -982 l-90 0 l0 892 Z" /><glyph glyph-name="uniFB02" unicode="&#xfb02;" d="M673 1410 q-70 22 -150 22 q-121 0 -184 -57 q-56 -55 -59 -133 l0 -260 l200 0 l0 -90 l-200 0 l0 -892 l-90 0 l0 892 l-100 0 l0 90 l100 0 l0 266 q6 111 85 191 q82 76 239 76 q146 0 249 -55 l0 -1460 l-90 0 l0 1410 Z" /><glyph glyph-name="uniFB03" unicode="&#xfb03;" d="M1261 1330 q37 0 63.5 -26 q26.5 -26 26.5 -63 q0 -38 -26.5 -64 q-26.5 -26 -63.5 -26 q-37 0 -63.5 26 q-26.5 26 -26.5 64 q0 37 26.5 63 q26.5 26 63.5 26 ZM280 892 l0 -892 l-90 0 l0 892 l-100 0 l0 90 l100 0 l0 266 q6 111 85 191 q82 76 189 76 q56 0 118 -21 l-28 -80 q-42 18 -81 18 q-71 0 -134 -57 q-56 -55 -59 -133 l0 -260 l433 0 l0 266 q6 111 85 191 q82 76 189 76 q56 0 118 -21 l-28 -80 q-42 18 -81 18 q-71 0 -134 -57 q-56 -55 -59 -133 l0 -260 l503 0 l0 -982 l-90 0 l0 892 l-413 0 l0 -892 l-90 0 l0 892 l-433 0 Z" /><glyph glyph-name="uniFB04" unicode="&#xfb04;" d="M280 892 l0 -892 l-90 0 l0 892 l-100 0 l0 90 l100 0 l0 266 q6 111 85 191 q82 76 189 76 q56 0 118 -21 l-28 -80 q-42 18 -81 18 q-71 0 -134 -57 q-56 -55 -59 -133 l0 -260 l433 0 l0 266 q6 111 85 191 q82 76 239 76 q146 0 249 -55 l0 -1460 l-90 0 l0 1410 q-70 22 -150 22 q-121 0 -184 -57 q-56 -55 -59 -133 l0 -260 l200 0 l0 -90 l-200 0 l0 -892 l-90 0 l0 892 l-433 0 Z" /><glyph glyph-name="uniFB05" unicode="&#xfb05;" d="M603 892 l-200 0 l0 90 l200 0 l0 428 q-70 22 -150 22 q-121 0 -184 -57 q-56 -55 -59 -133 l0 -1242 l-90 0 l0 892 l-100 0 l0 90 l100 0 l0 266 q6 111 85 191 q82 76 239 76 q146 0 249 -55 l0 -478 l200 0 l0 -90 l-200 0 l0 -892 l-90 0 l0 892 Z" /></font>
</defs>
</svg>
