<svg xmlns="http://www.w3.org/2000/svg">
<defs>
<font id="Caviar Dreams:Version 4.00" horiz-adv-x="3072"><font-face font-family="Caviar Dreams" font-weight="400" font-stretch="normal" units-per-em="2048" panose-1="2 11 4 2 2 2 4 2 5 4" ascent="2005" descent="-375" x-height="4" bbox="-400 -375 2239 2005" underline-thickness="150" underline-position="-217" unicode-range="U+0020-fb05" /><missing-glyph horiz-adv-x="1835" d="M942 291 Q942 313 938 313 L917 313 L917 281 L936 281 L936 291 L942 291 ZM1481 819 Q1481 842 1475 842 L1454 842 L1454 811 L1473 811 L1473 819 L1481 819 ZM1104 1268 Q1112 1268 1118 1278 Q1128 1292 1128 1317 Q1126 1339 1118 1354 Q1110 1364 1102 1364 Q1092 1364 1085 1354 Q1075 1341 1075 1317 Q1077 1292 1085 1280 Q1094 1268 1104 1268 ZM1456 930 Q1468 930 1475 940 Q1483 952 1483 979 Q1483 1001 1473 1016 Q1466 1026 1456 1026 Q1446 1026 1440 1016 Q1432 1001 1432 979 Q1432 954 1442 940 Q1448 930 1456 930 ZM377 557 Q389 557 395 567 Q403 582 403 606 Q403 631 393 643 Q387 653 377 653 Q365 653 358 643 Q350 633 350 606 Q350 582 360 569 Q367 557 377 557 ZM754 229 Q764 244 764 268 Q764 293 756 305 Q748 315 737 315 Q727 315 719 305 Q711 293 711 268 Q711 242 719 229 Q725 219 735 219 Q745 219 754 229 ZM401 811 Q401 831 395 831 L375 831 L375 801 L393 801 L393 811 L401 811 ZM958 291 L958 250 L936 250 L936 260 L917 260 L917 225 Q917 217 932 217 L932 201 L868 201 L868 217 Q881 217 881 221 L881 313 Q881 317 868 317 L868 334 L969 334 L969 291 L958 291 ZM1294 315 L1286 315 L1286 334 L1335 334 L1335 315 Q1325 315 1323 309 L1294 258 L1294 221 Q1294 217 1307 217 L1307 201 L1247 201 L1247 217 Q1260 217 1260 221 L1260 258 L1231 309 Q1227 315 1219 315 L1219 334 L1276 334 L1276 315 L1268 315 L1280 289 L1294 315 ZM580 1366 L573 1366 L573 1384 L618 1384 L618 1366 Q610 1366 606 1360 L582 1307 L582 1270 Q582 1266 594 1266 L594 1249 L530 1249 L530 1266 Q545 1266 545 1270 L545 1307 L514 1360 Q512 1366 506 1366 L506 1384 L559 1384 L559 1366 L551 1366 L567 1337 L580 1366 ZM395 1196 L387 1196 L387 1214 L434 1214 L434 1196 Q426 1196 424 11
<glyph glyph-name="space" unicode="  " d="" /><glyph glyph-name="exclam" unicode="!" d="M215 165 Q252 165 278.5 139 Q305 113 305 76 Q305 38 278.5 12 Q252 -14 215 -14 Q178 -14 151.5 12 Q125 38 125 76 Q125 113 151.5 139 Q178 165 215 165 ZM258 1600 L258 276 L168 276 L168 1600 L258 1600 Z" /><glyph glyph-name="quotedbl" unicode="&quot;" d="M125 997 L125 1597 L215 1597 L215 997 L125 997 ZM360 997 L360 1597 L450 1597 L450 997 L360 997 Z" /><glyph glyph-name="numbersign" unicode="#" d="M763 985 L993 985 L1104 1430 L1194 1430 L1083 985 L1528 985 L1505 895 L1060 895 L1003 665 L1448 665 L1425 575 L980 575 L869 130 L779 130 L890 575 L660 575 L549 130 L459 130 L570 575 L125 575 L148 665 L593 665 L650 895 L205 895 L228 985 L673 985 L784 1430 L874 1430 L763 985 ZM970 895 L740 895 L683 665 L913 665 L970 895 Z" /><glyph glyph-name="dollar" unicode="$" d="M556 856 L556 189 Q656 204 732 280 Q826 374 826 508 Q826 641 732 735 Q658 809 556 856 ZM466 1413 Q404 1403 358 1356 Q297 1296 297 1210 Q297 1124 357 1064 Q399 1022 466 985 L466 1413 ZM466 891 Q362 936 296 1003 Q210 1088 210 1210 Q210 1329 296 1415 Q368 1488 466 1499 L466 1662 L556 1662 L556 1497 Q644 1482 711 1416 Q758 1370 778 1308 L700 1277 Q683 1323 649 1357 Q608 1397 556 1410 L556 946 Q693 893 792 795 Q911 676 911 508 Q911 338 792 219 Q691 118 556 102 L556 -38 L466 -38 L466 101 Q322 112 215 219 Q120 315 100 445 L182 475 Q194 360 276 279 Q357 198 466 187 L466 891 Z" /><glyph glyph-name="percent" unicode="%" d="M1107 1314 L189 3 L115 54 L1033 1365 L1107 1314 ZM311 1215 Q407 1215 474.5 1147.5 Q542 1080 542 984 Q542 888 474.5 820.5 Q407 753 311 753 Q215 753 147.5 820.5 Q80 888 80 984 Q80 1080 147.5 1147.5 Q215 1215 311 1215 ZM311 1128 Q251 1128 209 1086 Q167 1044 167 984 Q167 924 209 882 Q251 840 311 840 Q370 840 412.5 882 Q455 924 455 984 Q455 1044 412.5 1086 Q370 1128 311 1128 ZM911 615 Q1007 615 1074.5 547.5 Q1142 480 1142 384 Q1142 288 1074.5 220.5 Q1007 153 911 153 Q815 153 747.5 220.5 Q680 288 680 384 Q680 480 747.5 547.5 Q815 615 911 615 ZM911 528 Q851 528 809 486 Q767 444 767 384 Q767 324 809 282 Q851 240 911 240 Q970 240 1012.5 282 Q1055 324 1055 384 Q1055 444 1012.5 486 Q970 528 911 528 Z" /><glyph glyph-name="ampersand" unicode="&amp;" d="M915 331 Q902 336 890 343 Q842 370 770 445 Q722 489 702 500 Q680 512 658 512 Q645 512 633 509 Q597 499 579 467 Q566 445 566 423 Q566 411 570 398 Q580 362 609 346 Q628 336 661 336 Q679 336 702 339 L693 257 Q668 250 643 250 Q603 250 565 271 Q505 304 486 375 Q479 400 479 423 Q479 467 503 509 Q540 573 610 592 Q635 599 659 599 Q703 599 744 575 Q784 553 848 486 Q906 433 933 418 Q963 401 995 401 Q1013 401 1031 406 Q1083 420 1110 467 Q1127 498 1127 530 Q1127 547 1122 565 Q1108 616 1062 643 Q1034 659 999 659 Q974 659 945 651 L944 740 Q972 748 1000 748 Q1053 748 1104 719 Q1182 675 1206 588 Q1214 558 1214 530 Q1214 475 1185 425 Q1141 347 1053 323 Q1027 316 1003 315 Q970 207 884 121 Q745 -19 549 -19 Q353 -19 214 120 Q75 259 75 456 Q75 652 212 798 Q306 899 456 949 Q384 980 308.5 1060.5 Q233 1141 233 1282 Q233 1420 332 1519.5 Q431 1619 572 1619 Q712 1619 812 1520 Q867 1467 888 1401 L807 1369 Q789 1418 748 1459 Q675 1531 572 1531 Q469 1531 396 1458.5 Q323 1386 323 1282 Q323 1179 393.5 1104 Q464 1029 524 1006 Q584 983 674 982 L674 898 L602 896 Q383 855 273 735 Q163 615 163 456 Q163 296 276 183 Q389 70 549 70 Q708 70 821 183 Q887 249 915 331 Z" /><glyph glyph-name="quotesingle" unicode="&#39;" d="M125 997 L125 1597 L215 1597 L215 997 L125 997 Z" /><glyph glyph-name="parenleft" unicode="(" d="M603 1628 Q468 1566 359 1429 Q178 1201 178 800 Q178 398 359 170 Q468 33 603 -32 L603 -117 Q435 -59 304 106 Q100 360 100 800 Q100 1239 304 1494 Q435 1659 603 1717 L603 1628 Z" /><glyph glyph-name="parenright" unicode=")" d="M100 1717 Q268 1659 399 1494 Q603 1239 603 800 Q603 360 399 106 Q268 -59 100 -117 L100 -32 Q235 33 344 170 Q525 398 525 800 Q525 1201 344 1429 Q235 1566 100 1628 L100 1717 Z" /><glyph glyph-name="asterisk" unicode="*" d="M445 1384 L619 1506 L671 1432 L478 1297 L671 1162 L619 1088 L445 1210 L445 997 L355 997 L355 1211 L180 1088 L128 1162 L321 1297 L128 1432 L180 1506 L355 1383 L355 1597 L445 1597 L445 1384 Z" /><glyph glyph-name="plus" unicode="+" d="M480 547 L125 547 L125 637 L480 637 L480 992 L570 992 L570 637 L925 637 L925 547 L570 547 L570 192 L480 192 L480 547 Z" /><glyph glyph-name="comma" unicode="," d="M279 166 L94 -219 L10 -219 L113 166 L279 166 Z" /><glyph glyph-name="hyphen" unicode="-­" d="M125 637 L715 637 L715 547 L125 547 L125 637 Z" /><glyph glyph-name="period" unicode="." d="M190 165 Q227 165 253.5 139 Q280 113 280 76 Q280 38 253.5 12 Q227 -14 190 -14 Q153 -14 126.5 12 Q100 38 100 76 Q100 113 126.5 139 Q153 165 190 165 Z" /><glyph glyph-name="slash" unicode="/" d="M674 1600 L777 1600 L52 0 L-50 0 L674 1600 Z" /><glyph glyph-name="zero" unicode="0" d="M1079 1051 Q1079 1239 946 1371.5 Q813 1504 625 1504 Q437 1504 304 1371.5 Q171 1239 171 1051 L171 521 Q171 333 304 200.5 Q437 68 625 68 Q813 68 946 200.5 Q1079 333 1079 521 L1079 1051 ZM1174 521 Q1174 294 1013.5 133 Q853 -28 625 -28 Q398 -28 237 133 Q76 294 76 521 L76 1051 Q76 1278 237 1439 Q398 1600 625 1600 Q853 1600 1013.5 1439 Q1174 1278 1174 1051 L1174 521 Z" /><glyph glyph-name="one" unicode="1" d="M717 1600 L717 0 L627 0 L627 1442 L532 1442 L655 1600 L717 1600 Z" /><glyph glyph-name="two" unicode="2" d="M156 0 Q202 310 367.5 433.5 Q533 557 660 652.5 Q787 748 896 867 Q1005 986 1005 1144 Q1005 1303 893 1415 Q781 1527 622 1527 Q465 1527 352 1415 Q256 1319 242 1186 L151 1219 Q174 1369 285 1481 Q425 1622 622 1622 Q820 1622 959.5 1482 Q1099 1342 1099 1144 Q1099 947 962 800 Q869 699 742 604 Q615 509 456 390 Q297 271 258 90 L1099 90 L1099 0 L156 0 Z" /><glyph glyph-name="three" unicode="3" d="M569 893 L494 895 L494 985 Q587 986 646.5 1009 Q706 1032 775.5 1106 Q845 1180 845 1282 Q845 1385 773 1456.5 Q701 1528 599 1528 Q498 1528 425 1457 Q385 1416 366 1365 L280 1399 Q302 1469 357 1522 Q458 1622 599 1622 Q742 1622 841.5 1521.5 Q941 1421 941 1282 Q941 1140 865 1058.5 Q789 977 723 950 Q867 902 962 800 Q1099 653 1099 456 Q1099 258 959.5 118 Q820 -22 622 -22 Q425 -22 285 119 Q174 231 151 381 L242 414 Q256 281 352 185 Q465 73 622 73 Q781 73 893 185 Q1005 297 1005 456 Q1005 614 896 733 Q787 852 569 893 Z" /><glyph glyph-name="four" unicode="4" d="M833 1600 L923 1600 L923 558 L1076 558 L1076 468 L923 468 L923 0 L833 0 L833 468 L173 468 L833 1600 ZM833 1406 L328 558 L833 558 L833 1406 Z" /><glyph glyph-name="five" unicode="5" d="M282 1103 Q332 1119 394 1133 Q458 1144 518 1144 Q628 1144 729 1109 Q955 1032 1065 825 Q1134 696 1134 561 Q1134 477 1108 392 Q1039 167 832 56 Q706 -11 572 -11 Q487 -11 399 16 Q219 71 117 210 L181 281 Q266 155 427 106 Q499 84 569 84 Q681 84 787 140 Q960 232 1018 420 Q1040 492 1040 562 Q1040 674 983 781 Q891 953 703 1019 Q622 1047 525 1047 Q398 1047 243 998 L171 1061 L355 1568 L355 1600 L855 1600 L855 1510 L430 1510 L282 1103 Z" /><glyph glyph-name="six" unicode="6" d="M307 842 Q174 709 174 521 Q174 333 307 200.5 Q440 68 628 68 Q816 68 949 200.5 Q1082 333 1082 521 Q1082 709 949 842 Q816 975 628 975 Q440 975 307 842 ZM272 940 Q423 1071 628 1071 Q856 1071 1016.5 910 Q1177 749 1177 521 Q1177 294 1016.5 133 Q856 -28 628 -28 Q401 -28 240 133 Q85 288 79 504 L73 504 Q83 857 243 1081 Q403 1305 639 1569 Q653 1585 666 1600 L790 1600 Q770 1575 748 1550 Q485 1256 331 1037 Q298 991 272 940 Z" /><glyph glyph-name="seven" unicode="7" d="M1096 1600 Q1090 1340 827.5 1046 Q565 752 411 533 Q257 314 247 0 L153 0 Q163 353 323 577 Q483 801 719 1065 Q955 1329 994 1510 L153 1510 L153 1600 L1096 1600 Z" /><glyph glyph-name="eight" unicode="8" d="M624 75 L626 75 Q646 73 666 73 Q825 73 937 185 Q1049 297 1049 456 Q1049 614 940 733 Q834 849 625 891 Q416 849 310 733 Q201 614 201 456 Q201 297 313 185 Q425 73 584 73 Q604 73 624 75 ZM625 -20 Q605 -22 584 -22 Q386 -22 246.5 118 Q107 258 107 456 Q107 653 244 800 Q339 902 483 950 Q417 977 341 1058.5 Q265 1140 265 1282 Q265 1421 364.5 1521.5 Q464 1622 607 1622 L643 1622 Q786 1622 885.5 1521.5 Q985 1421 985 1282 Q985 1140 909 1058.5 Q833 977 767 950 Q911 902 1006 800 Q1143 653 1143 456 Q1143 258 1003.5 118 Q864 -22 666 -22 Q646 -22 625 -20 ZM624 1527 Q616 1528 607 1528 Q505 1528 433 1456.5 Q361 1385 361 1282 Q361 1180 430.5 1106 Q500 1032 559 1009 Q589 998 625 992 Q661 998 691 1009 Q750 1032 819.5 1106 Q889 1180 889 1282 Q889 1385 817 1456.5 Q745 1528 643 1528 Q634 1528 626 1527 L624 1527 Z" /><glyph glyph-name="nine" unicode="9" d="M943 730 Q1076 863 1076 1051 Q1076 1239 943 1371.5 Q810 1504 622 1504 Q434 1504 301 1371.5 Q168 1239 168 1051 Q168 863 301 730 Q434 597 622 597 Q810 597 943 730 ZM978 632 Q827 501 622 501 Q394 501 233.5 662 Q73 823 73 1051 Q73 1278 233.5 1439 Q394 1600 622 1600 Q849 1600 1010 1439 Q1165 1284 1171 1068 L1177 1068 Q1167 715 1007 491 Q847 267 611 3 Q597 -13 584 -28 L460 -28 Q480 -3 502 22 Q765 316 919 535 Q952 581 978 632 Z" /><glyph glyph-name="colon" unicode=":" d="M215 165 Q252 165 278.5 139 Q305 113 305 76 Q305 38 278.5 12 Q252 -14 215 -14 Q178 -14 151.5 12 Q125 38 125 76 Q125 113 151.5 139 Q178 165 215 165 ZM215 782 Q252 782 278.5 756 Q305 730 305 693 Q305 655 278.5 629 Q252 603 215 603 Q178 603 151.5 629 Q125 655 125 693 Q125 730 151.5 756 Q178 782 215 782 Z" /><glyph glyph-name="semicolon" unicode=";&#x37e;" d="M352 166 L167 -219 L83 -219 L186 166 L352 166 ZM215 782 Q252 782 278.5 756 Q305 730 305 693 Q305 655 278.5 629 Q252 603 215 603 Q178 603 151.5 629 Q125 655 125 693 Q125 730 151.5 756 Q178 782 215 782 Z" /><glyph glyph-name="less" unicode="&lt;" d="M1249 145 L100 563 L1249 981 L1249 885 L363 563 L1249 241 L1249 145 Z" /><glyph glyph-name="equal" unicode="=" d="M125 797 L925 797 L925 707 L125 707 L125 797 ZM125 477 L925 477 L925 387 L125 387 L125 477 Z" /><glyph glyph-name="greater" unicode="&gt;" d="M100 241 L986 563 L100 885 L100 981 L1249 563 L100 145 L100 241 Z" /><glyph glyph-name="question" unicode="?" d="M567 818 Q450 715 390 589 Q350 507 350 423 Q350 359 373 294 L290 265 Q262 345 262 423 Q262 527 311 627 Q391 794 552 916 Q647 1008 688 1094 Q714 1147 714 1202 Q714 1243 700 1284 Q665 1382 572 1427 Q519 1452 465 1452 Q424 1452 382 1437 Q285 1403 240 1311 Q215 1259 215 1206 L127 1210 L127 1218 Q127 1283 159 1347 Q221 1474 353 1520 Q411 1540 467 1540 Q541 1540 613 1506 Q739 1445 785 1314 Q805 1257 805 1201 Q805 1127 770 1055 Q709 928 567 818 ZM326 165 Q363 165 389.5 139 Q416 113 416 76 Q416 38 389.5 12 Q363 -14 326 -14 Q289 -14 262.5 12 Q236 38 236 76 Q236 113 262.5 139 Q289 165 326 165 Z" /><glyph glyph-name="at" unicode="@" d="M1088 483 L1088 615 Q1071 690 1014 747 Q932 830 816 830 Q700 830 618.5 747.5 Q537 665 537 548 Q537 433 618.5 351 Q700 269 816 269 Q932 269 1014 351 Q1071 408 1088 483 ZM1086 313 Q965 186 814 186 Q664 186 557 293 Q450 400 450 548 Q450 699 557 806 Q664 913 814 913 Q965 913 1086 786 L1086 900 L1167 900 L1167 252 Q1185 209 1222 209 Q1266 209 1344 319.5 Q1422 430 1422 547 Q1422 798 1243.5 976.5 Q1065 1155 814 1155 Q563 1155 385.5 976.5 Q208 798 208 547 Q208 296 385.5 118.5 Q563 -59 814 -59 Q986 -59 1065 -10 L1122 -70 Q1002 -140 814 -140 Q530 -140 327.5 62 Q125 264 125 547 Q125 831 327.5 1033.5 Q530 1236 814 1236 Q1099 1236 1300 1033.5 Q1501 831 1501 547 Q1501 420 1408.5 275 Q1316 130 1204 130 Q1191 130 1179 132 Q1093 150 1086 232 L1086 313 Z" /><glyph glyph-name="A" unicode="a" d="M890 703 L646 1374 L402 703 L890 703 ZM923 613 L369 613 L146 0 L50 0 L646 1637 L1241 0 L1146 0 L923 613 Z" /><glyph glyph-name="B" unicode="b" d="M434 1600 Q557 1600 644.5 1513 Q732 1426 732 1303 Q732 1179 605 1072 Q717 1049 816 940 Q976 779 976 551 Q976 324 816 158 Q667 4 460 1 L460 0 L150 0 L150 1600 L434 1600 ZM240 1005 L240 90 L460 90 L460 89 Q627 100 748 226 Q881 363 881 551 Q881 739 748 872 Q615 1005 427 1005 L240 1005 ZM240 1510 L240 1101 L457 1101 Q532 1108 585 1157 Q646 1213 646 1303 Q646 1393 585 1451.5 Q524 1510 434 1510 L240 1510 Z" /><glyph glyph-name="C" unicode="c" d="M1427 255 L1495 194 Q1261 -19 944 -19 Q604 -19 364.5 220.5 Q125 460 125 800 Q125 1139 364.5 1379 Q604 1619 944 1619 Q1261 1619 1495 1406 L1427 1344 Q1221 1527 944 1527 Q643 1527 430 1314 Q217 1101 217 800 Q217 498 430 285 Q643 72 944 72 Q1221 72 1427 255 Z" /><glyph glyph-name="D" unicode="d" d="M240 1506 L240 93 L247 93 Q603 93 794 285 Q1007 498 1007 800 Q1007 1101 794 1315 Q603 1506 247 1506 L240 1506 ZM240 1598 L247 1598 Q642 1598 859 1380 Q1099 1139 1099 800 Q1099 460 859 220 Q642 2 247 2 L240 2 L240 0 L150 0 L150 1600 L240 1600 L240 1598 Z" /><glyph glyph-name="E" unicode="e" d="M950 1600 L950 1510 L240 1510 L240 845 L950 845 L950 755 L240 755 L240 90 L950 90 L950 0 L150 0 L150 1600 L950 1600 Z" /><glyph glyph-name="F" unicode="f" d="M850 1600 L850 1510 L240 1510 L240 845 L850 845 L850 755 L240 755 L240 0 L150 0 L150 1600 L850 1600 Z" /><glyph glyph-name="G" unicode="g" d="M1489 199 Q1261 -19 944 -19 Q604 -19 364.5 220.5 Q125 460 125 800 Q125 1139 364.5 1379 Q604 1619 944 1619 Q1261 1619 1495 1406 L1427 1344 Q1221 1527 944 1527 Q643 1527 430 1314 Q217 1101 217 800 Q217 498 430 285 Q643 72 944 72 Q1202 72 1399 231 L1399 719 L1489 719 L1489 199 Z" /><glyph glyph-name="H" unicode="h" d="M240 717 L240 0 L150 0 L150 1600 L240 1600 L240 807 L910 807 L910 1600 L1000 1600 L1000 0 L910 0 L910 717 L240 717 Z" /><glyph glyph-name="I" unicode="i" d="M260 1600 L260 0 L170 0 L170 1600 L260 1600 Z" /><glyph glyph-name="J" unicode="j" d="M702 304 Q702 152 622 72 Q537 -14 416 -14 Q295 -14 210 71.5 Q125 157 125 259 L184 282 Q204 174 269 120 Q323 74 391 74 Q403 74 416 76 Q499 76 559 135 Q612 188 612 314 L612 1600 L702 1600 L702 304 Z" /><glyph glyph-name="K" unicode="k" d="M240 775 L240 0 L150 0 L150 1600 L240 1600 L240 919 L751 1600 L867 1600 L387 956 L1007 0 L896 0 L328 884 L240 775 Z" /><glyph glyph-name="L" unicode="l" d="M150 0 L150 1600 L240 1600 L240 90 L860 90 L860 0 L150 0 Z" /><glyph glyph-name="M" unicode="m" d="M253 1600 L854 560 L1454 1600 L1557 1600 L1553 1593 L1553 0 L1463 0 L1463 1437 L854 383 L244 1437 L244 0 L154 0 L154 1593 L150 1600 L253 1600 Z" /><glyph glyph-name="N" unicode="n" d="M150 1600 L249 1600 L1071 177 L1071 1600 L1161 1600 L1161 0 L1071 0 L240 1437 L240 0 L150 0 L150 1600 Z" /><glyph glyph-name="O" unicode="o" d="M946 1623 Q1286 1623 1526.5 1382.5 Q1767 1142 1767 802 Q1767 462 1526.5 221.5 Q1286 -19 946 -19 Q606 -19 365.5 221.5 Q125 462 125 802 Q125 1142 365.5 1382.5 Q606 1623 946 1623 ZM946 1531 Q644 1531 430.5 1317.5 Q217 1104 217 802 Q217 500 430.5 286 Q644 72 946 72 Q1248 72 1461.5 286 Q1675 500 1675 802 Q1675 1104 1461.5 1317.5 Q1248 1531 946 1531 Z" /><glyph glyph-name="P" unicode="p" d="M240 555 L240 0 L150 0 L150 1600 L570 1600 Q753 1575 881 1447 Q1034 1294 1034 1078 Q1034 861 881 708 Q728 555 512 555 L240 555 ZM240 1509 L240 646 L512 646 Q690 646 816.5 772.5 Q943 899 943 1078 Q943 1257 816.5 1383 Q690 1509 512 1509 L240 1509 Z" /><glyph glyph-name="Q" unicode="q" d="M946 1531 Q644 1531 430.5 1317.5 Q217 1104 217 802 Q217 500 430.5 286 Q644 72 946 72 Q1248 72 1461.5 286 Q1675 500 1675 802 Q1675 1104 1461.5 1317.5 Q1248 1531 946 1531 ZM937 -19 Q603 -16 366 222 Q125 462 125 802 Q125 1142 365.5 1382.5 Q606 1623 946 1623 Q1286 1623 1526.5 1382.5 Q1767 1142 1767 802 Q1767 462 1527 222 Q1353 48 1128 0 Q1133 -2 1138 -3 Q1211 -23 1335 -101 Q1419 -146 1453 -156 Q1474 -162 1494 -162 Q1530 -162 1564 -143 Q1617 -113 1633 -55 Q1638 -39 1639 -23 L1730 -23 Q1728 -50 1720 -78 Q1693 -172 1608 -220 Q1554 -251 1496 -251 Q1463 -251 1429 -241 Q1369 -225 1259 -155 Q1157 -101 1114 -89 Q1085 -81 1057 -81 Q1007 -81 961 -107 Q887 -149 865 -230 Q861 -242 860 -254 L769 -254 Q771 -230 778 -205 Q811 -89 917 -29 Q927 -24 937 -19 Z" /><glyph glyph-name="R" unicode="r" d="M240 1509 L240 646 L512 646 Q690 646 816.5 772.5 Q943 899 943 1078 Q943 1257 816.5 1383 Q690 1509 512 1509 L240 1509 ZM539 556 Q526 555 512 555 L240 555 L240 0 L150 0 L150 1600 L570 1600 Q753 1575 881 1447 Q1034 1294 1034 1078 Q1034 861 881 708 Q775 602 638 569 L1007 0 L896 0 L539 556 Z" /><glyph glyph-name="S" unicode="s" d="M548 886 Q377 943 278 1042 Q179 1141 179 1282 Q179 1420 278 1519.5 Q377 1619 518 1619 Q658 1619 758 1520 Q813 1467 834 1401 L753 1369 Q735 1418 694 1459 Q621 1531 518 1531 Q415 1531 342 1458.5 Q269 1386 269 1282 Q269 1179 342 1106 Q410 1039 530 983 Q722 921 853 790 Q992 652 992 456 Q992 259 853 120 Q714 -19 518 -19 Q322 -19 183 121 Q72 232 50 379 L135 410 Q149 280 246 183 Q359 70 518 70 Q678 70 791 183 Q904 296 904 456 Q904 615 791 728 Q692 827 548 886 Z" /><glyph glyph-name="T" unicode="t" d="M545 1510 L545 0 L455 0 L455 1510 L50 1510 L50 1600 L950 1600 L950 1510 L545 1510 Z" /><glyph glyph-name="U" unicode="u" d="M1104 1600 L1195 1600 L1195 450 Q1170 267 1042 139 Q889 -14 673 -14 Q456 -14 303 139 Q150 292 150 508 L150 1600 L241 1600 L241 508 Q241 330 367.5 203.5 Q494 77 673 77 Q852 77 978 203.5 Q1104 330 1104 508 L1104 1600 Z" /><glyph glyph-name="V" unicode="v" d="M145 1600 L645 226 L1145 1600 L1241 1600 L645 -37 L50 1600 L145 1600 Z" /><glyph glyph-name="W" unicode="w" d="M791 240 L791 1600 L881 1600 L881 240 Q904 197 938 163 Q1028 76 1152 76 Q1276 76 1366.5 164.5 Q1457 253 1457 378 L1457 1600 L1547 1600 L1547 370 Q1544 214 1432 102 Q1316 -14 1152 -14 Q989 -14 873 101 Q852 121 836 142 Q820 121 799 101 Q683 -14 520 -14 Q356 -14 241 102 Q128 214 125 370 L125 1600 L215 1600 L215 378 Q215 253 305.5 164.5 Q396 76 520 76 Q644 76 734 163 Q768 197 791 240 Z" /><glyph glyph-name="X" unicode="x" d="M50 0 L557 879 L141 1600 L244 1600 L608 968 L974 1600 L1077 1600 L659 879 L1168 0 L1065 0 L608 790 L152 0 L50 0 Z" /><glyph glyph-name="Y" unicode="y" d="M600 647 L50 1600 L153 1600 L645 747 L1138 1600 L1241 1600 L690 647 L690 0 L600 0 L600 647 Z" /><glyph glyph-name="Z" unicode="z" d="M1022 1510 L150 1510 L150 1600 L1177 1600 L304 90 L1177 90 L1177 0 L150 0 L1022 1510 Z" /><glyph glyph-name="bracketleft" unicode="[" d="M215 -285 L435 -285 L435 -375 L125 -375 L125 1600 L435 1600 L435 1510 L215 1510 L215 -285 Z" /><glyph glyph-name="backslash" unicode="\" d="M777 0 L675 0 L-50 1600 L53 1600 L777 0 Z" /><glyph glyph-name="bracketright" unicode="]" d="M345 1510 L125 1510 L125 1600 L435 1600 L435 -375 L125 -375 L125 -285 L345 -285 L345 1510 Z" /><glyph glyph-name="asciicircum" unicode="^" d="M513 1600 L821 1066 L717 1066 L461 1509 L205 1066 L100 1066 L409 1600 L513 1600 Z" /><glyph glyph-name="underscore" unicode="_" d="M25 -30 L1025 -30 L1025 -120 L25 -120 L25 -30 Z" /><glyph glyph-name="grave" unicode="`" d="M316 1387 L479 1200 L395 1200 L150 1387 L316 1387 Z" /><glyph glyph-name="a" unicode="a" d="M1210 0 L1120 0 L1120 200 Q1094 165 1063 133 Q902 -28 674 -28 Q447 -28 286 133 Q125 294 125 521 Q125 749 286 910 Q447 1071 674 1071 Q902 1071 1063 910 Q1094 878 1120 843 L1120 982 L1210 982 L1210 0 ZM1120 432 L1120 610 Q1095 742 995 842 Q862 975 674 975 Q486 975 353 842 Q220 709 220 521 Q220 333 353 200.5 Q486 68 674 68 Q862 68 995 201 Q1095 301 1120 432 Z" /><glyph glyph-name="b" unicode="b" d="M150 1600 L240 1600 L240 844 Q265 878 297 910 Q458 1071 685 1071 Q913 1071 1073.5 910 Q1234 749 1234 521 Q1234 294 1073.5 133 Q913 -28 685 -28 Q458 -28 297 133 Q265 165 240 199 L240 0 L150 0 L150 1600 ZM240 615 L240 427 Q266 299 364 201 Q497 68 685 68 Q873 68 1006 200.5 Q1139 333 1139 521 Q1139 709 1006 842 Q873 975 685 975 Q497 975 364 842 Q266 744 240 615 Z" /><glyph glyph-name="c" unicode="c" d="M992 236 L1087 202 Q1061 166 1028 133 Q867 -28 639 -28 Q412 -28 251 133 Q90 294 90 522 Q90 749 251 910 Q412 1071 639 1071 Q867 1071 1028 910 Q1061 877 1087 842 L992 807 Q977 825 960 843 Q827 975 639 975 Q452 975 319 842.5 Q186 710 186 522 Q186 334 319 201 Q452 68 639 68 Q827 68 960 201 Q977 218 992 236 Z" /><glyph glyph-name="d" unicode="d" d="M1210 0 L1120 0 L1120 200 Q1094 165 1063 133 Q902 -28 674 -28 Q447 -28 286 133 Q125 294 125 521 Q125 749 286 910 Q447 1071 674 1071 Q902 1071 1063 910 Q1094 878 1120 843 L1120 1600 L1210 1600 L1210 0 ZM1120 432 L1120 610 Q1095 742 995 842 Q862 975 674 975 Q486 975 353 842 Q220 709 220 521 Q220 333 353 200.5 Q486 68 674 68 Q862 68 995 201 Q1095 301 1120 432 Z" /><glyph glyph-name="e" unicode="e" d="M337 184 Q464 68 639 68 Q827 68 960 201 Q977 218 992 236 L1087 202 Q1061 166 1028 133 Q867 -28 639 -28 Q412 -28 251 133 Q90 294 90 522 Q90 749 251 910 Q412 1071 639 1071 Q834 1071 980 954 Q1004 934 1028 910 Q1037 901 1045 892 L977 824 L337 184 ZM911 885 Q794 975 639 975 Q452 975 319 842.5 Q186 710 186 522 Q186 367 276 250 L911 885 Z" /><glyph glyph-name="f" unicode="f" d="M280 892 L280 0 L190 0 L190 892 L90 892 L90 982 L190 982 L190 1248 Q196 1359 275 1439 Q357 1515 464 1515 Q520 1515 582 1494 L554 1414 Q512 1432 473 1432 Q402 1432 339 1375 Q283 1320 280 1242 L280 982 L480 982 L480 892 L280 892 Z" /><glyph glyph-name="g" unicode="g" d="M1119 615 Q1093 744 995 842 Q862 975 674 975 Q486 975 353 842 Q220 709 220 521 Q220 333 353 200 Q486 67 674 67 Q862 67 995 200 Q1092 297 1119 425 L1119 615 ZM1117 195 Q1092 163 1063 133 Q902 -28 674 -28 Q447 -28 286 133 Q125 294 125 521 Q125 749 286 909.5 Q447 1070 674 1070 Q902 1070 1063 910 Q1094 878 1120 843 L1120 982 L1210 982 L1210 219 Q1210 -2 1053 -159 Q892 -320 665 -320 Q437 -320 276 -159 Q243 -126 217 -90 L312 -56 Q327 -74 344 -91 Q477 -224 665 -224 Q852 -224 985 -91 Q1106 30 1117 195 Z" /><glyph glyph-name="h" unicode="h" d="M150 1600 L240 1600 L240 931 Q354 1041 514 1041 Q688 1041 797 932 Q906 823 909 657 L909 0 L819 0 L819 649 Q819 774 728.5 862.5 Q638 951 514 951 Q390 951 300 864 Q260 824 240 781 L240 0 L150 0 L150 1600 Z" /><glyph glyph-name="i" unicode="i" d="M260 982 L260 0 L170 0 L170 982 L260 982 ZM215 1330 Q252 1330 278.5 1304 Q305 1278 305 1241 Q305 1203 278.5 1177 Q252 1151 215 1151 Q178 1151 151.5 1177 Q125 1203 125 1241 Q125 1278 151.5 1304 Q178 1330 215 1330 Z" /><glyph glyph-name="j" unicode="j" d="M49 -138 Q170 -124 170 -2 L170 982 L260 982 L260 0 Q260 -211 49 -228 L49 -138 ZM215 1330 Q252 1330 278.5 1304 Q305 1278 305 1241 Q305 1203 278.5 1177 Q252 1151 215 1151 Q178 1151 151.5 1177 Q125 1203 125 1241 Q125 1278 151.5 1304 Q178 1330 215 1330 Z" /><glyph glyph-name="k" unicode="k" d="M629 982 L387 682 L773 0 L661 0 L328 610 L240 501 L240 0 L150 0 L150 1400 L240 1400 L240 645 L513 982 L629 982 Z" /><glyph glyph-name="l" unicode="l" d="M240 1600 L240 0 L150 0 L150 1600 L240 1600 Z" /><glyph glyph-name="m" unicode="m" d="M150 982 L240 982 L240 959 Q324 1040 441 1040 Q562 1040 647 955 Q670 932 687 905 Q704 931 728 955 Q813 1040 934 1040 Q1055 1040 1140 955 Q1221 873 1225 758 L1225 0 L1135 0 L1135 758 L1136 758 Q1132 836 1077 891 Q1017 950 934 950 Q851 950 791.5 891 Q732 832 732 744 L732 0 L642 0 L642 758 L643 758 Q639 836 584 891 Q524 950 441 950 Q358 950 299 891 Q247 840 240 766 L240 0 L150 0 L150 982 Z" /><glyph glyph-name="n" unicode="n" d="M240 763 L240 0 L150 0 L150 982 L240 982 L240 919 Q363 1041 526 1041 Q700 1041 809 932 Q918 823 921 657 L921 0 L831 0 L831 649 Q831 774 740.5 862.5 Q650 951 526 951 Q402 951 312 864 Q263 815 240 763 Z" /><glyph glyph-name="o" unicode="o" d="M639 1071 Q867 1071 1027.5 910 Q1188 749 1188 521 Q1188 294 1027.5 133 Q867 -28 639 -28 Q412 -28 251 133 Q90 294 90 521 Q90 749 251 910 Q412 1071 639 1071 ZM639 975 Q451 975 318 842 Q185 709 185 521 Q185 333 318 200.5 Q451 68 639 68 Q827 68 960 200.5 Q1093 333 1093 521 Q1093 709 960 842 Q827 975 639 975 Z" /><glyph glyph-name="p" unicode="p" d="M150 982 L240 982 L240 844 Q265 878 297 910 Q458 1070 685 1070 Q913 1070 1073.5 909.5 Q1234 749 1234 521 Q1234 294 1073.5 133 Q913 -28 685 -28 Q458 -28 297 133 Q265 165 240 199 L240 -375 L150 -375 L150 982 ZM240 615 L240 427 Q266 298 364 200 Q497 67 685 67 Q873 67 1006 200 Q1139 333 1139 521 Q1139 709 1006 842 Q873 975 685 975 Q497 975 364 842 Q266 744 240 615 Z" /><glyph glyph-name="q" unicode="q" d="M1185 -375 L1095 -375 L1095 200 Q1069 165 1038 133 Q877 -28 649 -28 Q422 -28 261 133 Q100 294 100 521 Q100 749 261 909.5 Q422 1070 649 1070 Q877 1070 1038 910 Q1069 878 1095 843 L1095 982 L1185 982 L1185 -375 ZM1095 432 L1095 610 Q1070 742 970 842 Q837 975 649 975 Q461 975 328 842 Q195 709 195 521 Q195 333 328 200 Q461 67 649 67 Q837 67 970 200 Q1070 300 1095 432 Z" /><glyph glyph-name="r" unicode="r" d="M150 982 L240 982 L240 803 Q268 843 305 880 Q424 999 549 1005 L549 907 Q464 903 373 812 Q245 685 240 507 L240 0 L150 0 L150 982 Z" /><glyph glyph-name="s" unicode="s" d="M420 505 Q305 567 261 611 Q192 680 192 777 Q192 875 261 944.5 Q330 1014 427 1014 Q525 1014 589 950 Q651 887 651 807 L651 802 L573 771 Q563 847 525.5 885 Q488 923 427 923 Q367 923 324 880.5 Q281 838 281 777 Q281 717 324 674 Q349 649 430 598 Q558 528 612 474 Q697 388 697 269 Q697 147 612 61.5 Q527 -24 406 -24 Q285 -24 200 61.5 Q115 147 115 249 L204 272 Q204 184 263.5 125 Q323 66 406 66 Q489 66 548.5 125 Q608 184 608 269 Q608 352 549 411 Q517 443 420 505 Z" /><glyph glyph-name="t" unicode="t" d="M290 982 L290 1400 L380 1400 L380 982 L580 982 L580 892 L380 892 L380 0 L290 0 L290 892 L90 892 L90 982 L290 982 Z" /><glyph glyph-name="u" unicode="u" d="M555 -14 Q371 -14 262 95 Q153 204 150 370 L150 982 L240 982 L240 378 Q240 253 331 165 Q421 76 554 76 Q678 76 768.5 164.5 Q859 253 859 378 L859 982 L949 982 L949 370 Q946 204 837 95 Q728 -14 555 -14 Z" /><glyph glyph-name="v" unicode="v" d="M532 164 L910 982 L1014 982 L532 -27 L50 982 L154 982 L532 164 Z" /><glyph glyph-name="w" unicode="w" d="M642 260 L642 982 L732 982 L732 282 Q732 194 791.5 135 Q851 76 934 76 Q1017 76 1077 135 Q1132 190 1136 268 L1135 268 L1135 982 L1225 982 L1225 268 Q1221 153 1140 72 Q1055 -14 934 -14 Q813 -14 728 72 Q705 95 688 120 Q671 95 647 72 Q562 -14 441 -14 Q320 -14 235 72 Q154 153 150 268 L150 982 L240 982 L240 268 L239 268 Q243 190 299 135 Q358 76 441 76 Q524 76 584 135 Q635 186 642 260 Z" /><glyph glyph-name="x" unicode="x" d="M741 982 L488 544 L485 539 L488 534 L796 0 L692 0 L436 443 L180 0 L75 0 L384 534 L387 539 L384 544 L131 982 L235 982 L436 635 L636 982 L741 982 Z" /><glyph glyph-name="y" unicode="y" d="M503 88 L281 -375 L193 -375 L458 181 L75 982 L177 982 L503 278 L829 982 L930 982 L503 87 L503 88 Z" /><glyph glyph-name="z" unicode="z" d="M657 892 L150 892 L150 982 L812 982 L304 90 L850 90 L850 0 L150 0 L657 892 Z" /><glyph glyph-name="braceleft" unicode="{" d="M125 653 Q134 650 145 650 Q191 650 268 694 Q383 760 419 889 Q438 961 438 1041 Q438 1085 432 1131 Q418 1203 418 1266 Q418 1333 434 1392 Q464 1504 567 1562 Q632 1600 703 1600 Q722 1600 741 1597 L741 1522 Q723 1525 705 1525 Q653 1525 604 1498 Q529 1455 507 1372 Q492 1317 492 1247 Q492 1217 495 1183 Q511 1107 511 1034 Q511 949 490 869 Q446 711 305 630 Q288 621 270 613 Q288 604 305 595 Q446 514 490 356 Q511 276 511 191 Q511 118 495 42 Q492 8 492 -22 Q492 -92 507 -147 Q529 -230 604 -272 Q655 -300 708 -300 Q724 -300 741 -298 L741 -372 Q722 -375 703 -375 Q632 -375 567 -337 Q464 -279 434 -166 Q418 -107 418 -40 Q418 23 432 94 Q438 140 438 184 Q438 264 419 336 Q383 465 268 531 Q191 575 145 575 Q134 575 125 572 L125 653 Z" /><glyph glyph-name="bar" unicode="|" d="M240 1600 L240 -375 L150 -375 L150 1600 L240 1600 Z" /><glyph glyph-name="braceright" unicode="}" d="M741 572 Q732 575 721 575 Q675 575 598 531 Q483 465 447 336 Q428 264 428 184 Q428 140 434 94 Q448 23 448 -40 Q448 -107 432 -166 Q402 -279 299 -337 Q234 -375 163 -375 Q144 -375 125 -372 L125 -298 Q142 -300 158 -300 Q211 -300 262 -272 Q337 -230 359 -147 Q374 -92 374 -22 Q374 8 371 42 Q355 118 355 191 Q355 276 376 356 Q420 514 561 595 Q578 604 596 613 Q578 621 561 630 Q420 711 376 869 Q355 949 355 1034 Q355 1107 371 1183 Q374 1217 374 1247 Q374 1317 359 1372 Q337 1455 262 1498 Q213 1525 161 1525 Q143 1525 125 1522 L125 1597 Q144 1600 163 1600 Q234 1600 299 1562 Q402 1504 432 1392 Q448 1333 448 1266 Q448 1203 434 1131 Q428 1085 428 1041 Q428 961 447 889 Q483 760 598 694 Q675 650 721 650 Q732 650 741 653 L741 572 Z" /><glyph glyph-name="asciitilde" unicode="~" d="M638 861 Q826 752 911 752 Q926 752 938 755 Q1015 778 1046 855 Q1061 893 1061 932 L1152 918 Q1148 870 1129 821 Q1083 710 973 673 Q948 665 917 665 Q812 665 639 764 Q449 873 365 873 Q351 873 339 870 Q262 847 231 770 Q216 731 215 693 L125 707 Q127 755 147 804 Q193 915 304 952 Q329 960 359 960 Q465 960 638 861 Z" /><glyph glyph-name="exclamdown" unicode="¡" d="M215 1439 Q178 1439 151.5 1465 Q125 1491 125 1528 Q125 1566 151.5 1592 Q178 1618 215 1618 Q252 1618 278.5 1592 Q305 1566 305 1528 Q305 1491 278.5 1465 Q252 1439 215 1439 ZM172 4 L172 1328 L262 1328 L262 4 L172 4 Z" /><glyph glyph-name="cent" unicode="¢" d="M551 705 Q694 707 797 810 Q810 823 825 841 L912 809 Q886 774 860 747 Q731 618 551 616 L551 462 L461 462 L461 623 Q330 646 230 747 Q99 877 99 1062 Q99 1246 230 1377 Q330 1477 461 1501 L461 1662 L551 1662 L551 1508 Q731 1506 860 1377 Q886 1350 912 1316 L825 1283 Q810 1301 797 1315 Q694 1417 551 1419 L551 705 ZM461 1410 Q366 1388 293 1315 Q188 1210 188 1062 Q188 914 293 810 Q366 736 461 714 L461 1410 Z" /><glyph glyph-name="sterling" unicode="£" d="M448 555 Q451 534 453 512 Q455 490 455 468 Q455 264 285 63 Q410 108 531 108 Q603 108 674 92 Q773 69 862 69 Q942 69 1013 87 L1030 -2 Q949 -22 862 -22 Q773 -22 679 0 Q581 21 506 21 Q438 21 389 4 Q285 -34 187 -83 L100 20 Q224 130 256 169 Q364 297 364 461 Q364 483 362 505 Q360 530 356 555 L128 555 L128 645 L337 645 Q311 740 262 834 Q151 1014 137 1177 Q135 1196 135 1215 Q135 1354 227 1464 Q330 1587 493 1602 Q512 1603 531 1603 Q670 1603 781 1511 Q905 1406 920 1244 Q923 1221 923 1200 Q923 1137 901 1086 L815 1115 Q830 1158 830 1210 Q830 1224 829 1238 Q817 1361 722 1441 Q638 1511 532 1511 Q518 1511 504 1510 Q380 1499 300 1404 Q230 1320 230 1215 Q230 1200 231 1185 Q241 1072 309 929 Q395 791 431 645 L628 645 L628 555 L448 555 Z" /><glyph glyph-name="currency" unicode="¤" d="M303 1462 Q411 1551 556 1551 Q701 1551 809 1462 L948 1601 L1012 1537 L873 1398 Q962 1290 962 1145 Q962 1000 873 892 L1012 753 L948 689 L809 828 Q701 739 556 739 Q411 739 303 828 L164 689 L100 753 L239 892 Q150 1000 150 1145 Q150 1290 239 1398 L100 1537 L164 1601 L303 1462 ZM745 1398 Q664 1461 556 1461 Q448 1461 367 1398 Q349 1385 333 1369 Q316 1352 303 1334 Q240 1253 240 1145 Q240 1037 303 956 Q316 938 333 922 Q349 905 367 892 Q448 829 556 829 Q664 829 745 892 Q763 905 780 922 Q796 938 809 956 Q872 1037 872 1145 Q872 1253 809 1334 Q796 1352 780 1369 Q763 1385 745 1398 Z" /><glyph glyph-name="yen" unicode="¥" d="M650 755 L1138 1600 L1241 1600 L752 755 L1046 755 L1046 665 L700 665 L690 647 L690 545 L1046 545 L1046 455 L690 455 L690 0 L600 0 L600 455 L246 455 L246 545 L600 545 L600 647 L590 665 L246 665 L246 755 L538 755 L50 1600 L153 1600 L640 755 L650 755 Z" /><glyph glyph-name="brokenbar" unicode="¦" d="M240 1600 L240 751 L150 751 L150 1600 L240 1600 ZM240 474 L240 -375 L150 -375 L150 474 L240 474 Z" /><glyph glyph-name="section" unicode="§" d="M881 345 Q892 359 907 374 Q970 437 970 597 Q970 756 857 869 Q758 968 614 1027 Q443 1084 344 1183 Q301 1226 277 1277 Q266 1263 251 1248 Q188 1185 188 1025 Q188 866 301 753 Q400 654 544 595 Q715 538 814 439 Q857 396 881 345 ZM250 1362 Q245 1391 245 1423 Q245 1561 344 1660.5 Q443 1760 584 1760 Q724 1760 824 1661 Q879 1608 900 1542 L819 1510 Q801 1559 760 1600 Q687 1672 584 1672 Q481 1672 408 1599.5 Q335 1527 335 1423 Q335 1320 408 1247 Q476 1180 596 1124 Q788 1062 919 931 Q1058 793 1058 597 Q1058 400 969 311 Q933 275 908 260 Q913 231 913 199 Q913 61 814 -38.5 Q715 -138 574 -138 Q434 -138 334 -39 Q279 14 258 80 L339 112 Q357 63 398 22 Q471 -50 574 -50 Q677 -50 750 22.5 Q823 95 823 199 Q823 302 750 375 Q682 442 562 498 Q370 560 239 691 Q100 829 100 1025 Q100 1222 189 1311 Q225 1347 250 1362 Z" /><glyph glyph-name="dieresis" unicode="¨" d="M215 1330 Q252 1330 278.5 1304 Q305 1278 305 1241 Q305 1203 278.5 1177 Q252 1151 215 1151 Q178 1151 151.5 1177 Q125 1203 125 1241 Q125 1278 151.5 1304 Q178 1330 215 1330 ZM515 1330 Q552 1330 578.5 1304 Q605 1278 605 1241 Q605 1203 578.5 1177 Q552 1151 515 1151 Q478 1151 451.5 1177 Q425 1203 425 1241 Q425 1278 451.5 1304 Q478 1330 515 1330 Z" /><glyph glyph-name="copyright" unicode="©" d="M917 442 L985 417 Q965 389 945 369 Q848 272 711 272 Q574 272 477 369 Q380 466 380 603 Q380 740 477 837 Q574 934 711 934 Q848 934 945 837 Q965 817 985 789 L917 764 Q906 778 896 789 Q819 865 711 865 Q603 865 526 788.5 Q449 712 449 603 Q449 495 526 418 Q603 341 711 341 Q819 341 896 418 Q906 428 917 442 ZM700 1204 Q948 1204 1124 1028 Q1300 852 1300 603 Q1300 354 1124 178 Q948 2 700 2 Q451 2 275 178 Q99 354 99 603 Q99 852 275 1028 Q451 1204 700 1204 ZM700 1133 Q480 1133 325 978 Q170 823 170 603 Q170 384 325 228.5 Q480 73 700 73 Q919 73 1074 228.5 Q1229 384 1229 603 Q1229 823 1074 978 Q919 1133 700 1133 Z" /><glyph glyph-name="ordfeminine" unicode="ª" d="M131 944 L706 944 L706 913 L100 913 L100 1541 L131 1541 L131 944 ZM778 1071 L723 1071 L723 1156 Q721 1153 706 1137 Q626 1058 514 1058 Q401 1058 322 1137.5 Q243 1217 243 1329 Q243 1441 322 1520.5 Q401 1600 514 1600 Q626 1600 706 1521 Q721 1505 723 1502 L723 1557 L778 1557 L778 1071 ZM723 1286 L723 1371 Q712 1433 664 1480 Q602 1542 514 1542 Q425 1542 362.5 1479.5 Q300 1417 300 1329 Q300 1240 362.5 1178 Q425 1116 514 1116 Q602 1116 664 1178 Q712 1225 723 1286 Z" /><glyph glyph-name="guillemotleft" unicode="«" d="M444 462 L880 922 L880 818 L549 462 L880 106 L880 1 L444 462 ZM100 462 L529 922 L529 818 L198 462 L529 106 L529 1 L100 462 Z" /><glyph glyph-name="registered" unicode="®" d="M467 1371 L467 993 L583 993 Q661 993 716.5 1048.5 Q772 1104 772 1182 Q772 1260 716.5 1315.5 Q661 1371 583 1371 L467 1371 ZM730 721 L592 936 L467 936 L467 781 L412 781 L412 1425 L610 1425 Q696 1413 756 1353 Q827 1282 827 1181 Q827 1079 756 1007 Q706 958 652 945 L782 745 Q835 775 880 819 Q1004 944 1004 1119 Q1004 1295 880 1419 Q756 1543 581 1543 Q405 1543 281 1419 Q157 1295 157 1119 Q157 944 281 819 Q340 761 410 730 Q438 717 468 709 Q521 695 581 695 Q659 695 730 721 ZM782.5 684 Q694 638 581 638 Q381 638 240.5 779 Q100 920 100 1119 Q100 1318 240.5 1459 Q381 1600 581 1600 Q779 1600 920 1459 Q1061 1318 1061 1119 Q1061 920 920 779 Q871 730 782.5 684 Z" /><glyph glyph-name="macron" unicode="¯" d="M125 1427 L715 1427 L715 1337 L125 1337 L125 1427 Z" /><glyph glyph-name="degree" unicode="°" d="M381 1600 Q477 1600 544.5 1532.5 Q612 1465 612 1369 Q612 1273 544.5 1205.5 Q477 1138 381 1138 Q285 1138 217.5 1205.5 Q150 1273 150 1369 Q150 1465 217.5 1532.5 Q285 1600 381 1600 ZM381 1529 Q315 1529 268 1482 Q221 1435 221 1369 Q221 1303 268 1256 Q315 1209 381 1209 Q447 1209 494 1256 Q541 1303 541 1369 Q541 1435 494 1482 Q447 1529 381 1529 Z" /><glyph glyph-name="plusminus" unicode="±" d="M480 547 L125 547 L125 637 L480 637 L480 992 L570 992 L570 637 L925 637 L925 547 L570 547 L570 192 L480 192 L480 547 ZM125 90 L925 90 L925 0 L125 0 L125 90 Z" /><glyph glyph-name="uni00B2" unicode="²" d="M128 629 Q160 829 269.5 904.5 Q379 980 461 1036.5 Q543 1093 612 1163 Q681 1233 681 1325 Q681 1418 612 1481.5 Q543 1545 448 1545 Q354 1545 286 1482 Q226 1427 215 1334 L125 1365 Q141 1463 216 1533 Q312 1622 448 1622 Q585 1622 679.5 1534.5 Q774 1447 774 1325 Q774 1205 683 1114 Q621 1052 538 995 Q455 938 349 865 Q252 797 230 703 L774 703 L774 629 L128 629 Z" /><glyph glyph-name="uni00B3" unicode="³" d="M412 1165 L349 1166 L349 1240 Q422 1240 457 1252.5 Q492 1265 534.5 1307 Q577 1349 577 1408 Q577 1467 534.5 1506.5 Q492 1546 433 1546 Q375 1546 333 1508 Q309 1485 292 1443 L208 1473 Q225 1524 263 1557 Q334 1622 433 1622 Q534 1622 602.5 1558 Q671 1494 671 1408 Q671 1320 619.5 1269 Q568 1218 547 1210 Q618 1188 683 1124 Q774 1033 774 912 Q774 791 679.5 703.5 Q585 616 448 616 Q312 616 216 705 Q141 774 125 873 L215 903 Q226 810 286 755 Q354 693 448 693 Q543 693 612 756.5 Q681 820 681 912 Q681 1005 613.5 1073 Q546 1141 412 1165 Z" /><glyph glyph-name="acute" unicode="´" d="M479 1387 L234 1200 L150 1200 L313 1387 L479 1387 Z" /><glyph glyph-name="mu" unicode="µ" d="M808 111 Q803 106 797 100 Q688 -9 514 -9 Q354 -9 240 101 L240 -375 L150 -375 L150 982 L240 982 L240 251 Q260 208 300 168 Q390 81 514 81 Q638 81 729 170 Q787 227 808 300 L808 982 L896 982 L896 0 L808 0 L808 111 Z" /><glyph glyph-name="paragraph" unicode="¶" d="M815 1602 L815 -375 L725 -375 L725 646 L573 646 Q357 646 204 799 Q51 952 51 1169 Q51 1385 204 1538 Q332 1666 515 1691 L595 1691 L595 1692 L1086 1692 L1086 1602 L998 1602 L998 -375 L908 -375 L908 1602 L815 1602 Z" /><glyph glyph-name="periodcentered" unicode="·&#x2219;" d="M202 876 Q233 876 255.5 854 Q278 832 278 800 Q278 768 255.5 746 Q233 724 202 724 Q170 724 147.5 746 Q125 768 125 800 Q125 832 147.5 854 Q170 876 202 876 Z" /><glyph glyph-name="cedilla" unicode="¸" d="M156 0 L153 -29 L152 -35 L153 -35 L150 -75 Q164 -82 178 -90 Q238 -129 246 -184 Q247 -191 247 -198 Q247 -243 204 -276 Q153 -315 74 -315 Q40 -315 10 -308 L21 -253 Q42 -260 67 -260 Q112 -260 141 -237 Q166 -218 166 -191 L166 -184 Q161 -152 126 -129 Q91 -108 49 -107 L92 0 L156 0 Z" /><glyph glyph-name="uni00B9" unicode="¹" d="M530 1600 L530 620 L440 620 L440 1485 L368 1485 L465 1600 L530 1600 Z" /><glyph glyph-name="ordmasculine" unicode="º" d="M529 1116 Q637 1121 695 1178 Q757 1240 757 1329 Q757 1417 695 1480 Q637 1537 529 1542 Q420 1537 363 1480 Q300 1417 300 1329 Q300 1240 363 1178 Q420 1121 529 1116 ZM514 1058 Q401 1058 322 1137.5 Q243 1217 243 1329 Q243 1441 322 1520.5 Q401 1600 514 1600 L543 1600 Q656 1600 735 1520.5 Q814 1441 814 1329 Q814 1217 735 1137.5 Q656 1058 543 1058 L514 1058 ZM131 944 L706 944 L706 913 L100 913 L100 1541 L131 1541 L131 944 Z" /><glyph glyph-name="guillemotright" unicode="»" d="M100 1 L100 106 L431 462 L100 818 L100 922 L536 462 L100 1 ZM451 1 L451 106 L782 462 L451 818 L451 922 L880 462 L451 1 Z" /><glyph glyph-name="questiondown" unicode="¿" d="M389 786 Q506 889 566 1015 Q606 1097 606 1181 Q606 1245 583 1310 L666 1339 Q694 1259 694 1181 Q694 1077 645 977 Q565 810 404 688 Q309 596 268 510 Q242 457 242 402 Q242 361 256 320 Q291 222 384 177 Q437 152 491 152 Q532 152 574 167 Q671 201 716 293 Q741 345 741 398 L829 394 L829 386 Q829 321 797 257 Q735 130 603 84 Q545 64 489 64 Q415 64 343 98 Q217 159 171 290 Q151 347 151 403 Q151 477 186 549 Q247 676 389 786 ZM630 1439 Q593 1439 566.5 1465 Q540 1491 540 1528 Q540 1566 566.5 1592 Q593 1618 630 1618 Q667 1618 693.5 1592 Q720 1566 720 1528 Q720 1491 693.5 1465 Q667 1439 630 1439 Z" /><glyph glyph-name="AE" unicode="æ" d="M1551 1600 L1551 1510 L841 1510 L841 845 L1551 845 L1551 755 L841 755 L841 90 L1551 90 L1551 0 L751 0 L751 613 L429 613 L166 0 L40 0 L751 1597 L751 1600 L1551 1600 ZM751 1373 L462 703 L751 703 L751 1373 Z" /><glyph glyph-name="Ccedilla" unicode="ç" d="M773 -3 Q541 44 365 221 Q125 460 125 800 Q125 1139 364.5 1379 Q604 1619 944 1619 Q1261 1619 1495 1406 L1427 1344 Q1221 1527 944 1527 Q643 1527 430 1314 Q217 1101 217 800 Q217 498 430 285 Q643 72 944 72 Q1221 72 1427 255 L1495 194 Q1261 -19 944 -19 Q889 -19 837 -13 L835 -29 L834 -35 L835 -35 L832 -75 Q846 -82 860 -90 Q920 -129 928 -184 Q929 -191 929 -198 Q929 -243 886 -276 Q835 -315 756 -315 Q722 -315 692 -308 L703 -253 Q724 -260 749 -260 Q794 -260 823 -237 Q848 -218 848 -191 L848 -184 Q843 -152 808 -129 Q773 -108 731 -107 L773 -3 Z" /><glyph glyph-name="Eth" unicode="ð" d="M210 845 L210 1600 L300 1600 L300 1598 L307 1598 Q702 1598 919 1380 Q1159 1139 1159 800 Q1159 460 919 220 Q702 2 307 2 L300 2 L300 0 L210 0 L210 755 L50 755 L50 845 L210 845 ZM300 845 L670 845 L670 755 L300 755 L300 93 L307 93 Q663 93 854 285 Q1067 498 1067 800 Q1067 1101 854 1315 Q663 1506 307 1506 L300 1506 L300 845 Z" /><glyph glyph-name="multiply" unicode="×" d="M525 528 L274 277 L210 341 L461 592 L210 843 L274 907 L525 656 L776 907 L839 843 L588 592 L839 341 L776 277 L525 528 Z" /><glyph glyph-name="Oslash" unicode="ø" d="M1213 1483 Q1090 1531 946 1531 Q644 1531 430.5 1317.5 Q217 1104 217 802 Q217 500 431 286 Q508 209 597 159 L1213 1483 ZM678 121 Q802 72 946 72 Q1248 72 1461.5 286 Q1675 500 1675 802 Q1675 1104 1462 1318 Q1384 1395 1295 1444 L678 121 ZM1334 1528 Q1437 1472 1527 1383 Q1767 1142 1767 802 Q1767 462 1526.5 221.5 Q1286 -19 946 -19 Q781 -19 640 38 L554 -146 L472 -108 L558 76 Q455 132 366 222 Q125 462 125 802 Q125 1142 365.5 1382.5 Q606 1623 946 1623 Q1111 1623 1252 1566 L1338 1750 L1420 1712 L1334 1528 Z" /><glyph glyph-name="Thorn" unicode="þ" d="M240 1323 L570 1323 Q753 1298 881 1170 Q1034 1017 1034 801 Q1034 584 881 431 Q728 278 512 278 L240 278 L240 0 L150 0 L150 1600 L240 1600 L240 1323 ZM240 369 L512 369 Q690 369 816.5 495.5 Q943 622 943 801 Q943 980 816.5 1106 Q690 1232 512 1232 L240 1232 L240 369 Z" /><glyph glyph-name="germandbls" unicode="ß" d="M431 1608 L447 1608 Q568 1608 653 1538 Q744 1463 752 1311 L752 1294 Q752 1154 623 1072 Q981 929 994 551 Q994 324 834 158 Q685 4 478 1 L478 0 L311 0 L311 90 L478 90 L478 89 Q645 100 766 226 Q899 363 899 551 Q899 739 766 872 Q633 1005 411 1005 L411 1101 Q550 1108 607 1160.5 Q664 1213 664 1302 Q664 1390 608 1454 Q555 1514 457 1514 L446 1514 Q340 1510 288 1448.5 Q236 1387 230 1266 L230 0 L140 0 L140 1281 Q150 1443 225 1523 Q300 1603 431 1608 Z" /><glyph glyph-name="ae" unicode="æ" d="M1038 739 Q1008 794 960 842 Q827 975 639 975 Q451 975 318 842 Q185 709 185 521 Q185 333 318 200.5 Q451 68 639 68 Q827 68 960 201 Q1008 249 1038 303 Q1072 363 1085 432 L1085 610 Q1072 679 1038 739 ZM1973 663 Q1941 766 1865 842 Q1732 975 1544 975 Q1356 975 1223 842 Q1196 815 1175 787 L1175 663 L1973 663 ZM1175 256 Q1196 227 1223 201 Q1356 68 1544 68 Q1732 68 1865 201 Q1888 224 1908 249 L2004 215 Q1987 187 1933 133 Q1772 -28 1544 -28 Q1330 -28 1175 115 L1175 0 L1085 0 L1085 200 Q1059 165 1028 133 Q867 -28 639 -28 Q412 -28 251 133 Q90 294 90 521 Q90 749 251 910 Q412 1071 639 1071 Q867 1071 1028 910 Q1059 878 1085 843 L1085 982 L1175 982 L1175 928 Q1330 1071 1544 1071 Q1772 1071 1933 910 Q2075 767 2081 572 L1175 573 L1175 256 Z" /><glyph glyph-name="ccedilla" unicode="ç" d="M544 -20 Q377 7 251 133 Q90 294 90 522 Q90 749 251 910 Q412 1071 639 1071 Q867 1071 1028 910 Q1061 877 1087 842 L992 807 Q977 825 960 843 Q827 975 639 975 Q452 975 319 842.5 Q186 710 186 522 Q186 334 319 201 Q452 68 639 68 Q827 68 960 201 Q977 218 992 236 L1087 202 Q1061 166 1028 133 Q867 -28 639 -28 Q626 -28 613 -27 L613 -29 L612 -35 L613 -35 L610 -75 Q624 -82 638 -90 Q698 -129 706 -184 Q707 -191 707 -198 Q707 -243 664 -276 Q613 -315 534 -315 Q500 -315 470 -308 L481 -253 Q502 -260 527 -260 Q572 -260 601 -237 Q626 -218 626 -191 L626 -184 Q621 -152 586 -129 Q551 -108 509 -107 L544 -20 Z" /><glyph glyph-name="eth" unicode="ð" d="M318 842 Q185 709 185 521 Q185 333 318 200.5 Q451 68 639 68 Q827 68 960 200.5 Q1093 333 1093 521 Q1093 709 960 842 Q827 975 639 975 Q451 975 318 842 ZM957 971 Q994 944 1028 910 Q1188 749 1188 521 Q1188 294 1027.5 133 Q867 -28 639 -28 Q412 -28 251 133 Q90 294 90 521 Q90 749 251 910 Q412 1071 639 1071 Q672 1071 704 1068 L650 1128 L482 1128 L482 1218 L569 1218 L465 1333 L593 1333 L708 1218 L872 1218 L872 1128 L799 1128 L957 971 Z" /><glyph glyph-name="divide" unicode="÷" d="M125 659 L925 659 L925 569 L125 569 L125 659 ZM525 903 Q562 903 588.5 877 Q615 851 615 814 Q615 776 588.5 750 Q562 724 525 724 Q488 724 461.5 750 Q435 776 435 814 Q435 851 461.5 877 Q488 903 525 903 ZM525 503 Q562 503 588.5 477 Q615 451 615 414 Q615 376 588.5 350 Q562 324 525 324 Q488 324 461.5 350 Q435 376 435 414 Q435 451 461.5 477 Q488 503 525 503 Z" /><glyph glyph-name="oslash" unicode="ø" d="M827 937 Q741 976 639 976 Q451 976 318 843 Q185 710 185 522 Q185 334 318 202 Q345 174 375 153 L827 937 ZM904 891 L451 108 Q537 69 639 69 Q827 69 960 201.5 Q1093 334 1093 522 Q1093 710 960 843 Q933 870 904 891 ZM327 70 Q287 98 251 134 Q90 295 90 522 Q90 750 251 911 Q412 1072 639 1072 Q768 1072 876 1020 L998 1232 L1077 1191 L952 975 Q992 947 1028 911 Q1188 750 1188 522 Q1188 295 1027.5 134 Q867 -27 639 -27 Q510 -27 403 25 L280 -188 L201 -150 L327 70 Z" /><glyph glyph-name="thorn" unicode="þ" d="M240 844 Q265 878 297 910 Q458 1070 685 1070 Q913 1070 1073.5 909.5 Q1234 749 1234 521 Q1234 294 1073.5 133 Q913 -28 685 -28 Q458 -28 297 133 Q265 165 240 199 L240 -375 L150 -375 L150 1600 L240 1600 L240 844 ZM240 427 Q266 298 364 200 Q497 67 685 67 Q873 67 1006 200 Q1139 333 1139 521 Q1139 709 1006 842 Q873 975 685 975 Q497 975 364 842 Q266 744 240 615 L240 427 Z" /><glyph glyph-name="Aogonek" unicode="&#x104;" d="M890 703 L646 1374 L402 703 L890 703 ZM1131 41 L923 613 L369 613 L146 0 L50 0 L646 1637 L1241 0 L1146 0 Q1071 -38 1061 -102 Q1059 -120 1059 -136 Q1059 -184 1081 -210 Q1111 -246 1161 -246 Q1191 -246 1219 -232 L1241 -282 Q1185 -305 1130 -305 Q1057 -305 1013 -256 Q978 -217 978 -160 Q978 -146 980 -131 Q994 -32 1131 41 Z" /><glyph glyph-name="aogonek" unicode="&#x105;" d="M1120 432 L1120 610 Q1095 742 995 842 Q862 975 674 975 Q486 975 353 842 Q220 709 220 521 Q220 333 353 200.5 Q486 68 674 68 Q862 68 995 201 Q1095 301 1120 432 ZM1120 46 L1120 200 Q1094 165 1063 133 Q902 -28 674 -28 Q447 -28 286 133 Q125 294 125 521 Q125 749 286 910 Q447 1071 674 1071 Q902 1071 1063 910 Q1094 878 1120 843 L1120 982 L1210 982 L1210 0 L1120 0 Q1049 -39 1040 -102 Q1038 -120 1038 -136 Q1038 -184 1060 -210 Q1090 -246 1140 -246 Q1170 -246 1198 -232 L1220 -282 Q1164 -305 1109 -305 Q1036 -305 992 -256 Q957 -217 957 -160 Q957 -146 959 -131 Q974 -28 1120 46 Z" /><glyph glyph-name="Cacute" unicode="&#x106;" d="M1427 255 L1495 194 Q1261 -19 944 -19 Q604 -19 364.5 220.5 Q125 460 125 800 Q125 1139 364.5 1379 Q604 1619 944 1619 Q1261 1619 1495 1406 L1427 1344 Q1221 1527 944 1527 Q643 1527 430 1314 Q217 1101 217 800 Q217 498 430 285 Q643 72 944 72 Q1221 72 1427 255 ZM1129 2005 L884 1818 L800 1818 L963 2005 L1129 2005 Z" /><glyph glyph-name="cacute" unicode="&#x107;" d="M992 236 L1087 202 Q1061 166 1028 133 Q867 -28 639 -28 Q412 -28 251 133 Q90 294 90 522 Q90 749 251 910 Q412 1071 639 1071 Q867 1071 1028 910 Q1061 877 1087 842 L992 807 Q977 825 960 843 Q827 975 639 975 Q452 975 319 842.5 Q186 710 186 522 Q186 334 319 201 Q452 68 639 68 Q827 68 960 201 Q977 218 992 236 ZM858 1387 L613 1200 L529 1200 L692 1387 L858 1387 Z" /><glyph glyph-name="Ccircumflex" unicode="&#x108;" d="M1427 255 L1495 194 Q1261 -19 944 -19 Q604 -19 364.5 220.5 Q125 460 125 800 Q125 1139 364.5 1379 Q604 1619 944 1619 Q1261 1619 1495 1406 L1427 1344 Q1221 1527 944 1527 Q643 1527 430 1314 Q217 1101 217 800 Q217 498 430 285 Q643 72 944 72 Q1221 72 1427 255 ZM958 1942 L1196 1708 L1092 1708 L906 1851 L730 1708 L625 1708 L854 1942 L958 1942 Z" /><glyph glyph-name="ccircumflex" unicode="&#x109;" d="M992 236 L1087 202 Q1061 166 1028 133 Q867 -28 639 -28 Q412 -28 251 133 Q90 294 90 522 Q90 749 251 910 Q412 1071 639 1071 Q867 1071 1028 910 Q1061 877 1087 842 L992 807 Q977 825 960 843 Q827 975 639 975 Q452 975 319 842.5 Q186 710 186 522 Q186 334 319 201 Q452 68 639 68 Q827 68 960 201 Q977 218 992 236 ZM686 1324 L924 1090 L820 1090 L634 1233 L458 1090 L353 1090 L582 1324 L686 1324 Z" /><glyph glyph-name="Cdotaccent" unicode="&#x10a;" d="M1427 255 L1495 194 Q1261 -19 944 -19 Q604 -19 364.5 220.5 Q125 460 125 800 Q125 1139 364.5 1379 Q604 1619 944 1619 Q1261 1619 1495 1406 L1427 1344 Q1221 1527 944 1527 Q643 1527 430 1314 Q217 1101 217 800 Q217 498 430 285 Q643 72 944 72 Q1221 72 1427 255 ZM941 1921 Q972 1921 994.5 1899 Q1017 1877 1017 1845 Q1017 1813 994.5 1791 Q972 1769 941 1769 Q909 1769 886.5 1791 Q864 1813 864 1845 Q864 1877 886.5 1899 Q909 1921 941 1921 Z" /><glyph glyph-name="cdotaccent" unicode="&#x10b;" d="M992 236 L1087 202 Q1061 166 1028 133 Q867 -28 639 -28 Q412 -28 251 133 Q90 294 90 522 Q90 749 251 910 Q412 1071 639 1071 Q867 1071 1028 910 Q1061 877 1087 842 L992 807 Q977 825 960 843 Q827 975 639 975 Q452 975 319 842.5 Q186 710 186 522 Q186 334 319 201 Q452 68 639 68 Q827 68 960 201 Q977 218 992 236 ZM639 1303 Q670 1303 692.5 1281 Q715 1259 715 1227 Q715 1195 692.5 1173 Q670 1151 639 1151 Q607 1151 584.5 1173 Q562 1195 562 1227 Q562 1259 584.5 1281 Q607 1303 639 1303 Z" /><glyph glyph-name="Ccaron" unicode="&#x10c;" d="M1427 255 L1495 194 Q1261 -19 944 -19 Q604 -19 364.5 220.5 Q125 460 125 800 Q125 1139 364.5 1379 Q604 1619 944 1619 Q1261 1619 1495 1406 L1427 1344 Q1221 1527 944 1527 Q643 1527 430 1314 Q217 1101 217 800 Q217 498 430 285 Q643 72 944 72 Q1221 72 1427 255 ZM754 1708 L525 1942 L630 1942 L806 1799 L992 1942 L1096 1942 L858 1708 L754 1708 Z" /><glyph glyph-name="ccaron" unicode="&#x10d;" d="M992 236 L1087 202 Q1061 166 1028 133 Q867 -28 639 -28 Q412 -28 251 133 Q90 294 90 522 Q90 749 251 910 Q412 1071 639 1071 Q867 1071 1028 910 Q1061 877 1087 842 L992 807 Q977 825 960 843 Q827 975 639 975 Q452 975 319 842.5 Q186 710 186 522 Q186 334 319 201 Q452 68 639 68 Q827 68 960 201 Q977 218 992 236 ZM532 1090 L303 1324 L408 1324 L584 1181 L770 1324 L874 1324 L636 1090 L532 1090 Z" /><glyph glyph-name="Dcaron" unicode="&#x10e;" d="M240 1506 L240 93 L247 93 Q603 93 794 285 Q1007 498 1007 800 Q1007 1101 794 1315 Q603 1506 247 1506 L240 1506 ZM240 1598 L247 1598 Q642 1598 859 1380 Q1099 1139 1099 800 Q1099 460 859 220 Q642 2 247 2 L240 2 L240 0 L150 0 L150 1600 L240 1600 L240 1598 ZM568 1608 L339 1842 L444 1842 L620 1699 L806 1842 L910 1842 L672 1608 L568 1608 Z" /><glyph glyph-name="dcaron" unicode="&#x10f;" d="M1210 0 L1120 0 L1120 200 Q1094 165 1063 133 Q902 -28 674 -28 Q447 -28 286 133 Q125 294 125 521 Q125 749 286 910 Q447 1071 674 1071 Q902 1071 1063 910 Q1094 878 1120 843 L1120 1600 L1210 1600 L1210 0 ZM1120 432 L1120 610 Q1095 742 995 842 Q862 975 674 975 Q486 975 353 842 Q220 709 220 521 Q220 333 353 200.5 Q486 68 674 68 Q862 68 995 201 Q1095 301 1120 432 ZM1357 1427 Q1334 1432 1317 1450 Q1290 1476 1290 1514 Q1290 1551 1316.5 1577 Q1343 1603 1380 1603 Q1417 1603 1443.5 1577 Q1470 1551 1470 1514 Q1470 1493 1463 1475 L1365 1277 L1300 1277 L1357 1427 Z" /><glyph glyph-name="Dcroat" unicode="&#x110;" d="M210 845 L210 1600 L300 1600 L300 1598 L307 1598 Q702 1598 919 1380 Q1159 1139 1159 800 Q1159 460 919 220 Q702 2 307 2 L300 2 L300 0 L210 0 L210 755 L50 755 L50 845 L210 845 ZM300 845 L670 845 L670 755 L300 755 L300 93 L307 93 Q663 93 854 285 Q1067 498 1067 800 Q1067 1101 854 1315 Q663 1506 307 1506 L300 1506 L300 845 Z" /><glyph glyph-name="dcroat" unicode="&#x111;" d="M1120 432 L1120 610 Q1095 742 995 842 Q862 975 674 975 Q486 975 353 842 Q220 709 220 521 Q220 333 353 200.5 Q486 68 674 68 Q862 68 995 201 Q1095 301 1120 432 ZM1210 1283 L1210 0 L1120 0 L1120 200 Q1094 165 1063 133 Q902 -28 674 -28 Q447 -28 286 133 Q125 294 125 521 Q125 749 286 910 Q447 1071 674 1071 Q902 1071 1063 910 Q1094 878 1120 843 L1120 1283 L829 1283 L829 1373 L1120 1373 L1120 1600 L1210 1600 L1210 1373 L1309 1373 L1309 1283 L1210 1283 Z" /><glyph glyph-name="Eogonek" unicode="&#x118;" d="M776 0 L150 0 L150 1600 L950 1600 L950 1510 L240 1510 L240 845 L950 845 L950 755 L240 755 L240 90 L950 90 L950 0 L843 0 Q779 -42 770 -102 Q768 -120 768 -136 Q768 -184 790 -210 Q820 -246 870 -246 Q900 -246 928 -232 L950 -282 Q894 -305 839 -305 Q766 -305 722 -256 Q687 -217 687 -160 Q687 -146 689 -131 Q699 -58 776 0 Z" /><glyph glyph-name="eogonek" unicode="&#x119;" d="M911 885 Q794 975 639 975 Q452 975 319 842.5 Q186 710 186 522 Q186 367 276 250 L911 885 ZM894 28 Q761 -28 639 -28 Q412 -28 251 133 Q90 294 90 522 Q90 749 251 910 Q412 1071 639 1071 Q834 1071 980 954 Q1004 934 1028 910 Q1037 901 1045 892 L977 824 L337 184 Q464 68 639 68 Q827 68 960 201 Q977 218 992 236 L1087 202 Q1061 166 1028 133 Q992 97 954 70 Q887 -38 877 -103 Q875 -121 875 -137 Q875 -185 897 -211 Q927 -247 977 -247 Q1007 -247 1035 -233 L1057 -283 Q1001 -306 946 -306 Q873 -306 829 -257 Q794 -218 794 -161 Q794 -147 796 -132 Q805 -67 894 28 Z" /><glyph glyph-name="Gcircumflex" unicode="&#x11c;" d="M1489 199 Q1261 -19 944 -19 Q604 -19 364.5 220.5 Q125 460 125 800 Q125 1139 364.5 1379 Q604 1619 944 1619 Q1261 1619 1495 1406 L1427 1344 Q1221 1527 944 1527 Q643 1527 430 1314 Q217 1101 217 800 Q217 498 430 285 Q643 72 944 72 Q1202 72 1399 231 L1399 719 L1489 719 L1489 199 ZM958 1942 L1196 1708 L1092 1708 L906 1851 L730 1708 L625 1708 L854 1942 L958 1942 Z" /><glyph glyph-name="gcircumflex" unicode="&#x11d;" d="M1119 615 Q1093 744 995 842 Q862 975 674 975 Q486 975 353 842 Q220 709 220 521 Q220 333 353 200 Q486 67 674 67 Q862 67 995 200 Q1092 297 1119 425 L1119 615 ZM1117 195 Q1092 163 1063 133 Q902 -28 674 -28 Q447 -28 286 133 Q125 294 125 521 Q125 749 286 909.5 Q447 1070 674 1070 Q902 1070 1063 910 Q1094 878 1120 843 L1120 982 L1210 982 L1210 219 Q1210 -2 1053 -159 Q892 -320 665 -320 Q437 -320 276 -159 Q243 -126 217 -90 L312 -56 Q327 -74 344 -91 Q477 -224 665 -224 Q852 -224 985 -91 Q1106 30 1117 195 ZM715 1324 L953 1090 L849 1090 L663 1233 L487 1090 L382 1090 L611 1324 L715 1324 Z" /><glyph glyph-name="Gbreve" unicode="&#x11e;" d="M1489 199 Q1261 -19 944 -19 Q604 -19 364.5 220.5 Q125 460 125 800 Q125 1139 364.5 1379 Q604 1619 944 1619 Q1261 1619 1495 1406 L1427 1344 Q1221 1527 944 1527 Q643 1527 430 1314 Q217 1101 217 800 Q217 498 430 285 Q643 72 944 72 Q1202 72 1399 231 L1399 719 L1489 719 L1489 199 ZM789 1956 Q797 1903 835 1865 Q883 1817 951 1817 Q1018 1817 1066 1865 Q1105 1903 1112 1956 L1185 1956 Q1177 1873 1117 1813 Q1049 1744 951 1744 Q852 1744 784 1813 Q719 1879 715 1956 L789 1956 Z" /><glyph glyph-name="gbreve" unicode="&#x11f;" d="M1119 615 Q1093 744 995 842 Q862 975 674 975 Q486 975 353 842 Q220 709 220 521 Q220 333 353 200 Q486 67 674 67 Q862 67 995 200 Q1092 297 1119 425 L1119 615 ZM1117 195 Q1092 163 1063 133 Q902 -28 674 -28 Q447 -28 286 133 Q125 294 125 521 Q125 749 286 909.5 Q447 1070 674 1070 Q902 1070 1063 910 Q1094 878 1120 843 L1120 982 L1210 982 L1210 219 Q1210 -2 1053 -159 Q892 -320 665 -320 Q437 -320 276 -159 Q243 -126 217 -90 L312 -56 Q327 -74 344 -91 Q477 -224 665 -224 Q852 -224 985 -91 Q1106 30 1117 195 ZM507 1338 Q515 1285 553 1247 Q601 1199 669 1199 Q736 1199 784 1247 Q823 1285 830 1338 L903 1338 Q895 1255 835 1195 Q767 1126 669 1126 Q570 1126 502 1195 Q437 1261 433 1338 L507 1338 Z" /><glyph glyph-name="Gdotaccent" unicode="&#x120;" d="M1489 199 Q1261 -19 944 -19 Q604 -19 364.5 220.5 Q125 460 125 800 Q125 1139 364.5 1379 Q604 1619 944 1619 Q1261 1619 1495 1406 L1427 1344 Q1221 1527 944 1527 Q643 1527 430 1314 Q217 1101 217 800 Q217 498 430 285 Q643 72 944 72 Q1202 72 1399 231 L1399 719 L1489 719 L1489 199 ZM941 1921 Q972 1921 994.5 1899 Q1017 1877 1017 1845 Q1017 1813 994.5 1791 Q972 1769 941 1769 Q909 1769 886.5 1791 Q864 1813 864 1845 Q864 1877 886.5 1899 Q909 1921 941 1921 Z" /><glyph glyph-name="gdotaccent" unicode="&#x121;" d="M1119 615 Q1093 744 995 842 Q862 975 674 975 Q486 975 353 842 Q220 709 220 521 Q220 333 353 200 Q486 67 674 67 Q862 67 995 200 Q1092 297 1119 425 L1119 615 ZM1117 195 Q1092 163 1063 133 Q902 -28 674 -28 Q447 -28 286 133 Q125 294 125 521 Q125 749 286 909.5 Q447 1070 674 1070 Q902 1070 1063 910 Q1094 878 1120 843 L1120 982 L1210 982 L1210 219 Q1210 -2 1053 -159 Q892 -320 665 -320 Q437 -320 276 -159 Q243 -126 217 -90 L312 -56 Q327 -74 344 -91 Q477 -224 665 -224 Q852 -224 985 -91 Q1106 30 1117 195 ZM668 1303 Q699 1303 721.5 1281 Q744 1259 744 1227 Q744 1195 721.5 1173 Q699 1151 668 1151 Q636 1151 613.5 1173 Q591 1195 591 1227 Q591 1259 613.5 1281 Q636 1303 668 1303 Z" /><glyph glyph-name="Gcommaaccent" unicode="&#x122;" d="M773 -3 Q541 44 365 221 Q125 460 125 800 Q125 1139 364.5 1379 Q604 1619 944 1619 Q1261 1619 1495 1406 L1427 1344 Q1221 1527 944 1527 Q643 1527 430 1314 Q217 1101 217 800 Q217 498 430 285 Q643 72 944 72 Q1202 72 1399 231 L1399 719 L1489 719 L1489 199 Q1261 -19 944 -19 Q889 -19 837 -13 L835 -29 L834 -35 L835 -35 L832 -75 Q846 -82 860 -90 Q920 -129 928 -184 Q929 -191 929 -198 Q929 -243 886 -276 Q835 -315 756 -315 Q722 -315 692 -308 L703 -253 Q724 -260 749 -260 Q794 -260 823 -237 Q848 -218 848 -191 L848 -184 Q843 -152 808 -129 Q773 -108 731 -107 L773 -3 Z" /><glyph glyph-name="gcommaaccent" unicode="&#x123;" d="M1119 615 Q1093 744 995 842 Q862 975 674 975 Q486 975 353 842 Q220 709 220 521 Q220 333 353 200 Q486 67 674 67 Q862 67 995 200 Q1092 297 1119 425 L1119 615 ZM1117 195 Q1092 163 1063 133 Q902 -28 674 -28 Q447 -28 286 133 Q125 294 125 521 Q125 749 286 909.5 Q447 1070 674 1070 Q902 1070 1063 910 Q1094 878 1120 843 L1120 982 L1210 982 L1210 219 Q1210 -2 1053 -159 Q892 -320 665 -320 Q437 -320 276 -159 Q243 -126 217 -90 L312 -56 Q327 -74 344 -91 Q477 -224 665 -224 Q852 -224 985 -91 Q1106 30 1117 195 ZM717 1311 Q740 1306 757 1288 Q784 1262 784 1224 Q784 1187 757.5 1161 Q731 1135 694 1135 Q657 1135 630.5 1161 Q604 1187 604 1224 Q604 1245 611 1263 L709 1461 L774 1461 L717 1311 Z" /><glyph glyph-name="Hcircumflex" unicode="&#x124;" d="M240 717 L240 0 L150 0 L150 1600 L240 1600 L240 807 L910 807 L910 1600 L1000 1600 L1000 0 L910 0 L910 717 L240 717 ZM623 1942 L861 1708 L757 1708 L571 1851 L395 1708 L290 1708 L519 1942 L623 1942 Z" /><glyph glyph-name="hcircumflex" unicode="&#x125;" d="M150 1600 L240 1600 L240 931 Q354 1041 514 1041 Q688 1041 797 932 Q906 823 909 657 L909 0 L819 0 L819 649 Q819 774 728.5 862.5 Q638 951 514 951 Q390 951 300 864 Q260 824 240 781 L240 0 L150 0 L150 1600 ZM623 1942 L861 1708 L757 1708 L571 1851 L395 1708 L290 1708 L519 1942 L623 1942 Z" /><glyph glyph-name="Hbar" unicode="&#x126;" d="M995 1310 L995 0 L905 0 L905 717 L235 717 L235 0 L145 0 L145 1310 L70 1310 L70 1400 L145 1400 L145 1600 L235 1600 L235 1400 L905 1400 L905 1600 L995 1600 L995 1400 L1070 1400 L1070 1310 L995 1310 ZM235 1310 L235 807 L905 807 L905 1310 L235 1310 Z" /><glyph glyph-name="hbar" unicode="&#x127;" d="M150 1373 L150 1600 L240 1600 L240 1373 L650 1373 L650 1283 L240 1283 L240 931 Q354 1041 514 1041 Q688 1041 797 932 Q906 823 909 657 L909 0 L819 0 L819 649 Q819 774 728.5 862.5 Q638 951 514 951 Q390 951 300 864 Q260 824 240 781 L240 0 L150 0 L150 1283 L50 1283 L50 1373 L150 1373 Z" /><glyph glyph-name="Iogonek" unicode="&#x12e;" d="M170 10 L170 1600 L260 1600 L260 0 L223 0 Q159 -42 150 -102 Q148 -120 148 -136 Q148 -184 170 -210 Q200 -246 250 -246 Q280 -246 308 -232 L330 -282 Q274 -305 219 -305 Q146 -305 102 -256 Q67 -217 67 -160 Q67 -146 69 -131 Q80 -52 170 10 Z" /><glyph glyph-name="iogonek" unicode="&#x12f;" d="M215 1330 Q252 1330 278.5 1304 Q305 1278 305 1241 Q305 1203 278.5 1177 Q252 1151 215 1151 Q178 1151 151.5 1177 Q125 1203 125 1241 Q125 1278 151.5 1304 Q178 1330 215 1330 ZM170 7 L170 982 L260 982 L260 0 L228 0 Q164 -42 155 -102 Q153 -120 153 -136 Q153 -184 175 -210 Q205 -246 255 -246 Q285 -246 313 -232 L335 -282 Q279 -305 224 -305 Q151 -305 107 -256 Q72 -217 72 -160 Q72 -146 74 -131 Q85 -54 170 7 Z" /><glyph glyph-name="dotlessi" unicode="&#x131;" d="M260 982 L260 0 L170 0 L170 982 L260 982 Z" /><glyph glyph-name="ij" unicode="&#x133;" d="M260 982 L260 0 L170 0 L170 982 L260 982 ZM215 1330 Q252 1330 278.5 1304 Q305 1278 305 1241 Q305 1203 278.5 1177 Q252 1151 215 1151 Q178 1151 151.5 1177 Q125 1203 125 1241 Q125 1278 151.5 1304 Q178 1330 215 1330 ZM479 -138 Q600 -124 600 -2 L600 982 L690 982 L690 0 Q690 -211 479 -228 L479 -138 ZM645 1330 Q682 1330 708.5 1304 Q735 1278 735 1241 Q735 1203 708.5 1177 Q682 1151 645 1151 Q608 1151 581.5 1177 Q555 1203 555 1241 Q555 1278 581.5 1304 Q608 1330 645 1330 Z" /><glyph glyph-name="Jcircumflex" unicode="&#x134;" d="M702 304 Q702 152 622 72 Q537 -14 416 -14 Q295 -14 210 71.5 Q125 157 125 259 L184 282 Q204 174 269 120 Q323 74 391 74 Q403 74 416 76 Q499 76 559 135 Q612 188 612 314 L612 1600 L702 1600 L702 304 ZM681 1942 L919 1708 L815 1708 L629 1851 L453 1708 L348 1708 L577 1942 L681 1942 Z" /><glyph glyph-name="jcircumflex" unicode="&#x135;" d="M263 1324 L501 1090 L397 1090 L211 1233 L35 1090 L-70 1090 L159 1324 L263 1324 ZM49 -138 Q170 -124 170 -2 L170 982 L260 982 L260 0 Q260 -211 49 -228 L49 -138 Z" /><glyph glyph-name="Kcommaaccent" unicode="&#x136;" d="M862 1600 L447 999 L1146 0 L1037 0 L390 924 L218 678 L218 0 L127 0 L127 1600 L218 1600 L218 834 L753 1600 L862 1600 ZM604 -57 Q689 -57 722 -83 Q767 -118 767 -167 L767 -177 Q761 -232 698 -279 Q642 -310 580 -310 Q545 -310 507 -300 L526 -242 Q558 -255 588 -255 Q623 -255 656 -238 Q684 -217 690 -189 Q691 -183 691 -177 Q691 -156 675 -140 Q655 -121 604 -120 L604 -57 Z" /><glyph glyph-name="kcommaaccent" unicode="&#x137;" d="M629 982 L387 682 L773 0 L661 0 L328 610 L240 501 L240 0 L150 0 L150 1400 L240 1400 L240 645 L513 982 L629 982 ZM429 -57 Q514 -57 546 -83 Q592 -118 592 -167 L592 -177 Q586 -232 523 -279 Q467 -310 405 -310 Q370 -310 331 -300 L351 -242 Q382 -255 413 -255 Q448 -255 481 -238 Q509 -217 515 -189 Q516 -183 516 -177 Q516 -156 500 -140 Q480 -121 429 -120 L429 -57 Z" /><glyph glyph-name="kgreenlandic" unicode="&#x138;" d="M629 982 L387 682 L773 0 L661 0 L328 610 L240 501 L240 0 L150 0 L150 982 L240 982 L240 645 L513 982 L629 982 Z" /><glyph glyph-name="Lacute" unicode="&#x139;" d="M127 0 L127 1600 L218 1600 L218 90 L827 90 L827 0 L127 0 ZM697 1904 L452 1717 L368 1717 L531 1904 L697 1904 Z" /><glyph glyph-name="lacute" unicode="&#x13a;" d="M216 1600 L216 0 L126 0 L126 1600 L216 1600 ZM335 1945 L90 1758 L6 1758 L169 1945 L335 1945 Z" /><glyph glyph-name="Lcommaaccent" unicode="&#x13b;" d="M492 0 L127 0 L127 1600 L218 1600 L218 90 L827 90 L827 0 L556 0 L553 -29 L552 -35 L553 -35 L550 -75 Q564 -82 578 -90 Q638 -129 646 -184 Q647 -191 647 -198 Q647 -243 604 -276 Q553 -315 474 -315 Q440 -315 410 -308 L421 -253 Q442 -260 467 -260 Q512 -260 541 -237 Q566 -218 566 -191 L566 -184 Q561 -152 526 -129 Q491 -108 449 -107 L492 0 Z" /><glyph glyph-name="lcommaaccent" unicode="&#x13c;" d="M152 0 L127 0 L127 1600 L218 1600 L218 0 L216 0 L213 -29 L212 -35 L213 -35 L210 -75 Q224 -82 238 -90 Q298 -129 306 -184 Q307 -191 307 -198 Q307 -243 264 -276 Q213 -315 134 -315 Q100 -315 70 -308 L81 -253 Q102 -260 127 -260 Q172 -260 201 -237 Q226 -218 226 -191 L226 -184 Q221 -152 186 -129 Q151 -108 109 -107 L152 0 Z" /><glyph glyph-name="Lcaron" unicode="&#x13d;" d="M127 0 L127 1600 L218 1600 L218 90 L827 90 L827 0 L127 0 ZM667 1435 Q644 1439 627 1457 Q600 1483 600 1522 Q600 1559 626.5 1584.5 Q653 1610 690 1610 Q727 1610 753.5 1584.5 Q780 1559 780 1522 Q780 1500 773 1482 L675 1284 L610 1284 L667 1435 Z" /><glyph glyph-name="lcaron" unicode="&#x13e;" d="M218 1600 L218 0 L127 0 L127 1600 L218 1600 ZM384 1435 Q361 1439 344 1457 Q317 1483 317 1522 Q317 1559 343.5 1584.5 Q370 1610 408 1610 Q444 1610 470.5 1584.5 Q497 1559 497 1522 Q497 1500 490 1482 L392 1284 L327 1284 L384 1435 Z" /><glyph glyph-name="Ldot" unicode="&#x13f;" d="M127 0 L127 1600 L218 1600 L218 90 L827 90 L827 0 L127 0 ZM706 876 Q737 876 759.5 853.5 Q782 831 782 800 Q782 768 759.5 746 Q737 724 706 724 Q675 724 652 746 Q629 768 629 800 Q629 831 652 853.5 Q675 876 706 876 Z" /><glyph glyph-name="ldot" unicode="&#x140;" d="M203 1600 L203 0 L112 0 L112 1600 L203 1600 ZM393 876 Q423 876 445.5 853.5 Q468 831 468 800 Q468 768 445.5 746 Q423 724 393 724 Q361 724 338.5 746 Q316 768 316 800 Q316 831 338.5 853.5 Q361 876 393 876 Z" /><glyph glyph-name="Lslash" unicode="&#x141;" d="M319 787 L774 1157 L774 1051 L319 681 L319 90 L929 90 L929 0 L229 0 L229 606 L0 421 L0 527 L229 713 L229 1600 L319 1600 L319 787 Z" /><glyph glyph-name="lslash" unicode="&#x142;" d="M167 805 L167 1600 L258 1600 L258 879 L425 1016 L425 910 L258 773 L258 0 L167 0 L167 699 L0 562 L0 669 L167 805 Z" /><glyph glyph-name="Ncommaaccent" unicode="&#x145;" d="M150 1600 L249 1600 L1071 177 L1071 1600 L1161 1600 L1161 0 L1071 0 L240 1437 L240 0 L150 0 L150 1600 ZM623 -57 Q708 -57 740 -83 Q786 -118 786 -167 L786 -177 Q780 -232 717 -279 Q661 -310 599 -310 Q564 -310 525 -300 L545 -242 Q576 -255 607 -255 Q642 -255 675 -238 Q703 -217 709 -189 Q710 -183 710 -177 Q710 -156 694 -140 Q674 -121 623 -120 L623 -57 Z" /><glyph glyph-name="ncommaaccent" unicode="&#x146;" d="M240 763 L240 0 L150 0 L150 982 L240 982 L240 919 Q363 1041 526 1041 Q700 1041 809 932 Q918 823 921 657 L921 0 L831 0 L831 649 Q831 774 740.5 862.5 Q650 951 526 951 Q402 951 312 864 Q263 815 240 763 ZM503 -57 Q588 -57 620 -83 Q666 -118 666 -167 L666 -177 Q660 -232 597 -279 Q541 -310 479 -310 Q444 -310 405 -300 L425 -242 Q456 -255 487 -255 Q522 -255 555 -238 Q583 -217 589 -189 Q590 -183 590 -177 Q590 -156 574 -140 Q554 -121 503 -120 L503 -57 Z" /><glyph glyph-name="napostrophe" unicode="&#x149;" d="M240 763 L240 0 L150 0 L150 982 L240 982 L240 919 Q363 1041 526 1041 Q700 1041 809 932 Q918 823 921 657 L921 0 L831 0 L831 649 Q831 774 740.5 862.5 Q650 951 526 951 Q402 951 312 864 Q263 815 240 763 ZM88 1402 Q65 1406 48 1424 Q21 1450 21 1489 Q21 1526 47.5 1551.5 Q74 1577 112 1577 Q148 1577 174.5 1551.5 Q201 1526 201 1489 Q201 1467 194 1449 L96 1251 L31 1251 L88 1402 Z" /><glyph glyph-name="Eng" unicode="&#x14a;" d="M1070 2 L240 1437 L240 0 L150 0 L150 1600 L249 1600 L1070 179 L1070 944 L1071 944 L1071 1600 L1161 1600 L1161 0 L1160 0 Q1150 -277 1009 -346 L968 -301 Q1073 -206 1073 -52 Q1073 -26 1070 2 Z" /><glyph glyph-name="eng" unicode="&#x14b;" d="M831 544 L831 649 Q831 774 740.5 862.5 Q650 951 526 951 Q402 951 312 864 Q263 815 240 763 L240 0 L150 0 L150 982 L240 982 L240 919 Q363 1041 526 1041 Q700 1041 809 932 Q918 823 921 657 L921 0 L920 0 Q900 -249 769 -346 L729 -306 Q811 -249 830 -40 L830 544 L831 544 Z" /><glyph glyph-name="OE" unicode="&#x152;" d="M1330 1510 Q1416 1458 1492 1383 Q1717 1157 1731 845 L2170 845 L2170 755 L1731 755 Q1715 445 1492 222 Q1413 143 1324 90 L2170 90 L2170 0 L1170 0 Q1049 -19 911 -19 Q571 -19 330.5 221.5 Q90 462 90 802 Q90 1142 330.5 1382.5 Q571 1623 911 1623 Q1049 1623 1170 1600 L2170 1600 L2170 1510 L1330 1510 ZM1639 845 Q1625 1119 1427 1318 Q1349 1395 1260 1444 Q1216 1468 1170 1486 Q1050 1531 911 1531 Q609 1531 395.5 1317.5 Q182 1104 182 802 Q182 500 395.5 286 Q609 72 911 72 Q1050 72 1170 117 Q1216 135 1260 159 Q1349 208 1427 286 Q1623 483 1639 755 Q1640 778 1640 802 Q1640 824 1639 845 Z" /><glyph glyph-name="oe" unicode="&#x153;" d="M318 842 Q185 709 185 521 Q185 333 318 200.5 Q451 68 639 68 Q827 68 960 200.5 Q1093 333 1093 521 Q1093 709 960 842 Q827 975 639 975 Q451 975 318 842 ZM1126 779 Q1155 724 1171 663 L1929 663 Q1897 766 1821 842 Q1688 975 1500 975 Q1312 975 1179 842 Q1149 812 1126 779 ZM1125 263 Q1149 231 1179 201 Q1312 68 1500 68 Q1688 68 1821 201 Q1844 224 1864 249 L1960 215 Q1943 187 1889 133 Q1728 -28 1500 -28 Q1273 -28 1112 133 Q1089 156 1070 180 Q1050 156 1028 133 Q867 -28 639 -28 Q412 -28 251 133 Q90 294 90 521 Q90 749 251 910 Q412 1071 639 1071 Q867 1071 1028 910 Q1050 887 1070 863 Q1089 887 1112 910 Q1273 1071 1500 1071 Q1728 1071 1889 910 Q2031 767 2037 572 L1186 573 Q1188 547 1188 521 Q1188 379 1125 263 Z" /><glyph glyph-name="Rcommaaccent" unicode="&#x156;" d="M218 1508 L218 646 L489 646 Q667 646 793.5 772 Q920 898 920 1078 Q920 1257 793.5 1382.5 Q667 1508 489 1508 L218 1508 ZM516 555 Q503 554 489 554 L218 554 L218 0 L127 0 L127 1600 L547 1600 Q730 1575 858 1447 Q1011 1293 1011 1078 Q1011 861 858 708 Q752 602 615 569 L984 0 L873 0 L516 555 ZM462 -57 Q547 -57 580 -83 Q625 -118 625 -167 L625 -177 Q619 -232 556 -279 Q500 -310 438 -310 Q403 -310 365 -300 L384 -242 Q416 -255 446 -255 Q481 -255 514 -238 Q542 -217 548 -189 Q549 -183 549 -177 Q549 -156 533 -140 Q513 -121 462 -120 L462 -57 Z" /><glyph glyph-name="rcommaaccent" unicode="&#x157;" d="M459 903 Q386 888 310 811 Q182 684 178 507 L178 0 L87 0 L87 982 L178 982 L178 803 Q205 843 242 880 Q325 963 410 990 L459 903 ZM122 -57 Q207 -57 240 -83 Q285 -118 285 -167 L285 -177 Q280 -232 216 -279 Q161 -310 99 -310 Q63 -310 25 -300 L44 -242 Q76 -255 106 -255 Q142 -255 174 -238 Q203 -217 208 -189 Q209 -183 209 -177 Q209 -156 194 -140 Q173 -121 122 -120 L122 -57 Z" /><glyph glyph-name="Scedilla" unicode="&#x15e;" d="M478 -17 Q308 -4 183 121 Q72 232 50 379 L135 410 Q149 280 246 183 Q359 70 518 70 Q678 70 791 183 Q904 296 904 456 Q904 615 791 728 Q692 827 548 886 Q377 943 278 1042 Q179 1141 179 1282 Q179 1420 278 1519.5 Q377 1619 518 1619 Q658 1619 758 1520 Q813 1467 834 1401 L753 1369 Q735 1418 694 1459 Q621 1531 518 1531 Q415 1531 342 1458.5 Q269 1386 269 1282 Q269 1179 342 1106 Q410 1039 530 983 Q722 921 853 790 Q992 652 992 456 Q992 259 853 120 Q724 -9 547 -18 L546 -29 L545 -35 L546 -35 L543 -75 Q557 -82 571 -90 Q631 -129 639 -184 Q640 -191 640 -198 Q640 -243 597 -276 Q546 -315 467 -315 Q433 -315 403 -308 L414 -253 Q435 -260 460 -260 Q505 -260 534 -237 Q559 -218 559 -191 L559 -184 Q554 -152 519 -129 Q484 -108 442 -107 L478 -17 Z" /><glyph glyph-name="scedilla" unicode="&#x15f;" d="M362 -21 Q269 -8 200 62 Q115 147 115 249 L204 272 Q204 184 263.5 125 Q323 66 406 66 Q489 66 548.5 125 Q608 184 608 269 Q608 352 549 411 Q517 443 420 505 Q305 567 261 611 Q192 680 192 777 Q192 875 261 944.5 Q330 1014 427 1014 Q525 1014 589 950 Q651 887 651 807 L651 802 L573 771 Q563 847 525.5 885 Q488 923 427 923 Q367 923 324 880.5 Q281 838 281 777 Q281 717 324 674 Q349 649 430 598 Q558 528 612 474 Q697 388 697 269 Q697 147 612 62 Q536 -15 432 -23 L431 -29 L430 -35 L431 -35 L428 -75 Q442 -82 456 -90 Q516 -129 524 -184 Q525 -191 525 -198 Q525 -243 482 -276 Q431 -315 352 -315 Q318 -315 288 -308 L299 -253 Q320 -260 345 -260 Q390 -260 419 -237 Q444 -218 444 -191 L444 -184 Q439 -152 404 -129 Q369 -108 327 -107 L362 -21 Z" /><glyph glyph-name="Tcommaaccent" unicode="&#x162;" d="M464 0 L455 0 L455 1510 L50 1510 L50 1600 L950 1600 L950 1510 L545 1510 L545 0 L528 0 L525 -29 L524 -35 L525 -35 L522 -75 Q536 -82 550 -90 Q610 -129 618 -184 Q619 -191 619 -198 Q619 -243 576 -276 Q525 -315 446 -315 Q412 -315 382 -308 L393 -253 Q414 -260 439 -260 Q484 -260 513 -237 Q538 -218 538 -191 L538 -184 Q533 -152 498 -129 Q463 -108 421 -107 L464 0 Z" /><glyph glyph-name="tcommaaccent" unicode="&#x163;" d="M299 0 L290 0 L290 892 L90 892 L90 982 L290 982 L290 1400 L380 1400 L380 982 L580 982 L580 892 L380 892 L380 0 L363 0 L360 -29 L359 -35 L360 -35 L357 -75 Q371 -82 385 -90 Q445 -129 453 -184 Q454 -191 454 -198 Q454 -243 411 -276 Q360 -315 281 -315 Q247 -315 217 -308 L228 -253 Q249 -260 274 -260 Q319 -260 348 -237 Q373 -218 373 -191 L373 -184 Q368 -152 333 -129 Q298 -108 256 -107 L299 0 Z" /><glyph glyph-name="tcaron" unicode="&#x165;" d="M236 982 L236 1399 L326 1399 L326 982 L526 982 L526 891 L326 891 L326 0 L236 0 L236 891 L36 891 L36 982 L236 982 ZM525 1402 Q502 1406 485 1424 Q458 1450 458 1489 Q458 1526 484.5 1551.5 Q511 1577 549 1577 Q585 1577 611.5 1551.5 Q638 1526 638 1489 Q638 1467 631 1449 L533 1251 L468 1251 L525 1402 Z" /><glyph glyph-name="Tbar" unicode="&#x166;" d="M455 845 L455 1510 L50 1510 L50 1600 L950 1600 L950 1510 L545 1510 L545 845 L800 845 L800 755 L545 755 L545 0 L455 0 L455 755 L200 755 L200 845 L455 845 Z" /><glyph glyph-name="tbar" unicode="&#x167;" d="M90 605 L290 605 L290 892 L90 892 L90 982 L290 982 L290 1400 L380 1400 L380 982 L580 982 L580 892 L380 892 L380 605 L580 605 L580 515 L380 515 L380 0 L290 0 L290 515 L90 515 L90 605 Z" /><glyph glyph-name="Uogonek" unicode="&#x172;" d="M854 17 Q770 -14 673 -14 Q456 -14 303 139 Q150 292 150 508 L150 1600 L241 1600 L241 508 Q241 330 367.5 203.5 Q494 77 673 77 Q852 77 978 203.5 Q1104 330 1104 508 L1104 1600 L1195 1600 L1195 450 Q1170 267 1042 139 Q1001 98 956 69 Q867 -38 857 -103 Q855 -121 855 -137 Q855 -185 877 -211 Q907 -247 957 -247 Q987 -247 1015 -233 L1037 -283 Q981 -306 926 -306 Q853 -306 809 -257 Q774 -218 774 -161 Q774 -147 776 -132 Q785 -67 854 17 Z" /><glyph glyph-name="uogonek" unicode="&#x173;" d="M733 22 Q654 -14 555 -14 Q371 -14 262 95 Q153 204 150 370 L150 982 L240 982 L240 378 Q240 253 331 165 Q421 76 554 76 Q678 76 768.5 164.5 Q859 253 859 378 L859 982 L949 982 L949 370 Q946 204 837 95 Q830 88 823 82 Q759 -38 749 -102 Q747 -120 747 -136 Q747 -184 769 -210 Q799 -246 849 -246 Q879 -246 907 -232 L929 -282 Q873 -305 818 -305 Q745 -305 701 -256 Q666 -217 666 -160 Q666 -146 668 -131 Q677 -68 733 22 Z" /><glyph glyph-name="longs" unicode="&#x17f;" d="M215 0 L124 0 L124 1248 Q131 1359 209 1439 Q291 1515 398 1515 Q454 1515 517 1493 L488 1413 Q446 1431 407 1431 Q337 1431 273 1375 Q218 1319 215 1241 L215 0 Z" /><glyph glyph-name="florin" unicode="&#x192;" d="M229 0 L228 0 L228 -79 Q216 -363 -62 -363 L-62 -280 Q127 -280 138 -82 L138 891 L39 891 L39 982 L138 982 L138 1248 Q145 1359 223 1439 Q306 1515 412 1515 Q469 1515 531 1493 L503 1413 Q461 1431 421 1431 Q351 1431 288 1375 Q232 1319 229 1241 L229 982 L429 982 L429 891 L229 891 L229 0 Z" /><glyph glyph-name="Aringacute" unicode="&#x1fa;" d="M887 714 L633 1385 L377 714 L887 714 ZM630 1690 Q605 1690 588.5 1673 Q572 1656 572 1631 Q572 1609 588.5 1592 Q605 1575 630 1575 Q653 1575 670 1592 Q687 1609 687 1631 Q687 1656 670 1673 Q653 1690 630 1690 ZM603 1753 L711 1904 L877 1904 L681 1743 Q701 1734 718 1719 Q753 1682 753 1631 Q753 1582 718 1547 Q699 1528 679 1521 L1259 0 L1164 0 L920 624 L344 624 L95 0 L-1 0 L585 1518 Q562 1527 543 1547 Q507 1582 507 1631 Q507 1682 543 1719 Q569 1745 603 1753 Z" /><glyph glyph-name="aringacute" unicode="&#x1fb;" d="M1079 432 L1079 542 Q1054 674 954 774 Q821 907 633 907 Q445 907 312 785 Q179 663 179 486 Q179 310 312 189 Q445 68 633 68 Q821 68 954 201 Q1054 301 1079 432 ZM627 1174 Q602 1174 585 1157 Q568 1140 568 1115 Q568 1093 585 1076 Q602 1059 627 1059 Q650 1059 667 1076 Q684 1093 684 1115 Q684 1140 667 1157 Q650 1174 627 1174 ZM676 1229 Q696 1220 714 1203 Q749 1166 749 1115 Q749 1066 714 1031 Q694 1010 669 1001 Q874 990 1022 842 Q1053 810 1079 775 L1079 914 L1169 914 L1169 0 L1079 0 L1079 200 Q1053 165 1022 133 Q861 -28 633 -28 Q406 -28 245 121.5 Q84 271 84 486 Q84 704 237 844.5 Q390 985 588 1001 Q561 1009 540 1031 Q504 1066 504 1115 Q504 1166 540 1203 Q564 1226 595 1234 L748 1405 L915 1405 L676 1229 Z" /><glyph glyph-name="circumflex" unicode="&#x2c6;" d="M454 1324 L692 1090 L588 1090 L402 1233 L226 1090 L121 1090 L350 1324 L454 1324 Z" /><glyph glyph-name="caron" unicode="&#x2c7;" d="M350 1090 L121 1324 L226 1324 L402 1181 L588 1324 L692 1324 L454 1090 L350 1090 Z" /><glyph glyph-name="uni02C9" unicode="&#x2c9;" d="M150 1227 L740 1227 L740 1157 L150 1157 L150 1227 Z" /><glyph glyph-name="breve" unicode="&#x2d8;" d="M279 1338 Q287 1285 325 1247 Q373 1199 441 1199 Q508 1199 556 1247 Q595 1285 602 1338 L675 1338 Q667 1255 607 1195 Q539 1126 441 1126 Q342 1126 274 1195 Q209 1261 205 1338 L279 1338 Z" /><glyph glyph-name="dotaccent" unicode="&#x2d9;" d="M202 1303 Q233 1303 255.5 1281 Q278 1259 278 1227 Q278 1195 255.5 1173 Q233 1151 202 1151 Q170 1151 147.5 1173 Q125 1195 125 1227 Q125 1259 147.5 1281 Q170 1303 202 1303 Z" /><glyph glyph-name="ring" unicode="&#x2da;" d="M382 1362 Q433 1362 469 1326 Q505 1290 505 1239 Q505 1189 469 1153 Q433 1117 382 1117 Q331 1117 295 1153 Q259 1189 259 1239 Q259 1290 295 1326 Q331 1362 382 1362 ZM382 1297 Q358 1297 341 1280 Q324 1263 324 1239 Q324 1216 341 1199 Q358 1182 382 1182 Q405 1182 422 1199 Q439 1216 439 1239 Q439 1263 422 1280 Q405 1297 382 1297 Z" /><glyph glyph-name="ogonek" unicode="&#x2db;" d="M197 18 Q104 -29 93 -102 Q91 -120 91 -136 Q91 -184 113 -210 Q143 -246 193 -246 Q223 -246 251 -232 L273 -282 Q217 -305 162 -305 Q89 -305 45 -256 Q10 -217 10 -160 Q10 -146 12 -131 Q27 -27 177 48 L197 18 Z" /><glyph glyph-name="tilde" unicode="&#x2dc;" d="M407 1255 Q482 1195 531 1195 L536 1195 Q586 1198 606 1279 L675 1279 Q654 1150 576 1127 Q555 1121 534 1121 Q477 1121 419 1167 Q344 1226 295 1226 L290 1226 Q240 1223 220 1142 L150 1142 Q172 1271 250 1294 Q271 1300 292 1300 Q349 1300 407 1255 Z" /><glyph glyph-name="hungarumlaut" unicode="&#x2dd;" d="M479 1348 L234 1161 L150 1161 L313 1348 L479 1348 ZM708 1348 L463 1161 L379 1161 L542 1348 L708 1348 Z" /><glyph glyph-name="tonos" unicode="&#x384;" d="M414 1600 L169 1413 L85 1413 L248 1600 L414 1600 Z" /><glyph glyph-name="dieresistonos" unicode="&#x385;" d="M578 1600 L377 1413 L294 1413 L411 1600 L578 1600 ZM617 1536 Q642 1536 661 1518 Q680 1500 680 1475 Q680 1448 661 1430 Q642 1412 617 1412 Q591 1412 572.5 1430 Q554 1448 554 1475 Q554 1500 572.5 1518 Q591 1536 617 1536 ZM187 1536 Q212 1536 231 1518 Q250 1500 250 1475 Q250 1448 231 1430 Q212 1412 187 1412 Q161 1412 142.5 1430 Q124 1448 124 1475 Q124 1500 142.5 1518 Q161 1536 187 1536 Z" /><glyph glyph-name="anoteleia" unicode="&#x387;" d="M139 1134 Q169 1134 192 1111.5 Q215 1089 215 1058 Q215 1026 192 1004 Q169 982 139 982 Q107 982 84.5 1004 Q62 1026 62 1058 Q62 1089 84.5 1111.5 Q107 1134 139 1134 Z" /><glyph glyph-name="iotadieresistonos" unicode="&#x390;" d="M253 982 L253 0 L164 0 L164 982 L253 982 ZM385 1377 L184 1190 L101 1190 L218 1377 L385 1377 ZM424 1313 Q449 1313 468 1295 Q487 1277 487 1252 Q487 1225 468 1207 Q449 1189 424 1189 Q398 1189 379.5 1207 Q361 1225 361 1252 Q361 1277 379.5 1295 Q398 1313 424 1313 ZM-6 1313 Q19 1313 38 1295 Q57 1277 57 1252 Q57 1225 38 1207 Q19 1189 -6 1189 Q-32 1189 -50.5 1207 Q-69 1225 -69 1252 Q-69 1277 -50.5 1295 Q-32 1313 -6 1313 Z" /><glyph glyph-name="Gamma" unicode="&#x393;" d="M827 1600 L827 1509 L218 1509 L218 0 L127 0 L127 1600 L827 1600 Z" /><glyph glyph-name="uni0394" unicode="&#x394;" d="M34 1 L-34 1 L549 1600 L658 1600 L1248 0 L34 0 L34 1 ZM1119 90 L603 1487 L94 90 L1119 90 Z" /><glyph glyph-name="Theta" unicode="&#x398;" d="M890 1622 Q1231 1622 1471.5 1382 Q1712 1142 1712 802 Q1712 461 1471.5 221 Q1231 -19 890 -19 Q551 -19 310.5 221 Q70 461 70 802 Q70 1142 310.5 1382 Q551 1622 890 1622 ZM890 1531 Q589 1531 375.5 1317 Q162 1103 162 802 Q162 500 375.5 286 Q589 72 890 72 Q1192 72 1406 286 Q1620 500 1620 802 Q1620 1103 1406 1317 Q1192 1531 890 1531 ZM439 847 L1344 847 L1344 757 L439 757 L439 847 Z" /><glyph glyph-name="Iota" unicode="&#x399;" d="M229 1600 L229 0 L138 0 L138 1600 L229 1600 Z" /><glyph glyph-name="Lambda" unicode="&#x39b;" d="M692 1600 L1282 0 L1187 0 L637 1487 L95 1 L0 1 L583 1600 L692 1600 Z" /><glyph glyph-name="Xi" unicode="&#x39e;" d="M169 847 L1074 847 L1074 757 L169 757 L169 847 ZM57 1601 L1189 1601 L1189 1510 L57 1510 L57 1601 ZM57 91 L1189 91 L1189 1 L57 1 L57 91 Z" /><glyph glyph-name="Pi" unicode="&#x3a0;" d="M197 1509 L197 0 L106 0 L106 1600 L1106 1600 L1106 0 L1016 0 L1016 1509 L197 1509 Z" /><glyph glyph-name="Sigma" unicode="&#x3a3;" d="M27 1599 L1174 1599 L1174 1508 L124 1508 L709 799 L124 90 L1174 90 L1174 0 L27 0 L27 131 L593 799 L27 1467 L27 1599 Z" /><glyph glyph-name="Phi" unicode="&#x3a6;" d="M847 334 L847 1239 Q541 1231 364 1108 Q175 974 175 786 Q175 598 364 466 Q541 342 847 334 ZM938 239 L938 4 L847 4 L847 239 Q501 248 297 399 Q79 560 79 787 Q79 1015 297 1175 Q501 1325 847 1334 L847 1598 L938 1598 L938 1334 Q1285 1325 1490 1175 Q1707 1015 1707 787 Q1707 560 1490 399 Q1285 248 938 239 ZM938 1239 L938 334 Q1246 342 1422 466 Q1611 598 1611 786 Q1611 974 1422 1108 Q1246 1231 938 1239 Z" /><glyph glyph-name="Psi" unicode="&#x3a8;" d="M955 352 L955 4 L865 4 L865 352 Q518 361 315 512 Q108 673 102 904 L102 1598 L193 1598 L193 899 Q193 712 381 579 Q558 455 865 447 L865 1598 L955 1598 L955 447 Q1263 455 1439 579 Q1628 712 1628 904 L1634 904 L1634 1598 L1725 1598 L1725 898 Q1723 672 1507 512 Q1303 361 955 352 Z" /><glyph glyph-name="alpha" unicode="&#x3b1;" d="M1109 234 Q1075 181 1029 133 Q868 -28 640 -28 Q413 -28 252 133 Q91 294 91 520 Q91 749 252 909.5 Q413 1070 640 1070 Q868 1070 1029 910 Q1079 859 1109 756 L1181 982 L1270 982 L1157 491 L1270 0 L1181 0 L1109 234 ZM1066 495 Q1066 733 961 842 Q828 975 640 975 Q452 975 319 841.5 Q186 708 186 520 Q186 332 319 200 Q452 68 640 68 Q828 68 961 200 Q1063 302 1066 495 Z" /><glyph glyph-name="beta" unicode="&#x3b2;" d="M229 1521.5 Q322 1621 463 1621 Q606 1621 705.5 1521 Q805 1421 805 1282 Q805 1139 729 1057.5 Q653 976 586 949 Q731 902 826 800 Q963 653 963 456 Q963 258 823.5 118 Q684 -22 486 -22 Q385 -22 299 15 L328 106 Q401 73 486 73 Q645 73 757 184.5 Q869 296 869 456 Q869 614 760 733 Q651 852 432 893 L358 895 L358 984 Q451 985 510 1008.5 Q569 1032 639 1106 Q709 1180 709 1282 Q709 1385 637 1456 Q565 1527 463 1527 Q362 1527 294.5 1452 Q227 1377 227 1249 L227 -371 L136 -371 L136 1260 Q136 1422 229 1521.5 Z" /><glyph glyph-name="gamma" unicode="&#x3b3;" d="M457 0 L45 982 L150 982 L503 141 L861 982 L966 982 L552 5 L552 -375 L457 -375 L457 0 Z" /><glyph glyph-name="delta" unicode="&#x3b4;" d="M309 841.5 Q176 708 176 520 Q176 332 309 200 Q442 68 630 68 Q818 68 951 200 Q1084 332 1084 520 Q1084 708 951 841.5 Q818 975 630 975 Q442 975 309 841.5 ZM810 1070 Q906 1023 1042.5 886 Q1179 749 1179 520 Q1179 294 1018.5 133 Q858 -28 630 -28 Q403 -28 242 133 Q81 294 81 520 Q81 749 243 910 Q384 1051 644 1079 L218 1594 L930 1594 L930 1504 L431 1504 Q714 1117 810 1070 Z" /><glyph glyph-name="epsilon" unicode="&#x3b5;" d="M353 455 Q316 448 251 401 Q186 354 186 257 Q186 182 259.5 128.5 Q333 75 453 75 Q628 86 751 261 L750 114 Q617 -21 453 -21 Q305 -21 203.5 55.5 Q102 132 102 269 Q102 404 262 501 Q102 598 102 744 Q102 881 203.5 939.5 Q305 998 453 998 Q613 998 750 871 L750 749 Q629 903 453 903 Q333 903 259.5 866 Q186 829 186 755 Q186 646 251 599.5 Q316 553 353 544 L600 544 L600 455 L353 455 Z" /><glyph glyph-name="zeta" unicode="&#x3b6;" d="M916 1570 Q301 953 215 519 Q201 450 201 392 Q201 82 587 70 Q867 61 867 -146 Q833 -327 663 -333 L663 -239 Q769 -239 776 -134 L776 -128 Q776 -22 594 -22 Q113 -11 113 377 Q113 423 121 475 Q184 959 761 1509 L155 1509 L155 1600 L916 1600 L916 1570 Z" /><glyph glyph-name="eta" unicode="&#x3b7;" d="M193 762 L193 0 L102 0 L102 982 L193 982 L193 919 Q315 1041 478 1041 Q652 1041 761 931.5 Q870 822 873 657 L873 -375 L783 -375 L783 648 Q783 774 692.5 862 Q602 950 478 950 Q354 950 264 863 Q215 815 193 762 Z" /><glyph glyph-name="theta" unicode="&#x3b8;" d="M1094 786 Q1094 1126 961 1315 Q828 1504 640 1504 Q452 1504 319 1315 Q186 1126 186 786 Q186 446 319 257 Q452 68 640 68 Q828 68 961 257 Q1094 446 1094 786 ZM1189 786 Q1189 407 1028.5 189.5 Q868 -28 641 -28 Q413 -28 252 189.5 Q91 407 91 786 Q91 1164 252 1382 Q413 1600 641 1600 Q868 1600 1028.5 1382 Q1189 1164 1189 786 ZM333 831 L948 831 L948 741 L333 741 L333 831 Z" /><glyph glyph-name="iota" unicode="&#x3b9;" d="M253 982 L253 0 L164 0 L164 982 L253 982 Z" /><glyph glyph-name="kappa" unicode="&#x3ba;" d="M705 982 L463 682 L848 0 L738 0 L404 610 L204 388 L204 0 L113 0 L113 982 L204 982 L204 532 L589 982 L705 982 Z" /><glyph glyph-name="lambda" unicode="&#x3bb;" d="M532 798 L904 0 L804 0 L480 686 L158 0 L57 0 L430 800 L149 1401 L249 1401 L531 798 L532 798 Z" /><glyph glyph-name="uni03BC" unicode="&#x3bc;" d="M781 111 Q777 106 771 99 Q661 -9 488 -9 Q328 -9 215 101 L215 -375 L124 -375 L124 982 L215 982 L215 251 Q234 208 274 167 Q364 81 488 81 Q612 81 703 170 Q761 227 781 300 L781 982 L870 982 L870 0 L781 0 L781 111 Z" /><glyph glyph-name="nu" unicode="&#x3bd;" d="M154 982 L470 232 L789 982 L894 982 L470 -34 L49 982 L154 982 Z" /><glyph glyph-name="xi" unicode="&#x3be;" d="M651 -10.5 Q370 12 230.5 135 Q91 258 91 456 Q91 653 228 800 Q323 902 468 949 Q401 976 325 1046.5 Q249 1117 249 1259 Q268 1598 685 1599 L931 1600 L931 1517 L718 1517 Q357 1517 357 1267 L357 1259 Q357 1157 421 1094.5 Q485 1032 604 985 L923 984 L923 895 L622 897 Q403 852 294 733 Q185 614 185 456 Q185 296 297 201.5 Q409 107 715.5 72.5 Q1022 38 1022 -180 L1022 -203 Q988 -338 810 -355 L810 -250 Q925 -250 932 -168 L932 -162 Q932 -33 651 -10.5 Z" /><glyph glyph-name="pi" unicode="&#x3c0;" d="M449 891 L449 0 L360 0 L360 891 L68 891 L68 982 L1194 982 L1194 891 L902 891 L902 0 L813 0 L813 891 L449 891 Z" /><glyph glyph-name="rho" unicode="&#x3c1;" d="M104 654 Q147 817 279.5 943 Q412 1069 639 1069 Q867 1069 1027.5 909 Q1188 749 1188 520 Q1188 294 1027.5 133 Q867 -28 639 -28 Q412 -28 251 133 Q219 165 195 199 L195 -375 L104 -375 L104 654 ZM195 614 L195 426 Q219 297 318 200 Q451 67 639 67 Q827 67 960 199.5 Q1093 332 1093 520 Q1093 708 960 841.5 Q827 975 639 975 Q451 975 318 842 Q219 743 195 614 Z" /><glyph glyph-name="sigma1" unicode="&#x3c2;" d="M639.5 -16 Q438 24 275.5 141 Q113 258 113 456 Q113 653 250 800 Q399 965 729 985 L945 984 L945 895 L779 895 Q471 886 339 750 Q207 614 207 456 Q207 296 341.5 207.5 Q476 119 703.5 67.5 Q931 16 931 -146 L931 -169 Q897 -327 718 -344 L718 -239 Q834 -239 841 -134 L841 -128 Q841 -56 639.5 -16 Z" /><glyph glyph-name="sigma" unicode="&#x3c3;" d="M321 841.5 Q188 708 188 520 Q188 332 321 200 Q454 68 642 68 Q830 68 963 200 Q1096 332 1096 520 Q1096 708 963 841.5 Q830 975 642 975 Q454 975 321 841.5 ZM1048 891 Q1191 736 1191 520 Q1191 294 1030.5 133 Q870 -28 642 -28 Q415 -28 254 133 Q93 294 93 520 Q93 749 254 909.5 Q415 1070 642 1070 Q812 1070 943 982 L1275 982 L1275 891 L1048 891 Z" /><glyph glyph-name="tau" unicode="&#x3c4;" d="M564 891 L564 0 L475 0 L475 891 L70 891 L70 982 L970 982 L970 891 L564 891 Z" /><glyph glyph-name="upsilon" unicode="&#x3c5;" d="M555 -14 Q371 -14 262 95 Q153 204 150 370 L150 982 L240 982 L240 378 Q240 253 331 165 Q421 76 554 76 Q678 76 768.5 164.5 Q859 253 859 378 L859 982 L949 982 L949 370 Q946 204 837 95 Q728 -14 555 -14 Z" /><glyph glyph-name="phi" unicode="&#x3c6;" d="M607 -17 Q401 -6 253 144 Q91 304 91 531 Q91 759 253 920 Q306 974 334 991 L368 895 Q343 874 321 852 Q187 718 187 531 Q187 343 320 210 Q449 80 592 80 L600 80 L600 921 Q617 1027 721 1027 Q794 1027 909 976 Q1190 850 1190 531 Q1190 304 1029 144 Q889 2 697 -16 L697 -369 L607 -369 L607 -17 ZM691 98 Q882 131 961 209 Q1095 343 1095 531 Q1095 764 898 877 Q797 934 746 934 Q695 934 692 879 L691 98 Z" /><glyph glyph-name="chi" unicode="&#x3c7;" d="M548 269 L159 -369 L57 -369 L496 353 L114 982 L217 982 L548 438 L878 982 L981 982 L599 353 L1038 -369 L936 -369 L548 269 Z" /><glyph glyph-name="psi" unicode="&#x3c8;" d="M708 -17 L708 -358 L611 -358 L611 -17 Q410 -4 264 144 Q102 304 102 531 L102 983 L198 983 L198 531 Q198 343 331 210 Q460 80 603 80 L611 80 L611 983 L708 983 L708 80 L716 80 Q860 80 989 210 Q1121 343 1121 531 L1121 983 L1218 983 L1218 531 Q1218 304 1056 144 Q910 -4 708 -17 Z" /><glyph glyph-name="omega" unicode="&#x3c9;" d="M732 223 L725 223 L725 752 L814 752 L814 223 L805 223 Q813 211 821 200 Q827 192 834 185 Q893 55 1046 55 Q1200 55 1282 174 Q1364 293 1364 549 Q1364 782 1244 966 L1244 982 L1333 982 Q1459 766 1459 549 Q1459 265 1355.5 118.5 Q1252 -28 1059 -28 Q868 -28 770 131 Q673 -28 482 -28 Q288 -28 183.5 118.5 Q79 265 79 549 Q79 769 214 982 L304 982 L304 973 Q174 803 174 549 Q174 293 256 174 Q338 55 492 55 Q646 55 706 185 Q712 193 717 201 Q725 211 732 223 Z" /><glyph glyph-name="afii10051" unicode="&#x402;" d="M562 561 L562 0 L473 0 L473 1509 L68 1509 L68 1600 L968 1600 L968 1509 L562 1509 L562 805 Q590 842 625 874 Q775 1013 1008 1013 Q1241 1013 1399 874 Q1547 762 1547 471 Q1547 177 1399 55 Q1356 18 1308 -10 L1248 55 Q1285 78 1321 108 Q1454 225 1456 459 Q1454 692 1321 809 Q1185 928 998 928 Q810 928 686 809 Q573 701 562 561 Z" /><glyph glyph-name="afii10053" unicode="&#x404;" d="M1188 847 L1188 757 L203 757 Q217 484 416 286 Q629 72 930 72 Q1232 72 1446 286 Q1561 400 1614 541 L1712 541 Q1653 363 1512 222 Q1271 -19 930 -19 Q591 -19 350.5 221 Q110 461 110 802 Q110 1142 350.5 1382 Q591 1622 930 1622 Q1271 1622 1512 1383 Q1582 1311 1631 1233 L1520 1233 Q1487 1276 1446 1317 Q1232 1531 930 1531 Q629 1531 416 1317 Q217 1119 203 847 L1188 847 Z" /><glyph glyph-name="afii10058" unicode="&#x409;" d="M1162 0 L1162 1509 L343 1509 L343 283 Q343 161 260.5 77.5 Q178 -6 57 -6 L57 85 Q140 85 197 141 Q253 197 253 294 L253 1600 L1253 1600 L1253 843 L1777 843 Q1943 839 2051.5 720 Q2160 601 2160 428 Q2160 243 2051.5 123 Q1943 3 1777 0 L1162 0 ZM1253 752 L1253 90 L1769 90 Q1893 90 1982 191.5 Q2071 293 2071 426 Q2071 551 1982 651.5 Q1893 752 1769 752 L1253 752 Z" /><glyph glyph-name="afii10059" unicode="&#x40a;" d="M1023 0 L1023 755 L204 755 L204 0 L113 0 L113 1600 L204 1600 L204 845 L1023 845 L1023 1600 L1113 1600 L1113 843 L1647 843 Q1814 839 1922.5 720 Q2031 601 2031 428 Q2031 243 1922.5 123 Q1814 3 1647 0 L1023 0 ZM1113 752 L1113 90 L1639 90 Q1764 90 1853 191.5 Q1942 293 1942 426 Q1942 551 1853 651.5 Q1764 752 1639 752 L1113 752 Z" /><glyph glyph-name="afii10060" unicode="&#x40b;" d="M553 561 L553 0 L464 0 L464 1509 L59 1509 L59 1600 L959 1600 L959 1509 L553 1509 L553 805 Q581 842 616 874 Q766 1013 999 1013 Q1232 1013 1378 874 Q1522 736 1522 442 L1522 0 L1424 0 L1425 451 Q1425 690 1300 815 Q1181 933 1005 933 L989 933 Q801 928 677 809 Q565 701 553 561 Z" /><glyph glyph-name="afii10145" unicode="&#x40f;" d="M589 1 L102 1 L102 1600 L193 1600 L193 91 L1083 91 L1083 1600 L1174 1600 L1174 0 L678 0 L678 -375 L589 -375 L589 1 Z" /><glyph glyph-name="afii10018" unicode="&#x411;" d="M119 845 L119 1600 L819 1600 L819 1509 L209 1509 L209 845 L726 845 Q893 842 1001.5 722.5 Q1110 603 1110 430 Q1110 245 1001.5 125 Q893 5 726 2 L209 2 L209 0 L119 0 L119 2 L113 2 L113 93 L119 93 L119 755 L113 755 L113 845 L119 845 ZM209 755 L209 93 L718 93 Q843 93 931.5 194 Q1020 295 1020 429 Q1020 553 931.5 654 Q843 755 718 755 L209 755 Z" /><glyph glyph-name="afii10020" unicode="&#x413;" d="M827 1600 L827 1509 L218 1509 L218 0 L127 0 L127 1600 L827 1600 Z" /><glyph glyph-name="afii10021" unicode="&#x414;" d="M1041 98 L1041 1509 L463 1509 Q496 1347 496 1161 Q496 480 140 98 L1041 98 ZM1133 98 L1221 98 L1221 -375 L1132 -375 L1132 0 L112 0 L112 -375 L23 -375 L23 98 L33 98 Q405 526 405 1161 Q405 1349 348 1600 L1132 1600 L1133 98 Z" /><glyph glyph-name="afii10024" unicode="&#x416;" d="M1003 835 L1538 1600 L1647 1600 L1232 999 L1931 0 L1822 0 L1174 924 L1003 679 L1003 0 L912 0 L912 679 L741 924 L94 0 L-16 0 L683 999 L268 1600 L378 1600 L912 835 L912 1600 L1003 1600 L1003 835 Z" /><glyph glyph-name="afii10025" unicode="&#x417;" d="M786.5 664 Q703 760 551 760 L173 760 L173 850 L551 850 Q703 850 786.5 945.5 Q870 1041 870 1195 Q870 1349 762.5 1436.5 Q655 1524 513 1524 Q280 1524 102 1393 L102 1481 Q273 1608 490 1608 Q695 1608 830 1498.5 Q965 1389 965 1207 Q965 925 772 805 Q965 708 965 404 Q965 222 830 111.5 Q695 1 490 1 Q269 1 102 136 L102 249 Q236 96 490 96 Q633 96 751.5 178 Q870 260 870 414 Q870 568 786.5 664 Z" /><glyph glyph-name="afii10026" unicode="&#x418;" d="M1391 1600 L1391 0 L1301 0 L1301 1455 L262 0 L123 0 L123 1600 L214 1600 L214 110 L1277 1600 L1391 1600 Z" /><glyph glyph-name="afii10029" unicode="&#x41b;" d="M343 283 Q343 161 260.5 77.5 Q178 -6 57 -6 L57 85 Q140 85 197 141 Q253 197 253 294 L253 1600 L1253 1600 L1253 0 L1162 0 L1162 1509 L343 1509 L343 283 Z" /><glyph glyph-name="afii10033" unicode="&#x41f;" d="M197 1509 L197 0 L106 0 L106 1600 L1106 1600 L1106 0 L1016 0 L1016 1509 L197 1509 Z" /><glyph glyph-name="afii10037" unicode="&#x423;" d="M1321 1600 Q531 191 368 64 Q268 -13 182 -13 Q127 -13 76 19 L120 98 Q170 71 215 71 Q236 71 255 77 Q316 94 481 347 L623 578 L-45 1600 L58 1600 L671 663 L1218 1600 L1321 1600 Z" /><glyph glyph-name="afii10038" unicode="&#x424;" d="M755 392 L755 1179 Q488 1171 333 1065 Q165 949 165 786 Q165 622 333 507 Q488 400 755 392 ZM845 293 L845 4 L755 4 L755 293 Q447 302 265 438 Q68 583 68 786 Q68 991 265 1136 Q447 1269 755 1278 L755 1598 L845 1598 L845 1278 Q1155 1269 1338 1136 Q1533 991 1533 786 Q1533 583 1338 438 Q1155 302 845 293 ZM845 1179 L845 392 Q1114 400 1269 507 Q1436 622 1436 786 Q1436 949 1269 1065 Q1114 1171 845 1179 Z" /><glyph glyph-name="afii10040" unicode="&#x426;" d="M1180 0 L113 0 L113 1600 L204 1600 L204 90 L1094 90 L1094 1600 L1185 1600 L1185 97 L1269 97 L1269 -375 L1180 -375 L1180 0 Z" /><glyph glyph-name="afii10041" unicode="&#x427;" d="M1061 1040 L1061 1600 L1150 1600 L1150 0 L1061 0 L1061 795 Q1033 759 998 727 Q848 588 615 588 Q382 588 237 727 Q92 864 92 1158 L92 1600 L190 1600 L189 1149 Q189 911 314 786 Q433 667 609 667 L626 667 Q813 673 937 792 Q1049 899 1061 1040 Z" /><glyph glyph-name="afii10042" unicode="&#x428;" d="M113 1600 L204 1600 L204 91 L868 91 L868 1600 L958 1600 L958 91 L1622 91 L1622 1600 L1713 1600 L1713 1 L113 1 L113 1600 Z" /><glyph glyph-name="afii10043" unicode="&#x429;" d="M1708 1 L113 1 L113 1600 L204 1600 L204 91 L868 91 L868 1600 L958 1600 L958 91 L1622 91 L1622 1600 L1713 1600 L1713 98 L1798 98 L1798 -375 L1708 -375 L1708 1 Z" /><glyph glyph-name="afii10044" unicode="&#x42a;" d="M407 843 L407 1509 L23 1509 L23 1600 L497 1600 L497 843 L1019 843 Q1185 839 1293.5 720 Q1402 601 1402 428 Q1402 243 1293.5 123 Q1185 3 1019 0 L405 0 L405 90 L407 90 L407 752 L405 752 L405 843 L407 843 ZM497 752 L497 90 L1011 90 Q1135 90 1224 191.5 Q1313 293 1313 426 Q1313 551 1224 651.5 Q1135 752 1011 752 L497 752 Z" /><glyph glyph-name="afii10045" unicode="&#x42b;" d="M1476 1600 L1476 0 L1386 0 L1386 1600 L1476 1600 ZM105 0 L105 1600 L196 1600 L196 843 L727 843 Q894 839 1002.5 720 Q1111 601 1111 428 Q1111 243 1002.5 123 Q894 3 727 0 L105 0 ZM196 752 L196 90 L719 90 Q844 90 933 191.5 Q1022 293 1022 426 Q1022 551 933 651.5 Q844 752 719 752 L196 752 Z" /><glyph glyph-name="afii10046" unicode="&#x42c;" d="M105 0 L105 1600 L196 1600 L196 843 L727 843 Q894 839 1002.5 720 Q1111 601 1111 428 Q1111 243 1002.5 123 Q894 3 727 0 L105 0 ZM196 752 L196 90 L719 90 Q844 90 933 191.5 Q1022 293 1022 426 Q1022 551 933 651.5 Q844 752 719 752 L196 752 Z" /><glyph glyph-name="afii10047" unicode="&#x42d;" d="M1579 847 Q1565 1119 1367 1317 Q1153 1531 852 1531 Q550 1531 336 1317 Q295 1276 262 1233 L150 1233 Q200 1311 270 1383 Q511 1622 852 1622 Q1191 1622 1431.5 1382 Q1672 1142 1672 802 Q1672 461 1431.5 221 Q1191 -19 852 -19 Q511 -19 270 222 Q128 363 70 541 L167 541 Q220 400 336 286 Q550 72 852 72 Q1153 72 1367 286 Q1565 484 1579 757 L594 757 L594 847 L1579 847 Z" /><glyph glyph-name="afii10048" unicode="&#x42e;" d="M1418 1531 Q1117 1531 903 1317 Q689 1103 689 802 Q689 500 903 286 Q1117 72 1418 72 Q1720 72 1933.5 286 Q2147 500 2147 802 Q2147 1103 1933.5 1317 Q1720 1531 1418 1531 ZM598 755 L204 755 L204 0 L113 0 L113 1600 L204 1600 L204 845 L598 845 Q613 1157 838 1383 Q1078 1622 1418 1622 Q1758 1622 1998.5 1382 Q2239 1142 2239 802 Q2239 461 1998.5 221 Q1758 -19 1418 -19 Q1078 -19 838 222 Q614 445 598 755 Z" /><glyph glyph-name="afii10049" unicode="&#x42f;" d="M613 1508 Q435 1508 308.5 1382.5 Q182 1257 182 1078 Q182 898 308.5 772 Q435 646 613 646 L884 646 L884 1508 L613 1508 ZM229 0 L118 0 L487 569 Q350 602 244 708 Q91 861 91 1078 Q91 1293 244 1447 Q372 1575 555 1600 L975 1600 L975 0 L884 0 L884 554 L613 554 Q599 554 585 555 L229 0 Z" /><glyph glyph-name="afii10066" unicode="&#x431;" d="M382 841.5 Q249 708 249 520 Q249 332 382 200 Q515 68 703 68 Q891 68 1024 200 Q1157 332 1157 520 Q1157 708 1024 841.5 Q891 975 703 975 Q515 975 382 841.5 ZM205 755 Q245 838 316 910 Q477 1070 703 1070 Q931 1070 1091.5 909.5 Q1252 749 1252 520 Q1252 294 1091.5 133 Q931 -28 703 -28 Q477 -28 316 133 Q172 276 156 471 L148 471 Q110 661 110 820 Q110 1138 260 1341 Q446 1592 690 1592 Q741 1592 793 1582 Q933 1553 1020 1553 Q1125 1553 1152 1595 L1152 1506 Q1125 1466 1027 1466 Q944 1466 809 1495 Q756 1506 707 1506 Q481 1506 324 1274 Q203 1096 203 824 Q203 790 205 755 Z" /><glyph glyph-name="afii10067" unicode="&#x432;" d="M202 542 L482 542 L482 543 Q579 547 631.5 600 Q684 653 684 718 Q684 783 631.5 835.5 Q579 888 482 893 L482 894 L202 894 L202 542 ZM202 442 L202 90 L482 90 L482 91 Q579 96 631.5 148.5 Q684 201 684 266 Q684 331 631.5 384 Q579 437 482 441 L482 442 L202 442 ZM113 984 L485 984 L485 983 Q615 977 695 897.5 Q775 818 775 718 L775 717 Q775 618 696 538 Q667 510 635 492 Q667 474 696 447 Q775 366 775 267 L775 266 Q775 166 695 86.5 Q615 7 485 1 L485 0 L113 0 L113 984 Z" /><glyph glyph-name="afii10068" unicode="&#x433;" d="M202 891 L202 0 L113 0 L113 982 L607 982 L607 891 L202 891 Z" /><glyph glyph-name="afii10069" unicode="&#x434;" d="M938 98 L1018 98 L1018 -375 L928 -375 L928 0 L146 0 L146 -375 L57 -375 L57 98 L137 98 Q140 101 142 102 Q355 314 355 730 Q355 815 346 891 Q340 938 331 982 L938 982 L938 98 ZM255 90 L849 90 L849 891 L438 891 Q446 815 446 730 Q446 325 255 90 Z" /><glyph glyph-name="afii10072" unicode="&#x436;" d="M721 533 L1106 982 L1222 982 L979 682 L1365 0 L1254 0 L921 610 L721 389 L721 0 L630 0 L630 389 L431 610 L97 0 L-14 0 L372 682 L130 982 L245 982 L630 533 L630 982 L721 982 L721 533 Z" /><glyph glyph-name="afii10073" unicode="&#x437;" d="M615 494 Q645 478 672 458 Q777 379 777 268 Q777 157 672.5 78 Q568 -1 421 -1 Q274 -1 170 78 Q66 157 66 268 L66 278 L162 278 L162 268 Q162 187 238 129.5 Q314 72 421 72 Q529 72 604.5 129.5 Q680 187 680 268 Q680 349 605 407 Q559 440 504 455 L278 455 L278 544 L536 544 Q573 559 605 583 Q680 639 680 721 Q680 802 604.5 859 Q529 916 421 916 Q314 916 238 860 Q172 809 163 741 L67 741 Q76 839 170 911 Q274 990 421 990 Q568 990 672.5 910.5 Q777 831 777 721 Q777 610 672 531 Q645 510 615 494 Z" /><glyph glyph-name="afii10074" unicode="&#x438;" d="M102 982 L191 982 L191 150 L819 982 L916 982 L916 0 L826 0 L826 839 L191 1 L191 0 L102 0 L102 982 Z" /><glyph glyph-name="afii10076" unicode="&#x43a;" d="M705 982 L463 682 L848 0 L738 0 L404 610 L204 388 L204 0 L113 0 L113 982 L204 982 L204 532 L589 982 L705 982 Z" /><glyph glyph-name="afii10077" unicode="&#x43b;" d="M1012 982 L1012 0 L923 0 L923 891 L267 891 L267 226 Q267 16 57 -1 L57 88 Q178 102 178 224 L178 982 L1012 982 Z" /><glyph glyph-name="afii10078" unicode="&#x43c;" d="M555 134 L922 982 L1018 982 L1018 0 L928 0 L928 760 L599 0 L510 0 L180 760 L180 0 L91 0 L91 982 L187 982 L555 134 Z" /><glyph glyph-name="afii10079" unicode="&#x43d;" d="M925 0 L836 0 L836 486 L180 486 L180 0 L91 0 L91 982 L180 982 L180 577 L836 577 L836 982 L925 982 L925 0 Z" /><glyph glyph-name="afii10081" unicode="&#x43f;" d="M191 891 L191 0 L102 0 L102 982 L936 982 L936 0 L847 0 L847 891 L191 891 Z" /><glyph glyph-name="afii10084" unicode="&#x442;" d="M585 891 L585 0 L496 0 L496 891 L91 891 L91 982 L991 982 L991 891 L585 891 Z" /><glyph glyph-name="afii10085" unicode="&#x443;" d="M232 -374 L131 -374 L390 182 L17 982 L118 982 L440 296 L764 982 L864 982 L232 -374 Z" /><glyph glyph-name="afii10086" unicode="&#x444;" d="M1158 632 L1158 408 Q1187 291 1278 200 Q1411 67 1599 67 Q1786 67 1919 199.5 Q2052 332 2052 520 Q2052 708 1919 841.5 Q1786 975 1599 975 Q1411 975 1278 842 Q1187 751 1158 632 ZM1068 408 L1068 632 Q1040 751 948 842 Q816 975 628 975 Q440 975 307 841.5 Q174 708 174 520 Q174 332 307 199.5 Q440 67 628 67 Q816 67 948 200 Q1040 291 1068 408 ZM1158 848 Q1182 880 1211 910 Q1372 1069 1599 1069 Q1827 1069 1987 909 Q2147 749 2147 520 Q2147 294 1987 133 Q1827 -28 1599 -28 Q1372 -28 1211 133 Q1182 162 1158 193 L1158 -358 L1068 -358 L1068 193 Q1044 162 1016 133 Q854 -28 628 -28 Q399 -28 239 133 Q79 294 79 520 Q79 749 239 909 Q399 1069 628 1069 Q854 1069 1016 910 Q1044 880 1068 848 L1068 1399 L1158 1399 L1158 848 Z" /><glyph glyph-name="afii10087" unicode="&#x445;" d="M322 519 L34 982 L139 982 L375 603 L610 982 L715 982 L427 519 L749 0 L645 0 L375 434 L104 0 L0 0 L322 519 Z" /><glyph glyph-name="afii10088" unicode="&#x446;" d="M937 0 L113 0 L113 982 L202 982 L202 90 L858 90 L858 982 L947 982 L947 98 L1026 98 L1026 -375 L937 -375 L937 0 Z" /><glyph glyph-name="afii10089" unicode="&#x447;" d="M1003 812 L1003 989 L1093 989 L1093 0 L1003 0 L1003 560 Q981 528 952 501 Q813 362 580 362 Q347 362 214 501 Q80 638 80 932 L80 989 L178 989 L177 923 Q177 684 290 560 Q399 441 574 441 L591 441 Q778 447 891 566 Q993 672 1003 812 Z" /><glyph glyph-name="afii10090" unicode="&#x448;" d="M102 982 L193 982 L193 91 L630 91 L630 982 L721 982 L721 91 L1159 91 L1159 982 L1249 982 L1249 1 L102 1 L102 982 Z" /><glyph glyph-name="afii10091" unicode="&#x449;" d="M1267 1 L124 1 L124 982 L215 982 L215 91 L652 91 L652 982 L743 982 L743 91 L1181 91 L1181 982 L1271 982 L1271 98 L1356 98 L1356 -375 L1267 -375 L1267 1 Z" /><glyph glyph-name="afii10092" unicode="&#x44a;" d="M287 0 L287 891 L34 891 L34 982 L377 982 L377 578 L798 578 L798 577 Q928 571 1018 492 Q1110 412 1110 289 L1110 288 Q1110 166 1018 86 Q928 7 798 1 L798 0 L287 0 ZM377 90 L794 90 L794 91 Q892 96 956 149 Q1020 201 1020 288 Q1020 377 956 430 Q892 482 794 486 L794 488 L377 488 L377 90 Z" /><glyph glyph-name="afii10093" unicode="&#x44b;" d="M202 90 L733 90 L733 91 Q830 96 895 149 Q958 201 958 288 Q958 377 895 430 Q830 482 733 486 L733 488 L202 488 L202 90 ZM1334 0 L1245 0 L1245 982 L1334 982 L1334 0 ZM113 0 L113 982 L202 982 L202 578 L736 578 L736 577 Q867 571 957 492 Q1049 412 1049 289 L1049 288 Q1049 166 957 86 Q867 7 736 1 L736 0 L113 0 Z" /><glyph glyph-name="afii10094" unicode="&#x44c;" d="M202 90 L620 90 L620 91 Q717 96 782 149 Q845 201 845 288 Q845 377 782 430 Q717 482 620 486 L620 488 L202 488 L202 90 ZM113 0 L113 982 L202 982 L202 578 L623 578 L623 577 Q753 571 844 492 Q936 412 936 289 L936 288 Q936 166 844 86 Q753 7 623 1 L623 0 L113 0 Z" /><glyph glyph-name="afii10095" unicode="&#x44d;" d="M1022 663 Q990 761 910 842 Q777 975 589 975 Q401 975 268 842 Q213 787 182 719 L81 719 Q115 824 200 910 Q360 1070 589 1070 Q815 1070 976.5 909.5 Q1138 749 1138 520 Q1138 294 976.5 133 Q815 -28 589 -28 Q360 -28 200 133 Q168 164 149 187 L282 187 Q411 68 589 68 Q777 68 910 200 Q1043 332 1043 520 Q1043 547 1039 571 L425 571 L425 663 L1022 663 Z" /><glyph glyph-name="afii10096" unicode="&#x44e;" d="M770 841.5 Q637 708 637 520 Q637 332 770 200 Q903 68 1091 68 Q1278 68 1411 200 Q1544 332 1544 520 Q1544 708 1411 841.5 Q1278 975 1091 975 Q903 975 770 841.5 ZM543 486 L202 486 L202 0 L113 0 L113 982 L202 982 L202 577 L544 577 Q562 769 704 910 Q864 1070 1091 1070 Q1319 1070 1479 909.5 Q1639 749 1639 520 Q1639 294 1479 133 Q1319 -28 1091 -28 Q864 -28 704 133 Q554 282 543 486 Z" /><glyph glyph-name="afii10097" unicode="&#x44f;" d="M699 891 L395 891 L395 890 Q297 886 234 834 Q170 781 170 693 Q170 605 234 553 Q297 500 395 495 L395 494 L699 494 L699 891 ZM788 982 L788 0 L699 0 L699 404 L458 404 L437 357 L379 234 L270 0 L171 0 L361 407 Q250 420 171 490 Q79 570 79 692 L79 693 Q79 816 171 896 Q261 975 391 981 L391 982 L788 982 Z" /><glyph glyph-name="afii10099" unicode="&#x452;" d="M805 648 Q805 774 714.5 862 Q624 950 500 950 Q376 950 287 863 Q246 824 227 781 L227 0 L136 0 L136 1283 L23 1283 L23 1372 L136 1372 L136 1600 L227 1600 L227 1372 L446 1372 L446 1283 L227 1283 L227 931 Q340 1041 500 1041 Q674 1041 783 931.5 Q892 822 895 657 L895 -57 Q895 -179 812.5 -262 Q730 -345 609 -345 L609 -255 Q692 -255 749 -198 Q805 -143 805 -45 L805 648 Z" /><glyph glyph-name="afii10101" unicode="&#x454;" d="M794 663 L794 571 L179 571 Q176 547 176 520 Q176 332 309 200 Q442 68 630 68 Q807 68 936 187 L1070 187 Q1051 164 1019 133 Q858 -28 630 -28 Q403 -28 242 133 Q81 294 81 520 Q81 749 242 909.5 Q403 1070 630 1070 Q858 1070 1019 910 Q1104 824 1138 719 L1037 719 Q1005 787 951 842 Q818 975 630 975 Q442 975 308 842 Q229 761 196 663 L794 663 Z" /><glyph glyph-name="afii10106" unicode="&#x459;" d="M1016 90 L1433 90 L1433 91 Q1531 96 1595 149 Q1659 201 1659 288 Q1659 377 1595 430 Q1531 482 1433 486 L1433 488 L1016 488 L1016 90 ZM925 891 L269 891 L269 226 Q269 16 59 -1 L59 88 Q180 102 180 224 L180 982 L1014 982 L1014 580 L1437 578 L1437 577 Q1567 571 1657 492 Q1749 412 1749 289 L1749 288 Q1749 166 1657 86 Q1567 7 1437 1 L1437 0 L925 0 L925 891 Z" /><glyph glyph-name="afii10107" unicode="&#x45a;" d="M936 90 L1353 90 L1353 91 Q1451 96 1515 149 Q1579 201 1579 288 Q1579 377 1515 430 Q1451 482 1353 486 L1353 488 L936 488 L936 90 ZM847 0 L847 486 L191 486 L191 0 L102 0 L102 982 L191 982 L191 577 L847 577 L847 982 L936 982 L936 578 L1357 578 L1357 577 Q1487 571 1577 492 Q1669 412 1669 289 L1669 288 Q1669 166 1577 86 Q1487 7 1357 1 L1357 0 L847 0 Z" /><glyph glyph-name="afii10108" unicode="&#x45b;" d="M136 1372 L136 1600 L227 1600 L227 1372 L446 1372 L446 1283 L227 1283 L227 931 Q340 1041 500 1041 Q674 1041 783 931.5 Q892 822 895 657 L895 0 L805 0 L805 648 Q805 774 714.5 862 Q624 950 500 950 Q376 950 287 863 Q246 824 227 781 L227 0 L136 0 L136 1283 L23 1283 L23 1372 L136 1372 Z" /><glyph glyph-name="afii10109" unicode="&#x45c;" d="M705 982 L463 682 L848 0 L738 0 L404 610 L204 388 L204 0 L113 0 L113 982 L204 982 L204 532 L589 982 L705 982 ZM587 1378 L342 1191 L258 1191 L421 1378 L587 1378 Z" /><glyph glyph-name="afii10193" unicode="&#x45f;" d="M474 0 L102 0 L102 982 L191 982 L191 90 L847 90 L847 982 L936 982 L936 0 L564 0 L564 -375 L474 -375 L474 0 Z" /><glyph glyph-name="afii10050" unicode="&#x490;" d="M827 1512 L827 1509 L218 1509 L218 0 L127 0 L127 1600 L801 1600 L801 1871 L891 1871 L891 1512 L827 1512 Z" /><glyph glyph-name="afii10098" unicode="&#x491;" d="M202 891 L202 0 L113 0 L113 982 L579 982 L579 1252 L669 1252 L669 891 L202 891 Z" /><glyph glyph-name="endash" unicode="&#x2013;" d="M50 637 L821 637 L821 547 L50 547 L50 637 Z" /><glyph glyph-name="emdash" unicode="&#x2014;" d="M50 637 L1457 637 L1457 547 L50 547 L50 637 Z" /><glyph glyph-name="afii00208" unicode="&#x2015;" d="M-75 637 L2036 637 L2036 547 L-75 547 L-75 637 Z" /><glyph glyph-name="underscoredbl" unicode="&#x2017;" d="M25 -255 L1025 -255 L1025 -345 L25 -345 L25 -255 ZM25 -30 L1025 -30 L1025 -120 L25 -120 L25 -30 Z" /><glyph glyph-name="quoteleft" unicode="&#x2018;" d="M163 1461 Q186 1456 204 1438 Q230 1412 230 1374 Q230 1337 203.5 1311 Q177 1285 140 1285 Q103 1285 76.5 1311 Q50 1337 50 1374 Q50 1395 57 1413 L155 1611 L220 1611 L163 1461 Z" /><glyph glyph-name="quoteright" unicode="&#x2019;" d="M117 1435 Q94 1440 77 1458 Q50 1484 50 1522 Q50 1559 76.5 1585 Q103 1611 140 1611 Q177 1611 203.5 1585 Q230 1559 230 1522 Q230 1501 223 1483 L125 1285 L60 1285 L117 1435 Z" /><glyph glyph-name="quotesinglbase" unicode="&#x201a;" d="M117 -13 Q94 -8 77 10 Q50 36 50 74 Q50 111 76.5 137 Q103 163 140 163 Q177 163 203.5 137 Q230 111 230 74 Q230 53 223 35 L125 -163 L60 -163 L117 -13 Z" /><glyph glyph-name="quotereversed" unicode="&#x201b;" d="M500 1285 L435 1285 L337 1483 Q330 1501 330 1522 Q330 1559 356.5 1585 Q383 1611 420 1611 Q457 1611 483.5 1585 Q510 1559 510 1522 Q510 1484 483 1458 Q466 1440 443 1435 L500 1285 Z" /><glyph glyph-name="quotedblleft" unicode="&#x201c;" d="M163 1461 Q186 1456 204 1438 Q230 1412 230 1374 Q230 1337 203.5 1311 Q177 1285 140 1285 Q103 1285 76.5 1311 Q50 1337 50 1374 Q50 1395 57 1413 L155 1611 L220 1611 L163 1461 ZM415 1461 Q438 1456 456 1438 Q482 1412 482 1374 Q482 1337 455.5 1311 Q429 1285 392 1285 Q355 1285 328.5 1311 Q302 1337 302 1374 Q302 1395 309 1413 L407 1611 L472 1611 L415 1461 Z" /><glyph glyph-name="quotedblright" unicode="&#x201d;" d="M117 1435 Q94 1440 77 1458 Q50 1484 50 1522 Q50 1559 76.5 1585 Q103 1611 140 1611 Q177 1611 203.5 1585 Q230 1559 230 1522 Q230 1501 223 1483 L125 1285 L60 1285 L117 1435 ZM369 1435 Q346 1440 329 1458 Q302 1484 302 1522 Q302 1559 328.5 1585 Q355 1611 392 1611 Q429 1611 455.5 1585 Q482 1559 482 1522 Q482 1501 475 1483 L377 1285 L312 1285 L369 1435 Z" /><glyph glyph-name="quotedblbase" unicode="&#x201e;" d="M117 -13 Q94 -8 77 10 Q50 36 50 74 Q50 111 76.5 137 Q103 163 140 163 Q177 163 203.5 137 Q230 111 230 74 Q230 53 223 35 L125 -163 L60 -163 L117 -13 ZM369 -13 Q346 -8 329 10 Q302 36 302 74 Q302 111 328.5 137 Q355 163 392 163 Q429 163 455.5 137 Q482 111 482 74 Q482 53 475 35 L377 -163 L312 -163 L369 -13 Z" /><glyph glyph-name="dagger" unicode="&#x2020;" d="M350 1596 L350 1814 L408 1814 L408 1596 L658 1596 L658 1538 L408 1538 L408 173 L350 173 L350 1538 L100 1538 L100 1596 L350 1596 Z" /><glyph glyph-name="daggerdbl" unicode="&#x2021;" d="M350 1538 L100 1538 L100 1596 L350 1596 L350 1814 L408 1814 L408 1596 L658 1596 L658 1538 L408 1538 L408 1053 L658 1053 L658 995 L408 995 L408 173 L350 173 L350 995 L100 995 L100 1053 L350 1053 L350 1538 Z" /><glyph glyph-name="bullet" unicode="&#x2022;" d="M380 895 Q441 895 486.5 851 Q532 807 532 743 Q532 680 486.5 636 Q441 592 380 592 Q317 592 271.5 636 Q226 680 226 743 Q226 807 271.5 851 Q317 895 380 895 Z" /><glyph glyph-name="ellipsis" unicode="&#x2026;" d="M190 165 Q227 165 253.5 139 Q280 113 280 76 Q280 38 253.5 12 Q227 -14 190 -14 Q153 -14 126.5 12 Q100 38 100 76 Q100 113 126.5 139 Q153 165 190 165 ZM873 165 Q910 165 936.5 139 Q963 113 963 76 Q963 38 936.5 12 Q910 -14 873 -14 Q836 -14 809.5 12 Q783 38 783 76 Q783 113 809.5 139 Q836 165 873 165 ZM1556 165 Q1593 165 1619.5 139 Q1646 113 1646 76 Q1646 38 1619.5 12 Q1593 -14 1556 -14 Q1519 -14 1492.5 12 Q1466 38 1466 76 Q1466 113 1492.5 139 Q1519 165 1556 165 Z" /><glyph glyph-name="perthousand" unicode="&#x2030;" d="M1107 1314 L189 3 L115 54 L1033 1365 L1107 1314 ZM311 1215 Q407 1215 474.5 1147.5 Q542 1080 542 984 Q542 888 474.5 820.5 Q407 753 311 753 Q215 753 147.5 820.5 Q80 888 80 984 Q80 1080 147.5 1147.5 Q215 1215 311 1215 ZM311 1128 Q251 1128 209 1086 Q167 1044 167 984 Q167 924 209 882 Q251 840 311 840 Q370 840 412.5 882 Q455 924 455 984 Q455 1044 412.5 1086 Q370 1128 311 1128 ZM911 615 Q1007 615 1074.5 547.5 Q1142 480 1142 384 Q1142 288 1074.5 220.5 Q1007 153 911 153 Q815 153 747.5 220.5 Q680 288 680 384 Q680 480 747.5 547.5 Q815 615 911 615 ZM911 528 Q851 528 809 486 Q767 444 767 384 Q767 324 809 282 Q851 240 911 240 Q970 240 1012.5 282 Q1055 324 1055 384 Q1055 444 1012.5 486 Q970 528 911 528 ZM1461 615 Q1557 615 1624.5 547.5 Q1692 480 1692 384 Q1692 288 1624.5 220.5 Q1557 153 1461 153 Q1365 153 1297.5 220.5 Q1230 288 1230 384 Q1230 480 1297.5 547.5 Q1365 615 1461 615 ZM1461 528 Q1401 528 1359 486 Q1317 444 1317 384 Q1317 324 1359 282 Q1401 240 1461 240 Q1520 240 1562.5 282 Q1605 324 1605 384 Q1605 444 1562.5 486 Q1520 528 1461 528 Z" /><glyph glyph-name="minute" unicode="&#x2032;" d="M125 997 L125 1597 L215 1597 L215 997 L125 997 Z" /><glyph glyph-name="second" unicode="&#x2033;" d="M125 997 L125 1597 L215 1597 L215 997 L125 997 ZM305 997 L305 1597 L395 1597 L395 997 L305 997 Z" /><glyph glyph-name="guilsinglleft" unicode="&#x2039;" d="M100 462 L529 922 L529 818 L198 462 L529 106 L529 1 L100 462 Z" /><glyph glyph-name="guilsinglright" unicode="&#x203a;" d="M100 1 L100 106 L431 462 L100 818 L100 922 L529 462 L100 1 Z" /><glyph glyph-name="exclamdbl" unicode="&#x203c;" d="M215 165 Q252 165 278.5 139 Q305 113 305 76 Q305 38 278.5 12 Q252 -14 215 -14 Q178 -14 151.5 12 Q125 38 125 76 Q125 113 151.5 139 Q178 165 215 165 ZM258 1600 L258 276 L168 276 L168 1600 L258 1600 ZM645 165 Q682 165 708.5 139 Q735 113 735 76 Q735 38 708.5 12 Q682 -14 645 -14 Q608 -14 581.5 12 Q555 38 555 76 Q555 113 581.5 139 Q608 165 645 165 ZM688 1600 L688 276 L598 276 L598 1600 L688 1600 Z" /><glyph glyph-name="fraction" unicode="&#x2044;&#x2215;" d="M591 1430 L-326 119 L-400 170 L518 1481 L591 1430 Z" /><glyph glyph-name="franc" unicode="&#x20a3;" d="M212 468 L212 1600 L912 1600 L912 1510 L302 1510 L302 845 L912 845 L912 755 L302 755 L302 468 L590 468 L590 378 L302 378 L302 0 L212 0 L212 378 L50 378 L50 468 L212 468 Z" /><glyph glyph-name="lira" unicode="&#x20a4;" d="M299 755 Q282 795 262 834 Q151 1014 137 1177 Q135 1196 135 1215 Q135 1354 227 1464 Q330 1587 493 1602 Q512 1603 531 1603 Q670 1603 781 1511 Q905 1406 920 1244 Q923 1221 923 1200 Q923 1137 901 1086 L815 1115 Q830 1158 830 1210 Q830 1224 829 1238 Q817 1361 722 1441 Q638 1511 532 1511 Q518 1511 504 1510 Q380 1499 300 1404 Q230 1320 230 1215 Q230 1200 231 1185 Q241 1072 309 929 Q362 844 396 755 L628 755 L628 665 L426 665 Q442 606 449 545 L628 545 L628 455 L455 455 Q449 257 285 63 Q410 108 531 108 Q603 108 674 92 Q773 69 862 69 Q942 69 1013 87 L1030 -2 Q949 -22 862 -22 Q773 -22 679 0 Q581 21 506 21 Q438 21 389 4 Q285 -34 187 -83 L100 20 Q224 130 256 169 Q362 295 364 455 L128 455 L128 545 L357 545 Q349 605 331 665 L128 665 L128 755 L299 755 Z" /><glyph glyph-name="peseta" unicode="&#x20a7;" d="M231 1509 L231 646 L476 646 Q636 646 750 772.5 Q864 899 864 1078 Q864 1257 750 1383 Q636 1509 476 1509 L231 1509 ZM917 892 Q883 791 808 708 Q670 555 476 555 L231 555 L231 0 L150 0 L150 1600 L528 1600 Q692 1575 808 1447 Q946 1294 946 1078 Q946 1028 939 982 L1023 982 L1023 1400 L1113 1400 L1113 982 L1361 982 Q1414 1014 1480 1014 Q1578 1014 1642 950 Q1704 887 1704 807 L1704 802 L1626 771 Q1616 847 1578.5 885 Q1541 923 1480 923 Q1420 923 1377 880.5 Q1334 838 1334 777 Q1334 717 1377 674 Q1402 649 1483 598 Q1611 528 1665 474 Q1750 388 1750 269 Q1750 147 1665 61.5 Q1580 -24 1459 -24 Q1338 -24 1253 61.5 Q1168 147 1168 249 L1257 272 Q1257 184 1316.5 125 Q1376 66 1459 66 Q1542 66 1601.5 125 Q1661 184 1661 269 Q1661 352 1602 411 Q1570 443 1473 505 Q1358 567 1314 611 Q1245 680 1245 777 Q1245 840 1274 892 L1113 892 L1113 0 L1023 0 L1023 892 L917 892 Z" /><glyph glyph-name="Euro" unicode="&#x20ac;" d="M268 885 L268 1051 Q268 1278 429 1439 Q590 1600 817 1600 Q1045 1600 1205 1439 L1138 1372 Q1005 1504 817 1504 Q629 1504 496 1371.5 Q363 1239 363 1051 L363 885 L1020 885 L1002 795 L363 795 L363 675 L978 675 L960 585 L363 585 L363 521 Q363 333 496 200.5 Q629 68 817 68 Q1005 68 1138 201 Q1220 283 1252 386 L1350 386 Q1316 244 1205 133 Q1045 -28 817 -28 Q590 -28 429 133 Q268 294 268 521 L268 585 L100 585 L118 675 L268 675 L268 795 L142 795 L160 885 L268 885 Z" /><glyph glyph-name="afii61352" unicode="&#x2116;" d="M1894 1543 L1929 1543 L1929 911 L1219 911 L1219 946 L1894 946 L1894 1543 ZM1502 1131 Q1603 1136 1657 1189 Q1715 1246 1715 1329 Q1715 1411 1657 1469 Q1603 1522 1502 1527 Q1401 1522 1347 1469 Q1289 1411 1289 1329 Q1289 1246 1347 1189 Q1401 1136 1502 1131 ZM1487 1054 Q1372 1054 1292 1134.5 Q1212 1215 1212 1329 Q1212 1443 1292 1523.5 Q1372 1604 1487 1604 L1516 1604 Q1631 1604 1711 1523.5 Q1791 1443 1791 1329 Q1791 1215 1711 1134.5 Q1631 1054 1516 1054 L1487 1054 ZM125 1600 L224 1600 L1046 177 L1046 1600 L1136 1600 L1136 0 L1046 0 L215 1437 L215 0 L125 0 L125 1600 Z" /><glyph glyph-name="trademark" unicode="&#x2122;" d="M497 1556 L339 1556 L339 952 L282 952 L282 1556 L100 1556 L100 1608 L553 1608 L820 1199 L1086 1608 L1151 1608 L1142 1595 L1142 952 L1086 952 L1086 1508 L820 1098 L553 1508 L553 952 L497 952 L497 1556 Z" /><glyph glyph-name="Omega" unicode="&#x2126;" d="M804 1600 Q1120 1600 1311.5 1377 Q1503 1154 1503 775 Q1503 497 1350.5 308 Q1198 119 1076 89 L1401 89 L1401 0 L866 0 L866 89 Q1082 139 1247.5 314 Q1413 489 1413 775 Q1413 1117 1246 1320.5 Q1079 1524 799 1524 L794 1524 Q514 1524 347 1320.5 Q180 1117 180 775 Q180 489 345.5 314 Q511 139 727 89 L727 0 L192 0 L192 89 L517 89 Q395 119 242.5 308 Q90 497 90 775 Q90 1154 281.5 1377 Q473 1600 789 1600 L804 1600 Z" /><glyph glyph-name="arrowleft" unicode="&#x2190;" d="M284 963 L284 836 L1695 836 L1695 745 L284 745 L284 618 L113 791 L284 963 Z" /><glyph glyph-name="arrowup" unicode="&#x2191;" d="M684 1414 L556 1414 L556 3 L466 3 L466 1414 L339 1414 L511 1585 L684 1414 Z" /><glyph glyph-name="arrowright" unicode="&#x2192;" d="M1695 791 L1524 618 L1524 745 L113 745 L113 836 L1524 836 L1524 963 L1695 791 Z" /><glyph glyph-name="arrowdown" unicode="&#x2193;" d="M511 3 L339 174 L466 174 L466 1585 L556 1585 L556 174 L684 174 L511 3 Z" /><glyph glyph-name="arrowboth" unicode="&#x2194;" d="M1524 836 L1524 963 L1695 791 L1524 618 L1524 745 L284 745 L284 618 L113 791 L284 963 L284 836 L1524 836 Z" /><glyph glyph-name="arrowupdn" unicode="&#x2195;" d="M950 174 L1077 174 L905 3 L732 174 L860 174 L860 1414 L732 1414 L905 1585 L1077 1414 L950 1414 L950 174 Z" /><glyph glyph-name="arrowupdnbse" unicode="&#x21a8;" d="M951 174 L1078 174 L906 3 L733 174 L861 174 L861 1414 L733 1414 L906 1585 L1078 1414 L951 1414 L951 174 ZM733 1682 L1078 1682 L1078 1592 L733 1592 L733 1682 ZM733 0 L1078 0 L1078 -91 L733 -91 L733 0 Z" /><glyph glyph-name="partialdiff" unicode="&#x2202;" d="M838 766 Q291 697 157 357 Q143 305 143 263 Q143 87 384 85 Q708 119 838 766 ZM840 848 Q848 946 848 1028 Q848 1466 635 1506 Q593 1513 554 1513 Q357 1513 227 1324 L185 1407 Q332 1585 545 1585 Q615 1585 693 1566 Q934 1505 934 1054 Q934 921 912 753 Q797 20 381 10 Q57 10 57 258 Q57 308 71 369 Q198 769 840 848 Z" /><glyph glyph-name="Delta" unicode="&#x2206;" d="M34 1 L-34 1 L549 1600 L658 1600 L1248 0 L34 0 L34 1 ZM1119 90 L603 1487 L94 90 L1119 90 Z" /><glyph glyph-name="product" unicode="&#x220f;" d="M197 1509 L197 -374 L106 -374 L106 1600 L1219 1600 L1219 -374 L1129 -374 L1129 1509 L197 1509 Z" /><glyph glyph-name="summation" unicode="&#x2211;" d="M1083 1600 L1083 1509 L193 1509 L611 613 L193 -283 L1083 -283 L1083 -374 L57 -374 L510 613 L57 1600 L1083 1600 Z" /><glyph glyph-name="minus" unicode="&#x2212;" d="M125 637 L925 637 L925 547 L125 547 L125 637 Z" /><glyph glyph-name="radical" unicode="&#x221a;" d="M867 294 L1439 1740 L1535 1740 L832 -79 L200 718 L102 674 L57 731 L353 898 L867 294 Z" /><glyph glyph-name="infinity" unicode="&#x221e;" d="M1056 815 Q1056 912 987.5 981 Q919 1050 821 1050 Q724 1050 650 983 Q579 917 553 788 Q579 659 650 594 Q724 527 821 527 Q919 527 987.5 596 Q1056 665 1056 815 ZM1128 815 Q1128 636 1038 546.5 Q948 457 821 457 Q694 457 600 544 Q535 605 510 683 Q497 654 444.5 605.5 Q392 557 301 557 Q210 557 145.5 620.5 Q81 684 81 800 Q81 893 145.5 957.5 Q210 1022 301 1022 Q392 1022 444.5 972.5 Q497 923 510 894 Q535 972 600 1033 Q694 1120 821 1120 Q948 1120 1038 1030.5 Q1128 941 1128 815 ZM151 790 Q151 716 194.5 672 Q238 628 301 628 Q363 628 408 670.5 Q453 713 477 788 Q453 864 408 906.5 Q363 949 301 949 Q238 949 194.5 905.5 Q151 862 151 790 Z" /><glyph glyph-name="integral" unicode="&#x222b;" d="M326 -79 Q314 -363 36 -363 L36 -280 Q225 -280 236 -82 L236 1432 Q259 1716 527 1716 L528 1644 Q347 1638 326 1435 L326 -79 Z" /><glyph glyph-name="approxequal" unicode="&#x2248;" d="M638 996 Q826 887 911 887 Q926 887 938 890 Q1015 913 1046 990 Q1061 1028 1061 1067 L1152 1053 Q1148 1005 1129 956 Q1083 845 973 808 Q948 800 917 800 Q812 800 639 899 Q449 1008 365 1008 Q351 1008 339 1005 Q262 982 231 905 Q216 866 215 828 L125 842 Q127 890 147 939 Q193 1050 304 1087 Q329 1095 359 1095 Q465 1095 638 996 ZM638 701 Q826 592 911 592 Q926 592 938 595 Q1015 618 1046 695 Q1061 733 1061 772 L1152 758 Q1148 710 1129 661 Q1083 550 973 513 Q948 505 917 505 Q812 505 639 604 Q449 713 365 713 Q351 713 339 710 Q262 687 231 610 Q216 571 215 533 L125 547 Q127 595 147 644 Q193 755 304 792 Q329 800 359 800 Q465 800 638 701 Z" /><glyph glyph-name="lessequal" unicode="&#x2264;" d="M1249 145 L100 563 L1249 981 L1249 885 L363 563 L1249 241 L1249 145 ZM149 90 L1249 90 L1249 0 L149 0 L149 90 Z" /><glyph glyph-name="greaterequal" unicode="&#x2265;" d="M100 241 L986 563 L100 885 L100 981 L1249 563 L100 145 L100 241 ZM100 90 L1200 90 L1200 0 L100 0 L100 90 Z" /><glyph glyph-name="integraltp" unicode="&#x2320;" d="M315 -362 L226 -362 L226 1432 Q249 1716 517 1716 L518 1644 Q337 1638 315 1435 L315 -362 Z" /><glyph glyph-name="integralbt" unicode="&#x2321;" d="M316 1716 L405 1716 L405 -78 Q382 -362 113 -362 L113 -290 Q294 -284 316 -81 L316 1716 Z" /><glyph glyph-name="uniEEC9" unicode="&#xeec9;" d="M738 1330 Q775 1330 801.5 1304 Q828 1278 828 1241 Q828 1203 801.5 1177 Q775 1151 738 1151 Q701 1151 674.5 1177 Q648 1203 648 1241 Q648 1278 674.5 1304 Q701 1330 738 1330 ZM693 892 L280 892 L280 0 L190 0 L190 892 L90 892 L90 982 L190 982 L190 1248 Q196 1359 275 1439 Q357 1515 464 1515 Q520 1515 582 1494 L554 1414 Q512 1432 473 1432 Q402 1432 339 1375 Q283 1320 280 1242 L280 982 L783 982 L783 0 Q783 -211 572 -228 L572 -138 Q693 -124 693 -2 L693 892 Z" /><glyph glyph-name="uniEECA" unicode="&#xeeca;" d="M673 892 L280 892 L280 0 L190 0 L190 892 L90 892 L90 982 L190 982 L190 1248 Q196 1359 275 1439 Q357 1515 464 1515 Q520 1515 582 1494 L554 1414 Q512 1432 473 1432 Q402 1432 339 1375 Q283 1320 280 1242 L280 982 L763 982 L763 803 Q791 843 828 880 Q947 999 1072 1005 L1072 907 Q987 903 896 812 Q768 685 763 507 L763 0 L673 0 L673 892 Z" /><glyph glyph-name="uniEECB" unicode="&#xeecb;" d="M210 982 L603 982 L603 1410 Q533 1432 453 1432 Q332 1432 269 1375 Q213 1320 210 1242 L210 982 ZM120 982 L120 1248 Q126 1359 205 1439 Q287 1515 444 1515 Q590 1515 693 1460 L693 982 L893 982 L893 892 L693 892 L693 0 L603 0 L603 892 L210 892 L210 0 L120 0 L120 892 L20 892 L20 982 L120 982 Z" /><glyph glyph-name="uniEECD" unicode="&#xeecd;" d="M641 892 L280 892 L280 0 L190 0 L190 892 L90 892 L90 982 L190 982 L190 1248 Q196 1359 275 1439 Q357 1515 464 1515 Q520 1515 582 1494 L554 1414 Q512 1432 473 1432 Q402 1432 339 1375 Q283 1320 280 1242 L280 982 L700 982 L1026 278 L1352 982 L1453 982 L1026 87 L1026 88 L804 -375 L716 -375 L981 181 L641 892 Z" /><glyph glyph-name="uniEECE" unicode="&#xeece;" d="M280 892 L280 0 L190 0 L190 892 L90 892 L90 982 L190 982 L190 1248 Q196 1359 275 1439 Q357 1515 464 1515 Q520 1515 582 1494 L554 1414 Q512 1432 473 1432 Q402 1432 339 1375 Q283 1320 280 1242 L280 982 L713 982 L713 1248 Q719 1359 798 1439 Q880 1515 987 1515 Q1043 1515 1105 1494 L1077 1414 Q1035 1432 996 1432 Q925 1432 862 1375 Q806 1320 803 1242 L803 982 L1336 982 L1336 1400 L1426 1400 L1426 982 L1626 982 L1626 892 L1426 892 L1426 0 L1336 0 L1336 892 L803 892 L803 0 L713 0 L713 892 L280 892 Z" /><glyph glyph-name="uniEECF" unicode="&#xeecf;" d="M280 892 L280 0 L190 0 L190 892 L90 892 L90 982 L190 982 L190 1248 Q196 1359 275 1439 Q357 1515 464 1515 Q520 1515 582 1494 L554 1414 Q512 1432 473 1432 Q402 1432 339 1375 Q283 1320 280 1242 L280 982 L713 982 L713 1248 Q719 1359 798 1439 Q880 1515 987 1515 Q1043 1515 1105 1494 L1077 1414 Q1035 1432 996 1432 Q925 1432 862 1375 Q806 1320 803 1242 L803 982 L1223 982 L1549 278 L1875 982 L1976 982 L1549 87 L1549 88 L1327 -375 L1239 -375 L1504 181 L1164 892 L803 892 L803 0 L713 0 L713 892 L280 892 Z" /><glyph glyph-name="uniEED0" unicode="&#xeed0;" d="M280 892 L280 0 L190 0 L190 892 L90 892 L90 982 L190 982 L190 1248 Q196 1359 275 1439 Q357 1515 464 1515 Q520 1515 582 1494 L554 1414 Q512 1432 473 1432 Q402 1432 339 1375 Q283 1320 280 1242 L280 982 L813 982 L813 1400 L903 1400 L903 982 L1370 982 L1696 278 L2022 982 L2123 982 L1696 87 L1696 88 L1474 -375 L1386 -375 L1651 181 L1311 892 L903 892 L903 0 L813 0 L813 892 L280 892 Z" /><glyph glyph-name="uniEED9" unicode="&#xeed9;" d="M820 892 L380 892 L380 0 L290 0 L290 892 L90 892 L90 982 L290 982 L290 1400 L380 1400 L380 982 L910 982 L910 803 Q938 843 975 880 Q1094 999 1219 1005 L1219 907 Q1134 903 1043 812 Q915 685 910 507 L910 0 L820 0 L820 892 Z" /><glyph glyph-name="uniEEDA" unicode="&#xeeda;" d="M380 892 L380 0 L290 0 L290 892 L90 892 L90 982 L290 982 L290 1400 L380 1400 L380 982 L960 982 L960 1400 L1050 1400 L1050 982 L1250 982 L1250 892 L1050 892 L1050 0 L960 0 L960 892 L380 892 Z" /><glyph glyph-name="uniEEDB" unicode="&#xeedb;" d="M788 892 L380 892 L380 0 L290 0 L290 892 L90 892 L90 982 L290 982 L290 1400 L380 1400 L380 982 L850 982 L850 976 L1173 278 L1499 982 L1600 982 L1173 87 L1173 88 L951 -375 L863 -375 L1128 181 L788 892 Z" /><glyph glyph-name="uniEEDC" unicode="&#xeedc;" d="M380 892 L380 0 L290 0 L290 892 L90 892 L90 982 L290 982 L290 1400 L380 1400 L380 982 L1491 982 L976 91 L1529 91 L1529 0 L820 0 L1334 892 L380 892 Z" /><glyph glyph-name="uniF001" unicode="&#xf001;" d="M280 0 L190 0 L190 892 L90 892 L90 982 L190 982 L190 1248 Q196 1359 275 1439 Q357 1515 464 1515 Q520 1515 582 1494 L554 1414 Q512 1432 473 1432 Q402 1432 339 1375 Q283 1320 280 1242 L280 0 ZM783 982 L783 0 L693 0 L693 982 L783 982 ZM738 1330 Q775 1330 801.5 1304 Q828 1278 828 1241 Q828 1203 801.5 1177 Q775 1151 738 1151 Q701 1151 674.5 1177 Q648 1203 648 1241 Q648 1278 674.5 1304 Q701 1330 738 1330 Z" /><glyph glyph-name="uniF002" unicode="&#xf002;" d="M673 1410 Q603 1432 523 1432 Q402 1432 339 1375 Q283 1320 280 1242 L280 0 L190 0 L190 892 L90 892 L90 982 L190 982 L190 1248 Q196 1359 275 1439 Q357 1515 514 1515 Q660 1515 763 1460 L763 0 L673 0 L673 1410 Z" /><glyph glyph-name="uniFB00" unicode="&#xfb00;" d="M280 892 L280 0 L190 0 L190 892 L90 892 L90 982 L190 982 L190 1248 Q196 1359 275 1439 Q357 1515 464 1515 Q520 1515 582 1494 L554 1414 Q512 1432 473 1432 Q402 1432 339 1375 Q283 1320 280 1242 L280 982 L713 982 L713 1248 Q719 1359 798 1439 Q880 1515 987 1515 Q1043 1515 1105 1494 L1077 1414 Q1035 1432 996 1432 Q925 1432 862 1375 Q806 1320 803 1242 L803 982 L1003 982 L1003 892 L803 892 L803 0 L713 0 L713 892 L280 892 Z" /><glyph glyph-name="uniFB01" unicode="&#xfb01;" d="M738 1330 Q775 1330 801.5 1304 Q828 1278 828 1241 Q828 1203 801.5 1177 Q775 1151 738 1151 Q701 1151 674.5 1177 Q648 1203 648 1241 Q648 1278 674.5 1304 Q701 1330 738 1330 ZM693 892 L280 892 L280 0 L190 0 L190 892 L90 892 L90 982 L190 982 L190 1248 Q196 1359 275 1439 Q357 1515 464 1515 Q520 1515 582 1494 L554 1414 Q512 1432 473 1432 Q402 1432 339 1375 Q283 1320 280 1242 L280 982 L783 982 L783 0 L693 0 L693 892 Z" /><glyph glyph-name="uniFB02" unicode="&#xfb02;" d="M673 1410 Q603 1432 523 1432 Q402 1432 339 1375 Q283 1320 280 1242 L280 982 L480 982 L480 892 L280 892 L280 0 L190 0 L190 892 L90 892 L90 982 L190 982 L190 1248 Q196 1359 275 1439 Q357 1515 514 1515 Q660 1515 763 1460 L763 0 L673 0 L673 1410 Z" /><glyph glyph-name="uniFB03" unicode="&#xfb03;" d="M1261 1330 Q1298 1330 1324.5 1304 Q1351 1278 1351 1241 Q1351 1203 1324.5 1177 Q1298 1151 1261 1151 Q1224 1151 1197.5 1177 Q1171 1203 1171 1241 Q1171 1278 1197.5 1304 Q1224 1330 1261 1330 ZM280 892 L280 0 L190 0 L190 892 L90 892 L90 982 L190 982 L190 1248 Q196 1359 275 1439 Q357 1515 464 1515 Q520 1515 582 1494 L554 1414 Q512 1432 473 1432 Q402 1432 339 1375 Q283 1320 280 1242 L280 982 L713 982 L713 1248 Q719 1359 798 1439 Q880 1515 987 1515 Q1043 1515 1105 1494 L1077 1414 Q1035 1432 996 1432 Q925 1432 862 1375 Q806 1320 803 1242 L803 982 L1306 982 L1306 0 L1216 0 L1216 892 L803 892 L803 0 L713 0 L713 892 L280 892 Z" /><glyph glyph-name="uniFB04" unicode="&#xfb04;" d="M280 892 L280 0 L190 0 L190 892 L90 892 L90 982 L190 982 L190 1248 Q196 1359 275 1439 Q357 1515 464 1515 Q520 1515 582 1494 L554 1414 Q512 1432 473 1432 Q402 1432 339 1375 Q283 1320 280 1242 L280 982 L713 982 L713 1248 Q719 1359 798 1439 Q880 1515 1037 1515 Q1183 1515 1286 1460 L1286 0 L1196 0 L1196 1410 Q1126 1432 1046 1432 Q925 1432 862 1375 Q806 1320 803 1242 L803 982 L1003 982 L1003 892 L803 892 L803 0 L713 0 L713 892 L280 892 Z" /><glyph glyph-name="uniFB05" unicode="&#xfb05;" d="M603 892 L403 892 L403 982 L603 982 L603 1410 Q533 1432 453 1432 Q332 1432 269 1375 Q213 1320 210 1242 L210 0 L120 0 L120 892 L20 892 L20 982 L120 982 L120 1248 Q126 1359 205 1439 Q287 1515 444 1515 Q590 1515 693 1460 L693 982 L893 982 L893 892 L693 892 L693 0 L603 0 L603 892 Z" /></font>
</defs>
</svg>
