<?xml version="1.0" standalone="no"?><!DOCTYPE svg PUBLIC "-//W3C//DTD SVG 1.1//EN" "http://www.w3.org/Graphics/SVG/1.1/DTD/svg11.dtd" ><svg xmlns="http://www.w3.org/2000/svg"><metadata></metadata><defs><font id="FONTLAB:OTFEXPORT" horiz-adv-x="818"><font-face font-family="Elliptica" font-weight="400" font-stretch="normal" units-per-em="1000" panose-1="0 0 0 0 0 0 0 0 0 0" ascent="750" descent="-250" x-height="0" bbox="-134 -263 728 756" underline-thickness="50" underline-position="-75" unicode-range="U+0009-20ac" /><missing-glyph horiz-adv-x="500"  /><glyph glyph-name="" unicode=" " d="" /><glyph glyph-name="" unicode="a" d="M3 0 L87 0 L177 257 L383 257 L474 0 L559 0 Q389 486 350 603 Q310 720 317 701 L249 701 L3 0 ZM280 548 L355 339 L207 339 L280 548 Z" /><glyph glyph-name="" unicode="b" d="M0 0 Q109 0 207 0 Q305 -1 397 2 Q470 16 511 70 Q552 124 553 201 Q553 248 536 289 Q519 329 487 361 L487 362 Q515 391 534 428 Q552 466 553 508 Q550 604 490 653 Q429 701 345 701 Q253 701 133 701 Q12 700 1 700 Q1 512 1 339 Q1 166 0 0 L0 0 ZM87 319 Q183 319 234 319 Q285 319 391 319 Q435 307 457 277 Q478 248 478 201 Q478 158 460 123 Q441 88 397 80 Q356 80 282 80 Q207 80 87 80 Q87 114 87 196 Q87 278 87 319 L87 319 ZM87 620 L387 620 Q430 613 452 581 Q473 550 473 508 L473 478 Q464 447 439 428 Q414 409 383 400 Q314 400 239 401 Q164 401 87 401 L87 620 Z" /><glyph glyph-name="" unicode="c" d="M94 348 Q95 486 146 553 Q196 620 281 620 Q342 620 390 587 Q437 553 462 480 L548 480 Q520 603 448 653 Q376 703 280 701 Q161 704 83 627 Q5 549 0 350 Q1 151 81 74 Q161 -3 280 0 Q377 -2 449 48 Q520 97 548 221 L467 221 Q443 145 393 112 Q344 79 281 80 Q196 78 146 139 Q95 200 94 348 L94 348 Z" /><glyph glyph-name="" unicode="d" d="M0 0 L316 -1 Q368 -7 462 32 Q557 70 577 218 L578 466 Q560 595 490 645 Q421 695 333 698 L0 701 L0 0 ZM87 620 L330 617 Q370 620 427 586 Q483 551 493 464 L493 217 Q481 141 432 108 Q384 75 316 77 L87 80 L87 620 Z" /><glyph glyph-name="" unicode="e" d="M-1 699 L-1 3 L0 1 Q143 0 284 0 Q425 0 563 0 L563 81 Q446 82 329 81 Q211 80 87 80 L87 299 L387 299 L387 381 L87 378 L87 620 Q208 620 327 620 Q445 620 563 620 L560 699 Q508 699 270 699 Q32 700 -1 699 L-1 699 ZM563 700 Q571 700 568 700 Q566 699 563 700 L563 700 Z" /><glyph glyph-name="" unicode="f" d="M0 0 L87 0 L87 299 L397 299 L397 388 L87 386 L87 620 Q238 620 351 621 Q464 622 563 621 L563 700 Q433 699 227 699 Q22 699 0 700 Q0 607 0 384 Q0 161 0 67 L0 0 Z" /><glyph glyph-name="" unicode="g" d="M300 300 L475 300 Q466 179 413 129 Q359 78 281 80 Q196 78 142 138 Q89 197 87 345 Q89 484 142 552 Q196 620 281 620 Q338 620 382 591 Q426 562 451 500 L543 500 Q512 612 442 657 Q372 703 280 701 Q161 704 83 627 Q5 549 0 350 Q1 151 81 74 Q161 -3 280 0 Q391 -3 468 64 Q545 130 560 300 L560 377 L300 377 L300 300 Z" /><glyph glyph-name="" unicode="h" d="M1 701 Q-2 523 0 349 Q1 174 1 0 L87 -2 L87 291 L479 291 L479 0 L563 -2 Q561 170 562 351 Q563 532 563 700 L479 700 L479 377 Q396 376 319 377 Q241 378 87 377 Q86 461 87 542 Q87 623 87 701 L1 701 Z" /><glyph glyph-name="" unicode="j" d="M1 187 Q3 116 48 59 Q93 2 158 -1 L251 -1 Q316 2 361 60 Q406 118 408 190 Q408 316 407 448 Q407 580 408 700 L326 700 Q326 481 326 258 Q328 177 300 129 Q273 80 198 79 Q150 79 124 107 Q98 135 87 187 L1 187 Z" /><glyph glyph-name="" unicode="k" d="M455 0 L553 0 L270 416 L544 700 L436 700 L87 351 L87 700 Q64 700 42 700 Q20 700 0 700 Q-1 647 -1 457 Q0 266 0 0 Q24 -1 45 -2 Q67 -2 87 -2 L87 226 L210 355 Q205 366 243 311 Q281 256 455 0 L455 0 Z" /><glyph glyph-name="" unicode="l" d="M416 0 L416 87 L87 88 L87 700 L0 700 Q-1 294 -1 143 Q0 -8 0 0 L416 0 Z" /><glyph glyph-name="" unicode="m" d="M-1 699 Q0 521 0 344 Q0 168 0 0 L87 0 Q87 95 87 210 Q87 325 87 503 L284 3 Q284 3 284 1 Q285 -1 286 -1 L372 -1 Q374 -1 375 1 Q376 3 376 3 L583 505 L583 0 L659 0 L660 163 Q660 242 660 431 Q659 621 659 699 L576 698 Q569 683 490 489 Q412 295 328 101 L97 696 Q96 699 77 699 Q57 699 -1 699 L-1 699 Z" /><glyph glyph-name="" unicode="n" d="M487 0 Q506 0 525 0 Q543 0 563 0 Q563 189 563 362 Q563 534 563 700 L479 700 Q479 513 479 388 Q479 263 479 155 Q199 548 138 632 Q76 716 82 699 L0 699 Q0 525 0 348 Q0 172 0 0 L86 0 Q86 144 86 344 Q86 544 85 567 L487 0 Z" /><glyph glyph-name="" unicode="o" d="M0 350 Q1 151 81 74 Q161 -3 280 0 Q399 -3 478 74 Q557 151 560 350 Q557 549 478 627 Q399 704 280 701 Q161 704 83 627 Q5 549 0 350 L0 350 ZM87 345 Q89 484 142 552 Q196 620 281 620 Q366 621 420 556 Q473 491 477 347 Q477 199 422 139 Q366 78 281 80 Q196 78 142 138 Q89 197 87 345 L87 345 Z" /><glyph glyph-name="" unicode="p" d="M0 0 L87 0 L87 299 L390 296 Q465 299 510 361 Q554 424 555 498 Q554 576 511 631 Q468 687 394 698 Q296 698 199 699 Q103 700 0 700 Q1 519 0 345 Q0 171 0 0 L0 0 ZM87 379 Q85 412 86 498 Q88 584 88 620 Q187 620 274 620 Q361 620 388 620 Q435 613 453 581 Q472 549 471 502 Q472 455 453 422 Q435 389 390 379 Q317 379 220 379 Q123 379 87 379 L87 379 Z" /><glyph glyph-name="" unicode="q" d="M0 350 Q1 151 81 74 Q161 -3 280 0 Q313 0 344 5 Q374 10 402 21 L462 -58 L526 -15 L468 64 Q511 103 535 173 Q560 243 560 350 Q557 549 478 627 Q399 704 280 701 Q161 704 83 627 Q5 549 0 350 L0 350 ZM291 169 L350 90 Q317 80 281 80 Q196 78 142 140 Q89 202 87 350 Q89 488 142 554 Q196 620 281 620 Q366 621 421 557 Q475 494 479 350 Q480 271 464 218 Q449 164 418 133 L357 218 L291 169 Z" /><glyph glyph-name="" unicode="s" d="M1 235 Q-5 130 60 66 Q125 2 211 0 L343 0 Q420 -3 493 39 Q567 82 572 206 Q542 382 330 377 Q117 371 87 481 Q82 500 98 552 Q113 604 213 620 L316 620 Q377 624 422 600 Q466 576 479 481 L563 481 Q553 608 482 655 Q411 702 341 699 L205 699 Q118 697 59 636 Q0 575 1 476 Q36 298 243 300 Q450 302 479 196 Q478 145 442 113 Q407 81 355 80 L199 80 Q149 84 118 136 Q87 187 87 233 L1 235 Z" /><glyph glyph-name="" unicode="t" d="M247 620 Q248 432 248 278 Q247 124 248 0 L330 0 Q330 176 330 327 Q329 477 329 620 L563 620 L563 701 L-3 701 L-3 620 L247 620 Z" /><glyph glyph-name="" unicode="u" d="M87 352 L87 700 L0 700 L-2 350 Q-1 151 80 74 Q160 -3 280 0 Q399 -3 480 74 Q560 152 563 351 L563 698 L479 700 L479 351 Q477 203 422 141 Q366 78 281 80 Q196 78 142 139 Q89 200 87 348 L87 352 Z" /><glyph glyph-name="" unicode="v" d="M1 700 L248 1 L315 1 Q308 -17 348 99 Q388 214 559 700 L474 700 Q479 716 448 629 Q418 542 280 153 Q142 542 111 629 Q80 716 84 700 L1 700 Z" /><glyph glyph-name="" unicode="w" d="M149 0 L223 0 L366 550 L509 0 L583 0 L728 700 L650 700 L541 178 L397 700 L324 700 L190 180 L78 700 L0 700 L149 0 Z" /><glyph glyph-name="" unicode="x" d="M2 0 L97 0 L276 271 L454 0 L550 0 L327 340 L327 347 L563 700 L469 700 L276 420 L87 700 L-8 700 L225 347 L225 340 L2 0 Z" /><glyph glyph-name="" unicode="y" d="M235 331 Q235 212 235 142 Q235 72 235 1 L320 1 L320 331 L542 700 L457 700 L277 416 L87 700 L0 700 L235 331 Z" /><glyph glyph-name="" unicode="z" d="M0 0 Q115 0 273 0 Q430 0 557 0 L557 80 L103 80 L554 617 L554 700 L-4 700 L-4 621 Q61 621 219 620 Q377 619 448 619 Q464 635 394 551 Q323 467 0 80 L0 0 Z" /><glyph glyph-name="" unicode="i" d="M2 0 L86 -2 Q87 204 87 353 Q87 502 86 700 L0 700 Q-1 519 0 345 Q2 171 2 0 L2 0 Z" /><glyph glyph-name="" unicode="r" d="M294 299 L459 0 L552 0 L388 294 Q466 309 513 361 Q560 413 561 497 Q560 575 516 632 Q472 688 397 700 Q296 700 199 699 Q101 698 0 699 Q0 546 0 344 Q0 142 0 0 Q24 0 46 0 Q68 0 87 0 L87 299 L294 299 ZM87 382 Q87 416 87 501 Q87 585 87 620 Q191 620 280 620 Q370 620 397 620 Q443 613 462 577 Q480 541 479 494 Q479 448 459 419 Q439 389 394 379 Q349 379 226 379 Q102 380 87 382 L87 382 Z" /><glyph glyph-name="" unicode="b" d="M0 0 L87 0 L87 43 Q111 26 138 12 Q164 -1 197 -2 Q282 -2 338 59 Q395 120 397 239 Q395 360 338 420 Q282 480 197 480 Q165 479 139 462 Q112 445 87 421 L87 700 L0 620 L0 289 Q0 260 0 237 Q0 214 0 0 L0 0 ZM87 246 Q89 334 121 368 Q153 402 203 400 Q253 398 278 352 Q303 305 303 237 Q303 162 278 121 Q253 81 203 80 Q152 78 120 113 Q88 148 87 246 L87 246 Z" /><glyph glyph-name="" unicode="a" d="M314 0 L397 0 L397 480 L314 480 L314 423 Q294 447 262 463 Q230 479 197 480 Q112 482 56 427 Q-1 372 -2 239 Q1 104 57 50 Q113 -4 197 -2 Q229 -1 259 15 Q289 30 314 50 L314 0 ZM88 240 Q89 334 120 368 Q152 402 203 400 Q254 398 284 353 Q313 308 314 240 Q313 165 284 123 Q254 81 203 80 Q152 78 120 113 Q89 148 88 240 L88 240 Z" /><glyph glyph-name="" unicode="c" d="M90 237 Q91 331 121 367 Q152 402 203 400 Q237 399 262 378 Q287 356 301 319 L388 319 Q368 399 317 440 Q266 480 197 480 Q112 482 56 427 Q-1 372 -2 239 Q1 104 57 50 Q113 -4 197 -2 Q266 -2 317 39 Q369 80 389 162 L303 162 Q290 123 264 102 Q239 80 203 80 Q152 78 121 112 Q91 145 90 237 L90 237 Z" /><glyph glyph-name="" unicode="d" d="M397 0 Q397 214 397 237 Q397 260 397 289 L397 699 L308 620 L310 421 Q285 445 258 462 Q232 479 200 480 Q115 480 59 420 Q2 360 0 239 Q2 120 59 59 Q115 -2 200 -2 Q233 -1 260 12 Q286 26 310 43 L310 0 L397 0 ZM310 246 Q309 148 277 113 Q245 78 194 80 Q144 81 119 121 Q94 162 94 237 Q94 305 119 352 Q144 398 194 400 Q244 402 276 368 Q308 334 310 246 L310 246 Z" /><glyph glyph-name="" unicode="e" d="M397 246 Q393 364 337 422 Q281 480 197 480 Q112 482 56 427 Q-1 372 -2 239 Q1 104 57 50 Q113 -4 197 -2 Q266 -3 316 28 Q367 59 387 138 L301 138 Q287 101 263 85 Q239 70 204 70 Q156 69 124 104 Q92 139 87 219 L397 219 L397 246 ZM203 400 Q243 401 273 377 Q303 352 307 289 L87 289 Q97 352 129 377 Q160 401 203 400 L203 400 Z" /><glyph glyph-name="" unicode="g" d="M1 237 Q4 102 60 48 Q116 -6 200 -4 Q232 -4 264 9 Q295 23 315 51 L315 -50 Q310 -100 260 -137 Q209 -174 172 -192 L216 -263 L289 -215 Q329 -183 363 -143 Q397 -103 399 -45 L399 213 Q400 225 400 237 Q400 248 399 258 L400 478 L316 478 L317 423 Q297 449 265 464 Q233 478 200 478 Q115 480 59 425 Q2 370 1 237 L1 237 ZM87 231 Q88 325 121 363 Q155 400 206 398 Q251 397 280 360 Q309 323 315 265 L315 206 Q308 146 280 112 Q251 79 206 78 Q155 76 121 108 Q88 139 87 231 L87 231 Z" /><glyph glyph-name="" unicode="h" d="M87 0 L87 248 Q88 336 120 369 Q152 402 203 400 Q254 398 284 353 Q313 308 314 240 L314 239 L314 0 L397 0 Q396 32 397 121 Q397 210 397 239 Q395 360 338 420 Q282 480 197 480 Q165 480 137 466 Q110 452 87 423 L87 700 L0 620 Q0 307 0 226 Q0 145 0 0 L87 0 Z" /><glyph glyph-name="" unicode="k" d="M294 0 L397 0 L223 290 Q222 292 221 292 Q220 292 220 293 L220 295 L397 480 L286 480 L87 284 L87 700 L0 620 L0 0 L87 0 L87 162 L156 232 L157 227 L294 0 Z" /><glyph glyph-name="" unicode="l" d="M0 620 L0 0 L87 0 L87 700 L0 620 Z" /><glyph glyph-name="" unicode="n" d="M87 0 L87 247 Q88 335 120 369 Q152 402 203 400 Q254 398 284 353 Q313 308 314 240 L314 239 L314 0 L397 0 Q396 32 397 121 Q397 210 397 239 Q394 360 335 423 Q276 485 197 480 Q154 478 131 466 Q109 454 87 425 L87 480 L0 480 Q0 182 0 161 Q0 140 0 0 L87 0 Z" /><glyph glyph-name="" unicode="o" d="M87 237 Q88 331 120 367 Q152 402 203 400 Q254 398 283 352 Q311 305 312 237 Q311 162 283 121 Q254 81 203 80 Q152 78 120 112 Q88 145 87 237 L87 237 ZM0 240 Q2 104 58 51 Q113 -2 198 0 Q283 -2 339 51 Q395 105 397 240 Q395 372 339 427 Q283 482 198 480 Q113 482 58 427 Q2 372 0 240 L0 240 Z" /><glyph glyph-name="" unicode="p" d="M0 478 Q0 290 0 173 Q0 57 0 -219 L87 -144 L87 51 Q105 23 134 11 Q163 -2 196 -2 Q281 -2 337 58 Q394 118 396 239 Q394 358 337 419 Q281 480 196 480 Q165 481 140 468 Q115 456 87 421 L87 480 L0 480 L0 478 ZM87 239 Q88 331 119 365 Q151 400 202 398 Q253 397 280 356 Q307 314 307 239 Q307 171 280 126 Q253 80 202 78 Q152 76 121 110 Q89 144 87 239 L87 239 Z" /><glyph glyph-name="" unicode="q" d="M395 478 L308 478 L308 421 Q280 456 255 468 Q230 481 199 480 Q114 480 58 419 Q1 358 -1 239 Q1 118 58 58 Q114 -2 199 -2 Q232 -2 261 11 Q290 23 308 51 L308 -222 L396 -136 Q395 135 396 221 Q396 307 396 478 L395 478 ZM308 239 Q306 144 275 110 Q243 76 193 78 Q142 80 115 126 Q88 171 88 239 Q88 314 115 356 Q142 397 193 398 Q244 400 276 365 Q307 331 308 239 L308 239 Z" /><glyph glyph-name="" unicode="s" d="M1 161 Q-3 90 42 45 Q87 0 147 -1 L238 -1 Q291 -2 343 31 Q394 64 398 149 Q379 268 243 267 Q107 265 88 339 Q87 354 101 375 Q115 395 150 400 L234 400 Q289 396 305 363 Q322 331 320 314 L405 314 Q406 397 353 439 Q299 481 237 481 L146 481 Q85 479 43 436 Q1 392 1 324 Q25 203 162 206 Q299 208 318 137 Q316 103 290 88 Q265 73 243 73 L154 73 Q120 77 103 112 Q87 146 88 161 L1 161 Z" /><glyph glyph-name="" unicode="u" d="M313 480 L313 241 L313 240 Q310 145 276 112 Q242 78 191 80 Q140 82 111 128 Q83 173 87 244 L87 480 L0 481 Q1 449 0 358 Q0 266 0 237 Q2 117 57 58 Q113 0 197 0 Q230 0 260 14 Q291 28 313 51 L313 0 L397 0 Q399 295 398 319 Q397 342 397 481 L313 480 Z" /><glyph glyph-name="" unicode="v" d="M152 0 L242 0 Q241 -11 264 64 Q287 139 397 479 L308 479 L199 144 L87 479 L-1 479 Q-6 490 18 415 Q42 339 152 0 L152 0 Z" /><glyph glyph-name="" unicode="x" d="M142 231 Q144 236 122 200 Q100 163 0 0 L98 0 L197 171 L299 -1 L391 0 Q291 166 271 202 Q250 238 255 232 L397 480 L299 479 L197 300 L98 480 L0 480 L142 231 Z" /><glyph glyph-name="" unicode="y" d="M155 -1 L75 -238 L173 -238 L397 480 L308 480 L201 144 L93 480 L2 480 Q-3 491 21 415 Q45 340 155 -1 L155 -1 Z" /><glyph glyph-name="" unicode="z" d="M0 80 L-1 1 L398 1 L397 80 L111 80 L397 400 L397 481 L0 481 L0 400 L291 400 L0 80 Z" /><glyph glyph-name="" unicode="f" d="M82 400 L82 0 L168 0 L168 400 L273 400 L274 480 L170 480 Q166 591 183 630 Q201 670 270 672 L270 750 Q189 756 137 718 Q84 679 82 599 L82 480 L0 480 L0 400 L82 400 Z" /><glyph glyph-name="" unicode="i" d="M-1 481 L-1 -1 L87 0 L87 481 L-1 481 ZM14 567 Q13 566 22 565 Q31 565 65 565 Q71 565 76 571 Q82 577 82 584 L82 634 Q82 640 76 646 Q71 652 65 652 L18 652 Q11 652 5 646 Q-1 640 -1 634 L-1 584 Q-1 579 4 574 Q8 570 14 567 L14 567 Z" /><glyph glyph-name="" unicode="j" d="M-134 -186 L-134 -189 L-96 -252 Q-95 -253 -94 -254 Q-93 -254 -92 -254 Q-45 -250 18 -190 Q81 -129 87 -63 L87 481 L0 481 L0 -47 Q1 -74 -29 -109 Q-59 -144 -132 -184 Q-133 -185 -134 -185 Q-134 -186 -134 -186 L-134 -186 ZM14 567 Q13 566 22 565 Q31 565 65 565 Q71 565 76 571 Q82 577 82 584 L82 634 Q82 640 76 646 Q71 652 65 652 L18 652 Q11 652 5 646 Q-1 640 -1 634 L-1 584 Q-1 579 4 574 Q8 570 14 567 L14 567 Z" /><glyph glyph-name="" unicode="r" d="M87 0 L87 247 Q89 335 121 369 Q153 402 203 400 Q224 400 241 391 Q259 382 273 367 L340 418 Q312 449 276 464 Q239 480 197 480 Q159 479 131 463 Q103 446 87 421 L87 481 L0 481 Q0 197 0 177 Q0 157 0 0 L87 0 Z" /><glyph glyph-name="" unicode="t" d="M76 400 L76 132 Q82 51 145 23 Q209 -4 265 -2 L266 80 Q227 79 196 97 Q165 116 163 167 L163 400 L241 400 L241 480 L163 480 L163 701 L76 620 L76 480 L-7 480 L-7 400 L76 400 Z" /><glyph glyph-name="" unicode="m" d="M87 0 L87 247 Q88 335 120 369 Q152 402 203 400 Q254 398 284 353 Q313 308 314 240 L314 0 L397 0 Q396 32 397 121 Q397 210 397 239 Q397 251 396 263 Q400 343 432 373 Q464 403 512 401 Q563 399 593 354 Q622 309 623 241 L623 1 L706 1 Q705 33 706 122 Q706 211 706 240 Q703 361 644 424 Q585 486 506 481 Q462 480 430 464 Q398 448 370 400 Q341 448 294 466 Q246 484 197 480 Q154 478 131 466 Q109 454 87 425 L87 480 L0 480 Q0 181 0 160 Q0 139 0 0 L87 0 Z" /><glyph glyph-name="" unicode="w" d="M142 1 L224 1 Q224 -4 239 49 Q255 101 328 343 L433 1 L514 1 Q512 -8 534 66 Q556 139 658 479 L572 479 L472 145 L372 479 L284 479 L184 145 L84 479 L0 479 Q-4 491 18 416 Q40 340 142 1 L142 1 Z" /><glyph glyph-name="" unicode="0" d="M203 1 Q275 2 338 50 Q401 97 405 183 L405 517 Q402 586 351 642 Q301 698 237 701 L167 701 Q103 698 53 641 Q4 585 1 515 L1 187 Q5 100 68 51 Q130 2 203 1 L203 1 ZM203 621 Q250 620 288 588 Q326 556 328 502 L328 202 Q326 147 288 116 Q250 84 203 83 Q155 84 118 116 Q80 148 78 205 L78 500 Q80 555 118 588 Q155 620 203 621 L203 621 Z" /><glyph glyph-name="" unicode="1" d="M104 79 L104 -2 L392 -2 L392 79 L287 79 L287 701 L204 701 L115 582 L115 575 Q123 569 141 553 Q159 536 167 530 Q169 530 171 529 Q173 528 174 528 Q184 538 192 550 Q199 563 209 574 L209 79 L104 79 Z" /><glyph glyph-name="" unicode="2" d="M-1 0 L407 0 L407 84 L115 84 L367 400 Q387 426 397 457 Q407 488 407 521 Q404 607 349 652 Q294 697 221 697 Q128 696 65 635 Q2 574 -1 468 L71 468 Q77 540 116 579 Q155 618 221 619 Q265 619 297 595 Q329 570 331 518 Q331 501 325 483 Q320 466 309 451 Q84 171 39 120 Q-6 70 0 80 L-1 0 Z" /><glyph glyph-name="" unicode="3" d="M0 158 L0 55 Q9 31 79 16 Q148 1 172 1 Q269 1 335 56 Q401 110 404 222 Q402 294 359 340 Q316 385 251 401 L407 614 L407 697 L-1 697 L-1 616 L313 616 L157 394 L124 339 Q126 339 150 339 Q173 338 190 336 Q248 327 285 300 Q322 273 323 213 Q320 145 273 112 Q225 80 169 80 Q138 79 103 84 Q67 89 42 113 L0 158 Z" /><glyph glyph-name="" unicode="4" d="M266 -1 L342 -1 L342 247 L408 247 L408 330 L342 330 L342 701 L269 701 Q276 709 233 651 Q190 594 0 334 L0 247 L266 247 L266 -1 ZM266 567 L266 330 L90 330 L266 567 Z" /><glyph glyph-name="" unicode="5" d="M323 209 Q327 199 305 143 Q284 88 165 80 Q134 79 98 87 Q61 95 35 119 L0 154 L0 51 Q9 27 79 13 Q148 -2 172 -2 Q265 -2 329 49 Q392 100 404 205 L407 237 Q401 316 363 373 Q324 430 251 433 L87 433 L87 620 L397 620 L397 699 L0 697 L0 358 L231 356 Q273 353 297 317 Q320 282 323 242 L323 209 Z" /><glyph glyph-name="" unicode="6" d="M3 216 Q5 124 62 63 Q120 1 205 -1 Q291 2 348 64 Q406 126 408 218 Q405 333 339 382 Q273 431 177 421 Q173 417 196 464 Q220 512 323 701 L235 701 L30 326 Q15 301 9 273 Q3 245 3 216 L3 216 ZM90 211 Q91 265 124 300 Q157 335 207 336 Q255 335 288 299 Q321 264 322 211 Q321 159 287 124 Q254 89 205 88 Q156 89 124 124 Q91 159 90 211 L90 211 Z" /><glyph glyph-name="" unicode="7" d="M0 0 L85 0 L402 619 L404 621 L404 702 L10 702 L10 619 L315 619 L0 0 Z" /><glyph glyph-name="" unicode="8" d="M0 198 Q2 126 49 67 Q97 8 170 5 L237 5 Q312 9 358 69 Q404 128 405 198 Q405 246 386 285 Q367 324 334 358 Q369 397 378 426 Q387 455 386 497 Q385 589 338 639 Q290 688 208 689 Q125 688 73 640 Q21 591 19 505 Q18 459 30 422 Q42 385 75 355 Q41 325 21 285 Q0 245 0 198 L0 198 ZM87 197 Q88 251 122 280 Q156 309 205 309 Q255 309 291 279 Q327 250 329 197 Q327 144 291 116 Q255 88 205 88 Q156 88 122 116 Q88 144 87 197 L87 197 ZM99 511 Q102 566 135 588 Q168 609 202 608 Q252 608 282 585 Q313 562 314 511 Q313 458 282 431 Q252 404 202 404 Q154 404 127 431 Q100 458 99 511 L99 511 Z" /><glyph glyph-name="" unicode="9" d="M408 484 Q406 576 349 637 Q291 699 206 701 Q120 698 63 636 Q5 574 3 482 Q6 367 72 318 Q138 269 234 279 Q238 283 215 236 Q191 188 88 -1 L176 -1 L381 374 Q396 399 402 427 Q408 455 408 484 L408 484 ZM321 489 Q320 435 287 400 Q254 365 204 364 Q156 365 123 401 Q90 436 89 489 Q90 541 124 576 Q157 611 206 612 Q255 611 287 576 Q320 541 321 489 L321 489 Z" /><glyph glyph-name="" unicode="!" d="M7 1 Q7 0 10 -1 Q12 -1 12 -1 L64 -1 Q69 0 74 5 Q80 11 80 15 L80 61 Q80 67 74 72 Q69 77 64 77 L12 77 Q6 77 2 72 Q-3 67 -3 61 L-3 15 Q-3 11 1 7 Q4 3 7 1 L7 1 ZM-1 701 L-1 177 L81 177 L81 701 L-1 701 Z" /><glyph glyph-name="" unicode="&quot;" d="M24 635 Q23 650 25 657 Q27 665 41 675 L41 699 Q25 699 12 689 Q0 679 -1 662 L-1 569 Q-1 562 4 555 Q8 548 17 548 L64 548 Q71 548 76 555 Q82 562 82 569 L82 614 Q81 623 75 629 Q69 635 64 635 L24 635 ZM151 635 Q150 650 152 658 Q153 666 162 675 L162 701 Q151 700 138 691 Q124 681 123 668 L123 564 Q123 558 129 553 Q135 548 141 548 L188 548 Q194 548 200 553 Q206 558 206 564 L206 619 Q206 625 200 630 Q194 635 188 635 L151 635 Z" /><glyph glyph-name="" unicode="#" d="M88 219 L88 125 L173 125 L173 219 L277 219 L277 125 L365 125 L365 219 L459 219 L459 308 L365 308 L365 411 L459 411 L459 500 L365 500 L365 592 L277 592 L277 500 L173 500 L173 592 L88 592 L88 500 L0 500 L0 411 L86 411 L86 308 L0 308 L0 219 L88 219 ZM176 411 L277 411 L277 308 L176 308 L176 411 Z" /><glyph glyph-name="" unicode="$" d="M173 0 L173 -52 L253 -52 L253 0 L310 0 L310 -52 L392 -52 L392 0 L394 2 Q465 21 512 68 Q559 115 561 196 Q559 273 512 324 Q465 375 392 389 L392 616 Q434 614 459 580 Q484 547 487 507 L566 507 Q564 585 515 637 Q465 690 392 701 L392 751 L310 751 L310 703 L253 703 L253 751 L173 751 L173 701 Q98 688 52 636 Q5 585 4 507 Q5 429 52 378 Q98 326 171 313 L171 85 Q140 86 117 108 Q94 130 84 159 Q82 162 80 174 Q77 185 75 187 L-3 187 Q-1 110 50 63 Q100 15 173 0 L173 0 ZM392 307 L394 307 Q432 304 457 268 Q482 232 483 196 Q482 156 457 123 Q432 91 392 85 L392 307 ZM82 507 Q83 548 107 578 Q132 607 171 616 L171 396 Q132 398 107 434 Q83 469 82 507 L82 507 ZM253 311 L309 311 L309 85 L253 85 L253 311 ZM253 616 L309 616 L309 392 L253 392 L253 616 Z" /><glyph glyph-name="" unicode="%" d="M392 699 L77 -1 L163 -1 L476 699 L392 699 ZM3 533 Q4 482 37 449 Q69 415 118 414 Q166 415 198 449 Q231 482 232 533 Q231 583 199 612 Q167 640 119 641 Q70 640 37 612 Q4 583 3 533 L3 533 ZM67 528 Q67 547 82 562 Q96 576 118 577 Q140 576 154 562 Q168 547 168 528 Q168 507 154 494 Q140 480 118 480 Q96 480 82 494 Q67 507 67 528 L67 528 ZM309 168 Q310 117 343 84 Q375 50 424 49 Q472 50 504 84 Q537 117 538 168 Q537 218 505 247 Q473 275 425 276 Q376 275 343 247 Q310 218 309 168 L309 168 ZM373 163 Q373 182 388 197 Q402 211 424 212 Q446 211 460 197 Q474 182 474 163 Q474 142 460 129 Q446 115 424 115 Q402 115 388 129 Q373 142 373 163 L373 163 Z" /><glyph glyph-name="" unicode="&amp;" d="M-2 215 Q2 107 76 54 Q150 2 248 2 Q281 2 314 7 Q347 11 377 26 Q387 31 410 45 Q433 59 441 61 L443 61 Q453 50 464 32 Q474 14 484 12 L580 12 L580 14 Q579 15 574 22 Q568 29 564 35 Q555 47 534 73 Q512 99 503 110 Q501 111 500 113 Q499 115 499 117 L499 119 Q519 158 530 202 Q540 247 540 292 L467 292 Q466 267 461 236 Q457 204 445 182 L441 186 L247 427 L243 431 L243 432 Q270 461 294 498 Q319 535 321 576 Q320 631 284 666 Q248 701 196 702 Q142 701 103 670 Q64 638 62 581 Q67 529 99 488 Q131 448 136 437 L41 340 Q18 316 8 281 Q-2 247 -2 215 L-2 215 ZM74 213 Q74 232 80 254 Q86 277 99 292 L187 377 L389 129 L393 122 Q361 98 324 89 Q287 80 247 80 Q182 79 130 109 Q77 140 74 213 L74 213 ZM137 581 Q142 605 162 616 Q181 626 196 626 Q216 626 231 612 Q246 598 247 576 Q245 553 226 530 Q207 507 192 494 Q177 497 158 530 Q139 562 137 581 L137 581 Z" /><glyph glyph-name="" unicode="(" d="M183 751 Q109 749 56 701 Q3 652 -3 575 L-3 137 Q6 61 59 15 Q113 -31 184 -32 L184 59 Q144 74 114 108 Q84 142 83 188 L83 539 Q84 581 114 616 Q143 650 183 660 L183 751 Z" /><glyph glyph-name="" unicode=")" d="M6 656 Q45 646 74 612 Q103 578 104 536 L104 186 Q103 140 74 107 Q45 73 5 58 L5 -33 Q75 -32 127 14 Q179 60 188 135 L188 572 Q182 649 130 697 Q79 745 6 747 L6 656 Z" /><glyph glyph-name="" unicode="*" d="M38 439 L95 399 Q97 398 98 397 Q100 397 100 397 Q101 397 103 399 Q104 401 107 404 L162 480 L219 400 Q221 399 222 398 Q224 397 224 397 Q224 397 225 397 Q226 398 227 399 L277 434 Q279 437 280 438 Q282 440 282 442 L282 443 L227 518 Q226 520 226 521 Q226 521 226 522 L226 525 L318 554 Q319 555 320 556 Q320 557 320 559 L320 560 L301 628 L192 595 L192 702 L115 700 L115 597 L30 624 L29 624 Q29 624 27 624 Q25 623 25 621 L4 556 Q4 555 5 554 Q6 554 8 554 L100 522 L38 439 Z" /><glyph glyph-name="" unicode="+" d="M182 328 L182 150 L264 150 L264 328 L442 328 L442 413 L264 413 L264 594 L182 594 L182 413 L1 413 L1 328 L182 328 Z" /><glyph glyph-name="" unicode="-" d="M-1 369 L-1 294 L409 294 L409 369 L-1 369 Z" /><glyph glyph-name="" unicode="," d="M37 -39 L37 -66 Q53 -65 66 -54 Q78 -42 79 -25 L79 72 Q77 87 62 90 Q47 94 37 93 Q28 94 13 90 Q-2 87 -4 72 L-4 22 Q-4 15 1 10 Q6 6 11 3 L53 3 Q54 -12 51 -21 Q49 -29 37 -39 L37 -39 Z" /><glyph glyph-name="" unicode="." d="M10 -1 L14 -3 L66 -3 Q71 -2 76 3 Q81 8 81 11 L81 75 Q81 79 76 85 Q71 90 66 91 L14 91 Q11 90 7 85 Q2 79 2 75 L2 11 Q2 11 2 10 Q3 9 4 7 L10 -1 Z" /><glyph glyph-name="" unicode="/" d="M314 700 L-1 0 L85 0 L398 700 L314 700 Z" /><glyph glyph-name="" unicode=":" d="M10 362 Q10 361 12 360 Q14 360 14 360 L64 360 Q70 360 75 365 Q80 370 80 376 L80 434 Q80 440 75 445 Q70 451 64 451 L14 451 Q9 451 4 445 Q-1 440 -1 434 L-1 376 Q-1 371 3 367 Q7 364 10 362 L10 362 ZM8 23 Q8 22 10 21 Q12 21 12 21 L66 21 Q70 21 75 26 Q80 31 80 35 L80 96 Q80 100 75 105 Q70 110 66 110 L12 110 Q7 110 3 105 Q-1 100 -1 96 L-1 30 Q1 30 4 27 Q6 23 8 23 L8 23 Z" /><glyph glyph-name="" unicode=";" d="M42 -17 L42 -47 Q54 -47 67 -37 Q80 -27 81 -12 L81 97 Q79 110 64 112 Q48 115 40 114 Q34 115 18 112 Q3 110 1 97 L1 37 Q1 32 6 28 Q10 23 14 23 L57 23 Q57 9 54 -1 Q51 -11 42 -17 L42 -17 ZM9 356 Q9 355 12 354 Q14 354 14 354 L63 354 Q69 354 75 360 Q81 365 81 370 L81 428 Q81 434 75 440 Q69 445 63 445 L14 445 Q8 445 4 440 Q-1 434 -1 428 L-1 370 Q-1 366 3 362 Q6 359 9 356 L9 356 Z" /><glyph glyph-name="" unicode="&lt;" d="M0 333 Q0 330 0 330 Q0 329 1 329 L397 93 L397 176 L141 329 L142 334 L397 488 L397 572 L1 334 Q0 334 0 334 Q0 333 0 333 L0 333 Z" /><glyph glyph-name="" unicode="&gt;" d="M2 177 L2 92 L405 326 Q407 326 409 328 Q411 329 412 331 L408 335 L2 566 L2 483 L266 331 L266 327 L2 177 Z" /><glyph glyph-name="" unicode="=" d="M-2 297 L-2 220 L407 220 L407 297 L-2 297 ZM-2 361 L407 361 L407 441 L-2 441 L-2 361 Z" /><glyph glyph-name="" unicode="?" d="M245 237 Q245 222 246 206 Q247 191 247 177 L322 177 L322 239 Q323 256 335 265 Q348 274 366 273 Q442 272 485 317 Q527 362 528 426 L528 532 Q531 576 494 636 Q456 696 346 702 L225 702 Q147 705 73 665 Q-1 624 0 501 Q4 486 18 473 Q31 461 44 459 Q57 459 71 473 Q86 486 87 501 Q84 551 110 585 Q136 619 225 620 L343 620 Q376 622 411 598 Q445 574 448 497 Q455 413 426 382 Q397 352 366 354 Q314 353 280 321 Q246 290 245 237 L245 237 ZM255 2 Q255 1 256 0 Q257 0 257 0 L309 0 Q312 0 317 5 Q322 10 322 13 L322 66 Q322 70 317 75 Q312 80 309 80 L257 80 Q254 80 250 75 Q245 70 245 66 L245 13 L247 9 Q249 9 251 6 Q253 2 255 2 L255 2 Z" /><glyph glyph-name="" unicode="@" d="M557 22 Q614 34 634 80 Q655 126 654 183 L654 540 Q652 600 607 649 Q563 698 505 701 L145 701 Q88 698 44 649 Q-1 600 -3 540 L-3 160 Q-1 99 44 50 Q88 2 147 -1 L331 -1 L331 78 L165 78 Q130 80 103 109 Q75 138 74 174 L74 528 Q76 564 103 592 Q130 620 164 622 L494 622 Q525 620 554 594 Q582 567 584 533 L584 158 Q585 132 575 112 Q565 92 537 91 Q515 91 496 105 Q477 120 476 146 L476 548 L415 548 L415 533 Q404 534 392 541 Q379 547 365 548 L257 548 Q214 546 182 509 Q151 472 149 427 L149 268 Q153 199 204 172 Q255 145 312 146 Q339 145 364 148 Q389 151 415 164 Q416 101 445 62 Q474 23 535 22 L557 22 ZM312 203 Q277 203 247 223 Q217 244 215 284 L215 411 Q216 438 238 463 Q259 487 284 489 L338 489 Q363 488 385 464 Q407 441 408 413 L408 280 Q406 242 375 222 Q345 203 312 203 L312 203 Z" /><glyph glyph-name="" unicode="[" d="M1 700 L1 0 L182 0 L182 82 L82 82 L82 619 L182 619 L183 700 L1 700 Z" /><glyph glyph-name="" unicode="\" d="M-2 700 L307 0 L390 0 L83 700 L-2 700 Z" /><glyph glyph-name="" unicode="]" d="M-1 82 L-1 1 L168 1 L168 700 L1 700 L1 621 L89 621 L89 82 L-1 82 Z" /><glyph glyph-name="" unicode="^" d="M68 478 L145 478 L200 573 L255 478 L330 478 L330 479 Q330 480 329 483 Q328 485 326 486 L201 703 L68 478 Z" /><glyph glyph-name="" unicode="_" d="M0 0 L0 -71 L559 -71 L559 0 L0 0 Z" /><glyph glyph-name="" unicode="{" d="M149 282 L149 134 Q153 57 210 10 Q267 -38 332 -39 L332 53 Q332 53 332 55 Q331 56 329 56 Q291 72 263 105 Q234 137 232 186 L232 342 L199 359 L232 377 L232 537 Q234 580 264 615 Q293 649 329 659 L329 753 Q262 752 207 703 Q152 654 149 574 L149 437 L-4 357 L149 282 Z" /><glyph glyph-name="" unicode="|" d="M-1 748 L-1 -48 L80 -48 L80 748 L-1 748 Z" /><glyph glyph-name="" unicode="}" d="M92 344 L92 191 Q91 161 79 136 Q66 110 47 92 Q41 86 21 74 Q1 61 -2 60 L-2 -30 Q59 -29 114 18 Q168 64 172 139 L172 287 L315 364 L172 440 L172 577 Q169 654 116 702 Q63 750 0 751 L0 660 Q34 650 62 615 Q90 581 92 539 L92 381 L124 364 L92 344 Z" /><glyph glyph-name="" unicode="~" d="M158 324 Q219 318 268 273 Q316 228 382 222 Q427 224 485 258 Q543 293 549 341 L478 386 L476 386 Q468 381 441 349 Q414 316 380 311 Q324 318 277 364 Q230 409 158 416 Q127 414 65 389 Q3 363 0 332 Q0 332 3 329 Q6 326 8 326 L67 277 L71 277 Q89 296 110 310 Q132 323 158 324 L158 324 Z" /><glyph glyph-name="" unicode="û&#x20ac;" d="M150 221 Q154 141 200 72 Q246 3 337 -1 L530 -1 Q608 3 660 63 Q712 124 714 197 L631 197 Q631 197 630 197 Q629 196 629 195 Q613 151 580 117 Q548 82 497 80 L368 80 Q311 82 275 125 Q238 167 237 221 L350 221 L350 303 L237 303 L237 366 L350 366 L350 448 L237 448 L237 496 Q240 545 279 582 Q319 618 366 620 L500 620 Q549 618 583 582 Q618 545 631 502 L714 502 Q712 580 658 640 Q605 700 523 703 L344 703 Q239 698 195 619 Q150 539 150 448 L31 448 L31 366 L150 366 L150 303 L31 303 L31 221 L150 221 Z" /><glyph glyph-name="" unicode="¥´" d="M102 297 L102 220 L244 220 L244 200 Q244 172 245 102 Q246 32 246 2 L321 2 L321 220 L511 220 L511 297 L321 297 L321 333 L339 361 L511 361 L511 441 L389 441 L555 702 L465 702 L297 441 L267 441 L103 702 L11 702 L175 441 L102 441 L102 361 L226 361 L241 337 L244 335 L244 297 L102 297 Z" /><glyph glyph-name="" unicode="ô&#x2018;" d="M45 540 Q55 539 71 543 Q86 546 88 561 L88 612 Q88 621 83 625 Q78 629 72 632 L28 632 Q28 648 30 657 Q32 666 42 676 L42 704 Q28 703 15 691 Q2 679 1 662 L1 561 Q3 546 19 543 Q34 539 45 540 L45 540 Z" /><glyph glyph-name="" unicode="&#39;" d="M40 699 Q31 700 16 697 Q1 694 -1 679 L-1 632 Q-1 623 4 620 Q8 616 13 613 L53 613 Q53 599 51 590 Q49 582 40 572 L40 548 Q54 548 66 559 Q77 570 78 585 L79 677 Q78 692 64 696 Q49 700 40 699 L40 699 Z" /><glyph glyph-name="" unicode="õ&#x2019;" d="M42 570 L42 542 Q55 542 69 552 Q83 562 84 577 L84 680 Q84 686 78 691 Q73 697 68 697 L14 697 Q8 697 4 691 Q-1 686 -1 680 L-1 626 Q-1 619 5 613 Q10 606 14 606 L55 606 Q56 592 55 585 Q53 578 42 570 L42 570 Z" /><glyph glyph-name="" unicode="`" d="M4 643 L207 540 L238 602 L35 705 L4 643 Z" /><glyph glyph-name="" unicode="ò&#x201c;" d="M26 637 Q25 651 28 658 Q30 665 41 675 L41 701 Q27 701 14 692 Q2 682 1 665 L1 571 Q1 562 6 556 Q11 549 18 549 L66 549 Q71 549 76 556 Q81 562 81 571 L81 615 Q81 624 75 631 Q70 637 66 637 L26 637 ZM145 637 Q145 652 146 660 Q147 668 155 675 L155 706 Q145 705 132 695 Q118 684 117 669 L117 565 Q117 559 123 554 Q128 549 133 549 L179 549 Q185 549 189 554 Q194 559 194 565 L194 620 Q194 626 189 632 Q185 637 179 637 L145 637 Z" /><glyph glyph-name="" unicode="ð&#x2013;" d="M-1 361 L-1 292 L557 292 L557 361 L-1 361 Z" /><glyph glyph-name="" unicode="ñ&#x2014;" d="M-2 361 L-2 292 L662 292 L662 361 L-2 361 Z" /><glyph glyph-name="" unicode="ó&#x201d;" d="M45 575 L45 553 Q59 553 71 563 Q82 573 83 588 L83 683 Q81 697 67 699 Q53 701 45 700 Q35 701 19 699 Q4 697 2 683 L2 634 Q3 627 8 623 Q14 619 18 615 L59 615 Q59 603 57 594 Q55 584 45 575 L45 575 ZM161 578 L161 553 Q174 553 187 562 Q199 570 200 584 L200 685 Q198 698 182 699 Q166 701 159 700 Q153 701 138 699 Q123 698 121 685 L121 630 Q121 628 126 622 Q130 616 133 615 L177 615 Q177 602 174 594 Q171 585 161 578 L161 578 Z" /><glyph glyph-name="" unicode="&#x2022;" d="M114 300 Q115 262 140 238 Q166 214 204 213 Q242 214 268 238 Q293 262 294 300 Q293 338 268 362 Q242 387 204 388 Q166 387 140 362 Q115 338 114 300 L114 300 Z" /></font>
</defs>
</svg>
