<?xml version="1.0" standalone="no"?><!DOCTYPE svg PUBLIC "-//W3C//DTD SVG 1.1//EN" "http://www.w3.org/Graphics/SVG/1.1/DTD/svg11.dtd" ><svg xmlns="http://www.w3.org/2000/svg"><metadata></metadata><defs><font id="FONTLAB:OTFEXPORT" horiz-adv-x="818"><font-face font-family="Elliptica" font-weight="400" font-stretch="normal" units-per-em="1000" panose-1="0 0 0 0 0 0 0 0 0 0" ascent="750" descent="-250" x-height="0" bbox="-134 -263 728 756" underline-thickness="50" underline-position="-75" unicode-range="U+0009-20ac" /><missing-glyph horiz-adv-x="500"  /><glyph glyph-name="" unicode=" " d="" /><glyph glyph-name="" unicode="a" d="M3 0 l84 0 l90 257 l206 0 l91 -257 l85 0 q-170 486 -209 603 q-40 117 -33 98 l-68 0 l-246 -701 ZM280 548 l75 -209 l-148 0 l73 209 Z" /><glyph glyph-name="" unicode="b" d="M0 0 q109 0 207 0 q98 -1 190 2 q73 14 114 68 q41 54 42 131 q0 47 -17 88 q-17 40 -49 72 l0 1 q28 29 47 66 q18 38 19 80 q-3 96 -63 145 q-61 48 -145 48 q-92 0 -212 0 q-121 -1 -132 -1 q0 -188 0 -361 q0 -173 -1 -339 l0 0 ZM87 319 q96 0 147 0 q51 0 157 0 q44 -12 66 -42 q21 -29 21 -76 q0 -43 -18 -78 q-19 -35 -63 -43 q-41 0 -115 0 q-75 0 -195 0 q0 34 0 116 q0 82 0 123 l0 0 ZM87 620 l300 0 q43 -7 65 -39 q21 -31 21 -73 l0 -30 q-9 -31 -34 -50 q-25 -19 -56 -28 q-69 0 -144 1 q-75 0 -152 0 l0 219 Z" /><glyph glyph-name="" unicode="c" d="M94 348 q1 138 52 205 q50 67 135 67 q61 0 109 -33 q47 -34 72 -107 l86 0 q-28 123 -100 173 q-72 50 -168 48 q-119 3 -197 -74 q-78 -78 -83 -277 q1 -199 81 -276 q80 -77 199 -74 q97 -2 169 48 q71 49 99 173 l-81 0 q-24 -76 -74 -109 q-49 -33 -112 -32 q-85 -2 -135 59 q-51 61 -52 209 l0 0 Z" /><glyph glyph-name="" unicode="d" d="M0 0 l316 -1 q52 -6 146 33 q95 38 115 186 l1 248 q-18 129 -88 179 q-69 50 -157 53 l-333 3 l0 -701 ZM87 620 l243 -3 q40 3 97 -31 q56 -35 66 -122 l0 -247 q-12 -76 -61 -109 q-48 -33 -116 -31 l-229 3 l0 540 Z" /><glyph glyph-name="" unicode="e" d="M-1 699 l0 -696 l1 -2 q143 -1 284 -1 q141 0 279 0 l0 81 q-117 1 -234 0 q-118 -1 -242 -1 l0 219 l300 0 l0 82 l-300 -3 l0 242 q121 0 240 0 q118 0 236 0 l-3 79 q-52 0 -290 0 q-238 1 -271 0 l0 0 ZM563 700 q8 0 5 0 q-2 -1 -5 0 l0 0 Z" /><glyph glyph-name="" unicode="f" d="M0 0 l87 0 l0 299 l310 0 l0 89 l-310 -2 l0 234 q151 0 264 1 q113 1 212 0 l0 79 q-130 -1 -336 -1 q-205 0 -227 1 q0 -93 0 -316 q0 -223 0 -317 l0 -67 Z" /><glyph glyph-name="" unicode="g" d="M300 300 l175 0 q-9 -121 -62 -171 q-54 -51 -132 -49 q-85 -2 -139 58 q-53 59 -55 207 q2 139 55 207 q54 68 139 68 q57 0 101 -29 q44 -29 69 -91 l92 0 q-31 112 -101 157 q-70 46 -162 44 q-119 3 -197 -74 q-78 -78 -83 -277 q1 -199 81 -276 q80 -77 199 -74 q111 -3 188 64 q77 66 92 236 l0 77 l-260 0 l0 -77 Z" /><glyph glyph-name="" unicode="h" d="M1 701 q-3 -178 -1 -352 q1 -175 1 -349 l86 -2 l0 293 l392 0 l0 -291 l84 -2 q-2 172 -1 353 q1 181 1 349 l-84 0 l0 -323 q-83 -1 -160 0 q-78 1 -232 0 q-1 84 0 165 q0 81 0 159 l-86 0 Z" /><glyph glyph-name="" unicode="j" d="M1 187 q2 -71 47 -128 q45 -57 110 -60 l93 0 q65 3 110 61 q45 58 47 130 q0 126 -1 258 q0 132 1 252 l-82 0 q0 -219 0 -442 q2 -81 -26 -129 q-27 -49 -102 -50 q-48 0 -74 28 q-26 28 -37 80 l-86 0 Z" /><glyph glyph-name="" unicode="k" d="M455 0 l98 0 l-283 416 l274 284 l-108 0 l-349 -349 l0 349 q-23 0 -45 0 q-22 0 -42 0 q-1 -53 -1 -243 q1 -191 1 -457 q24 -1 45 -2 q22 0 42 0 l0 228 l123 129 q-5 11 33 -44 q38 -55 212 -311 l0 0 Z" /><glyph glyph-name="" unicode="l" d="M416 0 l0 87 l-329 1 l0 612 l-87 0 q-1 -406 -1 -557 q1 -151 1 -143 l416 0 Z" /><glyph glyph-name="" unicode="m" d="M-1 699 q1 -178 1 -355 q0 -176 0 -344 l87 0 q0 95 0 210 q0 115 0 293 l197 -500 q0 0 0 -2 q1 -2 2 -2 l86 0 q2 0 3 2 q1 2 1 2 l207 502 l0 -505 l76 0 l1 163 q0 79 0 268 q-1 190 -1 268 l-83 -1 q-7 -15 -86 -209 q-78 -194 -162 -388 l-231 595 q-1 3 -20 3 q-20 0 -78 0 l0 0 Z" /><glyph glyph-name="" unicode="n" d="M487 0 q19 0 38 0 q18 0 38 0 q0 189 0 362 q0 172 0 338 l-84 0 q0 -187 0 -312 q0 -125 0 -233 q-280 393 -341 477 q-62 84 -56 67 l-82 0 q0 -174 0 -351 q0 -176 0 -348 l86 0 q0 144 0 344 q0 200 -1 223 l402 -567 Z" /><glyph glyph-name="" unicode="o" d="M0 350 q1 -199 81 -276 q80 -77 199 -74 q119 -3 198 74 q79 77 82 276 q-3 199 -82 277 q-79 77 -198 74 q-119 3 -197 -74 q-78 -78 -83 -277 l0 0 ZM87 345 q2 139 55 207 q54 68 139 68 q85 1 139 -64 q53 -65 57 -209 q0 -148 -55 -208 q-56 -61 -141 -59 q-85 -2 -139 58 q-53 59 -55 207 l0 0 Z" /><glyph glyph-name="" unicode="p" d="M0 0 l87 0 l0 299 l303 -3 q75 3 120 65 q44 63 45 137 q-1 78 -44 133 q-43 56 -117 67 q-98 0 -195 1 q-96 1 -199 1 q1 -181 0 -355 q0 -174 0 -345 l0 0 ZM87 379 q-2 33 -1 119 q2 86 2 122 q99 0 186 0 q87 0 114 0 q47 -7 65 -39 q19 -32 18 -79 q1 -47 -18 -80 q-18 -33 -63 -43 q-73 0 -170 0 q-97 0 -133 0 l0 0 Z" /><glyph glyph-name="" unicode="q" d="M0 350 q1 -199 81 -276 q80 -77 199 -74 q33 0 64 5 q30 5 58 16 l60 -79 l64 43 l-58 79 q43 39 67 109 q25 70 25 177 q-3 199 -82 277 q-79 77 -198 74 q-119 3 -197 -74 q-78 -78 -83 -277 l0 0 ZM291 169 l59 -79 q-33 -10 -69 -10 q-85 -2 -139 60 q-53 62 -55 210 q2 138 55 204 q54 66 139 66 q85 1 140 -63 q54 -63 58 -207 q1 -79 -15 -132 q-15 -54 -46 -85 l-61 85 l-66 -49 Z" /><glyph glyph-name="" unicode="s" d="M1 235 q-6 -105 59 -169 q65 -64 151 -66 l132 0 q77 -3 150 39 q74 43 79 167 q-30 176 -242 171 q-213 -6 -243 104 q-5 19 11 71 q15 52 115 68 l103 0 q61 4 106 -20 q44 -24 57 -119 l84 0 q-10 127 -81 174 q-71 47 -141 44 l-136 0 q-87 -2 -146 -63 q-59 -61 -58 -160 q35 -178 242 -176 q207 2 236 -104 q-1 -51 -37 -83 q-35 -32 -87 -33 l-156 0 q-50 4 -81 56 q-31 51 -31 97 l-86 2 Z" /><glyph glyph-name="" unicode="t" d="M247 620 q1 -188 1 -342 q-1 -154 0 -278 l82 0 q0 176 0 327 q-1 150 -1 293 l234 0 l0 81 l-566 0 l0 -81 l250 0 Z" /><glyph glyph-name="" unicode="u" d="M87 352 l0 348 l-87 0 l-2 -350 q1 -199 82 -276 q80 -77 200 -74 q119 -3 200 74 q80 78 83 277 l0 347 l-84 2 l0 -349 q-2 -148 -57 -210 q-56 -63 -141 -61 q-85 -2 -139 59 q-53 61 -55 209 l0 4 Z" /><glyph glyph-name="" unicode="v" d="M1 700 l247 -699 l67 0 q-7 -18 33 98 q40 115 211 601 l-85 0 q5 16 -26 -71 q-30 -87 -168 -476 q-138 389 -169 476 q-31 87 -27 71 l-83 0 Z" /><glyph glyph-name="" unicode="w" d="M149 0 l74 0 l143 550 l143 -550 l74 0 l145 700 l-78 0 l-109 -522 l-144 522 l-73 0 l-134 -520 l-112 520 l-78 0 l149 -700 Z" /><glyph glyph-name="" unicode="x" d="M2 0 l95 0 l179 271 l178 -271 l96 0 l-223 340 l0 7 l236 353 l-94 0 l-193 -280 l-189 280 l-95 0 l233 -353 l0 -7 l-223 -340 Z" /><glyph glyph-name="" unicode="y" d="M235 331 q0 -119 0 -189 q0 -70 0 -141 l85 0 l0 330 l222 369 l-85 0 l-180 -284 l-190 284 l-87 0 l235 -369 Z" /><glyph glyph-name="" unicode="z" d="M0 0 q115 0 273 0 q157 0 284 0 l0 80 l-454 0 l451 537 l0 83 l-558 0 l0 -79 q65 0 223 -1 q158 -1 229 -1 q16 16 -54 -68 q-71 -84 -394 -471 l0 -80 Z" /><glyph glyph-name="" unicode="i" d="M2 0 l84 -2 q1 206 1 355 q0 149 -1 347 l-86 0 q-1 -181 0 -355 q2 -174 2 -345 l0 0 Z" /><glyph glyph-name="" unicode="r" d="M294 299 l165 -299 l93 0 l-164 294 q78 15 125 67 q47 52 48 136 q-1 78 -45 135 q-44 56 -119 68 q-101 0 -198 -1 q-98 -1 -199 0 q0 -153 0 -355 q0 -202 0 -344 q24 0 46 0 q22 0 41 0 l0 299 l207 0 ZM87 382 q0 34 0 119 q0 84 0 119 q104 0 193 0 q90 0 117 0 q46 -7 65 -43 q18 -36 17 -83 q0 -46 -20 -75 q-20 -30 -65 -40 q-45 0 -168 0 q-124 1 -139 3 l0 0 Z" /><glyph glyph-name="" unicode="b" d="M0 0 l87 0 l0 43 q24 -17 51 -31 q26 -13 59 -14 q85 0 141 61 q57 61 59 180 q-2 121 -59 181 q-56 60 -141 60 q-32 -1 -58 -18 q-27 -17 -52 -41 l0 279 l-87 -80 l0 -331 q0 -29 0 -52 q0 -23 0 -237 l0 0 ZM87 246 q2 88 34 122 q32 34 82 32 q50 -2 75 -48 q25 -47 25 -115 q0 -75 -25 -116 q-25 -40 -75 -41 q-51 -2 -83 33 q-32 35 -33 133 l0 0 Z" /><glyph glyph-name="" unicode="a" d="M314 0 l83 0 l0 480 l-83 0 l0 -57 q-20 24 -52 40 q-32 16 -65 17 q-85 2 -141 -53 q-57 -55 -58 -188 q3 -135 59 -189 q56 -54 140 -52 q32 1 62 17 q30 15 55 35 l0 -50 ZM88 240 q1 94 32 128 q32 34 83 32 q51 -2 81 -47 q29 -45 30 -113 q-1 -75 -30 -117 q-30 -42 -81 -43 q-51 -2 -83 33 q-31 35 -32 127 l0 0 Z" /><glyph glyph-name="" unicode="c" d="M90 237 q1 94 31 130 q31 35 82 33 q34 -1 59 -22 q25 -22 39 -59 l87 0 q-20 80 -71 121 q-51 40 -120 40 q-85 2 -141 -53 q-57 -55 -58 -188 q3 -135 59 -189 q56 -54 140 -52 q69 0 120 41 q52 41 72 123 l-86 0 q-13 -39 -39 -60 q-25 -22 -61 -22 q-51 -2 -82 32 q-30 33 -31 125 l0 0 Z" /><glyph glyph-name="" unicode="d" d="M397 0 q0 214 0 237 q0 23 0 52 l0 410 l-89 -79 l2 -199 q-25 24 -52 41 q-26 17 -58 18 q-85 0 -141 -60 q-57 -60 -59 -181 q2 -119 59 -180 q56 -61 141 -61 q33 1 60 14 q26 14 50 31 l0 -43 l87 0 ZM310 246 q-1 -98 -33 -133 q-32 -35 -83 -33 q-50 1 -75 41 q-25 41 -25 116 q0 68 25 115 q25 46 75 48 q50 2 82 -32 q32 -34 34 -122 l0 0 Z" /><glyph glyph-name="" unicode="e" d="M397 246 q-4 118 -60 176 q-56 58 -140 58 q-85 2 -141 -53 q-57 -55 -58 -188 q3 -135 59 -189 q56 -54 140 -52 q69 -1 119 30 q51 31 71 110 l-86 0 q-14 -37 -38 -53 q-24 -15 -59 -15 q-48 -1 -80 34 q-32 35 -37 115 l310 0 l0 27 ZM203 400 q40 1 70 -23 q30 -25 34 -88 l-220 0 q10 63 42 88 q31 24 74 23 l0 0 Z" /><glyph glyph-name="" unicode="g" d="M1 237 q3 -135 59 -189 q56 -54 140 -52 q32 0 64 13 q31 14 51 42 l0 -101 q-5 -50 -55 -87 q-51 -37 -88 -55 l44 -71 l73 48 q40 32 74 72 q34 40 36 98 l0 258 q1 12 1 24 q0 11 -1 21 l1 220 l-84 0 l1 -55 q-20 26 -52 41 q-32 14 -65 14 q-85 2 -141 -53 q-57 -55 -58 -188 l0 0 ZM87 231 q1 94 34 132 q34 37 85 35 q45 -1 74 -38 q29 -37 35 -95 l0 -59 q-7 -60 -35 -94 q-29 -33 -74 -34 q-51 -2 -85 30 q-33 31 -34 123 l0 0 Z" /><glyph glyph-name="" unicode="h" d="M87 0 l0 248 q1 88 33 121 q32 33 83 31 q51 -2 81 -47 q29 -45 30 -113 l0 -1 l0 -239 l83 0 q-1 32 0 121 q0 89 0 118 q-2 121 -59 181 q-56 60 -141 60 q-32 0 -60 -14 q-27 -14 -50 -43 l0 277 l-87 -80 q0 -313 0 -394 q0 -81 0 -226 l87 0 Z" /><glyph glyph-name="" unicode="k" d="M294 0 l103 0 l-174 290 q-1 2 -2 2 q-1 0 -1 1 l0 2 l177 185 l-111 0 l-199 -196 l0 416 l-87 -80 l0 -620 l87 0 l0 162 l69 70 l1 -5 l137 -227 Z" /><glyph glyph-name="" unicode="l" d="M0 620 l0 -620 l87 0 l0 700 l-87 -80 Z" /><glyph glyph-name="" unicode="n" d="M87 0 l0 247 q1 88 33 122 q32 33 83 31 q51 -2 81 -47 q29 -45 30 -113 l0 -1 l0 -239 l83 0 q-1 32 0 121 q0 89 0 118 q-3 121 -62 184 q-59 62 -138 57 q-43 -2 -66 -14 q-22 -12 -44 -41 l0 55 l-87 0 q0 -298 0 -319 q0 -21 0 -161 l87 0 Z" /><glyph glyph-name="" unicode="o" d="M87 237 q1 94 33 130 q32 35 83 33 q51 -2 80 -48 q28 -47 29 -115 q-1 -75 -29 -116 q-29 -40 -80 -41 q-51 -2 -83 32 q-32 33 -33 125 l0 0 ZM0 240 q2 -136 58 -189 q55 -53 140 -51 q85 -2 141 51 q56 54 58 189 q-2 132 -58 187 q-56 55 -141 53 q-85 2 -140 -53 q-56 -55 -58 -187 l0 0 Z" /><glyph glyph-name="" unicode="p" d="M0 478 q0 -188 0 -305 q0 -116 0 -392 l87 75 l0 195 q18 -28 47 -40 q29 -13 62 -13 q85 0 141 60 q57 60 59 181 q-2 119 -59 180 q-56 61 -141 61 q-31 1 -56 -12 q-25 -12 -53 -47 l0 59 l-87 0 l0 -2 ZM87 239 q1 92 32 126 q32 35 83 33 q51 -1 78 -42 q27 -42 27 -117 q0 -68 -27 -113 q-27 -46 -78 -48 q-50 -2 -81 32 q-32 34 -34 129 l0 0 Z" /><glyph glyph-name="" unicode="q" d="M395 478 l-87 0 l0 -57 q-28 35 -53 47 q-25 13 -56 12 q-85 0 -141 -61 q-57 -61 -59 -180 q2 -121 59 -181 q56 -60 141 -60 q33 0 62 13 q29 12 47 40 l0 -273 l88 86 q-1 271 0 357 q0 86 0 257 l-1 0 ZM308 239 q-2 -95 -33 -129 q-32 -34 -82 -32 q-51 2 -78 48 q-27 45 -27 113 q0 75 27 117 q27 41 78 42 q51 2 83 -33 q31 -34 32 -126 l0 0 Z" /><glyph glyph-name="" unicode="s" d="M1 161 q-4 -71 41 -116 q45 -45 105 -46 l91 0 q53 -1 105 32 q51 33 55 118 q-19 119 -155 118 q-136 -2 -155 72 q-1 15 13 36 q14 20 49 25 l84 0 q55 -4 71 -37 q17 -32 15 -49 l85 0 q1 83 -52 125 q-54 42 -116 42 l-91 0 q-61 -2 -103 -45 q-42 -44 -42 -112 q24 -121 161 -118 q137 2 156 -69 q-2 -34 -28 -49 q-25 -15 -47 -15 l-89 0 q-34 4 -51 39 q-16 34 -15 49 l-87 0 Z" /><glyph glyph-name="" unicode="u" d="M313 480 l0 -239 l0 -1 q-3 -95 -37 -128 q-34 -34 -85 -32 q-51 2 -80 48 q-28 45 -24 116 l0 236 l-87 1 q1 -32 0 -123 q0 -92 0 -121 q2 -120 57 -179 q56 -58 140 -58 q33 0 63 14 q31 14 53 37 l0 -51 l84 0 q2 295 1 319 q-1 23 -1 162 l-84 -1 Z" /><glyph glyph-name="" unicode="v" d="M152 0 l90 0 q-1 -11 22 64 q23 75 133 415 l-89 0 l-109 -335 l-112 335 l-88 0 q-5 11 19 -64 q24 -76 134 -415 l0 0 Z" /><glyph glyph-name="" unicode="x" d="M142 231 q2 5 -20 -31 q-22 -37 -122 -200 l98 0 l99 171 l102 -172 l92 1 q-100 166 -120 202 q-21 36 -16 30 l142 248 l-98 -1 l-102 -179 l-99 180 l-98 0 l142 -249 Z" /><glyph glyph-name="" unicode="y" d="M155 -1 l-80 -237 l98 0 l224 718 l-89 0 l-107 -336 l-108 336 l-91 0 q-5 11 19 -65 q24 -75 134 -416 l0 0 Z" /><glyph glyph-name="" unicode="z" d="M0 80 l-1 -79 l399 0 l-1 79 l-286 0 l286 320 l0 81 l-397 0 l0 -81 l291 0 l-291 -320 Z" /><glyph glyph-name="" unicode="f" d="M82 400 l0 -400 l86 0 l0 400 l105 0 l1 80 l-104 0 q-4 111 13 150 q18 40 87 42 l0 78 q-81 6 -133 -32 q-53 -39 -55 -119 l0 -119 l-82 0 l0 -80 l82 0 Z" /><glyph glyph-name="" unicode="i" d="M-1 481 l0 -482 l88 1 l0 481 l-88 0 ZM14 567 q-1 -1 8 -2 q9 0 43 0 q6 0 11 6 q6 6 6 13 l0 50 q0 6 -6 12 q-5 6 -11 6 l-47 0 q-7 0 -13 -6 q-6 -6 -6 -12 l0 -50 q0 -5 5 -10 q4 -4 10 -7 l0 0 Z" /><glyph glyph-name="" unicode="j" d="M-134 -186 l0 -3 l38 -63 q1 -1 2 -2 q1 0 2 0 q47 4 110 64 q63 61 69 127 l0 544 l-87 0 l0 -528 q1 -27 -29 -62 q-30 -35 -103 -75 q-1 -1 -2 -1 q0 -1 0 -1 l0 0 ZM14 567 q-1 -1 8 -2 q9 0 43 0 q6 0 11 6 q6 6 6 13 l0 50 q0 6 -6 12 q-5 6 -11 6 l-47 0 q-7 0 -13 -6 q-6 -6 -6 -12 l0 -50 q0 -5 5 -10 q4 -4 10 -7 l0 0 Z" /><glyph glyph-name="" unicode="r" d="M87 0 l0 247 q2 88 34 122 q32 33 82 31 q21 0 38 -9 q18 -9 32 -24 l67 51 q-28 31 -64 46 q-37 16 -79 16 q-38 -1 -66 -17 q-28 -17 -44 -42 l0 60 l-87 0 q0 -284 0 -304 q0 -20 0 -177 l87 0 Z" /><glyph glyph-name="" unicode="t" d="M76 400 l0 -268 q6 -81 69 -109 q64 -27 120 -25 l1 82 q-39 -1 -70 17 q-31 19 -33 70 l0 233 l78 0 l0 80 l-78 0 l0 221 l-87 -81 l0 -140 l-83 0 l0 -80 l83 0 Z" /><glyph glyph-name="" unicode="m" d="M87 0 l0 247 q1 88 33 122 q32 33 83 31 q51 -2 81 -47 q29 -45 30 -113 l0 -240 l83 0 q-1 32 0 121 q0 89 0 118 q0 12 -1 24 q4 80 36 110 q32 30 80 28 q51 -2 81 -47 q29 -45 30 -113 l0 -240 l83 0 q-1 32 0 121 q0 89 0 118 q-3 121 -62 184 q-59 62 -138 57 q-44 -1 -76 -17 q-32 -16 -60 -64 q-29 48 -76 66 q-48 18 -97 14 q-43 -2 -66 -14 q-22 -12 -44 -41 l0 55 l-87 0 q0 -299 0 -320 q0 -21 0 -160 l87 0 Z" /><glyph glyph-name="" unicode="w" d="M142 1 l82 0 q0 -5 15 48 q16 52 89 294 l105 -342 l81 0 q-2 -9 20 65 q22 73 124 413 l-86 0 l-100 -334 l-100 334 l-88 0 l-100 -334 l-100 334 l-84 0 q-4 12 18 -63 q22 -76 124 -415 l0 0 Z" /><glyph glyph-name="" unicode="0" d="M203 1 q72 1 135 49 q63 47 67 133 l0 334 q-3 69 -54 125 q-50 56 -114 59 l-70 0 q-64 -3 -114 -60 q-49 -56 -52 -126 l0 -328 q4 -87 67 -136 q62 -49 135 -50 l0 0 ZM203 621 q47 -1 85 -33 q38 -32 40 -86 l0 -300 q-2 -55 -40 -86 q-38 -32 -85 -33 q-48 1 -85 33 q-38 32 -40 89 l0 295 q2 55 40 88 q37 32 85 33 l0 0 Z" /><glyph glyph-name="" unicode="1" d="M104 79 l0 -81 l288 0 l0 81 l-105 0 l0 622 l-83 0 l-89 -119 l0 -7 q8 -6 26 -22 q18 -17 26 -23 q2 0 4 -1 q2 -1 3 -1 q10 10 18 22 q7 13 17 24 l0 -495 l-105 0 Z" /><glyph glyph-name="" unicode="2" d="M-1 0 l408 0 l0 84 l-292 0 l252 316 q20 26 30 57 q10 31 10 64 q-3 86 -58 131 q-55 45 -128 45 q-93 -1 -156 -62 q-63 -61 -66 -167 l72 0 q6 72 45 111 q39 39 105 40 q44 0 76 -24 q32 -25 34 -77 q0 -17 -6 -35 q-5 -17 -16 -32 q-225 -280 -270 -331 q-45 -50 -39 -40 l-1 -80 Z" /><glyph glyph-name="" unicode="3" d="M0 158 l0 -103 q9 -24 79 -39 q69 -15 93 -15 q97 0 163 55 q66 54 69 166 q-2 72 -45 118 q-43 45 -108 61 l156 213 l0 83 l-408 0 l0 -81 l314 0 l-156 -222 l-33 -55 q2 0 26 0 q23 -1 40 -3 q58 -9 95 -36 q37 -27 38 -87 q-3 -68 -50 -101 q-48 -32 -104 -32 q-31 -1 -66 4 q-36 5 -61 29 l-42 45 Z" /><glyph glyph-name="" unicode="4" d="M266 -1 l76 0 l0 248 l66 0 l0 83 l-66 0 l0 371 l-73 0 q7 8 -36 -50 q-43 -57 -233 -317 l0 -87 l266 0 l0 -248 ZM266 567 l0 -237 l-176 0 l176 237 Z" /><glyph glyph-name="" unicode="5" d="M323 209 q4 -10 -18 -66 q-21 -55 -140 -63 q-31 -1 -67 7 q-37 8 -63 32 l-35 35 l0 -103 q9 -24 79 -38 q69 -15 93 -15 q93 0 157 51 q63 51 75 156 l3 32 q-6 79 -44 136 q-39 57 -112 60 l-164 0 l0 187 l310 0 l0 79 l-397 -2 l0 -339 l231 -2 q42 -3 66 -39 q23 -35 26 -75 l0 -33 Z" /><glyph glyph-name="" unicode="6" d="M3 216 q2 -92 59 -153 q58 -62 143 -64 q86 3 143 65 q58 62 60 154 q-3 115 -69 164 q-66 49 -162 39 q-4 -4 19 43 q24 48 127 237 l-88 0 l-205 -375 q-15 -25 -21 -53 q-6 -28 -6 -57 l0 0 ZM90 211 q1 54 34 89 q33 35 83 36 q48 -1 81 -37 q33 -35 34 -88 q-1 -52 -35 -87 q-33 -35 -82 -36 q-49 1 -81 36 q-33 35 -34 87 l0 0 Z" /><glyph glyph-name="" unicode="7" d="M0 0 l85 0 l317 619 l2 2 l0 81 l-394 0 l0 -83 l305 0 l-315 -619 Z" /><glyph glyph-name="" unicode="8" d="M0 198 q2 -72 49 -131 q48 -59 121 -62 l67 0 q75 4 121 64 q46 59 47 129 q0 48 -19 87 q-19 39 -52 73 q35 39 44 68 q9 29 8 71 q-1 92 -48 142 q-48 49 -130 50 q-83 -1 -135 -49 q-52 -49 -54 -135 q-1 -46 11 -83 q12 -37 45 -67 q-34 -30 -54 -70 q-21 -40 -21 -87 l0 0 ZM87 197 q1 54 35 83 q34 29 83 29 q50 0 86 -30 q36 -29 38 -82 q-2 -53 -38 -81 q-36 -28 -86 -28 q-49 0 -83 28 q-34 28 -35 81 l0 0 ZM99 511 q3 55 36 77 q33 21 67 20 q50 0 80 -23 q31 -23 32 -74 q-1 -53 -32 -80 q-30 -27 -80 -27 q-48 0 -75 27 q-27 27 -28 80 l0 0 Z" /><glyph glyph-name="" unicode="9" d="M408 484 q-2 92 -59 153 q-58 62 -143 64 q-86 -3 -143 -65 q-58 -62 -60 -154 q3 -115 69 -164 q66 -49 162 -39 q4 4 -19 -43 q-24 -48 -127 -237 l88 0 l205 375 q15 25 21 53 q6 28 6 57 l0 0 ZM321 489 q-1 -54 -34 -89 q-33 -35 -83 -36 q-48 1 -81 37 q-33 35 -34 88 q1 52 35 87 q33 35 82 36 q49 -1 81 -36 q33 -35 34 -87 l0 0 Z" /><glyph glyph-name="" unicode="!" d="M7 1 q0 -1 3 -2 q2 0 2 0 l52 0 q5 1 10 6 q6 6 6 10 l0 46 q0 6 -6 11 q-5 5 -10 5 l-52 0 q-6 0 -10 -5 q-5 -5 -5 -11 l0 -46 q0 -4 4 -8 q3 -4 6 -6 l0 0 ZM-1 701 l0 -524 l82 0 l0 524 l-82 0 Z" /><glyph glyph-name="" unicode="&quot;" d="M24 635 q-1 15 1 22 q2 8 16 18 l0 24 q-16 0 -29 -10 q-12 -10 -13 -27 l0 -93 q0 -7 5 -14 q4 -7 13 -7 l47 0 q7 0 12 7 q6 7 6 14 l0 45 q-1 9 -7 15 q-6 6 -11 6 l-40 0 ZM151 635 q-1 15 1 23 q1 8 10 17 l0 26 q-11 -1 -24 -10 q-14 -10 -15 -23 l0 -104 q0 -6 6 -11 q6 -5 12 -5 l47 0 q6 0 12 5 q6 5 6 11 l0 55 q0 6 -6 11 q-6 5 -12 5 l-37 0 Z" /><glyph glyph-name="" unicode="#" d="M88 219 l0 -94 l85 0 l0 94 l104 0 l0 -94 l88 0 l0 94 l94 0 l0 89 l-94 0 l0 103 l94 0 l0 89 l-94 0 l0 92 l-88 0 l0 -92 l-104 0 l0 92 l-85 0 l0 -92 l-88 0 l0 -89 l86 0 l0 -103 l-86 0 l0 -89 l88 0 ZM176 411 l101 0 l0 -103 l-101 0 l0 103 Z" /><glyph glyph-name="" unicode="$" d="M173 0 l0 -52 l80 0 l0 52 l57 0 l0 -52 l82 0 l0 52 l2 2 q71 19 118 66 q47 47 49 128 q-2 77 -49 128 q-47 51 -120 65 l0 227 q42 -2 67 -36 q25 -33 28 -73 l79 0 q-2 78 -51 130 q-50 53 -123 64 l0 50 l-82 0 l0 -48 l-57 0 l0 48 l-80 0 l0 -50 q-75 -13 -121 -65 q-47 -51 -48 -129 q1 -78 48 -129 q46 -52 119 -65 l0 -228 q-31 1 -54 23 q-23 22 -33 51 q-2 3 -4 15 q-3 11 -5 13 l-78 0 q2 -77 53 -124 q50 -48 123 -63 l0 0 ZM392 307 l2 0 q38 -3 63 -39 q25 -36 26 -72 q-1 -40 -26 -73 q-25 -32 -65 -38 l0 222 ZM82 507 q1 41 25 71 q25 29 64 38 l0 -220 q-39 2 -64 38 q-24 35 -25 73 l0 0 ZM253 311 l56 0 l0 -226 l-56 0 l0 226 ZM253 616 l56 0 l0 -224 l-56 0 l0 224 Z" /><glyph glyph-name="" unicode="%" d="M392 699 l-315 -700 l86 0 l313 700 l-84 0 ZM3 533 q1 -51 34 -84 q32 -34 81 -35 q48 1 80 35 q33 33 34 84 q-1 50 -33 79 q-32 28 -80 29 q-49 -1 -82 -29 q-33 -29 -34 -79 l0 0 ZM67 528 q0 19 15 34 q14 14 36 15 q22 -1 36 -15 q14 -15 14 -34 q0 -21 -14 -34 q-14 -14 -36 -14 q-22 0 -36 14 q-15 13 -15 34 l0 0 ZM309 168 q1 -51 34 -84 q32 -34 81 -35 q48 1 80 35 q33 33 34 84 q-1 50 -33 79 q-32 28 -80 29 q-49 -1 -82 -29 q-33 -29 -34 -79 l0 0 ZM373 163 q0 19 15 34 q14 14 36 15 q22 -1 36 -15 q14 -15 14 -34 q0 -21 -14 -34 q-14 -14 -36 -14 q-22 0 -36 14 q-15 13 -15 34 l0 0 Z" /><glyph glyph-name="" unicode="&amp;" d="M-2 215 q4 -108 78 -161 q74 -52 172 -52 q33 0 66 5 q33 4 63 19 q10 5 33 19 q23 14 31 16 l2 0 q10 -11 21 -29 q10 -18 20 -20 l96 0 l0 2 q-1 1 -6 8 q-6 7 -10 13 q-9 12 -30 38 q-22 26 -31 37 q-2 1 -3 3 q-1 2 -1 4 l0 2 q20 39 31 83 q10 45 10 90 l-73 0 q-1 -25 -6 -56 q-4 -32 -16 -54 l-4 4 l-194 241 l-4 4 l0 1 q27 29 51 66 q25 37 27 78 q-1 55 -37 90 q-36 35 -88 36 q-54 -1 -93 -32 q-39 -32 -41 -89 q5 -52 37 -93 q32 -40 37 -51 l-95 -97 q-23 -24 -33 -59 q-10 -34 -10 -66 l0 0 ZM74 213 q0 19 6 41 q6 23 19 38 l88 85 l202 -248 l4 -7 q-32 -24 -69 -33 q-37 -9 -77 -9 q-65 -1 -117 29 q-53 31 -56 104 l0 0 ZM137 581 q5 24 25 35 q19 10 34 10 q20 0 35 -14 q15 -14 16 -36 q-2 -23 -21 -46 q-19 -23 -34 -36 q-15 3 -34 36 q-19 32 -21 51 l0 0 Z" /><glyph glyph-name="" unicode="(" d="M183 751 q-74 -2 -127 -50 q-53 -49 -59 -126 l0 -438 q9 -76 62 -122 q54 -46 125 -47 l0 91 q-40 15 -70 49 q-30 34 -31 80 l0 351 q1 42 31 77 q29 34 69 44 l0 91 Z" /><glyph glyph-name="" unicode=")" d="M6 656 q39 -10 68 -44 q29 -34 30 -76 l0 -350 q-1 -46 -30 -79 q-29 -34 -69 -49 l0 -91 q70 1 122 47 q52 46 61 121 l0 437 q-6 77 -58 125 q-51 48 -124 50 l0 -91 Z" /><glyph glyph-name="" unicode="*" d="M38 439 l57 -40 q2 -1 3 -2 q2 0 2 0 q1 0 3 2 q1 2 4 5 l55 76 l57 -80 q2 -1 3 -2 q2 -1 2 -1 q0 0 1 0 q1 1 2 2 l50 35 q2 3 3 4 q2 2 2 4 l0 1 l-55 75 q-1 2 -1 3 q0 0 0 1 l0 3 l92 29 q1 1 2 2 q0 1 0 3 l0 1 l-19 68 l-109 -33 l0 107 l-77 -2 l0 -103 l-85 27 l-1 0 q0 0 -2 0 q-2 -1 -2 -3 l-21 -65 q0 -1 1 -2 q1 0 3 0 l92 -32 l-62 -83 Z" /><glyph glyph-name="" unicode="+" d="M182 328 l0 -178 l82 0 l0 178 l178 0 l0 85 l-178 0 l0 181 l-82 0 l0 -181 l-181 0 l0 -85 l181 0 Z" /><glyph glyph-name="" unicode="-" d="M-1 369 l0 -75 l410 0 l0 75 l-410 0 Z" /><glyph glyph-name="" unicode="," d="M37 -39 l0 -27 q16 1 29 12 q12 12 13 29 l0 97 q-2 15 -17 18 q-15 4 -25 3 q-9 1 -24 -3 q-15 -3 -17 -18 l0 -50 q0 -7 5 -12 q5 -4 10 -7 l42 0 q1 -15 -2 -24 q-2 -8 -14 -18 l0 0 Z" /><glyph glyph-name="" unicode="." d="M10 -1 l4 -2 l52 0 q5 1 10 6 q5 5 5 8 l0 64 q0 4 -5 10 q-5 5 -10 6 l-52 0 q-3 -1 -7 -6 q-5 -6 -5 -10 l0 -64 q0 0 0 -1 q1 -1 2 -3 l6 -8 Z" /><glyph glyph-name="" unicode="/" d="M314 700 l-315 -700 l86 0 l313 700 l-84 0 Z" /><glyph glyph-name="" unicode=":" d="M10 362 q0 -1 2 -2 q2 0 2 0 l50 0 q6 0 11 5 q5 5 5 11 l0 58 q0 6 -5 11 q-5 6 -11 6 l-50 0 q-5 0 -10 -6 q-5 -5 -5 -11 l0 -58 q0 -5 4 -9 q4 -3 7 -5 l0 0 ZM8 23 q0 -1 2 -2 q2 0 2 0 l54 0 q4 0 9 5 q5 5 5 9 l0 61 q0 4 -5 9 q-5 5 -9 5 l-54 0 q-5 0 -9 -5 q-4 -5 -4 -9 l0 -66 q2 0 5 -3 q2 -4 4 -4 l0 0 Z" /><glyph glyph-name="" unicode=";" d="M42 -17 l0 -30 q12 0 25 10 q13 10 14 25 l0 109 q-2 13 -17 15 q-16 3 -24 2 q-6 1 -22 -2 q-15 -2 -17 -15 l0 -60 q0 -5 5 -9 q4 -5 8 -5 l43 0 q0 -14 -3 -24 q-3 -10 -12 -16 l0 0 ZM9 356 q0 -1 3 -2 q2 0 2 0 l49 0 q6 0 12 6 q6 5 6 10 l0 58 q0 6 -6 12 q-6 5 -12 5 l-49 0 q-6 0 -10 -5 q-5 -6 -5 -12 l0 -58 q0 -4 4 -8 q3 -3 6 -6 l0 0 Z" /><glyph glyph-name="" unicode="&lt;" d="M0 333 q0 -3 0 -3 q0 -1 1 -1 l396 -236 l0 83 l-256 153 l1 5 l255 154 l0 84 l-396 -238 q-1 0 -1 0 q0 -1 0 -1 l0 0 Z" /><glyph glyph-name="" unicode="&gt;" d="M2 177 l0 -85 l403 234 q2 0 4 2 q2 1 3 3 l-4 4 l-406 231 l0 -83 l264 -152 l0 -4 l-264 -150 Z" /><glyph glyph-name="" unicode="=" d="M-2 297 l0 -77 l409 0 l0 77 l-409 0 ZM-2 361 l409 0 l0 80 l-409 0 l0 -80 Z" /><glyph glyph-name="" unicode="?" d="M245 237 q0 -15 1 -31 q1 -15 1 -29 l75 0 l0 62 q1 17 13 26 q13 9 31 8 q76 -1 119 44 q42 45 43 109 l0 106 q3 44 -34 104 q-38 60 -148 66 l-121 0 q-78 3 -152 -37 q-74 -41 -73 -164 q4 -15 18 -28 q13 -12 26 -14 q13 0 27 14 q15 13 16 28 q-3 50 23 84 q26 34 115 35 l118 0 q33 2 68 -22 q34 -24 37 -101 q7 -84 -22 -115 q-29 -30 -60 -28 q-52 -1 -86 -33 q-34 -31 -35 -84 l0 0 ZM255 2 q0 -1 1 -2 q1 0 1 0 l52 0 q3 0 8 5 q5 5 5 8 l0 53 q0 4 -5 9 q-5 5 -8 5 l-52 0 q-3 0 -7 -5 q-5 -5 -5 -9 l0 -53 l2 -4 q2 0 4 -3 q2 -4 4 -4 l0 0 Z" /><glyph glyph-name="" unicode="@" d="M557 22 q57 12 77 58 q21 46 20 103 l0 357 q-2 60 -47 109 q-44 49 -102 52 l-360 0 q-57 -3 -101 -52 q-45 -49 -47 -109 l0 -380 q2 -61 47 -110 q44 -48 103 -51 l184 0 l0 79 l-166 0 q-35 2 -62 31 q-28 29 -29 65 l0 354 q2 36 29 64 q27 28 61 30 l330 0 q31 -2 60 -28 q28 -27 30 -61 l0 -375 q1 -26 -9 -46 q-10 -20 -38 -21 q-22 0 -41 14 q-19 15 -20 41 l0 402 l-61 0 l0 -15 q-11 1 -23 8 q-13 6 -27 7 l-108 0 q-43 -2 -75 -39 q-31 -37 -33 -82 l0 -159 q4 -69 55 -96 q51 -27 108 -26 q27 -1 52 2 q25 3 51 16 q1 -63 30 -102 q29 -39 90 -40 l22 0 ZM312 203 q-35 0 -65 20 q-30 21 -32 61 l0 127 q1 27 23 52 q21 24 46 26 l54 0 q25 -1 47 -25 q22 -23 23 -51 l0 -133 q-2 -38 -33 -58 q-30 -19 -63 -19 l0 0 Z" /><glyph glyph-name="" unicode="[" d="M1 700 l0 -700 l181 0 l0 82 l-100 0 l0 537 l100 0 l1 81 l-182 0 Z" /><glyph glyph-name="" unicode="\" d="M-2 700 l309 -700 l83 0 l-307 700 l-85 0 Z" /><glyph glyph-name="" unicode="]" d="M-1 82 l0 -81 l169 0 l0 699 l-167 0 l0 -79 l88 0 l0 -539 l-90 0 Z" /><glyph glyph-name="" unicode="^" d="M68 478 l77 0 l55 95 l55 -95 l75 0 l0 1 q0 1 -1 4 q-1 2 -3 3 l-125 217 l-133 -225 Z" /><glyph glyph-name="" unicode="_" d="M0 0 l0 -71 l559 0 l0 71 l-559 0 Z" /><glyph glyph-name="" unicode="{" d="M149 282 l0 -148 q4 -77 61 -124 q57 -48 122 -49 l0 92 q0 0 0 2 q-1 1 -3 1 q-38 16 -66 49 q-29 32 -31 81 l0 156 l-33 17 l33 18 l0 160 q2 43 32 78 q29 34 65 44 l0 94 q-67 -1 -122 -50 q-55 -49 -58 -129 l0 -137 l-153 -80 l153 -75 Z" /><glyph glyph-name="" unicode="|" d="M-1 748 l0 -796 l81 0 l0 796 l-81 0 Z" /><glyph glyph-name="" unicode="}" d="M92 344 l0 -153 q-1 -30 -13 -55 q-13 -26 -32 -44 q-6 -6 -26 -18 q-20 -13 -23 -14 l0 -90 q61 1 116 48 q54 46 58 121 l0 148 l143 77 l-143 76 l0 137 q-3 77 -56 125 q-53 48 -116 49 l0 -91 q34 -10 62 -45 q28 -34 30 -76 l0 -158 l32 -17 l-32 -20 Z" /><glyph glyph-name="" unicode="~" d="M158 324 q61 -6 110 -51 q48 -45 114 -51 q45 2 103 36 q58 35 64 83 l-71 45 l-2 0 q-8 -5 -35 -37 q-27 -33 -61 -38 q-56 7 -103 53 q-47 45 -119 52 q-31 -2 -93 -27 q-62 -26 -65 -57 q0 0 3 -3 q3 -3 5 -3 l59 -49 l4 0 q18 19 39 33 q22 13 48 14 l0 0 Z" /><glyph glyph-name="" unicode="û&#x20ac;" d="M150 221 q4 -80 50 -149 q46 -69 137 -73 l193 0 q78 4 130 64 q52 61 54 134 l-83 0 q0 0 -1 0 q-1 -1 -1 -2 q-16 -44 -49 -78 q-32 -35 -83 -37 l-129 0 q-57 2 -93 45 q-37 42 -38 96 l113 0 l0 82 l-113 0 l0 63 l113 0 l0 82 l-113 0 l0 48 q3 49 42 86 q40 36 87 38 l134 0 q49 -2 83 -38 q35 -37 48 -80 l83 0 q-2 78 -56 138 q-53 60 -135 63 l-179 0 q-105 -5 -149 -84 q-45 -80 -45 -171 l-119 0 l0 -82 l119 0 l0 -63 l-119 0 l0 -82 l119 0 Z" /><glyph glyph-name="" unicode="¥´" d="M102 297 l0 -77 l142 0 l0 -20 q0 -28 1 -98 q1 -70 1 -100 l75 0 l0 218 l190 0 l0 77 l-190 0 l0 36 l18 28 l172 0 l0 80 l-122 0 l166 261 l-90 0 l-168 -261 l-30 0 l-164 261 l-92 0 l164 -261 l-73 0 l0 -80 l124 0 l15 -24 l3 -2 l0 -38 l-142 0 Z" /><glyph glyph-name="" unicode="ô&#x2018;" d="M45 540 q10 -1 26 3 q15 3 17 18 l0 51 q0 9 -5 13 q-5 4 -11 7 l-44 0 q0 16 2 25 q2 9 12 19 l0 28 q-14 -1 -27 -13 q-13 -12 -14 -29 l0 -101 q2 -15 18 -18 q15 -4 26 -3 l0 0 Z" /><glyph glyph-name="" unicode="&#39;" d="M40 699 q-9 1 -24 -2 q-15 -3 -17 -18 l0 -47 q0 -9 5 -12 q4 -4 9 -7 l40 0 q0 -14 -2 -23 q-2 -8 -11 -18 l0 -24 q14 0 26 11 q11 11 12 26 l1 92 q-1 15 -15 19 q-15 4 -24 3 l0 0 Z" /><glyph glyph-name="" unicode="õ&#x2019;" d="M42 570 l0 -28 q13 0 27 10 q14 10 15 25 l0 103 q0 6 -6 11 q-5 6 -10 6 l-54 0 q-6 0 -10 -6 q-5 -5 -5 -11 l0 -54 q0 -7 6 -13 q5 -7 9 -7 l41 0 q1 -14 0 -21 q-2 -7 -13 -15 l0 0 Z" /><glyph glyph-name="" unicode="`" d="M4 643 l203 -103 l31 62 l-203 103 l-31 -62 Z" /><glyph glyph-name="" unicode="ò&#x201c;" d="M26 637 q-1 14 2 21 q2 7 13 17 l0 26 q-14 0 -27 -9 q-12 -10 -13 -27 l0 -94 q0 -9 5 -15 q5 -7 12 -7 l48 0 q5 0 10 7 q5 6 5 15 l0 44 q0 9 -6 16 q-5 6 -9 6 l-40 0 ZM145 637 q0 15 1 23 q1 8 9 15 l0 31 q-10 -1 -23 -11 q-14 -11 -15 -26 l0 -104 q0 -6 6 -11 q5 -5 10 -5 l46 0 q6 0 10 5 q5 5 5 11 l0 55 q0 6 -5 12 q-4 5 -10 5 l-34 0 Z" /><glyph glyph-name="" unicode="ð&#x2013;" d="M-1 361 l0 -69 l558 0 l0 69 l-558 0 Z" /><glyph glyph-name="" unicode="ñ&#x2014;" d="M-2 361 l0 -69 l664 0 l0 69 l-664 0 Z" /><glyph glyph-name="" unicode="ó&#x201d;" d="M45 575 l0 -22 q14 0 26 10 q11 10 12 25 l0 95 q-2 14 -16 16 q-14 2 -22 1 q-10 1 -26 -1 q-15 -2 -17 -16 l0 -49 q1 -7 6 -11 q6 -4 10 -8 l41 0 q0 -12 -2 -21 q-2 -10 -12 -19 l0 0 ZM161 578 l0 -25 q13 0 26 9 q12 8 13 22 l0 101 q-2 13 -18 14 q-16 2 -23 1 q-6 1 -21 -1 q-15 -1 -17 -14 l0 -55 q0 -2 5 -8 q4 -6 7 -7 l44 0 q0 -13 -3 -21 q-3 -9 -13 -16 l0 0 Z" /><glyph glyph-name="" unicode="&#x2022;" d="M114 300 q1 -38 26 -62 q26 -24 64 -25 q38 1 64 25 q25 24 26 62 q-1 38 -26 62 q-26 25 -64 26 q-38 -1 -64 -26 q-25 -24 -26 -62 l0 0 Z" /></font>
</defs>
</svg>
