<?xml version="1.0" standalone="no"?><!DOCTYPE svg PUBLIC "-//W3C//DTD SVG 1.1//EN" "http://www.w3.org/Graphics/SVG/1.1/DTD/svg11.dtd" ><svg xmlns="http://www.w3.org/2000/svg"><metadata></metadata><defs><font id="FontForge : Glametrix : 12-4-2013" horiz-adv-x="1006"><font-face font-family="Glametrix" font-weight="500" font-stretch="normal" units-per-em="1000" panose-1="2 0 5 3 0 0 0 0 0 0" ascent="720" descent="-300" x-height="0" bbox="-160 -300 971 720" underline-thickness="12" underline-position="-186" unicode-range="U+0020-fb04" /><missing-glyph horiz-adv-x="500" d="M50 0 L450 0 L450 466 L50 466 L50 0 ZM100 50 L100 416 L400 416 L400 50 L100 50 Z" /><glyph glyph-name="" unicode=" " d="" /><glyph glyph-name="" unicode="!" d="M50 -5 L104 -5 Q111 -5 113 -3 Q115 -1 115 6 L115 60 L61 60 Q54 60 52 58 Q50 56 50 49 L50 -5 ZM50 140 L115 140 L115 480 L50 480 L50 140 Z" /><glyph glyph-name="" unicode="&quot;" d="M40 355 L90 355 L90 480 L40 480 L40 355 ZM140 355 L190 355 L190 480 L140 480 L140 355 Z" /><glyph glyph-name="" unicode="#" d="M242 292 L242 188 L138 188 L138 292 L242 292 ZM242 335 L138 335 L138 440 L95 440 L95 335 L30 335 L30 292 L95 292 L95 188 L30 188 L30 145 L95 145 L95 40 L138 40 L138 145 L242 145 L242 40 L285 40 L285 145 L350 145 L350 188 L285 188 L285 292 L350 292 L350 335 L285 335 L285 440 L242 440 L242 335 Z" /><glyph glyph-name="" unicode="$" d="M40 90 Q63 81 91 74 Q119 67 145 65 L145 -20 L195 -20 L195 68 Q246 77 275 103 Q304 130 305 170 Q303 217 270 239 Q237 260 194 270 Q160 278 135 290 Q111 302 110 325 Q110 343 129 354 Q148 365 180 365 Q209 365 236 358 Q264 350 285 335 L285 402 Q262 408 240 411 Q218 415 195 415 L195 500 L145 500 L145 411 Q98 403 72 381 Q45 359 45 326 Q47 276 81 251 Q116 225 160 215 Q193 207 216 194 Q239 182 240 160 Q240 139 218 127 Q197 115 160 115 Q132 115 101 125 Q70 134 40 155 L40 90 Z" /><glyph glyph-name="" unicode="%" d="M470 118 Q470 156 490 178 Q510 200 543 201 Q576 200 596 178 Q616 156 616 118 Q616 80 596 58 Q576 36 543 35 Q510 36 490 58 Q470 80 470 118 L470 118 ZM415 118 Q416 62 450 29 Q485 -4 543 -5 Q601 -4 636 29 Q670 62 671 118 Q670 174 636 207 Q601 240 543 241 Q485 240 450 207 Q416 174 415 118 L415 118 ZM140 26 L177 -6 L562 454 L526 486 L140 26 ZM90 362 Q90 400 110 422 Q130 444 163 445 Q196 444 216 422 Q236 400 236 362 Q236 324 216 302 Q196 280 163 279 Q130 280 110 302 Q90 324 90 362 L90 362 ZM35 362 Q36 306 70 273 Q105 240 163 239 Q221 240 256 273 Q290 306 291 362 Q290 418 256 451 Q221 484 163 485 Q105 484 70 451 Q36 418 35 362 L35 362 Z" /><glyph glyph-name="" unicode="&amp;" d="M270 380 L325 380 Q324 425 293 454 Q262 484 215 485 Q165 484 131 453 Q96 422 95 375 Q95 346 109 319 Q122 291 143 267 Q76 229 48 195 Q19 160 20 125 Q21 66 65 31 Q110 -4 185 -5 Q237 -5 282 16 Q327 37 362 75 L470 -17 L470 59 L396 120 Q417 155 428 195 Q440 235 440 280 L380 280 Q380 246 373 215 Q365 184 351 157 L217 269 Q193 289 172 317 Q151 346 150 375 Q150 405 168 423 Q185 441 214 441 Q240 441 255 424 Q270 408 270 380 L270 380 ZM320 111 Q294 80 259 63 Q225 45 185 45 Q137 46 109 67 Q81 89 80 126 Q79 148 103 172 Q127 196 184 227 L320 111 Z" /><glyph glyph-name="" unicode="&#39;" d="M40 355 L90 355 L90 480 L40 480 L40 355 Z" /><glyph glyph-name="" unicode="(" d="M95 240 Q94 344 121 448 Q148 552 210 635 L184 655 Q104 572 67 464 Q30 356 30 240 Q30 124 67 16 Q104 -92 184 -175 L210 -155 Q148 -72 121 32 Q94 136 95 240 L95 240 Z" /><glyph glyph-name="" unicode=")" d="M125 240 Q126 136 99 32 Q72 -72 10 -155 L36 -175 Q116 -92 153 16 Q190 124 190 240 Q190 356 153 464 Q116 572 36 655 L10 635 Q72 552 99 448 Q126 344 125 240 L125 240 Z" /><glyph glyph-name="" unicode="*" d="M116 353 L125 382 L52 416 L41 419 L25 372 L37 368 L116 353 ZM144 325 L119 343 L64 284 L57 274 L98 245 L105 254 L144 325 ZM179 343 L154 325 L193 254 L200 245 L241 274 L234 284 L179 343 ZM173 382 L182 353 L261 368 L273 372 L257 419 L246 416 L173 382 ZM134 388 L164 388 L174 468 L174 480 L124 480 L124 468 L134 388 Z" /><glyph glyph-name="" unicode="+" d="M155 90 L205 90 L205 215 L330 215 L330 265 L205 265 L205 390 L155 390 L155 265 L30 265 L30 215 L155 215 L155 90 Z" /><glyph glyph-name="" unicode="," d="M46 -98 L96 -19 Q104 -6 110 5 Q115 16 115 29 L115 60 L65 60 Q51 61 48 57 Q44 54 45 40 L45 0 L65 -7 L28 -88 L46 -98 Z" /><glyph glyph-name="" unicode="-" d="M20 255 L20 200 L220 200 L220 255 L20 255 Z" /><glyph glyph-name="" unicode="." d="M50 -5 L104 -5 Q111 -5 113 -3 Q115 -1 115 6 L115 60 L61 60 Q54 60 52 58 Q50 56 50 49 L50 -5 Z" /><glyph glyph-name="" unicode="/" d="M353 544 L9 -36 L57 -64 L401 516 L353 544 Z" /><glyph glyph-name="" unicode="0" d="M95 240 Q96 330 125 383 Q155 436 205 437 Q255 436 285 383 Q314 330 315 240 Q314 150 285 97 Q255 44 205 43 Q155 44 125 97 Q96 150 95 240 L95 240 ZM30 240 Q31 128 78 62 Q125 -3 205 -5 Q285 -3 332 62 Q379 128 380 240 Q379 352 332 418 Q285 483 205 485 Q125 483 78 418 Q31 352 30 240 L30 240 Z" /><glyph glyph-name="" unicode="1" d="M80 0 L145 0 L145 480 L100 480 Q100 444 79 422 Q59 401 25 400 L25 355 L80 355 L80 0 Z" /><glyph glyph-name="" unicode="2" d="M305 0 L305 55 L84 55 Q97 80 123 108 Q148 136 178 165 Q225 211 264 262 Q303 313 305 360 Q304 417 266 451 Q228 484 163 485 Q135 485 105 477 Q75 470 45 454 L45 385 Q72 412 100 423 Q127 435 152 435 Q194 435 218 414 Q242 394 243 360 Q242 334 217 301 Q193 268 156 232 Q105 184 61 126 Q18 68 15 0 L305 0 Z" /><glyph glyph-name="" unicode="3" d="M170 270 Q217 283 248 310 Q279 337 280 375 Q279 425 236 455 Q193 484 120 485 Q99 485 77 482 Q55 478 35 472 L35 406 Q56 421 77 428 Q98 435 120 435 Q166 435 192 419 Q219 402 220 375 Q219 336 188 313 Q157 291 105 290 L85 290 L85 240 L129 240 Q180 239 209 211 Q239 183 240 135 Q239 94 207 70 Q175 46 120 45 Q94 45 70 52 Q46 59 25 74 L25 8 Q50 1 73 -2 Q96 -5 120 -5 Q207 -4 258 34 Q309 71 310 135 Q309 184 270 221 Q231 258 170 270 L170 270 Z" /><glyph glyph-name="" unicode="4" d="M15 161 L15 120 L245 120 L245 0 L307 0 L307 120 L355 120 L355 165 L307 165 L307 480 L209 480 L15 161 ZM245 165 L72 165 L245 450 L245 165 Z" /><glyph glyph-name="" unicode="5" d="M35 8 Q61 1 85 -2 Q108 -5 130 -5 Q217 -4 268 38 Q319 79 320 150 Q319 218 269 259 Q219 299 134 300 L110 300 L110 425 L290 425 L290 480 L50 480 L50 245 L132 245 Q186 244 218 218 Q249 191 250 145 Q249 99 217 73 Q185 46 130 45 Q104 45 80 52 Q56 59 35 74 L35 8 Z" /><glyph glyph-name="" unicode="6" d="M210 -5 Q281 -4 322 39 Q364 82 365 155 Q364 228 325 271 Q287 314 221 315 Q180 314 147 292 Q114 270 95 233 Q95 237 95 240 Q96 329 132 381 Q169 434 231 435 Q251 435 273 428 Q294 421 315 406 L315 471 Q270 485 229 485 Q138 483 85 418 Q31 352 30 240 Q31 128 80 62 Q128 -3 210 -5 L210 -5 ZM210 45 Q171 46 143 76 Q115 107 103 161 Q105 205 134 235 Q164 264 208 265 Q250 264 275 235 Q299 205 300 155 Q299 105 275 75 Q251 46 210 45 L210 45 Z" /><glyph glyph-name="" unicode="7" d="M95 0 L160 0 Q171 214 245 345 Q319 476 330 480 L20 480 L20 425 L241 425 Q196 364 147 253 Q99 143 95 0 L95 0 Z" /><glyph glyph-name="" unicode="8" d="M200 280 Q159 281 135 302 Q112 324 111 360 Q112 394 135 414 Q159 435 200 435 Q241 435 265 414 Q288 394 289 360 Q288 324 265 302 Q241 281 200 280 L200 280 ZM200 45 Q150 46 120 68 Q91 91 90 130 Q91 173 120 199 Q150 224 200 225 Q250 224 280 199 Q309 173 310 130 Q309 91 280 68 Q250 46 200 45 L200 45 ZM375 130 Q374 172 345 205 Q317 238 269 254 Q305 270 327 297 Q348 325 349 360 Q348 417 308 451 Q268 484 200 485 Q132 484 92 451 Q52 417 51 360 Q52 325 73 297 Q95 270 131 254 Q83 238 55 205 Q26 172 25 130 Q26 68 73 32 Q120 -4 200 -5 Q280 -4 327 32 Q374 68 375 130 L375 130 Z" /><glyph glyph-name="" unicode="9" d="M180 485 Q109 484 68 441 Q26 398 25 325 Q26 252 65 209 Q103 166 169 165 Q210 166 243 188 Q276 210 295 247 L295 240 Q294 151 258 99 Q221 46 159 45 Q139 45 117 52 Q95 60 75 74 L75 9 Q120 -5 161 -5 Q252 -3 305 62 Q359 128 360 240 Q359 352 311 418 Q262 483 180 485 L180 485 ZM180 435 Q219 435 247 404 Q275 374 287 319 Q285 275 256 246 Q227 216 182 215 Q140 216 115 245 Q91 275 90 325 Q91 375 115 405 Q139 434 180 435 L180 435 Z" /><glyph glyph-name="" unicode=":" d="M50 255 L104 255 Q111 255 113 257 Q115 259 115 266 L115 320 L61 320 Q54 320 52 318 Q50 316 50 309 L50 255 ZM50 -5 L104 -5 Q111 -5 113 -3 Q115 -1 115 6 L115 60 L61 60 Q54 60 52 58 Q50 56 50 49 L50 -5 Z" /><glyph glyph-name="" unicode=";" d="M50 255 L104 255 Q111 255 113 257 Q115 259 115 266 L115 320 L61 320 Q54 320 52 318 Q50 316 50 309 L50 255 ZM46 -98 L96 -19 Q104 -6 110 5 Q115 16 115 29 L115 60 L65 60 Q51 61 48 57 Q44 54 45 40 L45 0 L65 -7 L28 -88 L46 -98 Z" /><glyph glyph-name="" unicode="&lt;" d="M20 240 L260 72 L260 139 L116 240 L260 341 L260 408 L20 240 Z" /><glyph glyph-name="" unicode="=" d="M30 200 L30 145 L310 145 L310 200 L30 200 ZM30 340 L30 285 L310 285 L310 340 L30 340 Z" /><glyph glyph-name="" unicode="&gt;" d="M280 240 L40 408 L40 341 L184 240 L40 139 L40 72 L280 240 Z" /><glyph glyph-name="" unicode="?" d="M95 -5 L149 -5 Q156 -5 158 -3 Q160 -1 160 6 L160 60 L106 60 Q99 60 97 58 Q95 56 95 49 L95 -5 ZM95 140 L160 140 Q161 184 180 212 Q199 240 224 261 Q246 281 263 304 Q279 327 280 362 Q279 418 243 451 Q207 484 146 485 Q117 485 88 478 Q59 470 30 455 L30 391 Q57 417 83 429 Q110 440 134 440 Q171 440 193 419 Q214 399 215 365 Q214 342 201 324 Q188 306 169 289 Q142 266 119 232 Q96 198 95 140 L95 140 Z" /><glyph glyph-name="" unicode="@" d="M514 -96 L489 -54 Q459 -72 420 -81 Q382 -90 340 -90 Q220 -89 151 -19 Q81 50 80 170 Q83 280 156 354 Q230 427 340 430 Q454 429 521 364 Q588 300 590 190 Q589 130 565 90 Q541 51 505 49 Q483 49 470 60 Q457 72 457 94 L457 100 L476 323 L425 323 L417 287 L389 323 L311 323 Q248 322 209 276 Q169 229 168 149 Q169 87 199 50 Q230 13 284 12 Q319 12 351 32 Q383 51 405 84 Q417 40 444 24 Q471 8 505 9 Q562 11 600 62 Q639 113 640 190 Q638 322 558 400 Q477 478 340 480 Q208 477 121 389 Q33 302 30 170 Q32 30 116 -54 Q200 -138 340 -140 Q389 -140 434 -129 Q478 -118 514 -96 L514 -96 ZM417 280 L407 172 Q402 124 371 92 Q340 60 298 59 Q265 59 247 84 Q228 108 228 152 Q229 210 253 244 Q277 279 317 280 L417 280 Z" /><glyph glyph-name="" unicode="a" d="M187 480 L15 0 L81 0 L114 103 L325 103 L359 0 L425 0 L253 480 L187 480 ZM129 150 L220 432 L311 150 L129 150 Z" /><glyph glyph-name="" unicode="b" d="M55 0 L205 0 Q285 1 332 36 Q379 71 380 130 Q379 175 341 208 Q304 241 244 252 Q291 264 320 293 Q349 322 350 360 Q349 415 305 447 Q260 479 185 480 L55 480 L55 0 ZM120 225 L200 225 Q247 224 278 197 Q309 170 310 130 Q309 94 281 72 Q252 51 204 50 L120 50 L120 225 ZM120 275 L120 430 L185 430 Q233 430 261 411 Q289 392 290 360 Q289 324 259 300 Q230 276 185 275 L120 275 Z" /><glyph glyph-name="" unicode="c" d="M350 10 L350 77 Q329 62 303 56 Q278 50 252 50 Q182 51 140 102 Q99 153 98 240 Q99 327 143 378 Q187 429 262 430 Q287 430 308 424 Q330 418 350 403 L350 471 Q327 478 301 481 Q275 485 251 485 Q150 483 91 418 Q31 352 30 240 Q31 128 91 62 Q150 -3 251 -5 Q275 -5 301 -1 Q327 3 350 10 L350 10 Z" /><glyph glyph-name="" unicode="d" d="M55 0 L192 0 Q296 2 357 66 Q419 131 420 240 Q419 350 357 414 Q296 479 192 480 L55 480 L55 0 ZM120 50 L120 430 L181 430 Q259 429 305 378 Q351 327 352 240 Q351 153 305 102 Q259 51 181 50 L120 50 Z" /><glyph glyph-name="" unicode="e" d="M55 0 L330 0 L330 50 L120 50 L120 220 L290 220 L290 270 L120 270 L120 430 L330 430 L330 480 L55 480 L55 0 Z" /><glyph glyph-name="" unicode="f" d="M55 0 L120 0 L120 215 L280 215 L280 265 L120 265 L120 430 L320 430 L320 480 L55 480 L55 0 Z" /><glyph glyph-name="" unicode="g" d="M245 260 L245 210 L315 210 L315 60 Q286 50 252 50 Q182 51 140 104 Q99 156 98 245 Q99 329 144 379 Q190 429 267 430 Q292 430 313 423 Q334 417 355 403 L355 470 Q331 477 306 481 Q282 485 257 485 Q153 484 92 419 Q31 355 30 245 Q31 131 91 64 Q151 -3 252 -5 Q278 -5 303 0 Q329 4 350 10 L380 14 L380 260 L245 260 Z" /><glyph glyph-name="" unicode="h" d="M55 0 L120 0 L120 225 L330 225 L330 0 L395 0 L395 480 L330 480 L330 275 L120 275 L120 480 L55 480 L55 0 Z" /><glyph glyph-name="" unicode="i" d="M55 0 L120 0 L120 480 L55 480 L55 0 Z" /><glyph glyph-name="" unicode="j" d="M260 480 L35 480 L35 430 L195 430 L195 145 Q194 99 171 73 Q148 46 109 45 Q87 45 67 53 Q48 61 30 74 L30 8 Q49 2 70 -1 Q90 -5 110 -5 Q178 -4 219 36 Q259 77 260 145 L260 480 Z" /><glyph glyph-name="" unicode="k" d="M132 245 L307 0 L395 0 L191 245 L378 480 L299 480 L132 245 ZM55 0 L120 0 L120 480 L55 480 L55 0 Z" /><glyph glyph-name="" unicode="l" d="M55 0 L320 0 L320 50 L120 50 L120 480 L55 480 L55 0 Z" /><glyph glyph-name="" unicode="m" d="M55 0 L115 0 L115 362 L309 3 L311 3 L505 362 L505 0 L565 0 L565 480 L505 480 L310 119 L115 480 L55 480 L55 0 Z" /><glyph glyph-name="" unicode="n" d="M55 0 L105 0 L105 363 L340 0 L385 0 L385 480 L335 480 L335 112 L100 480 L55 480 L55 0 Z" /><glyph glyph-name="" unicode="o" d="M98 240 Q99 329 136 381 Q172 434 235 435 Q298 434 334 381 Q371 329 372 240 Q371 151 334 99 Q298 46 235 45 Q172 46 136 99 Q99 151 98 240 L98 240 ZM30 240 Q31 128 86 62 Q141 -3 235 -5 Q329 -3 384 62 Q439 128 440 240 Q439 352 384 418 Q329 483 235 485 Q141 483 86 418 Q31 352 30 240 L30 240 Z" /><glyph glyph-name="" unicode="p" d="M55 0 L120 0 L120 170 L185 170 Q274 171 326 214 Q379 257 380 330 Q379 398 328 439 Q277 479 190 480 L55 480 L55 0 ZM120 220 L120 430 L194 430 Q248 429 280 403 Q312 376 313 330 Q312 280 280 250 Q248 221 194 220 L120 220 Z" /><glyph glyph-name="" unicode="q" d="M30 240 Q31 136 79 71 Q128 7 211 -4 L227 33 L240 -5 L274 -110 L344 -110 L290 2 Q360 22 399 84 Q439 146 440 240 Q439 352 384 418 Q329 483 235 485 Q141 483 86 418 Q31 352 30 240 L30 240 ZM98 240 Q99 329 136 381 Q172 434 235 435 Q298 434 334 381 Q371 329 372 240 Q371 162 344 111 Q317 60 269 45 L233 121 L201 113 L225 40 Q167 46 133 100 Q99 153 98 240 L98 240 Z" /><glyph glyph-name="" unicode="r" d="M55 0 L120 0 L120 215 L186 215 Q236 215 266 193 Q295 172 300 130 L315 0 L380 0 L364 130 Q359 171 333 199 Q307 227 262 240 Q310 253 339 284 Q368 314 369 355 Q368 412 323 446 Q277 479 200 480 L55 480 L55 0 ZM120 265 L120 430 L200 430 Q250 430 279 409 Q308 389 309 355 Q308 314 279 290 Q250 266 200 265 L120 265 Z" /><glyph glyph-name="" unicode="s" d="M40 32 Q108 -5 185 -5 Q265 -4 312 31 Q359 66 360 125 Q361 178 327 214 Q293 249 207 281 Q152 300 128 319 Q105 339 105 360 Q106 394 134 414 Q162 435 210 435 Q238 435 270 426 Q301 416 330 390 L330 454 Q300 470 271 477 Q241 485 210 485 Q132 484 87 451 Q41 417 40 360 Q38 322 71 285 Q103 249 188 217 Q248 195 272 171 Q296 148 295 120 Q294 86 264 66 Q234 45 185 45 Q153 44 118 56 Q84 68 40 99 L40 32 Z" /><glyph glyph-name="" unicode="t" d="M20 480 L20 430 L155 430 L155 0 L220 0 L220 430 L355 430 L355 480 L20 480 Z" /><glyph glyph-name="" unicode="u" d="M210 45 Q164 46 138 73 Q111 99 110 145 L110 480 L45 480 L45 145 Q46 77 90 36 Q135 -4 210 -5 Q285 -4 330 36 Q374 77 375 145 L375 480 L310 480 L310 145 Q309 99 283 73 Q256 46 210 45 L210 45 Z" /><glyph glyph-name="" unicode="v" d="M179 0 L241 0 L405 480 L329 480 L210 55 L91 480 L15 480 L179 0 Z" /><glyph glyph-name="" unicode="w" d="M221 0 L320 368 L419 0 L481 0 L625 480 L549 480 L450 55 L351 480 L289 480 L190 55 L91 480 L15 480 L159 0 L221 0 Z" /><glyph glyph-name="" unicode="x" d="M15 0 L88 0 L210 203 L332 0 L405 0 L240 251 L388 480 L318 480 L210 299 L102 480 L32 480 L180 251 L15 0 Z" /><glyph glyph-name="" unicode="y" d="M177 0 L242 0 L242 189 L405 480 L327 480 L210 228 L92 480 L15 480 L177 189 L177 0 Z" /><glyph glyph-name="" unicode="z" d="M20 0 L350 0 L350 55 L123 55 L360 480 L35 480 L35 425 L258 425 L20 0 Z" /><glyph glyph-name="" unicode="[" d="M60 -200 L205 -200 L205 -155 L120 -155 L120 635 L205 635 L205 680 L60 680 L60 -200 Z" /><glyph glyph-name="" unicode="\" d="M57 544 L9 516 L353 -64 L401 -36 L57 544 Z" /><glyph glyph-name="" unicode="]" d="M10 -200 L155 -200 L155 680 L10 680 L10 635 L95 635 L95 -155 L10 -155 L10 -200 Z" /><glyph glyph-name="" unicode="^" d="M150 398 L215 280 L273 280 L150 485 L27 280 L85 280 L150 398 Z" /><glyph glyph-name="" unicode="_" d="M10 -245 L10 -300 L310 -300 L310 -245 L10 -245 Z" /><glyph glyph-name="" unicode="`" d="M143 361 L150 372 L74 481 L30 481 L30 432 L143 361 Z" /><glyph glyph-name="" unicode="a" d="M25 170 Q26 90 64 43 Q103 -4 168 -5 Q209 -4 243 19 Q276 43 296 83 L300 1 L353 -2 Q353 0 352 30 Q350 60 350 92 L350 340 L297 340 L290 300 L255 340 L173 340 Q105 339 66 293 Q26 248 25 170 L25 170 ZM88 170 Q89 227 113 261 Q137 294 179 295 L290 295 L290 170 Q289 115 257 78 Q226 41 179 40 Q137 41 113 76 Q89 111 88 170 L88 170 Z" /><glyph glyph-name="" unicode="b" d="M50 0 L100 0 L105 85 Q124 44 157 20 Q191 -4 232 -5 Q297 -4 336 43 Q374 90 375 170 Q374 248 334 293 Q295 339 227 340 L147 340 L110 299 L110 540 L50 540 L50 0 ZM110 175 L110 295 L221 295 Q263 294 287 261 Q311 227 312 170 Q311 111 287 76 Q263 41 221 40 Q174 41 143 80 Q111 118 110 175 L110 175 Z" /><glyph glyph-name="" unicode="c" d="M290 8 L290 70 Q272 57 250 50 Q229 43 200 43 Q149 44 119 78 Q89 112 88 170 Q89 228 119 262 Q149 296 200 297 Q229 297 250 290 Q272 283 290 270 L290 332 Q269 338 246 341 Q224 345 200 345 Q120 344 73 297 Q26 250 25 170 Q26 90 73 43 Q120 -4 200 -5 Q224 -5 246 -1 Q269 2 290 8 L290 8 Z" /><glyph glyph-name="" unicode="d" d="M25 170 Q26 90 64 43 Q103 -4 168 -5 Q209 -4 243 20 Q276 44 295 85 L300 1 L353 -2 Q353 0 352 30 Q350 60 350 92 L350 540 L290 540 L290 299 L290 299 L253 340 L173 340 Q105 339 66 293 Q26 248 25 170 L25 170 ZM88 170 Q89 227 113 261 Q137 294 179 295 L290 295 L290 175 Q289 118 257 80 Q226 41 179 40 Q137 41 113 76 Q89 111 88 170 L88 170 Z" /><glyph glyph-name="" unicode="e" d="M85 170 Q85 234 111 267 Q136 300 185 300 Q230 300 254 272 Q278 244 278 190 L125 190 L86 153 Q85 161 85 170 L85 170 ZM25 170 Q26 90 73 43 Q120 -4 200 -5 Q224 -5 245 -2 Q267 1 290 8 L290 72 Q269 57 247 51 Q225 45 200 45 Q150 45 121 71 Q92 96 86 145 L305 145 Q319 145 327 153 Q335 160 335 175 L335 193 Q334 262 294 303 Q253 344 185 345 Q112 344 69 297 Q26 250 25 170 L25 170 Z" /><glyph glyph-name="" unicode="f" d="M50 0 L110 0 L110 295 L235 295 L235 340 L110 340 L110 415 Q110 457 126 478 Q142 500 173 500 Q194 500 216 493 Q238 485 255 473 L255 532 Q236 538 214 541 Q193 545 173 545 Q113 545 82 512 Q50 479 50 415 L50 0 Z" /><glyph glyph-name="" unicode="g" d="M25 170 Q26 90 64 43 Q103 -4 168 -5 Q206 -5 238 17 Q270 38 290 75 L290 -35 Q289 -92 257 -126 Q225 -159 170 -160 Q144 -160 120 -153 Q96 -146 75 -131 L75 -193 Q122 -205 170 -205 Q252 -204 301 -158 Q349 -113 350 -35 L350 340 L297 340 L290 300 L255 340 L173 340 Q105 339 66 293 Q26 248 25 170 L25 170 ZM88 170 Q89 227 113 261 Q137 294 179 295 L290 295 L290 175 Q289 118 257 80 Q226 41 179 40 Q137 41 113 76 Q89 111 88 170 L88 170 Z" /><glyph glyph-name="" unicode="h" d="M50 540 L50 0 L110 0 L110 160 Q111 219 145 259 Q179 298 230 300 Q264 300 284 282 Q305 265 305 235 L305 0 L365 0 L365 245 Q364 291 329 318 Q294 344 235 345 Q195 345 163 322 Q131 300 110 262 L110 540 L50 540 Z" /><glyph glyph-name="" unicode="i" d="M50 450 L99 450 Q106 450 108 452 Q110 454 110 461 L110 510 L61 510 Q54 510 52 508 Q50 506 50 499 L50 450 ZM50 340 L50 90 L55 2 L113 -2 Q113 0 112 30 Q110 60 110 92 L110 340 L50 340 Z" /><glyph glyph-name="" unicode="j" d="M50 450 L99 450 Q106 450 108 452 Q110 454 110 461 L110 510 L61 510 Q54 510 52 508 Q50 506 50 499 L50 450 ZM50 340 L50 -92 Q50 -123 36 -141 Q23 -160 0 -160 Q-20 -160 -38 -153 Q-57 -146 -73 -135 L-73 -193 Q-54 -199 -37 -202 Q-20 -205 0 -205 Q50 -204 80 -173 Q109 -142 110 -90 L110 340 L50 340 Z" /><glyph glyph-name="" unicode="k" d="M365 0 L195 175 L348 340 L273 340 L128 175 L279 0 L365 0 ZM50 0 L110 0 L110 540 L50 540 L50 0 Z" /><glyph glyph-name="" unicode="l" d="M50 540 L50 90 L55 2 L113 -2 Q113 0 112 30 Q110 60 110 92 L110 540 L50 540 Z" /><glyph glyph-name="" unicode="m" d="M50 0 L110 0 L110 165 Q111 222 142 260 Q173 299 220 300 Q250 300 267 284 Q285 267 285 240 L285 0 L345 0 L345 165 Q346 222 377 260 Q408 299 455 300 Q485 300 502 284 Q520 267 520 240 L520 0 L580 0 L580 250 Q579 293 547 319 Q515 344 460 345 Q423 345 393 323 Q363 302 344 265 Q337 302 306 323 Q275 345 225 345 Q189 345 159 324 Q129 303 110 267 L103 340 L50 340 L50 0 Z" /><glyph glyph-name="" unicode="n" d="M50 0 L110 0 L110 165 Q111 222 145 260 Q179 299 230 300 Q264 300 284 282 Q305 265 305 235 L305 0 L365 0 L365 245 Q364 291 329 318 Q294 344 235 345 Q195 345 163 323 Q130 301 109 264 L105 340 L50 340 L50 0 Z" /><glyph glyph-name="" unicode="o" d="M88 170 Q89 229 116 264 Q143 299 190 300 Q237 299 264 264 Q291 229 292 170 Q291 111 264 76 Q237 41 190 40 Q143 41 116 76 Q89 111 88 170 L88 170 ZM25 170 Q26 90 70 43 Q115 -4 190 -5 Q265 -4 310 43 Q354 90 355 170 Q354 250 310 297 Q265 344 190 345 Q115 344 70 297 Q26 250 25 170 L25 170 Z" /><glyph glyph-name="" unicode="p" d="M50 340 L50 -200 L110 -200 L110 75 Q130 38 162 17 Q194 -5 232 -5 Q297 -4 336 43 Q374 90 375 170 Q374 248 334 293 Q295 339 227 340 L145 340 L110 300 L103 340 L50 340 ZM110 295 L221 295 Q263 294 287 261 Q311 227 312 170 Q311 111 287 76 Q263 41 221 40 Q174 41 143 79 Q112 117 110 174 L110 295 Z" /><glyph glyph-name="" unicode="q" d="M25 170 Q26 90 64 43 Q103 -4 168 -5 Q206 -5 238 17 Q270 38 290 75 L290 -200 L350 -200 L350 340 L297 340 L290 300 L255 340 L173 340 Q105 339 66 293 Q26 248 25 170 L25 170 ZM88 170 Q89 227 113 261 Q137 294 179 295 L290 295 L290 174 Q288 117 257 79 Q226 41 179 40 Q137 41 113 76 Q89 111 88 170 L88 170 Z" /><glyph glyph-name="" unicode="r" d="M50 340 L50 0 L110 0 L110 170 Q111 220 139 250 Q167 279 215 280 L265 280 L265 345 L237 345 Q197 345 164 322 Q131 300 109 261 L105 340 L50 340 Z" /><glyph glyph-name="" unicode="s" d="M40 20 Q65 11 94 3 Q123 -5 150 -5 Q226 -5 265 22 Q305 49 305 100 Q303 147 270 168 Q237 188 194 198 Q159 206 133 219 Q106 231 105 255 Q106 273 126 284 Q147 295 180 295 Q209 295 236 288 Q264 280 285 265 L285 332 Q261 338 238 342 Q214 345 190 345 Q117 345 78 321 Q40 298 40 253 Q42 203 79 180 Q115 157 160 147 Q193 139 216 127 Q239 115 240 92 Q240 71 218 58 Q197 45 160 45 Q132 45 101 55 Q70 64 40 85 L40 20 Z" /><glyph glyph-name="" unicode="t" d="M47 437 L47 125 Q47 61 79 28 Q110 -5 170 -5 Q190 -5 211 -1 Q233 2 252 8 L252 67 Q235 55 213 47 Q191 40 170 40 Q139 40 123 62 Q107 83 107 125 L107 295 L242 295 L242 340 L107 340 L107 460 L47 437 Z" /><glyph glyph-name="" unicode="u" d="M360 0 L360 340 L300 340 L300 175 Q299 118 265 80 Q231 41 180 40 Q146 40 126 58 Q105 75 105 105 L105 340 L45 340 L45 95 Q46 49 81 23 Q116 -4 175 -5 Q215 -5 247 17 Q280 39 301 76 L305 0 L360 0 Z" /><glyph glyph-name="" unicode="v" d="M162 0 L219 0 L365 340 L290 340 L190 48 L90 340 L15 340 L162 0 Z" /><glyph glyph-name="" unicode="w" d="M136 0 L194 0 L285 267 L376 0 L434 0 L555 340 L480 340 L405 48 L315 340 L255 340 L165 48 L90 340 L15 340 L136 0 Z" /><glyph glyph-name="" unicode="x" d="M95 0 L195 143 L295 0 L375 0 L223 180 L358 340 L282 340 L195 216 L108 340 L32 340 L167 180 L15 0 L95 0 Z" /><glyph glyph-name="" unicode="y" d="M15 340 L174 4 Q148 -59 110 -101 Q71 -143 5 -145 L5 -200 Q86 -198 136 -145 Q186 -92 218 -9 L360 340 L289 340 L198 64 L86 340 L15 340 Z" /><glyph glyph-name="" unicode="z" d="M15 0 L305 0 L305 45 L112 45 L315 340 L30 340 L30 295 L218 295 L15 0 Z" /><glyph glyph-name="" unicode="{" d="M15 260 L15 220 Q74 224 90 189 Q107 155 105 40 Q105 -77 137 -138 Q169 -200 230 -200 L230 -155 Q191 -160 180 -125 Q169 -90 170 40 Q170 125 141 175 Q113 226 58 240 Q113 254 141 305 Q170 355 170 440 Q169 570 180 605 Q191 640 230 635 L230 680 Q169 680 137 619 Q105 557 105 440 Q107 325 90 291 Q74 256 15 260 L15 260 Z" /><glyph glyph-name="" unicode="|" d="M80 -300 L140 -300 L140 700 L80 700 L80 -300 Z" /><glyph glyph-name="" unicode="}" d="M225 220 L225 260 Q166 256 150 291 Q133 325 135 440 Q134 550 100 614 Q65 679 10 680 L10 635 Q49 640 60 605 Q71 570 70 440 Q70 355 99 305 Q127 254 182 240 Q127 226 99 175 Q70 125 70 40 Q71 -90 60 -125 Q49 -160 10 -155 L10 -200 Q67 -198 101 -134 Q134 -69 135 40 Q133 155 150 189 Q166 224 225 220 L225 220 Z" /><glyph glyph-name="" unicode="~" d="M260 232 L260 292 Q249 273 236 263 Q223 252 207 252 Q194 252 180 258 Q165 263 150 271 Q135 278 120 283 Q106 289 93 289 Q77 289 64 279 Q51 269 40 250 L40 190 Q51 209 64 219 Q77 230 93 230 Q106 230 120 224 Q135 219 150 212 Q165 204 180 199 Q194 193 207 193 Q223 193 236 203 Q249 213 260 232 L260 232 Z" /><glyph glyph-name="" unicode="¡" d="M115 345 L61 345 Q54 345 52 343 Q50 341 50 334 L50 280 L104 280 Q111 280 113 282 Q115 284 115 291 L115 345 ZM115 200 L50 200 L50 -140 L115 -140 L115 200 Z" /><glyph glyph-name="" unicode="¢" d="M200 415 L200 500 L150 500 L150 410 Q92 396 59 352 Q26 307 25 240 Q26 173 59 128 Q92 84 150 70 L150 -20 L200 -20 L200 65 Q224 66 244 69 Q265 73 285 78 L285 147 Q267 134 245 127 Q224 120 195 120 Q147 121 119 153 Q91 185 90 240 Q91 295 119 327 Q147 359 195 360 Q224 360 245 353 Q267 346 285 333 L285 402 Q265 407 244 411 Q224 414 200 415 L200 415 Z" /><glyph glyph-name="" unicode="£" d="M305 0 L305 55 L105 55 Q117 71 123 93 Q130 114 130 140 L130 215 L245 215 L245 265 L130 265 L130 350 Q131 389 154 412 Q177 434 217 435 Q236 435 256 428 Q277 421 295 408 L295 472 Q252 485 216 485 Q149 484 110 447 Q71 409 70 345 L70 265 L30 265 L30 215 L70 215 L70 140 Q70 107 61 84 Q52 61 36 51 L15 45 L15 12 L15 0 L305 0 Z" /><glyph glyph-name="" unicode="¤" d="M108 240 Q108 272 124 288 Q141 305 170 305 Q199 305 216 288 Q232 272 232 240 Q232 208 216 192 Q199 175 170 175 Q141 175 124 192 Q108 208 108 240 L108 240 ZM108 142 Q134 125 170 125 Q206 125 232 142 L279 96 L314 131 L267 179 Q282 205 282 240 Q282 275 267 301 L314 349 L279 384 L232 338 Q206 355 170 355 Q134 355 108 338 L61 384 L26 349 L73 301 Q58 275 58 240 Q58 205 73 179 L26 131 L61 96 L108 142 Z" /><glyph glyph-name="" unicode="¥" d="M240 155 L335 155 L335 205 L252 205 L400 480 L329 480 L210 234 L97 480 L15 480 L163 205 L80 205 L80 155 L175 155 L175 0 L240 0 L240 155 Z" /><glyph glyph-name="" unicode="¦" d="M80 -300 L140 -300 L140 79 L80 79 L80 -300 ZM80 321 L140 321 L140 700 L80 700 L80 321 Z" /><glyph glyph-name="" unicode="§" d="M123 289 Q77 276 51 249 Q25 222 25 184 Q24 130 60 95 Q97 60 189 27 Q244 8 267 -9 Q291 -25 290 -43 Q289 -71 266 -88 Q243 -105 203 -105 Q168 -105 142 -92 Q115 -80 90 -56 L90 -124 Q119 -139 147 -147 Q175 -155 207 -155 Q277 -154 317 -122 Q357 -90 358 -36 Q358 -15 347 4 Q336 23 312 41 Q358 54 384 81 Q410 108 410 146 Q411 200 375 235 Q338 270 246 303 Q191 322 168 339 Q144 355 145 373 Q146 401 169 418 Q192 435 232 435 Q267 435 293 422 Q320 410 345 386 L345 454 Q316 469 288 477 Q260 485 228 485 Q158 484 118 452 Q78 420 77 366 Q77 345 88 326 Q99 307 123 289 L123 289 ZM266 68 Q238 82 198 96 Q138 119 115 143 Q92 167 93 193 Q93 220 114 238 Q134 256 169 262 Q197 248 237 234 Q297 211 320 187 Q343 163 342 137 Q342 110 321 92 Q301 74 266 68 L266 68 Z" /><glyph glyph-name="" unicode="¨" d="M160 425 L209 425 Q216 425 218 427 Q220 429 220 436 L220 485 L171 485 Q164 485 162 483 Q160 481 160 474 L160 425 ZM20 425 L69 425 Q76 425 78 427 Q80 429 80 436 L80 485 L31 485 Q24 485 22 483 Q20 481 20 474 L20 425 Z" /><glyph glyph-name="" unicode="©" d="M425 98 L425 167 Q407 154 385 147 Q364 140 335 140 Q292 141 266 168 Q241 194 240 240 Q241 286 266 313 Q292 339 335 340 Q364 340 385 333 Q407 326 425 313 L425 382 Q404 388 382 391 Q361 395 335 395 Q262 394 219 352 Q176 311 175 240 Q176 169 219 128 Q262 86 335 85 Q361 85 382 89 Q404 92 425 98 L425 98 ZM88 240 Q89 347 150 410 Q211 474 315 475 Q419 474 480 410 Q541 347 542 240 Q541 133 480 70 Q419 6 315 5 Q211 6 150 70 Q89 133 88 240 L88 240 ZM30 240 Q32 110 108 33 Q185 -43 315 -45 Q445 -43 522 33 Q598 110 600 240 Q598 370 522 447 Q445 523 315 525 Q185 523 108 447 Q32 370 30 240 L30 240 Z" /><glyph glyph-name="" unicode="ª" d="M242 440 L242 344 Q241 301 217 276 Q193 251 153 250 Q120 251 101 276 Q82 301 82 344 Q82 389 101 415 Q120 440 153 440 L242 440 ZM295 480 L246 480 L242 448 L213 480 L144 480 Q91 479 59 444 Q26 408 25 344 Q26 280 59 243 Q91 205 144 204 Q175 204 201 220 Q226 236 243 263 L246 210 L297 207 Q297 209 296 233 Q295 256 295 282 L295 480 Z" /><glyph glyph-name="" unicode="«" d="M260 48 L270 115 L211 180 L270 245 L260 312 L150 180 L260 48 ZM130 48 L140 115 L81 180 L140 245 L130 312 L20 180 L130 48 Z" /><glyph glyph-name="" unicode="¬" d="M275 90 L325 90 L325 265 L30 265 L30 215 L275 215 L275 90 Z" /><glyph glyph-name="" unicode="­" d="M20 255 L20 200 L220 200 L220 255 L20 255 Z" /><glyph glyph-name="" unicode="®" d="M88 240 Q89 347 150 410 Q211 474 315 475 Q419 474 480 410 Q541 347 542 240 Q541 133 480 70 Q419 6 315 5 Q211 6 150 70 Q89 133 88 240 L88 240 ZM30 240 Q32 110 108 33 Q185 -43 315 -45 Q445 -43 522 33 Q598 110 600 240 Q598 370 522 447 Q445 523 315 525 Q185 523 108 447 Q32 370 30 240 L30 240 ZM219 87 L272 87 L272 217 L287 217 Q326 217 347 197 Q368 177 371 144 L375 87 L432 87 L425 144 Q421 177 402 201 Q384 226 349 236 Q389 247 407 269 Q426 292 426 318 Q425 354 395 374 Q364 395 312 395 L219 395 L219 87 ZM272 258 L272 355 L307 355 Q337 354 355 343 Q373 331 374 311 Q373 289 355 274 Q337 259 310 258 L272 258 Z" /><glyph glyph-name="" unicode="¯" d="M20 465 L20 410 L220 410 L220 465 L20 465 Z" /><glyph glyph-name="" unicode="°" d="M30 365 Q31 316 63 284 Q94 251 142 250 Q190 251 221 284 Q253 316 254 365 Q253 414 221 446 Q190 479 142 480 Q94 479 63 446 Q31 414 30 365 L30 365 ZM80 365 Q81 393 98 411 Q116 429 142 430 Q168 429 186 411 Q203 393 204 365 Q203 337 186 319 Q168 301 142 300 Q116 301 98 319 Q81 337 80 365 L80 365 Z" /><glyph glyph-name="" unicode="±" d="M320 75 L40 75 L40 25 L320 25 L320 75 ZM155 140 L205 140 L205 265 L330 265 L330 315 L205 315 L205 440 L155 440 L155 315 L30 315 L30 265 L155 265 L155 140 Z" /><glyph glyph-name="" unicode="²" d="M247 158 L247 202 L70 202 Q81 222 101 244 Q122 266 145 290 Q183 326 214 367 Q245 408 247 446 Q246 491 216 518 Q185 545 133 546 Q111 546 87 539 Q63 533 39 521 L39 466 Q61 487 83 496 Q105 506 125 506 Q158 505 177 489 Q197 473 197 446 Q197 424 177 398 Q157 372 128 343 Q87 305 52 258 Q17 212 15 158 L247 158 Z" /><glyph glyph-name="" unicode="³" d="M141 373 Q178 383 203 405 Q228 427 229 457 Q228 497 193 521 Q159 544 101 545 Q84 545 66 542 Q49 540 33 535 L33 482 Q49 494 66 500 Q83 505 101 505 Q137 505 159 492 Q180 479 181 457 Q180 426 155 408 Q130 389 89 389 L73 389 L73 349 L108 349 Q148 348 172 326 Q196 303 197 265 Q196 232 170 213 Q144 193 101 193 Q79 193 60 199 Q41 204 25 216 L25 163 Q45 158 63 155 Q82 153 101 153 Q170 154 211 184 Q252 214 253 265 Q251 304 221 334 Q190 364 141 373 L141 373 Z" /><glyph glyph-name="" unicode="´" d="M37 420 L150 491 L150 540 L106 540 L30 431 L37 420 Z" /><glyph glyph-name="" unicode="¶" d="M145 330 L136 330 Q114 330 100 345 Q87 360 87 385 Q87 406 100 418 Q114 430 136 430 L145 430 L145 330 ZM200 -160 L200 430 L275 430 L275 -160 L330 -160 L330 480 L123 480 Q76 479 48 454 Q21 428 20 385 Q21 337 48 309 Q76 281 123 280 L145 280 L145 -160 L200 -160 Z" /><glyph glyph-name="" unicode="·" d="M50 207 L104 207 Q111 207 113 209 Q115 211 115 218 L115 272 L61 272 Q54 272 52 270 Q50 268 50 261 L50 207 Z" /><glyph glyph-name="" unicode="¸" d="M39 8 L28 -86 L74 -86 Q99 -86 112 -98 Q126 -110 126 -131 Q126 -150 111 -161 Q97 -173 73 -173 Q60 -173 46 -169 Q33 -165 22 -157 L22 -198 Q49 -205 73 -205 Q116 -204 142 -184 Q167 -163 168 -128 Q167 -94 143 -74 Q118 -53 75 -53 L65 -53 L73 8 L39 8 Z" /><glyph glyph-name="" unicode="¹" d="M69 156 L121 156 L121 540 L85 540 Q85 511 69 494 Q52 476 25 476 L25 440 L69 440 L69 156 Z" /><glyph glyph-name="" unicode="º" d="M82 345 Q82 392 103 419 Q124 446 160 447 Q196 446 217 419 Q238 392 238 345 Q238 298 217 271 Q196 244 160 243 Q124 244 103 271 Q82 298 82 345 L82 345 ZM25 345 Q26 281 62 244 Q98 206 160 205 Q222 206 258 244 Q294 281 295 345 Q294 409 258 447 Q222 484 160 485 Q98 484 62 447 Q26 409 25 345 L25 345 Z" /><glyph glyph-name="" unicode="»" d="M55 312 L45 245 L104 180 L45 115 L55 48 L165 180 L55 312 ZM185 312 L175 245 L234 180 L175 115 L185 48 L295 180 L185 312 Z" /><glyph glyph-name="" unicode="¿" d="M215 345 L161 345 Q154 345 152 343 Q150 341 150 334 L150 280 L204 280 Q211 280 213 282 Q215 284 215 291 L215 345 ZM215 200 L150 200 Q149 156 130 128 Q111 100 87 79 Q64 59 47 36 Q31 13 30 -22 Q31 -78 67 -111 Q103 -144 164 -145 Q193 -145 222 -138 Q251 -130 280 -115 L280 -51 Q253 -77 227 -89 Q200 -100 176 -100 Q139 -100 117 -79 Q96 -59 95 -25 Q96 -2 109 16 Q122 34 141 51 Q168 74 191 108 Q214 142 215 200 L215 200 Z" /><glyph glyph-name="" unicode="à" d="M243 535 L250 546 L174 655 L130 655 L130 606 L243 535 ZM187 480 L15 0 L81 0 L114 103 L325 103 L359 0 L425 0 L253 480 L187 480 ZM129 150 L220 432 L311 150 L129 150 Z" /><glyph glyph-name="" unicode="á" d="M177 535 L290 606 L290 655 L246 655 L170 546 L177 535 ZM187 480 L15 0 L81 0 L114 103 L325 103 L359 0 L425 0 L253 480 L187 480 ZM129 150 L220 432 L311 150 L129 150 Z" /><glyph glyph-name="" unicode="â" d="M218 655 L202 655 L106 584 L106 535 L120 535 L210 613 L300 535 L314 535 L314 584 L218 655 ZM187 480 L15 0 L81 0 L114 103 L325 103 L359 0 L425 0 L253 480 L187 480 ZM129 150 L220 432 L311 150 L129 150 Z" /><glyph glyph-name="" unicode="ã" d="M320 589 L320 644 Q309 625 296 615 Q283 604 267 604 Q254 604 240 610 Q225 615 210 623 Q195 630 180 635 Q166 641 153 641 Q137 641 124 631 Q111 621 100 602 L100 547 Q111 566 124 576 Q137 587 153 587 Q166 587 180 581 Q195 576 210 569 Q225 561 240 556 Q254 550 267 550 Q283 550 296 560 Q309 570 320 589 L320 589 ZM187 480 L15 0 L81 0 L114 103 L325 103 L359 0 L425 0 L253 480 L187 480 ZM129 150 L220 432 L311 150 L129 150 Z" /><glyph glyph-name="" unicode="ä" d="M250 570 L299 570 Q306 570 308 572 Q310 574 310 581 L310 630 L261 630 Q254 630 252 628 Q250 626 250 619 L250 570 ZM110 570 L159 570 Q166 570 168 572 Q170 574 170 581 L170 630 L121 630 Q114 630 112 628 Q110 626 110 619 L110 570 ZM187 480 L15 0 L81 0 L114 103 L325 103 L359 0 L425 0 L253 480 L187 480 ZM129 150 L220 432 L311 150 L129 150 Z" /><glyph glyph-name="" unicode="å" d="M128 595 Q129 556 151 533 Q173 511 210 510 Q247 511 269 533 Q291 556 292 595 Q291 634 269 657 Q247 679 210 680 Q173 679 151 657 Q129 634 128 595 L128 595 ZM168 595 Q168 616 180 628 Q191 640 210 640 Q229 640 240 628 Q252 616 252 595 Q252 574 240 562 Q229 550 210 550 Q191 550 180 562 Q168 574 168 595 L168 595 ZM187 480 L15 0 L81 0 L114 103 L325 103 L359 0 L425 0 L253 480 L187 480 ZM129 150 L220 432 L311 150 L129 150 Z" /><glyph glyph-name="" unicode="æ" d="M15 0 L87 0 L129 145 L158 105 L278 105 L278 0 L528 0 L528 55 L343 55 L343 225 L488 225 L488 275 L343 275 L343 425 L528 425 L528 480 L175 480 L15 0 ZM278 425 L278 155 L132 155 L210 425 L278 425 Z" /><glyph glyph-name="" unicode="ç" d="M350 10 L350 77 Q332 64 306 57 Q281 50 252 50 Q182 51 140 102 Q99 153 98 240 Q99 327 143 378 Q187 429 262 430 Q290 430 311 423 Q332 416 350 403 L350 470 Q329 476 303 481 Q278 485 252 485 Q151 483 91 418 Q31 352 30 240 Q31 146 74 84 Q117 22 192 2 L182 -86 L228 -86 Q253 -86 266 -98 Q280 -110 280 -131 Q280 -150 265 -161 Q251 -173 227 -173 Q214 -173 200 -169 Q187 -165 176 -157 L176 -198 Q203 -205 227 -205 Q270 -204 296 -184 Q321 -163 322 -128 Q321 -94 297 -74 Q272 -53 229 -53 L219 -53 L225 -4 Q238 -5 252 -5 Q278 -5 303 -1 Q329 4 350 10 L350 10 Z" /><glyph glyph-name="" unicode="è" d="M225 535 L232 546 L156 655 L112 655 L112 606 L225 535 ZM55 0 L330 0 L330 50 L120 50 L120 220 L290 220 L290 270 L120 270 L120 430 L330 430 L330 480 L55 480 L55 0 Z" /><glyph glyph-name="" unicode="é" d="M159 535 L272 606 L272 655 L228 655 L152 546 L159 535 ZM55 0 L330 0 L330 50 L120 50 L120 220 L290 220 L290 270 L120 270 L120 430 L330 430 L330 480 L55 480 L55 0 Z" /><glyph glyph-name="" unicode="ê" d="M200 655 L184 655 L88 584 L88 535 L102 535 L192 613 L282 535 L296 535 L296 584 L200 655 ZM55 0 L330 0 L330 50 L120 50 L120 220 L290 220 L290 270 L120 270 L120 430 L330 430 L330 480 L55 480 L55 0 Z" /><glyph glyph-name="" unicode="ë" d="M228 545 L277 545 Q284 545 286 547 Q288 549 288 556 L288 605 L239 605 Q231 605 229 603 Q227 601 228 594 L228 545 ZM88 545 L137 545 Q144 545 146 547 Q148 549 148 556 L148 605 L99 605 Q91 605 89 603 Q87 601 88 594 L88 545 ZM55 0 L330 0 L330 50 L120 50 L120 220 L290 220 L290 270 L120 270 L120 430 L330 430 L330 480 L55 480 L55 0 Z" /><glyph glyph-name="" unicode="ì" d="M121 535 L128 546 L52 655 L8 655 L8 606 L121 535 ZM55 0 L120 0 L120 480 L55 480 L55 0 Z" /><glyph glyph-name="" unicode="í" d="M55 535 L168 606 L168 655 L124 655 L48 546 L55 535 ZM55 0 L120 0 L120 480 L55 480 L55 0 Z" /><glyph glyph-name="" unicode="î" d="M96 655 L80 655 L-16 584 L-16 535 L-2 535 L88 613 L178 535 L192 535 L192 584 L96 655 ZM55 0 L120 0 L120 480 L55 480 L55 0 Z" /><glyph glyph-name="" unicode="ï" d="M128 570 L177 570 Q184 570 186 572 Q188 574 188 581 L188 630 L139 630 Q132 630 130 628 Q128 626 128 619 L128 570 ZM-12 570 L37 570 Q44 570 46 572 Q48 574 48 581 L48 630 L-1 630 Q-8 630 -10 628 Q-12 626 -12 619 L-12 570 ZM55 0 L120 0 L120 480 L55 480 L55 0 Z" /><glyph glyph-name="" unicode="ð" d="M145 50 L145 215 L245 215 L245 265 L145 265 L145 430 L216 430 Q294 429 340 379 Q386 329 387 245 Q386 156 340 104 Q294 51 216 50 L145 50 ZM80 0 L227 0 Q331 2 392 67 Q454 133 455 245 Q454 352 392 415 Q331 479 227 480 L80 480 L80 265 L20 265 L20 215 L80 215 L80 0 Z" /><glyph glyph-name="" unicode="ñ" d="M335 589 L335 644 Q324 625 311 615 Q298 604 282 604 Q269 604 255 610 Q240 615 225 623 Q210 630 195 635 Q181 641 168 641 Q152 641 139 631 Q126 621 115 602 L115 547 Q126 566 139 576 Q152 587 168 587 Q181 587 195 581 Q210 576 225 569 Q240 561 255 556 Q269 550 282 550 Q298 550 311 560 Q324 570 335 589 L335 589 ZM55 0 L105 0 L105 363 L340 0 L385 0 L385 480 L335 480 L335 112 L100 480 L55 480 L55 0 Z" /><glyph glyph-name="" unicode="ò" d="M268 535 L275 546 L199 655 L155 655 L155 606 L268 535 ZM98 240 Q99 329 136 381 Q172 434 235 435 Q298 434 334 381 Q371 329 372 240 Q371 151 334 99 Q298 46 235 45 Q172 46 136 99 Q99 151 98 240 L98 240 ZM30 240 Q31 128 86 62 Q141 -3 235 -5 Q329 -3 384 62 Q439 128 440 240 Q439 352 384 418 Q329 483 235 485 Q141 483 86 418 Q31 352 30 240 L30 240 Z" /><glyph glyph-name="" unicode="ó" d="M192 535 L305 606 L305 655 L261 655 L185 546 L192 535 ZM98 240 Q99 329 136 381 Q172 434 235 435 Q298 434 334 381 Q371 329 372 240 Q371 151 334 99 Q298 46 235 45 Q172 46 136 99 Q99 151 98 240 L98 240 ZM30 240 Q31 128 86 62 Q141 -3 235 -5 Q329 -3 384 62 Q439 128 440 240 Q439 352 384 418 Q329 483 235 485 Q141 483 86 418 Q31 352 30 240 L30 240 Z" /><glyph glyph-name="" unicode="ô" d="M243 655 L227 655 L131 584 L131 535 L145 535 L235 613 L325 535 L339 535 L339 584 L243 655 ZM98 240 Q99 329 136 381 Q172 434 235 435 Q298 434 334 381 Q371 329 372 240 Q371 151 334 99 Q298 46 235 45 Q172 46 136 99 Q99 151 98 240 L98 240 ZM30 240 Q31 128 86 62 Q141 -3 235 -5 Q329 -3 384 62 Q439 128 440 240 Q439 352 384 418 Q329 483 235 485 Q141 483 86 418 Q31 352 30 240 L30 240 Z" /><glyph glyph-name="" unicode="õ" d="M345 589 L345 644 Q334 625 321 615 Q308 604 292 604 Q279 604 265 610 Q250 615 235 623 Q220 630 205 635 Q191 641 178 641 Q162 641 149 631 Q136 621 125 602 L125 547 Q136 566 149 576 Q162 587 178 587 Q191 587 205 581 Q220 576 235 569 Q250 561 265 556 Q279 550 292 550 Q308 550 321 560 Q334 570 345 589 L345 589 ZM98 240 Q99 329 136 381 Q172 434 235 435 Q298 434 334 381 Q371 329 372 240 Q371 151 334 99 Q298 46 235 45 Q172 46 136 99 Q99 151 98 240 L98 240 ZM30 240 Q31 128 86 62 Q141 -3 235 -5 Q329 -3 384 62 Q439 128 440 240 Q439 352 384 418 Q329 483 235 485 Q141 483 86 418 Q31 352 30 240 L30 240 Z" /><glyph glyph-name="" unicode="ö" d="M275 570 L324 570 Q331 570 333 572 Q335 574 335 581 L335 630 L286 630 Q279 630 277 628 Q275 626 275 619 L275 570 ZM135 570 L184 570 Q191 570 193 572 Q195 574 195 581 L195 630 L146 630 Q139 630 137 628 Q135 626 135 619 L135 570 ZM98 240 Q99 329 136 381 Q172 434 235 435 Q298 434 334 381 Q371 329 372 240 Q371 151 334 99 Q298 46 235 45 Q172 46 136 99 Q99 151 98 240 L98 240 ZM30 240 Q31 128 86 62 Q141 -3 235 -5 Q329 -3 384 62 Q439 128 440 240 Q439 352 384 418 Q329 483 235 485 Q141 483 86 418 Q31 352 30 240 L30 240 Z" /><glyph glyph-name="" unicode="×" d="M259 106 L294 141 L195 240 L294 339 L259 374 L160 275 L61 374 L26 339 L125 240 L26 141 L61 106 L160 205 L259 106 Z" /><glyph glyph-name="" unicode="ø" d="M30 240 Q30 181 46 135 Q63 88 93 55 L49 -17 L91 -43 L132 23 Q154 9 180 2 Q206 -5 235 -5 Q329 -3 384 62 Q439 128 440 240 Q440 299 424 345 Q407 392 377 425 L421 497 L379 523 L338 457 Q316 471 290 478 Q264 485 235 485 Q141 483 86 418 Q31 352 30 240 L30 240 ZM161 71 L343 368 Q357 343 364 311 Q372 279 372 240 Q371 151 334 99 Q298 46 235 45 Q192 45 161 71 L161 71 ZM127 112 Q113 137 106 169 Q98 201 98 240 Q99 329 136 381 Q172 434 235 435 Q278 435 309 409 L127 112 Z" /><glyph glyph-name="" unicode="ù" d="M240 535 L247 546 L171 655 L127 655 L127 606 L240 535 ZM210 45 Q164 46 138 73 Q111 99 110 145 L110 480 L45 480 L45 145 Q46 77 90 36 Q135 -4 210 -5 Q285 -4 330 36 Q374 77 375 145 L375 480 L310 480 L310 145 Q309 99 283 73 Q256 46 210 45 L210 45 Z" /><glyph glyph-name="" unicode="ú" d="M174 535 L287 606 L287 655 L243 655 L167 546 L174 535 ZM210 45 Q164 46 138 73 Q111 99 110 145 L110 480 L45 480 L45 145 Q46 77 90 36 Q135 -4 210 -5 Q285 -4 330 36 Q374 77 375 145 L375 480 L310 480 L310 145 Q309 99 283 73 Q256 46 210 45 L210 45 Z" /><glyph glyph-name="" unicode="û" d="M215 655 L199 655 L103 584 L103 535 L117 535 L207 613 L297 535 L311 535 L311 584 L215 655 ZM210 45 Q164 46 138 73 Q111 99 110 145 L110 480 L45 480 L45 145 Q46 77 90 36 Q135 -4 210 -5 Q285 -4 330 36 Q374 77 375 145 L375 480 L310 480 L310 145 Q309 99 283 73 Q256 46 210 45 L210 45 Z" /><glyph glyph-name="" unicode="ü" d="M247 570 L296 570 Q303 570 305 572 Q307 574 307 581 L307 630 L258 630 Q251 630 249 628 Q247 626 247 619 L247 570 ZM107 570 L156 570 Q163 570 165 572 Q167 574 167 581 L167 630 L118 630 Q111 630 109 628 Q107 626 107 619 L107 570 ZM210 45 Q164 46 138 73 Q111 99 110 145 L110 480 L45 480 L45 145 Q46 77 90 36 Q135 -4 210 -5 Q285 -4 330 36 Q374 77 375 145 L375 480 L310 480 L310 145 Q309 99 283 73 Q256 46 210 45 L210 45 Z" /><glyph glyph-name="" unicode="ý" d="M174 535 L287 606 L287 655 L243 655 L167 546 L174 535 ZM177 0 L242 0 L242 189 L405 480 L327 480 L210 228 L92 480 L15 480 L177 189 L177 0 Z" /><glyph glyph-name="" unicode="þ" d="M120 180 L120 360 L189 360 Q236 359 264 337 Q292 314 293 275 Q292 232 264 206 Q236 181 189 180 L120 180 ZM55 0 L120 0 L120 130 L202 130 Q274 131 317 170 Q359 209 360 275 Q359 337 317 373 Q274 409 202 410 L120 410 L120 480 L55 480 L55 0 Z" /><glyph glyph-name="" unicode="ß" d="M55 0 L115 0 L115 390 Q116 438 137 466 Q159 494 195 495 Q232 495 253 476 Q275 457 275 425 Q274 375 250 345 Q226 316 184 315 L165 315 L165 295 L165 285 L165 265 L194 265 Q251 264 285 229 Q319 194 320 135 Q320 94 301 70 Q282 46 251 45 Q226 46 201 56 Q177 67 155 81 L155 16 Q177 8 200 1 Q223 -5 245 -5 Q309 -4 347 34 Q384 71 385 135 Q384 197 343 241 Q302 285 238 294 Q281 309 308 344 Q334 379 335 425 Q334 480 297 512 Q259 544 195 545 Q131 544 94 500 Q56 455 55 380 L55 0 Z" /><glyph glyph-name="" unicode="à" d="M233 415 L240 426 L164 535 L120 535 L120 486 L233 415 ZM25 170 Q26 90 64 43 Q103 -4 168 -5 Q209 -4 243 19 Q276 43 296 83 L300 1 L353 -2 Q353 0 352 30 Q350 60 350 92 L350 340 L297 340 L290 300 L255 340 L173 340 Q105 339 66 293 Q26 248 25 170 L25 170 ZM88 170 Q89 227 113 261 Q137 294 179 295 L290 295 L290 170 Q289 115 257 78 Q226 41 179 40 Q137 41 113 76 Q89 111 88 170 L88 170 Z" /><glyph glyph-name="" unicode="á" d="M167 415 L280 486 L280 535 L236 535 L160 426 L167 415 ZM25 170 Q26 90 64 43 Q103 -4 168 -5 Q209 -4 243 19 Q276 43 296 83 L300 1 L353 -2 Q353 0 352 30 Q350 60 350 92 L350 340 L297 340 L290 300 L255 340 L173 340 Q105 339 66 293 Q26 248 25 170 L25 170 ZM88 170 Q89 227 113 261 Q137 294 179 295 L290 295 L290 170 Q289 115 257 78 Q226 41 179 40 Q137 41 113 76 Q89 111 88 170 L88 170 Z" /><glyph glyph-name="" unicode="â" d="M208 535 L192 535 L96 464 L96 415 L110 415 L200 493 L290 415 L304 415 L304 464 L208 535 ZM25 170 Q26 90 64 43 Q103 -4 168 -5 Q209 -4 243 19 Q276 43 296 83 L300 1 L353 -2 Q353 0 352 30 Q350 60 350 92 L350 340 L297 340 L290 300 L255 340 L173 340 Q105 339 66 293 Q26 248 25 170 L25 170 ZM88 170 Q89 227 113 261 Q137 294 179 295 L290 295 L290 170 Q289 115 257 78 Q226 41 179 40 Q137 41 113 76 Q89 111 88 170 L88 170 Z" /><glyph glyph-name="" unicode="ã" d="M310 469 L310 524 Q299 505 286 495 Q273 484 257 484 Q244 484 230 490 Q215 495 200 503 Q185 510 170 515 Q156 521 143 521 Q127 521 114 511 Q101 501 90 482 L90 427 Q101 446 114 456 Q127 467 143 467 Q156 467 170 461 Q185 456 200 449 Q215 441 230 436 Q244 430 257 430 Q273 430 286 440 Q299 450 310 469 L310 469 ZM25 170 Q26 90 64 43 Q103 -4 168 -5 Q209 -4 243 19 Q276 43 296 83 L300 1 L353 -2 Q353 0 352 30 Q350 60 350 92 L350 340 L297 340 L290 300 L255 340 L173 340 Q105 339 66 293 Q26 248 25 170 L25 170 ZM88 170 Q89 227 113 261 Q137 294 179 295 L290 295 L290 170 Q289 115 257 78 Q226 41 179 40 Q137 41 113 76 Q89 111 88 170 L88 170 Z" /><glyph glyph-name="" unicode="ä" d="M240 450 L289 450 Q296 450 298 452 Q300 454 300 461 L300 510 L251 510 Q244 510 242 508 Q240 506 240 499 L240 450 ZM100 450 L149 450 Q156 450 158 452 Q160 454 160 461 L160 510 L111 510 Q104 510 102 508 Q100 506 100 499 L100 450 ZM25 170 Q26 90 64 43 Q103 -4 168 -5 Q209 -4 243 19 Q276 43 296 83 L300 1 L353 -2 Q353 0 352 30 Q350 60 350 92 L350 340 L297 340 L290 300 L255 340 L173 340 Q105 339 66 293 Q26 248 25 170 L25 170 ZM88 170 Q89 227 113 261 Q137 294 179 295 L290 295 L290 170 Q289 115 257 78 Q226 41 179 40 Q137 41 113 76 Q89 111 88 170 L88 170 Z" /><glyph glyph-name="" unicode="å" d="M118 475 Q119 436 141 413 Q163 391 200 390 Q237 391 259 413 Q281 436 282 475 Q281 514 259 537 Q237 559 200 560 Q163 559 141 537 Q119 514 118 475 L118 475 ZM158 475 Q158 496 170 508 Q181 520 200 520 Q219 520 230 508 Q242 496 242 475 Q242 454 230 442 Q219 430 200 430 Q181 430 170 442 Q158 454 158 475 L158 475 ZM25 170 Q26 90 64 43 Q103 -4 168 -5 Q209 -4 243 19 Q276 43 296 83 L300 1 L353 -2 Q353 0 352 30 Q350 60 350 92 L350 340 L297 340 L290 300 L255 340 L173 340 Q105 339 66 293 Q26 248 25 170 L25 170 ZM88 170 Q89 227 113 261 Q137 294 179 295 L290 295 L290 170 Q289 115 257 78 Q226 41 179 40 Q137 41 113 76 Q89 111 88 170 L88 170 Z" /><glyph glyph-name="" unicode="æ" d="M260 190 L148 190 Q92 189 59 164 Q26 138 25 95 Q26 49 56 23 Q86 -4 138 -5 Q186 -4 226 24 Q265 53 287 96 Q306 48 342 22 Q379 -5 430 -5 Q455 -5 477 -2 Q498 1 520 8 L520 72 Q502 59 480 52 Q459 45 430 45 Q384 46 354 72 Q324 99 317 145 L537 145 Q551 145 559 153 Q567 160 567 175 L567 198 Q566 265 525 305 Q484 344 415 345 Q377 345 347 329 Q318 313 300 283 Q284 312 250 328 Q216 345 167 345 Q143 345 117 342 Q91 339 65 332 L65 268 Q83 281 110 288 Q137 295 165 295 Q212 295 236 280 Q260 265 260 240 L260 190 ZM260 180 L260 165 Q259 112 227 77 Q196 41 149 40 Q121 40 105 55 Q88 70 88 95 Q88 118 108 131 Q127 145 159 145 L225 145 L260 180 ZM316 153 Q315 162 315 170 Q316 229 343 264 Q369 299 415 300 Q460 300 483 272 Q507 244 507 190 L355 190 L316 153 Z" /><glyph glyph-name="" unicode="ç" d="M285 8 L285 75 Q267 62 245 55 Q224 48 195 48 Q146 49 117 82 Q89 114 88 170 Q89 226 117 258 Q146 291 195 292 Q224 292 245 285 Q267 278 285 265 L285 332 Q264 338 242 341 Q221 345 195 345 Q117 344 72 297 Q26 250 25 170 Q26 105 57 61 Q88 18 142 2 L132 -86 L178 -86 Q203 -86 216 -98 Q230 -110 230 -131 Q230 -150 215 -161 Q201 -173 177 -173 Q164 -173 150 -169 Q137 -165 126 -157 L126 -198 Q153 -205 177 -205 Q220 -204 246 -184 Q271 -163 272 -128 Q271 -94 247 -74 Q222 -53 179 -53 L169 -53 L175 -4 Q185 -5 195 -5 Q221 -5 242 -1 Q264 2 285 8 L285 8 Z" /><glyph glyph-name="" unicode="è" d="M218 415 L225 426 L149 535 L105 535 L105 486 L218 415 ZM85 170 Q85 234 111 267 Q136 300 185 300 Q230 300 254 272 Q278 244 278 190 L125 190 L86 153 Q85 161 85 170 L85 170 ZM25 170 Q26 90 73 43 Q120 -4 200 -5 Q224 -5 245 -2 Q267 1 290 8 L290 72 Q269 57 247 51 Q225 45 200 45 Q150 45 121 71 Q92 96 86 145 L305 145 Q319 145 327 153 Q335 160 335 175 L335 193 Q334 262 294 303 Q253 344 185 345 Q112 344 69 297 Q26 250 25 170 L25 170 Z" /><glyph glyph-name="" unicode="é" d="M152 415 L265 486 L265 535 L221 535 L145 426 L152 415 ZM85 170 Q85 234 111 267 Q136 300 185 300 Q230 300 254 272 Q278 244 278 190 L125 190 L86 153 Q85 161 85 170 L85 170 ZM25 170 Q26 90 73 43 Q120 -4 200 -5 Q224 -5 245 -2 Q267 1 290 8 L290 72 Q269 57 247 51 Q225 45 200 45 Q150 45 121 71 Q92 96 86 145 L305 145 Q319 145 327 153 Q335 160 335 175 L335 193 Q334 262 294 303 Q253 344 185 345 Q112 344 69 297 Q26 250 25 170 L25 170 Z" /><glyph glyph-name="" unicode="ê" d="M193 535 L177 535 L81 464 L81 415 L95 415 L185 493 L275 415 L289 415 L289 464 L193 535 ZM85 170 Q85 234 111 267 Q136 300 185 300 Q230 300 254 272 Q278 244 278 190 L125 190 L86 153 Q85 161 85 170 L85 170 ZM25 170 Q26 90 73 43 Q120 -4 200 -5 Q224 -5 245 -2 Q267 1 290 8 L290 72 Q269 57 247 51 Q225 45 200 45 Q150 45 121 71 Q92 96 86 145 L305 145 Q319 145 327 153 Q335 160 335 175 L335 193 Q334 262 294 303 Q253 344 185 345 Q112 344 69 297 Q26 250 25 170 L25 170 Z" /><glyph glyph-name="" unicode="ë" d="M225 450 L274 450 Q281 450 283 452 Q285 454 285 461 L285 510 L236 510 Q229 510 227 508 Q225 506 225 499 L225 450 ZM85 450 L134 450 Q141 450 143 452 Q145 454 145 461 L145 510 L96 510 Q89 510 87 508 Q85 506 85 499 L85 450 ZM85 170 Q85 234 111 267 Q136 300 185 300 Q230 300 254 272 Q278 244 278 190 L125 190 L86 153 Q85 161 85 170 L85 170 ZM25 170 Q26 90 73 43 Q120 -4 200 -5 Q224 -5 245 -2 Q267 1 290 8 L290 72 Q269 57 247 51 Q225 45 200 45 Q150 45 121 71 Q92 96 86 145 L305 145 Q319 145 327 153 Q335 160 335 175 L335 193 Q334 262 294 303 Q253 344 185 345 Q112 344 69 297 Q26 250 25 170 L25 170 Z" /><glyph glyph-name="" unicode="ì" d="M113 415 L120 426 L44 535 L0 535 L0 486 L113 415 ZM50 340 L50 90 L55 2 L113 -2 Q113 0 112 30 Q110 60 110 92 L110 340 L50 340 Z" /><glyph glyph-name="" unicode="í" d="M47 415 L160 486 L160 535 L116 535 L40 426 L47 415 ZM50 340 L50 90 L55 2 L113 -2 Q113 0 112 30 Q110 60 110 92 L110 340 L50 340 Z" /><glyph glyph-name="" unicode="î" d="M88 535 L72 535 L-24 464 L-24 415 L-10 415 L80 493 L170 415 L184 415 L184 464 L88 535 ZM50 340 L50 90 L55 2 L113 -2 Q113 0 112 30 Q110 60 110 92 L110 340 L50 340 Z" /><glyph glyph-name="" unicode="ï" d="M120 450 L169 450 Q176 450 178 452 Q180 454 180 461 L180 510 L131 510 Q124 510 122 508 Q120 506 120 499 L120 450 ZM-20 450 L29 450 Q36 450 38 452 Q40 454 40 461 L40 510 L-9 510 Q-16 510 -18 508 Q-20 506 -20 499 L-20 450 ZM50 340 L50 90 L55 2 L113 -2 Q113 0 112 30 Q110 60 110 92 L110 340 L50 340 Z" /><glyph glyph-name="" unicode="ð" d="M25 160 Q26 87 68 42 Q109 -4 180 -5 Q262 -3 311 65 Q359 134 360 250 Q360 326 329 384 Q298 442 243 476 L286 521 L251 557 L195 498 Q148 515 91 515 L77 470 L89 470 Q127 470 159 460 L111 410 L146 374 L206 438 Q250 410 274 362 Q297 314 298 251 Q280 286 247 305 Q215 325 171 325 Q104 324 65 280 Q26 235 25 160 L25 160 ZM291 173 Q279 113 250 79 Q221 46 180 45 Q139 46 114 78 Q89 110 88 160 Q89 212 114 243 Q140 274 184 275 Q229 274 259 245 Q289 216 291 173 L291 173 Z" /><glyph glyph-name="" unicode="ñ" d="M310 469 L310 524 Q299 505 286 495 Q273 484 257 484 Q244 484 230 490 Q215 495 200 503 Q185 510 170 515 Q156 521 143 521 Q127 521 114 511 Q101 501 90 482 L90 427 Q101 446 114 456 Q127 467 143 467 Q156 467 170 461 Q185 456 200 449 Q215 441 230 436 Q244 430 257 430 Q273 430 286 440 Q299 450 310 469 L310 469 ZM50 0 L110 0 L110 165 Q111 222 145 260 Q179 299 230 300 Q264 300 284 282 Q305 265 305 235 L305 0 L365 0 L365 245 Q364 291 329 318 Q294 344 235 345 Q195 345 163 323 Q130 301 109 264 L105 340 L50 340 L50 0 Z" /><glyph glyph-name="" unicode="ò" d="M223 415 L230 426 L154 535 L110 535 L110 486 L223 415 ZM88 170 Q89 229 116 264 Q143 299 190 300 Q237 299 264 264 Q291 229 292 170 Q291 111 264 76 Q237 41 190 40 Q143 41 116 76 Q89 111 88 170 L88 170 ZM25 170 Q26 90 70 43 Q115 -4 190 -5 Q265 -4 310 43 Q354 90 355 170 Q354 250 310 297 Q265 344 190 345 Q115 344 70 297 Q26 250 25 170 L25 170 Z" /><glyph glyph-name="" unicode="ó" d="M157 415 L270 486 L270 535 L226 535 L150 426 L157 415 ZM88 170 Q89 229 116 264 Q143 299 190 300 Q237 299 264 264 Q291 229 292 170 Q291 111 264 76 Q237 41 190 40 Q143 41 116 76 Q89 111 88 170 L88 170 ZM25 170 Q26 90 70 43 Q115 -4 190 -5 Q265 -4 310 43 Q354 90 355 170 Q354 250 310 297 Q265 344 190 345 Q115 344 70 297 Q26 250 25 170 L25 170 Z" /><glyph glyph-name="" unicode="ô" d="M198 535 L182 535 L86 464 L86 415 L100 415 L190 493 L280 415 L294 415 L294 464 L198 535 ZM88 170 Q89 229 116 264 Q143 299 190 300 Q237 299 264 264 Q291 229 292 170 Q291 111 264 76 Q237 41 190 40 Q143 41 116 76 Q89 111 88 170 L88 170 ZM25 170 Q26 90 70 43 Q115 -4 190 -5 Q265 -4 310 43 Q354 90 355 170 Q354 250 310 297 Q265 344 190 345 Q115 344 70 297 Q26 250 25 170 L25 170 Z" /><glyph glyph-name="" unicode="õ" d="M300 469 L300 524 Q289 505 276 495 Q263 484 247 484 Q234 484 220 490 Q205 495 190 503 Q175 510 160 515 Q146 521 133 521 Q117 521 104 511 Q91 501 80 482 L80 427 Q91 446 104 456 Q117 467 133 467 Q146 467 160 461 Q175 456 190 449 Q205 441 220 436 Q234 430 247 430 Q263 430 276 440 Q289 450 300 469 L300 469 ZM88 170 Q89 229 116 264 Q143 299 190 300 Q237 299 264 264 Q291 229 292 170 Q291 111 264 76 Q237 41 190 40 Q143 41 116 76 Q89 111 88 170 L88 170 ZM25 170 Q26 90 70 43 Q115 -4 190 -5 Q265 -4 310 43 Q354 90 355 170 Q354 250 310 297 Q265 344 190 345 Q115 344 70 297 Q26 250 25 170 L25 170 Z" /><glyph glyph-name="" unicode="ö" d="M230 450 L279 450 Q286 450 288 452 Q290 454 290 461 L290 510 L241 510 Q234 510 232 508 Q230 506 230 499 L230 450 ZM90 450 L139 450 Q146 450 148 452 Q150 454 150 461 L150 510 L101 510 Q94 510 92 508 Q90 506 90 499 L90 450 ZM88 170 Q89 229 116 264 Q143 299 190 300 Q237 299 264 264 Q291 229 292 170 Q291 111 264 76 Q237 41 190 40 Q143 41 116 76 Q89 111 88 170 L88 170 ZM25 170 Q26 90 70 43 Q115 -4 190 -5 Q265 -4 310 43 Q354 90 355 170 Q354 250 310 297 Q265 344 190 345 Q115 344 70 297 Q26 250 25 170 L25 170 Z" /><glyph glyph-name="" unicode="÷" d="M149 347 L202 347 Q209 347 211 349 Q213 351 213 358 L213 412 L160 412 Q153 412 151 410 Q149 408 149 401 L149 347 ZM148 67 L201 67 Q208 67 210 69 Q212 71 212 78 L212 132 L159 132 Q152 132 150 130 Q148 128 148 121 L148 67 ZM30 215 L330 215 L330 265 L30 265 L30 215 Z" /><glyph glyph-name="" unicode="ø" d="M25 170 Q25 126 39 92 Q53 58 79 34 L49 -17 L91 -43 L122 8 Q152 -5 190 -5 Q265 -4 310 43 Q354 90 355 170 Q355 214 341 248 Q327 282 301 306 L331 357 L289 383 L258 332 Q228 345 190 345 Q115 344 70 297 Q26 250 25 170 L25 170 ZM147 49 L271 257 Q283 240 289 218 Q295 196 295 170 Q294 111 266 76 Q238 41 190 40 Q166 40 147 49 L147 49 ZM109 83 Q97 100 91 122 Q85 144 85 170 Q86 229 114 264 Q142 299 190 300 Q214 300 233 291 L109 83 Z" /><glyph glyph-name="" unicode="ù" d="M233 415 L240 426 L164 535 L120 535 L120 486 L233 415 ZM360 0 L360 340 L300 340 L300 175 Q299 118 265 80 Q231 41 180 40 Q146 40 126 58 Q105 75 105 105 L105 340 L45 340 L45 95 Q46 49 81 23 Q116 -4 175 -5 Q215 -5 247 17 Q280 39 301 76 L305 0 L360 0 Z" /><glyph glyph-name="" unicode="ú" d="M167 415 L280 486 L280 535 L236 535 L160 426 L167 415 ZM360 0 L360 340 L300 340 L300 175 Q299 118 265 80 Q231 41 180 40 Q146 40 126 58 Q105 75 105 105 L105 340 L45 340 L45 95 Q46 49 81 23 Q116 -4 175 -5 Q215 -5 247 17 Q280 39 301 76 L305 0 L360 0 Z" /><glyph glyph-name="" unicode="û" d="M208 535 L192 535 L96 464 L96 415 L110 415 L200 493 L290 415 L304 415 L304 464 L208 535 ZM360 0 L360 340 L300 340 L300 175 Q299 118 265 80 Q231 41 180 40 Q146 40 126 58 Q105 75 105 105 L105 340 L45 340 L45 95 Q46 49 81 23 Q116 -4 175 -5 Q215 -5 247 17 Q280 39 301 76 L305 0 L360 0 Z" /><glyph glyph-name="" unicode="ü" d="M240 450 L289 450 Q296 450 298 452 Q300 454 300 461 L300 510 L251 510 Q244 510 242 508 Q240 506 240 499 L240 450 ZM100 450 L149 450 Q156 450 158 452 Q160 454 160 461 L160 510 L111 510 Q104 510 102 508 Q100 506 100 499 L100 450 ZM360 0 L360 340 L300 340 L300 175 Q299 118 265 80 Q231 41 180 40 Q146 40 126 58 Q105 75 105 105 L105 340 L45 340 L45 95 Q46 49 81 23 Q116 -4 175 -5 Q215 -5 247 17 Q280 39 301 76 L305 0 L360 0 Z" /><glyph glyph-name="" unicode="ý" d="M154 415 L267 486 L267 535 L223 535 L147 426 L154 415 ZM15 340 L174 4 Q148 -59 110 -101 Q71 -143 5 -145 L5 -200 Q86 -198 136 -145 Q186 -92 218 -9 L360 340 L289 340 L198 64 L86 340 L15 340 Z" /><glyph glyph-name="" unicode="þ" d="M110 295 L221 295 Q262 294 286 261 Q309 227 310 170 Q309 112 286 77 Q262 43 221 42 Q174 43 143 80 Q111 116 110 170 L110 295 ZM50 -200 L110 -200 L110 66 Q131 33 163 14 Q194 -5 232 -5 Q297 -4 336 43 Q374 90 375 170 Q374 250 336 294 Q297 339 232 340 L150 340 L110 300 L110 540 L50 540 L50 248 L50 -200 Z" /><glyph glyph-name="" unicode="ÿ" d="M227 450 L276 450 Q283 450 285 452 Q287 454 287 461 L287 510 L238 510 Q231 510 229 508 Q227 506 227 499 L227 450 ZM87 450 L136 450 Q143 450 145 452 Q147 454 147 461 L147 510 L98 510 Q91 510 89 508 Q87 506 87 499 L87 450 ZM15 340 L174 4 Q148 -59 110 -101 Q71 -143 5 -145 L5 -200 Q86 -198 136 -145 Q186 -92 218 -9 L360 340 L289 340 L198 64 L86 340 L15 340 Z" /><glyph glyph-name="" unicode="&#x100;" d="M120 550 L289 550 Q296 550 298 552 Q300 554 300 561 L300 600 L131 600 Q124 600 122 598 Q120 596 120 589 L120 550 ZM187 480 L15 0 L81 0 L114 103 L325 103 L359 0 L425 0 L253 480 L187 480 ZM129 150 L220 432 L311 150 L129 150 Z" /><glyph glyph-name="" unicode="&#x101;" d="M110 430 L279 430 Q286 430 288 432 Q290 434 290 441 L290 480 L121 480 Q114 480 112 478 Q110 476 110 469 L110 430 ZM25 170 Q26 90 64 43 Q103 -4 168 -5 Q209 -4 243 19 Q276 43 296 83 L300 1 L353 -2 Q353 0 352 30 Q350 60 350 92 L350 340 L297 340 L290 300 L255 340 L173 340 Q105 339 66 293 Q26 248 25 170 L25 170 ZM88 170 Q89 227 113 261 Q137 294 179 295 L290 295 L290 170 Q289 115 257 78 Q226 41 179 40 Q137 41 113 76 Q89 111 88 170 L88 170 Z" /><glyph glyph-name="" unicode="&#x102;" d="M210 580 Q176 581 153 602 Q131 623 130 655 L105 655 Q106 600 134 568 Q162 536 210 535 Q258 536 286 568 Q314 600 315 655 L285 655 Q284 623 263 602 Q242 581 210 580 L210 580 ZM187 480 L15 0 L81 0 L114 103 L325 103 L359 0 L425 0 L253 480 L187 480 ZM129 150 L220 432 L311 150 L129 150 Z" /><glyph glyph-name="" unicode="&#x103;" d="M200 460 Q166 461 143 482 Q121 503 120 535 L95 535 Q96 480 124 448 Q152 416 200 415 Q248 416 276 448 Q304 480 305 535 L275 535 Q274 503 253 482 Q232 461 200 460 L200 460 ZM25 170 Q26 90 64 43 Q103 -4 168 -5 Q209 -4 243 19 Q276 43 296 83 L300 1 L353 -2 Q353 0 352 30 Q350 60 350 92 L350 340 L297 340 L290 300 L255 340 L173 340 Q105 339 66 293 Q26 248 25 170 L25 170 ZM88 170 Q89 227 113 261 Q137 294 179 295 L290 295 L290 170 Q289 115 257 78 Q226 41 179 40 Q137 41 113 76 Q89 111 88 170 L88 170 Z" /><glyph glyph-name="" unicode="&#x104;" d="M15 0 L87 0 L120 105 L316 105 L347 2 Q302 -12 276 -40 Q250 -68 249 -102 Q250 -149 278 -177 Q306 -205 354 -205 Q371 -205 390 -201 Q410 -197 429 -189 L429 -131 Q408 -144 390 -150 Q373 -155 359 -155 Q332 -155 316 -138 Q299 -121 299 -92 Q300 -53 332 -27 Q364 -1 419 0 L425 0 L255 480 L185 480 L15 0 ZM136 155 L220 424 L301 155 L136 155 Z" /><glyph glyph-name="" unicode="&#x105;" d="M290 295 L290 170 Q289 113 259 79 Q230 46 179 45 Q138 46 115 79 Q91 113 90 170 Q91 227 114 261 Q138 294 179 295 L290 295 ZM350 340 L295 340 L290 300 L255 340 L168 340 Q103 339 64 294 Q26 250 25 170 Q27 90 65 43 Q103 -4 168 -5 Q206 -5 238 15 Q270 34 291 68 L295 2 Q254 -14 230 -41 Q206 -68 205 -101 Q206 -148 234 -176 Q262 -204 310 -204 Q327 -204 346 -200 Q366 -196 385 -188 L385 -130 Q364 -143 346 -149 Q329 -154 315 -154 Q288 -154 272 -137 Q255 -120 255 -91 Q256 -58 283 -34 Q310 -10 353 -2 Q353 0 352 30 Q350 60 350 92 L350 340 Z" /><glyph glyph-name="" unicode="&#x106;" d="M199 535 L312 606 L312 655 L268 655 L192 546 L199 535 ZM350 10 L350 77 Q329 62 303 56 Q278 50 252 50 Q182 51 140 102 Q99 153 98 240 Q99 327 143 378 Q187 429 262 430 Q287 430 308 424 Q330 418 350 403 L350 471 Q327 478 301 481 Q275 485 251 485 Q150 483 91 418 Q31 352 30 240 Q31 128 91 62 Q150 -3 251 -5 Q275 -5 301 -1 Q327 3 350 10 L350 10 Z" /><glyph glyph-name="" unicode="&#x107;" d="M142 415 L255 486 L255 535 L211 535 L135 426 L142 415 ZM290 8 L290 70 Q272 57 250 50 Q229 43 200 43 Q149 44 119 78 Q89 112 88 170 Q89 228 119 262 Q149 296 200 297 Q229 297 250 290 Q272 283 290 270 L290 332 Q269 338 246 341 Q224 345 200 345 Q120 344 73 297 Q26 250 25 170 Q26 90 73 43 Q120 -4 200 -5 Q224 -5 246 -1 Q269 2 290 8 L290 8 Z" /><glyph glyph-name="" unicode="&#x108;" d="M240 655 L224 655 L128 584 L128 535 L142 535 L232 613 L322 535 L336 535 L336 584 L240 655 ZM350 10 L350 77 Q329 62 303 56 Q278 50 252 50 Q182 51 140 102 Q99 153 98 240 Q99 327 143 378 Q187 429 262 430 Q287 430 308 424 Q330 418 350 403 L350 471 Q327 478 301 481 Q275 485 251 485 Q150 483 91 418 Q31 352 30 240 Q31 128 91 62 Q150 -3 251 -5 Q275 -5 301 -1 Q327 3 350 10 L350 10 Z" /><glyph glyph-name="" unicode="&#x109;" d="M183 535 L167 535 L71 464 L71 415 L85 415 L175 493 L265 415 L279 415 L279 464 L183 535 ZM290 8 L290 70 Q272 57 250 50 Q229 43 200 43 Q149 44 119 78 Q89 112 88 170 Q89 228 119 262 Q149 296 200 297 Q229 297 250 290 Q272 283 290 270 L290 332 Q269 338 246 341 Q224 345 200 345 Q120 344 73 297 Q26 250 25 170 Q26 90 73 43 Q120 -4 200 -5 Q224 -5 246 -1 Q269 2 290 8 L290 8 Z" /><glyph glyph-name="" unicode="&#x10a;" d="M202 570 L251 570 Q258 570 260 572 Q262 574 262 581 L262 630 L213 630 Q206 630 204 628 Q202 626 202 619 L202 570 ZM350 10 L350 77 Q329 62 303 56 Q278 50 252 50 Q182 51 140 102 Q99 153 98 240 Q99 327 143 378 Q187 429 262 430 Q287 430 308 424 Q330 418 350 403 L350 471 Q327 478 301 481 Q275 485 251 485 Q150 483 91 418 Q31 352 30 240 Q31 128 91 62 Q150 -3 251 -5 Q275 -5 301 -1 Q327 3 350 10 L350 10 Z" /><glyph glyph-name="" unicode="&#x10b;" d="M145 450 L194 450 Q201 450 203 452 Q205 454 205 461 L205 510 L156 510 Q149 510 147 508 Q145 506 145 499 L145 450 ZM290 8 L290 70 Q272 57 250 50 Q229 43 200 43 Q149 44 119 78 Q89 112 88 170 Q89 228 119 262 Q149 296 200 297 Q229 297 250 290 Q272 283 290 270 L290 332 Q269 338 246 341 Q224 345 200 345 Q120 344 73 297 Q26 250 25 170 Q26 90 73 43 Q120 -4 200 -5 Q224 -5 246 -1 Q269 2 290 8 L290 8 Z" /><glyph glyph-name="" unicode="&#x10c;" d="M224 535 L240 535 L336 606 L336 655 L322 655 L232 577 L142 655 L128 655 L128 606 L224 535 ZM350 10 L350 77 Q329 62 303 56 Q278 50 252 50 Q182 51 140 102 Q99 153 98 240 Q99 327 143 378 Q187 429 262 430 Q287 430 308 424 Q330 418 350 403 L350 471 Q327 478 301 481 Q275 485 251 485 Q150 483 91 418 Q31 352 30 240 Q31 128 91 62 Q150 -3 251 -5 Q275 -5 301 -1 Q327 3 350 10 L350 10 Z" /><glyph glyph-name="" unicode="&#x10d;" d="M167 415 L183 415 L279 486 L279 535 L265 535 L175 457 L85 535 L71 535 L71 486 L167 415 ZM290 8 L290 70 Q272 57 250 50 Q229 43 200 43 Q149 44 119 78 Q89 112 88 170 Q89 228 119 262 Q149 296 200 297 Q229 297 250 290 Q272 283 290 270 L290 332 Q269 338 246 341 Q224 345 200 345 Q120 344 73 297 Q26 250 25 170 Q26 90 73 43 Q120 -4 200 -5 Q224 -5 246 -1 Q269 2 290 8 L290 8 Z" /><glyph glyph-name="" unicode="&#x10e;" d="M189 535 L205 535 L301 606 L301 655 L287 655 L197 577 L107 655 L93 655 L93 606 L189 535 ZM55 0 L192 0 Q296 2 357 66 Q419 131 420 240 Q419 350 357 414 Q296 479 192 480 L55 480 L55 0 ZM120 50 L120 430 L181 430 Q259 429 305 378 Q351 327 352 240 Q351 153 305 102 Q259 51 181 50 L120 50 Z" /><glyph glyph-name="" unicode="&#x10f;" d="M290 300 L250 340 L168 340 Q103 339 64 294 Q26 250 25 170 Q26 90 64 43 Q103 -4 168 -5 Q206 -5 238 15 Q270 34 291 68 L295 2 L353 -2 Q353 0 352 30 Q350 60 350 92 L350 540 L290 540 L290 300 ZM290 295 L290 170 Q289 117 257 82 Q226 46 179 45 Q137 46 113 79 Q89 113 88 170 Q89 227 113 261 Q137 294 179 295 L290 295 ZM421 382 L461 460 Q468 474 474 487 Q480 501 480 509 L480 540 L430 540 Q416 541 413 537 Q409 534 410 520 L410 480 L430 473 L403 392 L421 382 Z" /><glyph glyph-name="" unicode="&#x110;" d="M145 50 L145 215 L245 215 L245 265 L145 265 L145 430 L216 430 Q294 429 340 379 Q386 329 387 245 Q386 156 340 104 Q294 51 216 50 L145 50 ZM80 0 L227 0 Q331 2 392 67 Q454 133 455 245 Q454 352 392 415 Q331 479 227 480 L80 480 L80 265 L20 265 L20 215 L80 215 L80 0 Z" /><glyph glyph-name="" unicode="&#x111;" d="M290 295 L290 170 Q289 117 257 82 Q226 46 179 45 Q137 46 113 79 Q89 113 88 170 Q89 227 113 261 Q137 294 179 295 L290 295 ZM290 300 L250 340 L168 340 Q103 339 64 294 Q26 250 25 170 Q26 90 64 43 Q103 -4 168 -5 Q206 -5 238 15 Q270 34 291 68 L295 2 L353 -2 Q353 0 352 30 Q350 60 350 92 L350 415 L385 415 L385 465 L350 465 L350 540 L290 540 L290 465 L190 465 L190 415 L290 415 L290 300 Z" /><glyph glyph-name="" unicode="&#x112;" d="M102 550 L271 550 Q278 550 280 552 Q282 554 282 561 L282 600 L113 600 Q106 600 104 598 Q102 596 102 589 L102 550 ZM55 0 L330 0 L330 50 L120 50 L120 220 L290 220 L290 270 L120 270 L120 430 L330 430 L330 480 L55 480 L55 0 Z" /><glyph glyph-name="" unicode="&#x113;" d="M95 430 L264 430 Q271 430 273 432 Q275 434 275 441 L275 480 L106 480 Q99 480 97 478 Q95 476 95 469 L95 430 ZM85 170 Q85 234 111 267 Q136 300 185 300 Q230 300 254 272 Q278 244 278 190 L125 190 L86 153 Q85 161 85 170 L85 170 ZM25 170 Q26 90 73 43 Q120 -4 200 -5 Q224 -5 245 -2 Q267 1 290 8 L290 72 Q269 57 247 51 Q225 45 200 45 Q150 45 121 71 Q92 96 86 145 L305 145 Q319 145 327 153 Q335 160 335 175 L335 193 Q334 262 294 303 Q253 344 185 345 Q112 344 69 297 Q26 250 25 170 L25 170 Z" /><glyph glyph-name="" unicode="&#x114;" d="M192 580 Q158 581 135 602 Q113 623 112 655 L87 655 Q88 600 116 568 Q144 536 192 535 Q240 536 268 568 Q296 600 297 655 L267 655 Q266 623 245 602 Q224 581 192 580 L192 580 ZM55 0 L330 0 L330 50 L120 50 L120 220 L290 220 L290 270 L120 270 L120 430 L330 430 L330 480 L55 480 L55 0 Z" /><glyph glyph-name="" unicode="&#x115;" d="M185 460 Q151 461 128 482 Q106 503 105 535 L80 535 Q81 480 109 448 Q137 416 185 415 Q233 416 261 448 Q289 480 290 535 L260 535 Q259 503 238 482 Q217 461 185 460 L185 460 ZM85 170 Q85 234 111 267 Q136 300 185 300 Q230 300 254 272 Q278 244 278 190 L125 190 L86 153 Q85 161 85 170 L85 170 ZM25 170 Q26 90 73 43 Q120 -4 200 -5 Q224 -5 245 -2 Q267 1 290 8 L290 72 Q269 57 247 51 Q225 45 200 45 Q150 45 121 71 Q92 96 86 145 L305 145 Q319 145 327 153 Q335 160 335 175 L335 193 Q334 262 294 303 Q253 344 185 345 Q112 344 69 297 Q26 250 25 170 L25 170 Z" /><glyph glyph-name="" unicode="&#x116;" d="M162 570 L211 570 Q218 570 220 572 Q222 574 222 581 L222 630 L173 630 Q166 630 164 628 Q162 626 162 619 L162 570 ZM55 0 L330 0 L330 50 L120 50 L120 220 L290 220 L290 270 L120 270 L120 430 L330 430 L330 480 L55 480 L55 0 Z" /><glyph glyph-name="" unicode="&#x117;" d="M155 450 L204 450 Q211 450 213 452 Q215 454 215 461 L215 510 L166 510 Q159 510 157 508 Q155 506 155 499 L155 450 ZM85 170 Q85 234 111 267 Q136 300 185 300 Q230 300 254 272 Q278 244 278 190 L125 190 L86 153 Q85 161 85 170 L85 170 ZM25 170 Q26 90 73 43 Q120 -4 200 -5 Q224 -5 245 -2 Q267 1 290 8 L290 72 Q269 57 247 51 Q225 45 200 45 Q150 45 121 71 Q92 96 86 145 L305 145 Q319 145 327 153 Q335 160 335 175 L335 193 Q334 262 294 303 Q253 344 185 345 Q112 344 69 297 Q26 250 25 170 L25 170 Z" /><glyph glyph-name="" unicode="&#x118;" d="M55 0 L220 0 Q183 -16 162 -43 Q140 -69 140 -102 Q141 -149 168 -177 Q196 -204 244 -205 Q261 -205 281 -201 Q300 -197 320 -189 L320 -131 Q299 -144 281 -149 Q264 -155 250 -155 Q223 -155 207 -138 Q190 -121 190 -92 Q191 -53 228 -27 Q265 -1 320 0 L320 55 L120 55 L120 225 L280 225 L280 275 L120 275 L120 425 L320 425 L320 480 L55 480 L55 0 Z" /><glyph glyph-name="" unicode="&#x119;" d="M85 170 Q86 229 113 264 Q139 299 185 300 Q230 300 253 272 Q277 244 277 190 L125 190 L86 153 Q85 162 85 170 L85 170 ZM25 170 Q27 97 66 51 Q106 5 175 -4 Q145 -22 128 -47 Q110 -72 110 -102 Q111 -149 139 -177 Q167 -205 215 -205 Q232 -205 251 -201 Q271 -197 290 -189 L290 -131 Q269 -144 251 -150 Q234 -155 220 -155 Q193 -155 177 -138 Q160 -121 160 -92 Q161 -60 187 -35 Q213 -10 255 -1 L255 -1 Q272 2 290 8 L290 72 Q272 59 250 52 Q229 45 200 45 Q154 46 124 72 Q94 99 87 145 L307 145 Q321 145 329 153 Q337 160 337 175 L337 198 Q336 265 295 305 Q254 344 185 345 Q112 344 69 297 Q26 250 25 170 L25 170 Z" /><glyph glyph-name="" unicode="&#x11a;" d="M184 535 L200 535 L296 606 L296 655 L282 655 L192 577 L102 655 L88 655 L88 606 L184 535 ZM55 0 L330 0 L330 50 L120 50 L120 220 L290 220 L290 270 L120 270 L120 430 L330 430 L330 480 L55 480 L55 0 Z" /><glyph glyph-name="" unicode="&#x11b;" d="M177 415 L193 415 L289 486 L289 535 L275 535 L185 457 L95 535 L81 535 L81 486 L177 415 ZM85 170 Q85 234 111 267 Q136 300 185 300 Q230 300 254 272 Q278 244 278 190 L125 190 L86 153 Q85 161 85 170 L85 170 ZM25 170 Q26 90 73 43 Q120 -4 200 -5 Q224 -5 245 -2 Q267 1 290 8 L290 72 Q269 57 247 51 Q225 45 200 45 Q150 45 121 71 Q92 96 86 145 L305 145 Q319 145 327 153 Q335 160 335 175 L335 193 Q334 262 294 303 Q253 344 185 345 Q112 344 69 297 Q26 250 25 170 L25 170 Z" /><glyph glyph-name="" unicode="&#x11c;" d="M245 655 L229 655 L133 584 L133 535 L147 535 L237 613 L327 535 L341 535 L341 584 L245 655 ZM245 260 L245 210 L315 210 L315 60 Q286 50 252 50 Q182 51 140 104 Q99 156 98 245 Q99 329 144 379 Q190 429 267 430 Q292 430 313 423 Q334 417 355 403 L355 470 Q331 477 306 481 Q282 485 257 485 Q153 484 92 419 Q31 355 30 245 Q31 131 91 64 Q151 -3 252 -5 Q278 -5 303 0 Q329 4 350 10 L380 14 L380 260 L245 260 Z" /><glyph glyph-name="" unicode="&#x11d;" d="M208 535 L192 535 L96 464 L96 415 L110 415 L200 493 L290 415 L304 415 L304 464 L208 535 ZM25 170 Q26 90 64 43 Q103 -4 168 -5 Q206 -5 238 17 Q270 38 290 75 L290 -35 Q289 -92 257 -126 Q225 -159 170 -160 Q144 -160 120 -153 Q96 -146 75 -131 L75 -193 Q122 -205 170 -205 Q252 -204 301 -158 Q349 -113 350 -35 L350 340 L297 340 L290 300 L255 340 L173 340 Q105 339 66 293 Q26 248 25 170 L25 170 ZM88 170 Q89 227 113 261 Q137 294 179 295 L290 295 L290 175 Q289 118 257 80 Q226 41 179 40 Q137 41 113 76 Q89 111 88 170 L88 170 Z" /><glyph glyph-name="" unicode="&#x11e;" d="M237 580 Q203 581 180 602 Q158 623 157 655 L132 655 Q133 600 161 568 Q189 536 237 535 Q285 536 313 568 Q341 600 342 655 L312 655 Q311 623 290 602 Q269 581 237 580 L237 580 ZM245 260 L245 210 L315 210 L315 60 Q286 50 252 50 Q182 51 140 104 Q99 156 98 245 Q99 329 144 379 Q190 429 267 430 Q292 430 313 423 Q334 417 355 403 L355 470 Q331 477 306 481 Q282 485 257 485 Q153 484 92 419 Q31 355 30 245 Q31 131 91 64 Q151 -3 252 -5 Q278 -5 303 0 Q329 4 350 10 L380 14 L380 260 L245 260 Z" /><glyph glyph-name="" unicode="&#x11f;" d="M200 460 Q166 461 143 482 Q121 503 120 535 L95 535 Q96 480 124 448 Q152 416 200 415 Q248 416 276 448 Q304 480 305 535 L275 535 Q274 503 253 482 Q232 461 200 460 L200 460 ZM25 170 Q26 90 64 43 Q103 -4 168 -5 Q206 -5 238 17 Q270 38 290 75 L290 -35 Q289 -92 257 -126 Q225 -159 170 -160 Q144 -160 120 -153 Q96 -146 75 -131 L75 -193 Q122 -205 170 -205 Q252 -204 301 -158 Q349 -113 350 -35 L350 340 L297 340 L290 300 L255 340 L173 340 Q105 339 66 293 Q26 248 25 170 L25 170 ZM88 170 Q89 227 113 261 Q137 294 179 295 L290 295 L290 175 Q289 118 257 80 Q226 41 179 40 Q137 41 113 76 Q89 111 88 170 L88 170 Z" /><glyph glyph-name="" unicode="&#x120;" d="M207 570 L256 570 Q263 570 265 572 Q267 574 267 581 L267 630 L218 630 Q211 630 209 628 Q207 626 207 619 L207 570 ZM245 260 L245 210 L315 210 L315 60 Q286 50 252 50 Q182 51 140 104 Q99 156 98 245 Q99 329 144 379 Q190 429 267 430 Q292 430 313 423 Q334 417 355 403 L355 470 Q331 477 306 481 Q282 485 257 485 Q153 484 92 419 Q31 355 30 245 Q31 131 91 64 Q151 -3 252 -5 Q278 -5 303 0 Q329 4 350 10 L380 14 L380 260 L245 260 Z" /><glyph glyph-name="" unicode="&#x121;" d="M170 450 L219 450 Q226 450 228 452 Q230 454 230 461 L230 510 L181 510 Q174 510 172 508 Q170 506 170 499 L170 450 ZM25 170 Q26 90 64 43 Q103 -4 168 -5 Q206 -5 238 17 Q270 38 290 75 L290 -35 Q289 -92 257 -126 Q225 -159 170 -160 Q144 -160 120 -153 Q96 -146 75 -131 L75 -193 Q122 -205 170 -205 Q252 -204 301 -158 Q349 -113 350 -35 L350 340 L297 340 L290 300 L255 340 L173 340 Q105 339 66 293 Q26 248 25 170 L25 170 ZM88 170 Q89 227 113 261 Q137 294 179 295 L290 295 L290 175 Q289 118 257 80 Q226 41 179 40 Q137 41 113 76 Q89 111 88 170 L88 170 Z" /><glyph glyph-name="" unicode="&#x122;" d="M209 -205 L251 -139 Q259 -126 265 -115 Q270 -104 270 -91 L270 -60 L220 -60 Q206 -59 203 -63 Q199 -66 200 -80 L200 -120 L220 -127 L190 -195 L209 -205 ZM245 260 L245 210 L315 210 L315 60 Q286 50 252 50 Q182 51 140 104 Q99 156 98 245 Q99 329 144 379 Q190 429 267 430 Q292 430 313 423 Q334 417 355 403 L355 470 Q331 477 306 481 Q282 485 257 485 Q153 484 92 419 Q31 355 30 245 Q31 131 91 64 Q151 -3 252 -5 Q278 -5 303 0 Q329 4 350 10 L380 14 L380 260 L245 260 Z" /><glyph glyph-name="" unicode="&#x123;" d="M229 545 L179 466 Q171 453 165 442 Q160 431 160 418 L160 387 L210 387 Q224 386 227 390 Q231 393 230 407 L230 447 L210 454 L247 535 L229 545 ZM25 170 Q26 90 64 43 Q103 -4 168 -5 Q206 -5 238 17 Q270 38 290 75 L290 -35 Q289 -92 257 -126 Q225 -159 170 -160 Q144 -160 120 -153 Q96 -146 75 -131 L75 -193 Q122 -205 170 -205 Q252 -204 301 -158 Q349 -113 350 -35 L350 340 L297 340 L290 300 L255 340 L173 340 Q105 339 66 293 Q26 248 25 170 L25 170 ZM88 170 Q89 227 113 261 Q137 294 179 295 L290 295 L290 175 Q289 118 257 80 Q226 41 179 40 Q137 41 113 76 Q89 111 88 170 L88 170 Z" /><glyph glyph-name="" unicode="&#x124;" d="M228 655 L212 655 L116 584 L116 535 L130 535 L220 613 L310 535 L324 535 L324 584 L228 655 ZM55 0 L120 0 L120 225 L330 225 L330 0 L395 0 L395 480 L330 480 L330 275 L120 275 L120 480 L55 480 L55 0 Z" /><glyph glyph-name="" unicode="&#x125;" d="M218 695 L202 695 L106 624 L106 575 L120 575 L210 653 L300 575 L314 575 L314 624 L218 695 ZM50 540 L50 0 L110 0 L110 160 Q111 219 145 259 Q179 298 230 300 Q264 300 284 282 Q305 265 305 235 L305 0 L365 0 L365 245 Q364 291 329 318 Q294 344 235 345 Q195 345 163 322 Q131 300 110 262 L110 540 L50 540 Z" /><glyph glyph-name="" unicode="&#x126;" d="M445 410 L405 410 L405 480 L340 480 L340 410 L130 410 L130 480 L65 480 L65 410 L25 410 L25 365 L65 365 L65 0 L130 0 L130 225 L340 225 L340 0 L405 0 L405 365 L445 365 L445 410 ZM340 365 L340 275 L130 275 L130 365 L340 365 Z" /><glyph glyph-name="" unicode="&#x127;" d="M50 0 L110 0 L110 160 Q111 219 145 259 Q179 298 230 300 Q264 300 284 282 Q305 265 305 235 L305 0 L365 0 L365 245 Q364 291 329 318 Q294 344 235 345 Q195 345 163 322 Q131 300 110 262 L110 420 L210 420 L210 465 L110 465 L110 540 L50 540 L50 465 L15 465 L15 420 L50 420 L50 0 Z" /><glyph glyph-name="" unicode="&#x128;" d="M198 589 L198 644 Q187 625 174 615 Q161 604 145 604 Q132 604 118 610 Q103 615 88 623 Q73 630 58 635 Q44 641 31 641 Q15 641 2 631 Q-11 621 -22 602 L-22 547 Q-11 566 2 576 Q15 587 31 587 Q44 587 58 581 Q73 576 88 569 Q103 561 118 556 Q132 550 145 550 Q161 550 174 560 Q187 570 198 589 L198 589 ZM55 0 L120 0 L120 480 L55 480 L55 0 Z" /><glyph glyph-name="" unicode="&#x129;" d="M190 469 L190 524 Q179 505 166 495 Q153 484 137 484 Q124 484 110 490 Q95 495 80 503 Q65 510 50 515 Q36 521 23 521 Q7 521 -6 511 Q-19 501 -30 482 L-30 427 Q-19 446 -6 456 Q7 467 23 467 Q36 467 50 461 Q65 456 80 449 Q95 441 110 436 Q124 430 137 430 Q153 430 166 440 Q179 450 190 469 L190 469 ZM50 340 L50 90 L55 2 L113 -2 Q113 0 112 30 Q110 60 110 92 L110 340 L50 340 Z" /><glyph glyph-name="" unicode="&#x12a;" d="M-2 550 L167 550 Q174 550 176 552 Q178 554 178 561 L178 600 L9 600 Q2 600 0 598 Q-2 596 -2 589 L-2 550 ZM55 0 L120 0 L120 480 L55 480 L55 0 Z" /><glyph glyph-name="" unicode="&#x12b;" d="M-10 430 L159 430 Q166 430 168 432 Q170 434 170 441 L170 480 L1 480 Q-6 480 -8 478 Q-10 476 -10 469 L-10 430 ZM50 340 L50 90 L55 2 L113 -2 Q113 0 112 30 Q110 60 110 92 L110 340 L50 340 Z" /><glyph glyph-name="" unicode="&#x12c;" d="M88 580 Q54 581 31 602 Q9 623 8 655 L-17 655 Q-16 600 12 568 Q40 536 88 535 Q136 536 164 568 Q192 600 193 655 L163 655 Q162 623 141 602 Q120 581 88 580 L88 580 ZM55 0 L120 0 L120 480 L55 480 L55 0 Z" /><glyph glyph-name="" unicode="&#x12d;" d="M80 460 Q46 461 23 482 Q1 503 0 535 L-25 535 Q-24 480 4 448 Q32 416 80 415 Q128 416 156 448 Q184 480 185 535 L155 535 Q154 503 133 482 Q112 461 80 460 L80 460 ZM50 340 L50 90 L55 2 L113 -2 Q113 0 112 30 Q110 60 110 92 L110 340 L50 340 Z" /><glyph glyph-name="" unicode="&#x12e;" d="M120 -2 L120 480 L55 480 L55 4 Q23 -13 5 -40 Q-13 -67 -13 -102 Q-12 -149 16 -177 Q44 -205 92 -205 Q109 -205 128 -201 Q148 -197 167 -189 L167 -131 Q146 -144 128 -150 Q111 -155 97 -155 Q70 -155 54 -138 Q37 -121 37 -92 Q37 -58 59 -35 Q81 -11 120 -2 L120 -2 Z" /><glyph glyph-name="" unicode="&#x12f;" d="M50 340 L50 90 L55 8 Q19 -9 0 -37 Q-20 -65 -20 -102 Q-19 -149 9 -177 Q37 -205 85 -205 Q102 -205 121 -201 Q141 -197 160 -189 L160 -131 Q139 -144 121 -150 Q104 -155 90 -155 Q63 -155 46 -138 Q30 -121 30 -92 Q30 -58 52 -35 Q74 -11 113 -2 Q113 0 111 30 Q110 60 110 92 L110 340 L50 340 ZM50 450 L99 450 Q106 450 108 452 Q110 454 110 461 L110 510 L61 510 Q54 510 52 508 Q50 506 50 499 L50 450 Z" /><glyph glyph-name="" unicode="&#x130;" d="M58 570 L107 570 Q114 570 116 572 Q118 574 118 581 L118 630 L69 630 Q62 630 60 628 Q58 626 58 619 L58 570 ZM55 0 L120 0 L120 480 L55 480 L55 0 Z" /><glyph glyph-name="" unicode="&#x131;" d="M50 340 L50 90 L55 2 L113 -2 Q113 0 112 30 Q110 60 110 92 L110 340 L50 340 Z" /><glyph glyph-name="" unicode="&#x132;" d="M435 480 L210 480 L210 430 L370 430 L370 145 Q369 99 346 73 Q323 46 284 45 Q262 45 242 53 Q223 61 205 74 L205 8 Q224 2 245 -1 Q265 -5 285 -5 Q353 -4 394 36 Q434 77 435 145 L435 480 ZM55 0 L120 0 L120 480 L55 480 L55 0 Z" /><glyph glyph-name="" unicode="&#x133;" d="M210 450 L259 450 Q266 450 268 452 Q270 454 270 461 L270 510 L221 510 Q214 510 212 508 Q210 506 210 499 L210 450 ZM210 340 L210 -92 Q210 -123 196 -141 Q183 -160 160 -160 Q140 -160 122 -153 Q103 -146 87 -135 L87 -193 Q106 -199 123 -202 Q140 -205 160 -205 Q210 -204 240 -173 Q269 -142 270 -90 L270 340 L210 340 ZM50 450 L99 450 Q106 450 108 452 Q110 454 110 461 L110 510 L61 510 Q54 510 52 508 Q50 506 50 499 L50 450 ZM50 340 L50 90 L55 2 L113 -2 Q113 0 112 30 Q110 60 110 92 L110 340 L50 340 Z" /><glyph glyph-name="" unicode="&#x134;" d="M162 655 L146 655 L50 584 L50 535 L64 535 L154 613 L244 535 L258 535 L258 584 L162 655 ZM260 480 L35 480 L35 430 L195 430 L195 145 Q194 99 171 73 Q148 46 109 45 Q87 45 67 53 Q48 61 30 74 L30 8 Q49 2 70 -1 Q90 -5 110 -5 Q178 -4 219 36 Q259 77 260 145 L260 480 Z" /><glyph glyph-name="" unicode="&#x135;" d="M50 340 L50 -95 Q50 -122 36 -138 Q23 -155 0 -155 Q-19 -155 -38 -148 Q-56 -142 -73 -130 L-73 -193 Q-52 -200 -35 -202 Q-18 -205 0 -205 Q50 -204 80 -173 Q109 -142 110 -90 L110 340 L50 340 ZM88 535 L72 535 L-5 470 L-5 417 L80 493 L165 417 L165 470 L88 535 Z" /><glyph glyph-name="" unicode="&#x136;" d="M184 -205 L226 -139 Q234 -126 240 -115 Q245 -104 245 -91 L245 -60 L195 -60 Q181 -59 178 -63 Q174 -66 175 -80 L175 -120 L195 -127 L165 -195 L184 -205 ZM132 245 L307 0 L395 0 L191 245 L378 480 L299 480 L132 245 ZM55 0 L120 0 L120 480 L55 480 L55 0 Z" /><glyph glyph-name="" unicode="&#x137;" d="M169 -205 L211 -139 Q219 -126 225 -115 Q230 -104 230 -91 L230 -60 L180 -60 Q166 -59 163 -63 Q159 -66 160 -80 L160 -120 L180 -127 L150 -195 L169 -205 ZM365 0 L195 175 L348 340 L273 340 L128 175 L279 0 L365 0 ZM50 0 L110 0 L110 540 L50 540 L50 0 Z" /><glyph glyph-name="" unicode="&#x138;" d="M365 0 L195 175 L348 340 L273 340 L128 175 L279 0 L365 0 ZM50 0 L110 0 L110 340 L50 340 L50 0 Z" /><glyph glyph-name="" unicode="&#x139;" d="M89 535 L202 606 L202 655 L158 655 L82 546 L89 535 ZM55 0 L320 0 L320 50 L120 50 L120 480 L55 480 L55 0 Z" /><glyph glyph-name="" unicode="&#x13a;" d="M80 600 L193 671 L193 720 L149 720 L73 611 L80 600 ZM50 540 L50 90 L55 2 L113 -2 Q113 0 112 30 Q110 60 110 92 L110 540 L50 540 Z" /><glyph glyph-name="" unicode="&#x13b;" d="M174 -205 L216 -139 Q224 -126 230 -115 Q235 -104 235 -91 L235 -60 L185 -60 Q171 -59 168 -63 Q164 -66 165 -80 L165 -120 L185 -127 L155 -195 L174 -205 ZM55 0 L320 0 L320 50 L120 50 L120 480 L55 480 L55 0 Z" /><glyph glyph-name="" unicode="&#x13c;" d="M59 -205 L101 -139 Q109 -126 115 -115 Q120 -104 120 -91 L120 -60 L70 -60 Q56 -59 53 -63 Q49 -66 50 -80 L50 -120 L70 -127 L40 -195 L59 -205 ZM50 540 L50 90 L55 2 L113 -2 Q113 0 112 30 Q110 60 110 92 L110 540 L50 540 Z" /><glyph glyph-name="" unicode="&#x13d;" d="M241 327 L291 406 Q299 419 305 430 Q310 441 310 454 L310 485 L260 485 Q246 486 243 482 Q239 479 240 465 L240 425 L260 418 L223 337 L241 327 ZM55 0 L320 0 L320 50 L120 50 L120 480 L55 480 L55 0 Z" /><glyph glyph-name="" unicode="&#x13e;" d="M181 382 L221 460 Q228 474 234 487 Q240 501 240 509 L240 540 L190 540 Q176 541 173 537 Q169 534 170 520 L170 480 L190 473 L163 392 L181 382 ZM50 540 L50 90 L55 2 L113 -2 Q113 0 112 30 Q110 60 110 92 L110 540 L50 540 Z" /><glyph glyph-name="" unicode="&#x13f;" d="M205 210 L259 210 Q266 210 268 212 Q270 214 270 221 L270 275 L216 275 Q209 275 207 273 Q205 271 205 264 L205 210 ZM55 0 L320 0 L320 50 L120 50 L120 480 L55 480 L55 0 Z" /><glyph glyph-name="" unicode="&#x140;" d="M175 207 L229 207 Q236 207 238 209 Q240 211 240 218 L240 272 L186 272 Q179 272 177 270 Q175 268 175 261 L175 207 ZM50 540 L50 90 L55 2 L113 -2 Q113 0 112 30 Q110 60 110 92 L110 540 L50 540 Z" /><glyph glyph-name="" unicode="&#x141;" d="M75 0 L340 0 L340 55 L140 55 L140 222 L250 308 L250 370 L140 283 L140 480 L75 480 L75 231 L15 183 L15 124 L75 171 L75 0 Z" /><glyph glyph-name="" unicode="&#x142;" d="M215 371 L145 318 L145 540 L85 540 L85 272 L25 226 L25 166 L85 211 L85 90 L90 2 L148 -2 Q148 0 147 30 Q145 60 145 92 L145 256 L215 308 L215 371 Z" /><glyph glyph-name="" unicode="&#x143;" d="M177 535 L290 606 L290 655 L246 655 L170 546 L177 535 ZM55 0 L105 0 L105 363 L340 0 L385 0 L385 480 L335 480 L335 112 L100 480 L55 480 L55 0 Z" /><glyph glyph-name="" unicode="&#x144;" d="M167 415 L280 486 L280 535 L236 535 L160 426 L167 415 ZM50 0 L110 0 L110 165 Q111 222 145 260 Q179 299 230 300 Q264 300 284 282 Q305 265 305 235 L305 0 L365 0 L365 245 Q364 291 329 318 Q294 344 235 345 Q195 345 163 323 Q130 301 109 264 L105 340 L50 340 L50 0 Z" /><glyph glyph-name="" unicode="&#x145;" d="M194 -205 L236 -139 Q244 -126 250 -115 Q255 -104 255 -91 L255 -60 L205 -60 Q191 -59 188 -63 Q184 -66 185 -80 L185 -120 L205 -127 L175 -195 L194 -205 ZM55 0 L105 0 L105 363 L340 0 L385 0 L385 480 L335 480 L335 112 L100 480 L55 480 L55 0 Z" /><glyph glyph-name="" unicode="&#x146;" d="M184 -205 L226 -139 Q234 -126 240 -115 Q245 -104 245 -91 L245 -60 L195 -60 Q181 -59 178 -63 Q174 -66 175 -80 L175 -120 L195 -127 L165 -195 L184 -205 ZM50 0 L110 0 L110 165 Q111 222 145 260 Q179 299 230 300 Q264 300 284 282 Q305 265 305 235 L305 0 L365 0 L365 245 Q364 291 329 318 Q294 344 235 345 Q195 345 163 323 Q130 301 109 264 L105 340 L50 340 L50 0 Z" /><glyph glyph-name="" unicode="&#x147;" d="M217 535 L233 535 L329 606 L329 655 L315 655 L225 577 L135 655 L121 655 L121 606 L217 535 ZM55 0 L105 0 L105 363 L340 0 L385 0 L385 480 L335 480 L335 112 L100 480 L55 480 L55 0 Z" /><glyph glyph-name="" unicode="&#x148;" d="M192 415 L208 415 L304 486 L304 535 L290 535 L200 457 L110 535 L96 535 L96 486 L192 415 ZM50 0 L110 0 L110 165 Q111 222 145 260 Q179 299 230 300 Q264 300 284 282 Q305 265 305 235 L305 0 L365 0 L365 245 Q364 291 329 318 Q294 344 235 345 Q195 345 163 323 Q130 301 109 264 L105 340 L50 340 L50 0 Z" /><glyph glyph-name="" unicode="&#x149;" d="M125 0 L185 0 L185 165 Q186 222 220 260 Q254 299 305 300 Q339 300 359 282 Q380 265 380 235 L380 0 L440 0 L440 245 Q439 291 404 318 Q369 344 310 345 Q270 345 238 323 Q205 301 184 264 L180 340 L125 340 L125 0 ZM41 327 L91 406 Q99 419 105 430 Q110 441 110 454 L110 485 L60 485 Q46 486 43 482 Q39 479 40 465 L40 425 L60 418 L23 337 L41 327 Z" /><glyph glyph-name="" unicode="&#x14a;" d="M55 0 L115 0 L115 358 L330 0 L330 -55 Q330 -92 312 -111 Q293 -130 258 -130 Q239 -130 219 -123 Q198 -116 180 -103 L180 -167 Q223 -180 259 -180 Q318 -180 351 -147 Q384 -114 385 -50 L385 480 L325 480 L325 117 L110 480 L55 480 L55 0 Z" /><glyph glyph-name="" unicode="&#x14b;" d="M50 340 L50 0 L110 0 L110 165 Q111 223 145 261 Q179 299 229 300 Q264 300 284 279 Q305 259 305 224 L305 -55 Q304 -95 285 -113 Q266 -130 238 -130 Q219 -130 199 -123 Q178 -116 160 -103 L160 -167 Q203 -180 239 -180 Q298 -180 331 -147 Q364 -114 365 -50 L365 247 Q364 292 331 318 Q298 344 242 345 Q200 345 166 324 Q131 304 109 270 L105 340 L50 340 Z" /><glyph glyph-name="" unicode="&#x14c;" d="M145 550 L314 550 Q321 550 323 552 Q325 554 325 561 L325 600 L156 600 Q149 600 147 598 Q145 596 145 589 L145 550 ZM98 240 Q99 329 136 381 Q172 434 235 435 Q298 434 334 381 Q371 329 372 240 Q371 151 334 99 Q298 46 235 45 Q172 46 136 99 Q99 151 98 240 L98 240 ZM30 240 Q31 128 86 62 Q141 -3 235 -5 Q329 -3 384 62 Q439 128 440 240 Q439 352 384 418 Q329 483 235 485 Q141 483 86 418 Q31 352 30 240 L30 240 Z" /><glyph glyph-name="" unicode="&#x14d;" d="M100 430 L269 430 Q276 430 278 432 Q280 434 280 441 L280 480 L111 480 Q104 480 102 478 Q100 476 100 469 L100 430 ZM88 170 Q89 229 116 264 Q143 299 190 300 Q237 299 264 264 Q291 229 292 170 Q291 111 264 76 Q237 41 190 40 Q143 41 116 76 Q89 111 88 170 L88 170 ZM25 170 Q26 90 70 43 Q115 -4 190 -5 Q265 -4 310 43 Q354 90 355 170 Q354 250 310 297 Q265 344 190 345 Q115 344 70 297 Q26 250 25 170 L25 170 Z" /><glyph glyph-name="" unicode="&#x14e;" d="M235 580 Q201 581 178 602 Q156 623 155 655 L130 655 Q131 600 159 568 Q187 536 235 535 Q283 536 311 568 Q339 600 340 655 L310 655 Q309 623 288 602 Q267 581 235 580 L235 580 ZM98 240 Q99 329 136 381 Q172 434 235 435 Q298 434 334 381 Q371 329 372 240 Q371 151 334 99 Q298 46 235 45 Q172 46 136 99 Q99 151 98 240 L98 240 ZM30 240 Q31 128 86 62 Q141 -3 235 -5 Q329 -3 384 62 Q439 128 440 240 Q439 352 384 418 Q329 483 235 485 Q141 483 86 418 Q31 352 30 240 L30 240 Z" /><glyph glyph-name="" unicode="&#x14f;" d="M190 460 Q156 461 133 482 Q111 503 110 535 L85 535 Q86 480 114 448 Q142 416 190 415 Q238 416 266 448 Q294 480 295 535 L265 535 Q264 503 243 482 Q222 461 190 460 L190 460 ZM88 170 Q89 229 116 264 Q143 299 190 300 Q237 299 264 264 Q291 229 292 170 Q291 111 264 76 Q237 41 190 40 Q143 41 116 76 Q89 111 88 170 L88 170 ZM25 170 Q26 90 70 43 Q115 -4 190 -5 Q265 -4 310 43 Q354 90 355 170 Q354 250 310 297 Q265 344 190 345 Q115 344 70 297 Q26 250 25 170 L25 170 Z" /><glyph glyph-name="" unicode="&#x150;" d="M122 535 L255 616 L255 655 L216 655 L115 546 L122 535 ZM262 535 L395 616 L395 655 L356 655 L255 546 L262 535 ZM98 240 Q99 329 136 381 Q172 434 235 435 Q298 434 334 381 Q371 329 372 240 Q371 151 334 99 Q298 46 235 45 Q172 46 136 99 Q99 151 98 240 L98 240 ZM30 240 Q31 128 86 62 Q141 -3 235 -5 Q329 -3 384 62 Q439 128 440 240 Q439 352 384 418 Q329 483 235 485 Q141 483 86 418 Q31 352 30 240 L30 240 Z" /><glyph glyph-name="" unicode="&#x151;" d="M77 415 L210 496 L210 535 L171 535 L70 426 L77 415 ZM217 415 L350 496 L350 535 L311 535 L210 426 L217 415 ZM88 170 Q89 229 116 264 Q143 299 190 300 Q237 299 264 264 Q291 229 292 170 Q291 111 264 76 Q237 41 190 40 Q143 41 116 76 Q89 111 88 170 L88 170 ZM25 170 Q26 90 70 43 Q115 -4 190 -5 Q265 -4 310 43 Q354 90 355 170 Q354 250 310 297 Q265 344 190 345 Q115 344 70 297 Q26 250 25 170 L25 170 Z" /><glyph glyph-name="" unicode="&#x152;" d="M288 50 L264 50 Q186 51 140 104 Q94 156 93 245 Q94 329 140 379 Q186 429 264 430 L288 430 L288 50 ZM538 480 L253 480 Q149 479 88 415 Q26 352 25 245 Q26 133 88 67 Q149 2 253 0 L538 0 L538 55 L353 55 L353 225 L498 225 L498 275 L353 275 L353 425 L538 425 L538 480 Z" /><glyph glyph-name="" unicode="&#x153;" d="M25 170 Q26 90 70 43 Q115 -4 190 -5 Q235 -5 269 17 Q303 39 321 79 Q342 39 378 17 Q415 -5 465 -5 Q490 -5 512 -2 Q533 1 555 8 L555 72 Q537 59 515 52 Q494 45 465 45 Q419 46 389 72 Q359 99 352 145 L572 145 Q586 145 594 153 Q602 160 602 175 L602 198 Q601 265 560 305 Q519 344 450 345 Q405 345 372 323 Q339 302 320 263 Q302 302 268 323 Q235 345 190 345 Q115 344 70 297 Q26 250 25 170 L25 170 ZM351 153 Q350 162 350 170 Q351 229 378 264 Q404 299 450 300 Q495 300 518 272 Q542 244 542 190 L390 190 L351 153 ZM90 170 Q91 227 118 263 Q144 299 190 300 Q236 299 263 264 Q289 229 290 170 Q289 111 263 76 Q236 41 190 40 Q144 41 118 77 Q91 113 90 170 L90 170 Z" /><glyph glyph-name="" unicode="&#x154;" d="M149 535 L262 606 L262 655 L218 655 L142 546 L149 535 ZM55 0 L120 0 L120 215 L186 215 Q236 215 266 193 Q295 172 300 130 L315 0 L380 0 L364 130 Q359 171 333 199 Q307 227 262 240 Q310 253 339 284 Q368 314 369 355 Q368 412 323 446 Q277 479 200 480 L55 480 L55 0 ZM120 265 L120 430 L200 430 Q250 430 279 409 Q308 389 309 355 Q308 314 279 290 Q250 266 200 265 L120 265 Z" /><glyph glyph-name="" unicode="&#x155;" d="M117 415 L230 486 L230 535 L186 535 L110 426 L117 415 ZM50 340 L50 0 L110 0 L110 170 Q111 220 139 250 Q167 279 215 280 L265 280 L265 345 L237 345 Q197 345 164 322 Q131 300 109 261 L105 340 L50 340 Z" /><glyph glyph-name="" unicode="&#x156;" d="M184 -205 L226 -139 Q234 -126 240 -115 Q245 -104 245 -91 L245 -60 L195 -60 Q181 -59 178 -63 Q174 -66 175 -80 L175 -120 L195 -127 L165 -195 L184 -205 ZM55 0 L120 0 L120 215 L186 215 Q236 215 266 193 Q295 172 300 130 L315 0 L380 0 L364 130 Q359 171 333 199 Q307 227 262 240 Q310 253 339 284 Q368 314 369 355 Q368 412 323 446 Q277 479 200 480 L55 480 L55 0 ZM120 265 L120 430 L200 430 Q250 430 279 409 Q308 389 309 355 Q308 314 279 290 Q250 266 200 265 L120 265 Z" /><glyph glyph-name="" unicode="&#x157;" d="M64 -205 L106 -139 Q114 -126 120 -115 Q125 -104 125 -91 L125 -60 L75 -60 Q61 -59 58 -63 Q54 -66 55 -80 L55 -120 L75 -127 L45 -195 L64 -205 ZM50 340 L50 0 L110 0 L110 170 Q111 220 139 250 Q167 279 215 280 L265 280 L265 345 L237 345 Q197 345 164 322 Q131 300 109 261 L105 340 L50 340 Z" /><glyph glyph-name="" unicode="&#x158;" d="M174 535 L190 535 L286 606 L286 655 L272 655 L182 577 L92 655 L78 655 L78 606 L174 535 ZM55 0 L120 0 L120 215 L186 215 Q236 215 266 193 Q295 172 300 130 L315 0 L380 0 L364 130 Q359 171 333 199 Q307 227 262 240 Q310 253 339 284 Q368 314 369 355 Q368 412 323 446 Q277 479 200 480 L55 480 L55 0 ZM120 265 L120 430 L200 430 Q250 430 279 409 Q308 389 309 355 Q308 314 279 290 Q250 266 200 265 L120 265 Z" /><glyph glyph-name="" unicode="&#x159;" d="M142 415 L158 415 L254 486 L254 535 L240 535 L150 457 L60 535 L46 535 L46 486 L142 415 ZM50 340 L50 0 L110 0 L110 170 Q111 220 139 250 Q167 279 215 280 L265 280 L265 345 L237 345 Q197 345 164 322 Q131 300 109 261 L105 340 L50 340 Z" /><glyph glyph-name="" unicode="&#x15a;" d="M167 535 L280 606 L280 655 L236 655 L160 546 L167 535 ZM40 32 Q108 -5 185 -5 Q265 -4 312 31 Q359 66 360 125 Q361 178 327 214 Q293 249 207 281 Q152 300 128 319 Q105 339 105 360 Q106 394 134 414 Q162 435 210 435 Q238 435 270 426 Q301 416 330 390 L330 454 Q300 470 271 477 Q241 485 210 485 Q132 484 87 451 Q41 417 40 360 Q38 322 71 285 Q103 249 188 217 Q248 195 272 171 Q296 148 295 120 Q294 86 264 66 Q234 45 185 45 Q153 44 118 56 Q84 68 40 99 L40 32 Z" /><glyph glyph-name="" unicode="&#x15b;" d="M147 415 L260 486 L260 535 L216 535 L140 426 L147 415 ZM40 20 Q65 11 94 3 Q123 -5 150 -5 Q226 -5 265 22 Q305 49 305 100 Q303 147 270 168 Q237 188 194 198 Q159 206 133 219 Q106 231 105 255 Q106 273 126 284 Q147 295 180 295 Q209 295 236 288 Q264 280 285 265 L285 332 Q261 338 238 342 Q214 345 190 345 Q117 345 78 321 Q40 298 40 253 Q42 203 79 180 Q115 157 160 147 Q193 139 216 127 Q239 115 240 92 Q240 71 218 58 Q197 45 160 45 Q132 45 101 55 Q70 64 40 85 L40 20 Z" /><glyph glyph-name="" unicode="&#x15c;" d="M213 655 L197 655 L101 584 L101 535 L115 535 L205 613 L295 535 L309 535 L309 584 L213 655 ZM40 32 Q108 -5 185 -5 Q265 -4 312 31 Q359 66 360 125 Q361 178 327 214 Q293 249 207 281 Q152 300 128 319 Q105 339 105 360 Q106 394 134 414 Q162 435 210 435 Q238 435 270 426 Q301 416 330 390 L330 454 Q300 470 271 477 Q241 485 210 485 Q132 484 87 451 Q41 417 40 360 Q38 322 71 285 Q103 249 188 217 Q248 195 272 171 Q296 148 295 120 Q294 86 264 66 Q234 45 185 45 Q153 44 118 56 Q84 68 40 99 L40 32 Z" /><glyph glyph-name="" unicode="&#x15d;" d="M188 535 L172 535 L76 464 L76 415 L90 415 L180 493 L270 415 L284 415 L284 464 L188 535 ZM40 20 Q65 11 94 3 Q123 -5 150 -5 Q226 -5 265 22 Q305 49 305 100 Q303 147 270 168 Q237 188 194 198 Q159 206 133 219 Q106 231 105 255 Q106 273 126 284 Q147 295 180 295 Q209 295 236 288 Q264 280 285 265 L285 332 Q261 338 238 342 Q214 345 190 345 Q117 345 78 321 Q40 298 40 253 Q42 203 79 180 Q115 157 160 147 Q193 139 216 127 Q239 115 240 92 Q240 71 218 58 Q197 45 160 45 Q132 45 101 55 Q70 64 40 85 L40 20 Z" /><glyph glyph-name="" unicode="&#x15e;" d="M40 32 Q69 16 98 7 Q126 -2 158 -4 L148 -86 L194 -86 Q219 -86 232 -98 Q246 -110 246 -131 Q246 -150 231 -161 Q217 -173 193 -173 Q180 -173 166 -169 Q153 -165 142 -157 L142 -198 Q169 -205 193 -205 Q236 -204 262 -184 Q287 -163 288 -128 Q287 -94 263 -74 Q238 -53 195 -53 L185 -53 L191 -5 Q269 -1 314 33 Q359 68 360 126 Q362 180 326 217 Q290 253 198 286 Q144 306 126 328 Q108 349 109 368 Q110 399 138 417 Q165 435 212 435 Q243 435 272 423 Q300 411 328 385 L328 454 Q298 470 269 477 Q239 485 208 485 Q131 484 86 451 Q41 418 40 361 Q38 322 71 285 Q103 248 188 216 Q248 193 270 169 Q292 144 291 117 Q290 84 262 65 Q233 45 185 45 Q153 45 118 58 Q84 72 40 104 L40 32 Z" /><glyph glyph-name="" unicode="&#x15f;" d="M40 20 Q59 13 82 6 Q105 0 129 -3 L119 -86 L165 -86 Q190 -86 203 -98 Q217 -110 217 -131 Q217 -150 202 -161 Q188 -173 164 -173 Q151 -173 137 -169 Q124 -165 113 -157 L113 -198 Q140 -205 164 -205 Q207 -204 233 -184 Q258 -163 259 -128 Q258 -94 234 -74 Q209 -53 166 -53 L156 -53 L162 -5 Q228 -2 266 26 Q304 54 305 100 Q303 147 270 168 Q237 188 194 198 Q160 206 135 219 Q110 232 109 255 Q109 273 129 284 Q148 295 180 295 Q209 295 236 288 Q264 280 285 265 L285 332 Q261 338 239 342 Q216 345 192 345 Q125 344 85 321 Q46 297 45 256 Q47 206 81 182 Q116 157 160 147 Q194 139 217 125 Q240 112 241 90 Q240 69 219 57 Q197 45 160 45 Q132 45 101 55 Q70 64 40 85 L40 20 Z" /><glyph glyph-name="" unicode="&#x160;" d="M197 535 L213 535 L309 606 L309 655 L295 655 L205 577 L115 655 L101 655 L101 606 L197 535 ZM40 32 Q108 -5 185 -5 Q265 -4 312 31 Q359 66 360 125 Q361 178 327 214 Q293 249 207 281 Q152 300 128 319 Q105 339 105 360 Q106 394 134 414 Q162 435 210 435 Q238 435 270 426 Q301 416 330 390 L330 454 Q300 470 271 477 Q241 485 210 485 Q132 484 87 451 Q41 417 40 360 Q38 322 71 285 Q103 249 188 217 Q248 195 272 171 Q296 148 295 120 Q294 86 264 66 Q234 45 185 45 Q153 44 118 56 Q84 68 40 99 L40 32 Z" /><glyph glyph-name="" unicode="&#x161;" d="M172 415 L188 415 L284 486 L284 535 L270 535 L180 457 L90 535 L76 535 L76 486 L172 415 ZM40 20 Q65 11 94 3 Q123 -5 150 -5 Q226 -5 265 22 Q305 49 305 100 Q303 147 270 168 Q237 188 194 198 Q159 206 133 219 Q106 231 105 255 Q106 273 126 284 Q147 295 180 295 Q209 295 236 288 Q264 280 285 265 L285 332 Q261 338 238 342 Q214 345 190 345 Q117 345 78 321 Q40 298 40 253 Q42 203 79 180 Q115 157 160 147 Q193 139 216 127 Q239 115 240 92 Q240 71 218 58 Q197 45 160 45 Q132 45 101 55 Q70 64 40 85 L40 20 Z" /><glyph glyph-name="" unicode="&#x162;" d="M20 480 L20 425 L155 425 L155 8 L144 -86 L190 -86 Q215 -86 228 -98 Q242 -110 242 -131 Q242 -150 227 -161 Q213 -173 189 -173 Q176 -173 162 -169 Q149 -165 138 -157 L138 -198 Q165 -205 189 -205 Q232 -204 258 -184 Q283 -163 284 -128 Q283 -94 259 -74 Q234 -53 191 -53 L181 -53 L188 0 L220 0 L220 425 L355 425 L355 480 L20 480 Z" /><glyph glyph-name="" unicode="&#x163;" d="M47 437 L47 125 Q47 77 67 46 Q86 15 121 3 L111 -86 L157 -86 Q182 -86 195 -98 Q209 -110 209 -131 Q209 -150 194 -161 Q180 -173 156 -173 Q143 -173 129 -169 Q116 -165 105 -157 L105 -198 Q132 -205 156 -205 Q199 -204 225 -184 Q250 -163 251 -128 Q250 -94 226 -74 Q201 -53 158 -53 L148 -53 L154 -4 Q163 -5 173 -5 Q209 -5 252 8 L252 72 Q234 59 213 52 Q193 45 174 45 Q146 45 127 62 Q108 80 107 120 L107 290 L242 290 L242 340 L107 340 L107 460 L47 437 Z" /><glyph glyph-name="" unicode="&#x164;" d="M180 535 L196 535 L292 606 L292 655 L278 655 L188 577 L98 655 L84 655 L84 606 L180 535 ZM20 480 L20 430 L155 430 L155 0 L220 0 L220 430 L355 430 L355 480 L20 480 Z" /><glyph glyph-name="" unicode="&#x165;" d="M47 437 L47 125 Q48 61 81 28 Q114 -5 173 -5 Q209 -5 252 8 L252 72 Q234 59 213 52 Q193 45 174 45 Q146 45 127 62 Q108 80 107 120 L107 290 L222 290 L222 340 L107 340 L107 460 L47 437 ZM261 388 L296 451 Q304 464 309 477 Q315 489 315 499 L315 530 L265 530 Q251 531 248 527 Q244 524 245 510 L245 470 L265 463 L243 397 L261 388 Z" /><glyph glyph-name="" unicode="&#x166;" d="M20 480 L20 425 L155 425 L155 325 L70 325 L70 275 L155 275 L155 0 L220 0 L220 275 L305 275 L305 325 L220 325 L220 425 L355 425 L355 480 L20 480 Z" /><glyph glyph-name="" unicode="&#x167;" d="M65 437 L65 225 L10 225 L10 175 L65 175 L65 125 Q66 61 99 28 Q132 -5 191 -5 Q227 -5 270 8 L270 72 Q252 59 231 52 Q211 45 192 45 Q164 45 145 62 Q126 80 125 120 L125 175 L215 175 L215 225 L125 225 L125 290 L260 290 L260 340 L125 340 L125 460 L65 437 Z" /><glyph glyph-name="" unicode="&#x168;" d="M317 589 L317 644 Q306 625 293 615 Q280 604 264 604 Q251 604 237 610 Q222 615 207 623 Q192 630 177 635 Q163 641 150 641 Q134 641 121 631 Q108 621 97 602 L97 547 Q108 566 121 576 Q134 587 150 587 Q163 587 177 581 Q192 576 207 569 Q222 561 237 556 Q251 550 264 550 Q280 550 293 560 Q306 570 317 589 L317 589 ZM210 45 Q164 46 138 73 Q111 99 110 145 L110 480 L45 480 L45 145 Q46 77 90 36 Q135 -4 210 -5 Q285 -4 330 36 Q374 77 375 145 L375 480 L310 480 L310 145 Q309 99 283 73 Q256 46 210 45 L210 45 Z" /><glyph glyph-name="" unicode="&#x169;" d="M310 469 L310 524 Q299 505 286 495 Q273 484 257 484 Q244 484 230 490 Q215 495 200 503 Q185 510 170 515 Q156 521 143 521 Q127 521 114 511 Q101 501 90 482 L90 427 Q101 446 114 456 Q127 467 143 467 Q156 467 170 461 Q185 456 200 449 Q215 441 230 436 Q244 430 257 430 Q273 430 286 440 Q299 450 310 469 L310 469 ZM360 0 L360 340 L300 340 L300 175 Q299 118 265 80 Q231 41 180 40 Q146 40 126 58 Q105 75 105 105 L105 340 L45 340 L45 95 Q46 49 81 23 Q116 -4 175 -5 Q215 -5 247 17 Q280 39 301 76 L305 0 L360 0 Z" /><glyph glyph-name="" unicode="&#x16a;" d="M117 550 L286 550 Q293 550 295 552 Q297 554 297 561 L297 600 L128 600 Q121 600 119 598 Q117 596 117 589 L117 550 ZM210 45 Q164 46 138 73 Q111 99 110 145 L110 480 L45 480 L45 145 Q46 77 90 36 Q135 -4 210 -5 Q285 -4 330 36 Q374 77 375 145 L375 480 L310 480 L310 145 Q309 99 283 73 Q256 46 210 45 L210 45 Z" /><glyph glyph-name="" unicode="&#x16b;" d="M120 430 L289 430 Q296 430 298 432 Q300 434 300 441 L300 480 L131 480 Q124 480 122 478 Q120 476 120 469 L120 430 ZM360 0 L360 340 L300 340 L300 175 Q299 118 265 80 Q231 41 180 40 Q146 40 126 58 Q105 75 105 105 L105 340 L45 340 L45 95 Q46 49 81 23 Q116 -4 175 -5 Q215 -5 247 17 Q280 39 301 76 L305 0 L360 0 Z" /><glyph glyph-name="" unicode="&#x16c;" d="M207 580 Q173 581 150 602 Q128 623 127 655 L102 655 Q103 600 131 568 Q159 536 207 535 Q255 536 283 568 Q311 600 312 655 L282 655 Q281 623 260 602 Q239 581 207 580 L207 580 ZM210 45 Q164 46 138 73 Q111 99 110 145 L110 480 L45 480 L45 145 Q46 77 90 36 Q135 -4 210 -5 Q285 -4 330 36 Q374 77 375 145 L375 480 L310 480 L310 145 Q309 99 283 73 Q256 46 210 45 L210 45 Z" /><glyph glyph-name="" unicode="&#x16d;" d="M210 460 Q176 461 153 482 Q131 503 130 535 L105 535 Q106 480 134 448 Q162 416 210 415 Q258 416 286 448 Q314 480 315 535 L285 535 Q284 503 263 482 Q242 461 210 460 L210 460 ZM360 0 L360 340 L300 340 L300 175 Q299 118 265 80 Q231 41 180 40 Q146 40 126 58 Q105 75 105 105 L105 340 L45 340 L45 95 Q46 49 81 23 Q116 -4 175 -5 Q215 -5 247 17 Q280 39 301 76 L305 0 L360 0 Z" /><glyph glyph-name="" unicode="&#x16e;" d="M125 595 Q126 556 148 533 Q170 511 207 510 Q244 511 266 533 Q288 556 289 595 Q288 634 266 657 Q244 679 207 680 Q170 679 148 657 Q126 634 125 595 L125 595 ZM165 595 Q165 616 177 628 Q188 640 207 640 Q226 640 237 628 Q249 616 249 595 Q249 574 237 562 Q226 550 207 550 Q188 550 177 562 Q165 574 165 595 L165 595 ZM210 45 Q164 46 138 73 Q111 99 110 145 L110 480 L45 480 L45 145 Q46 77 90 36 Q135 -4 210 -5 Q285 -4 330 36 Q374 77 375 145 L375 480 L310 480 L310 145 Q309 99 283 73 Q256 46 210 45 L210 45 Z" /><glyph glyph-name="" unicode="&#x16f;" d="M118 475 Q119 436 141 413 Q163 391 200 390 Q237 391 259 413 Q281 436 282 475 Q281 514 259 537 Q237 559 200 560 Q163 559 141 537 Q119 514 118 475 L118 475 ZM158 475 Q158 496 170 508 Q181 520 200 520 Q219 520 230 508 Q242 496 242 475 Q242 454 230 442 Q219 430 200 430 Q181 430 170 442 Q158 454 158 475 L158 475 ZM360 0 L360 340 L300 340 L300 175 Q299 118 265 80 Q231 41 180 40 Q146 40 126 58 Q105 75 105 105 L105 340 L45 340 L45 95 Q46 49 81 23 Q116 -4 175 -5 Q215 -5 247 17 Q280 39 301 76 L305 0 L360 0 Z" /><glyph glyph-name="" unicode="&#x170;" d="M94 535 L227 616 L227 655 L188 655 L87 546 L94 535 ZM234 535 L367 616 L367 655 L328 655 L227 546 L234 535 ZM210 45 Q164 46 138 73 Q111 99 110 145 L110 480 L45 480 L45 145 Q46 77 90 36 Q135 -4 210 -5 Q285 -4 330 36 Q374 77 375 145 L375 480 L310 480 L310 145 Q309 99 283 73 Q256 46 210 45 L210 45 Z" /><glyph glyph-name="" unicode="&#x171;" d="M87 415 L220 496 L220 535 L181 535 L80 426 L87 415 ZM227 415 L360 496 L360 535 L321 535 L220 426 L227 415 ZM360 0 L360 340 L300 340 L300 175 Q299 118 265 80 Q231 41 180 40 Q146 40 126 58 Q105 75 105 105 L105 340 L45 340 L45 95 Q46 49 81 23 Q116 -4 175 -5 Q215 -5 247 17 Q280 39 301 76 L305 0 L360 0 Z" /><glyph glyph-name="" unicode="&#x172;" d="M45 480 L45 145 Q46 83 83 43 Q121 4 185 -4 Q155 -21 138 -46 Q120 -71 120 -101 Q121 -148 149 -176 Q177 -204 225 -204 Q242 -204 261 -200 Q281 -196 300 -188 L300 -130 Q279 -143 261 -149 Q244 -154 230 -154 Q203 -154 187 -137 Q170 -120 170 -91 Q171 -61 193 -36 Q216 -12 254 0 Q308 12 339 50 Q369 88 370 145 L370 480 L310 480 L310 145 Q309 99 283 73 Q256 46 210 45 Q164 46 138 73 Q111 99 110 145 L110 480 L45 480 Z" /><glyph glyph-name="" unicode="&#x173;" d="M360 340 L300 340 L300 170 L300 170 Q298 113 265 75 Q231 36 181 35 Q146 36 126 57 Q105 79 105 116 L105 340 L45 340 L45 93 Q46 48 79 22 Q112 -4 168 -5 Q210 -4 244 15 Q278 35 301 68 L305 2 Q264 -14 240 -41 Q216 -68 215 -101 Q216 -148 244 -176 Q272 -204 320 -204 Q337 -204 356 -200 Q376 -196 395 -188 L395 -130 Q374 -143 356 -149 Q339 -154 325 -154 Q298 -154 282 -137 Q265 -120 265 -91 Q266 -58 293 -34 Q320 -10 363 -2 Q363 0 361 30 Q360 60 360 92 L360 340 Z" /><glyph glyph-name="" unicode="&#x174;" d="M328 655 L312 655 L216 584 L216 535 L230 535 L320 613 L410 535 L424 535 L424 584 L328 655 ZM221 0 L320 368 L419 0 L481 0 L625 480 L549 480 L450 55 L351 480 L289 480 L190 55 L91 480 L15 480 L159 0 L221 0 Z" /><glyph glyph-name="" unicode="&#x175;" d="M293 535 L277 535 L181 464 L181 415 L195 415 L285 493 L375 415 L389 415 L389 464 L293 535 ZM136 0 L194 0 L285 267 L376 0 L434 0 L555 340 L480 340 L405 48 L315 340 L255 340 L165 48 L90 340 L15 340 L136 0 Z" /><glyph glyph-name="" unicode="&#x176;" d="M215 655 L199 655 L103 584 L103 535 L117 535 L207 613 L297 535 L311 535 L311 584 L215 655 ZM177 0 L242 0 L242 189 L405 480 L327 480 L210 228 L92 480 L15 480 L177 189 L177 0 Z" /><glyph glyph-name="" unicode="&#x177;" d="M195 535 L179 535 L83 464 L83 415 L97 415 L187 493 L277 415 L291 415 L291 464 L195 535 ZM15 340 L174 4 Q148 -59 110 -101 Q71 -143 5 -145 L5 -200 Q86 -198 136 -145 Q186 -92 218 -9 L360 340 L289 340 L198 64 L86 340 L15 340 Z" /><glyph glyph-name="" unicode="&#x178;" d="M247 570 L296 570 Q303 570 305 572 Q307 574 307 581 L307 630 L258 630 Q251 630 249 628 Q247 626 247 619 L247 570 ZM107 570 L156 570 Q163 570 165 572 Q167 574 167 581 L167 630 L118 630 Q111 630 109 628 Q107 626 107 619 L107 570 ZM177 0 L242 0 L242 189 L405 480 L327 480 L210 228 L92 480 L15 480 L177 189 L177 0 Z" /><glyph glyph-name="" unicode="&#x179;" d="M162 535 L275 606 L275 655 L231 655 L155 546 L162 535 ZM20 0 L350 0 L350 55 L123 55 L360 480 L35 480 L35 425 L258 425 L20 0 Z" /><glyph glyph-name="" unicode="&#x17a;" d="M142 415 L255 486 L255 535 L211 535 L135 426 L142 415 ZM15 0 L305 0 L305 45 L112 45 L315 340 L30 340 L30 295 L218 295 L15 0 Z" /><glyph glyph-name="" unicode="&#x17b;" d="M165 570 L214 570 Q221 570 223 572 Q225 574 225 581 L225 630 L176 630 Q169 630 167 628 Q165 626 165 619 L165 570 ZM20 0 L350 0 L350 55 L123 55 L360 480 L35 480 L35 425 L258 425 L20 0 Z" /><glyph glyph-name="" unicode="&#x17c;" d="M145 450 L194 450 Q201 450 203 452 Q205 454 205 461 L205 510 L156 510 Q149 510 147 508 Q145 506 145 499 L145 450 ZM15 0 L305 0 L305 45 L112 45 L315 340 L30 340 L30 295 L218 295 L15 0 Z" /><glyph glyph-name="" unicode="&#x17d;" d="M187 535 L203 535 L299 606 L299 655 L285 655 L195 577 L105 655 L91 655 L91 606 L187 535 ZM20 0 L350 0 L350 55 L123 55 L360 480 L35 480 L35 425 L258 425 L20 0 Z" /><glyph glyph-name="" unicode="&#x17e;" d="M152 415 L168 415 L264 486 L264 535 L250 535 L160 457 L70 535 L56 535 L56 486 L152 415 ZM15 0 L305 0 L305 45 L112 45 L315 340 L30 340 L30 295 L218 295 L15 0 Z" /><glyph glyph-name="" unicode="&#x1cd;" d="M212 535 L228 535 L324 606 L324 655 L310 655 L220 577 L130 655 L116 655 L116 606 L212 535 ZM187 480 L15 0 L81 0 L114 103 L325 103 L359 0 L425 0 L253 480 L187 480 ZM129 150 L220 432 L311 150 L129 150 Z" /><glyph glyph-name="" unicode="&#x1ce;" d="M192 415 L208 415 L304 486 L304 535 L290 535 L200 457 L110 535 L96 535 L96 486 L192 415 ZM25 170 Q26 90 64 43 Q103 -4 168 -5 Q209 -4 243 19 Q276 43 296 83 L300 1 L353 -2 Q353 0 352 30 Q350 60 350 92 L350 340 L297 340 L290 300 L255 340 L173 340 Q105 339 66 293 Q26 248 25 170 L25 170 ZM88 170 Q89 227 113 261 Q137 294 179 295 L290 295 L290 170 Q289 115 257 78 Q226 41 179 40 Q137 41 113 76 Q89 111 88 170 L88 170 Z" /><glyph glyph-name="" unicode="&#x1cf;" d="M80 535 L96 535 L192 606 L192 655 L178 655 L88 577 L-2 655 L-16 655 L-16 606 L80 535 ZM55 0 L120 0 L120 480 L55 480 L55 0 Z" /><glyph glyph-name="" unicode="&#x1d0;" d="M72 415 L88 415 L184 486 L184 535 L170 535 L80 457 L-10 535 L-24 535 L-24 486 L72 415 ZM50 340 L50 90 L55 2 L113 -2 Q113 0 112 30 Q110 60 110 92 L110 340 L50 340 Z" /><glyph glyph-name="" unicode="&#x1d1;" d="M227 535 L243 535 L339 606 L339 655 L325 655 L235 577 L145 655 L131 655 L131 606 L227 535 ZM98 240 Q99 329 136 381 Q172 434 235 435 Q298 434 334 381 Q371 329 372 240 Q371 151 334 99 Q298 46 235 45 Q172 46 136 99 Q99 151 98 240 L98 240 ZM30 240 Q31 128 86 62 Q141 -3 235 -5 Q329 -3 384 62 Q439 128 440 240 Q439 352 384 418 Q329 483 235 485 Q141 483 86 418 Q31 352 30 240 L30 240 Z" /><glyph glyph-name="" unicode="&#x1d2;" d="M182 415 L198 415 L294 486 L294 535 L280 535 L190 457 L100 535 L86 535 L86 486 L182 415 ZM88 170 Q89 229 116 264 Q143 299 190 300 Q237 299 264 264 Q291 229 292 170 Q291 111 264 76 Q237 41 190 40 Q143 41 116 76 Q89 111 88 170 L88 170 ZM25 170 Q26 90 70 43 Q115 -4 190 -5 Q265 -4 310 43 Q354 90 355 170 Q354 250 310 297 Q265 344 190 345 Q115 344 70 297 Q26 250 25 170 L25 170 Z" /><glyph glyph-name="" unicode="&#x1d3;" d="M199 535 L215 535 L311 606 L311 655 L297 655 L207 577 L117 655 L103 655 L103 606 L199 535 ZM210 45 Q164 46 138 73 Q111 99 110 145 L110 480 L45 480 L45 145 Q46 77 90 36 Q135 -4 210 -5 Q285 -4 330 36 Q374 77 375 145 L375 480 L310 480 L310 145 Q309 99 283 73 Q256 46 210 45 L210 45 Z" /><glyph glyph-name="" unicode="&#x1d4;" d="M192 415 L208 415 L304 486 L304 535 L290 535 L200 457 L110 535 L96 535 L96 486 L192 415 ZM360 0 L360 340 L300 340 L300 175 Q299 118 265 80 Q231 41 180 40 Q146 40 126 58 Q105 75 105 105 L105 340 L45 340 L45 95 Q46 49 81 23 Q116 -4 175 -5 Q215 -5 247 17 Q280 39 301 76 L305 0 L360 0 Z" /><glyph glyph-name="" unicode="&#x1e2;" d="M220 550 L389 550 Q396 550 398 552 Q400 554 400 561 L400 600 L231 600 Q224 600 222 598 Q220 596 220 589 L220 550 ZM15 0 L87 0 L129 145 L158 105 L278 105 L278 0 L528 0 L528 55 L343 55 L343 225 L488 225 L488 275 L343 275 L343 425 L528 425 L528 480 L175 480 L15 0 ZM278 425 L278 155 L132 155 L210 425 L278 425 Z" /><glyph glyph-name="" unicode="&#x1e3;" d="M200 430 L369 430 Q376 430 378 432 Q380 434 380 441 L380 480 L211 480 Q204 480 202 478 Q200 476 200 469 L200 430 ZM260 190 L148 190 Q92 189 59 164 Q26 138 25 95 Q26 49 56 23 Q86 -4 138 -5 Q186 -4 226 24 Q265 53 287 96 Q306 48 342 22 Q379 -5 430 -5 Q455 -5 477 -2 Q498 1 520 8 L520 72 Q502 59 480 52 Q459 45 430 45 Q384 46 354 72 Q324 99 317 145 L537 145 Q551 145 559 153 Q567 160 567 175 L567 198 Q566 265 525 305 Q484 344 415 345 Q377 345 347 329 Q318 313 300 283 Q284 312 250 328 Q216 345 167 345 Q143 345 117 342 Q91 339 65 332 L65 268 Q83 281 110 288 Q137 295 165 295 Q212 295 236 280 Q260 265 260 240 L260 190 ZM260 180 L260 165 Q259 112 227 77 Q196 41 149 40 Q121 40 105 55 Q88 70 88 95 Q88 118 108 131 Q127 145 159 145 L225 145 L260 180 ZM316 153 Q315 162 315 170 Q316 229 343 264 Q369 299 415 300 Q460 300 483 272 Q507 244 507 190 L355 190 L316 153 Z" /><glyph glyph-name="" unicode="&#x1e6;" d="M229 535 L245 535 L341 606 L341 655 L327 655 L237 577 L147 655 L133 655 L133 606 L229 535 ZM245 260 L245 210 L315 210 L315 60 Q286 50 252 50 Q182 51 140 104 Q99 156 98 245 Q99 329 144 379 Q190 429 267 430 Q292 430 313 423 Q334 417 355 403 L355 470 Q331 477 306 481 Q282 485 257 485 Q153 484 92 419 Q31 355 30 245 Q31 131 91 64 Q151 -3 252 -5 Q278 -5 303 0 Q329 4 350 10 L380 14 L380 260 L245 260 Z" /><glyph glyph-name="" unicode="&#x1e7;" d="M192 415 L208 415 L304 486 L304 535 L290 535 L200 457 L110 535 L96 535 L96 486 L192 415 ZM25 170 Q26 90 64 43 Q103 -4 168 -5 Q206 -5 238 17 Q270 38 290 75 L290 -35 Q289 -92 257 -126 Q225 -159 170 -160 Q144 -160 120 -153 Q96 -146 75 -131 L75 -193 Q122 -205 170 -205 Q252 -204 301 -158 Q349 -113 350 -35 L350 340 L297 340 L290 300 L255 340 L173 340 Q105 339 66 293 Q26 248 25 170 L25 170 ZM88 170 Q89 227 113 261 Q137 294 179 295 L290 295 L290 175 Q289 118 257 80 Q226 41 179 40 Q137 41 113 76 Q89 111 88 170 L88 170 Z" /><glyph glyph-name="" unicode="&#x1e8;" d="M184 535 L200 535 L296 606 L296 655 L282 655 L192 577 L102 655 L88 655 L88 606 L184 535 ZM132 245 L307 0 L395 0 L191 245 L378 480 L299 480 L132 245 ZM55 0 L120 0 L120 480 L55 480 L55 0 Z" /><glyph glyph-name="" unicode="&#x1e9;" d="M202 555 L218 555 L314 626 L314 675 L300 675 L210 597 L120 675 L106 675 L106 626 L202 555 ZM365 0 L195 175 L348 340 L273 340 L128 175 L279 0 L365 0 ZM50 0 L110 0 L110 540 L50 540 L50 0 Z" /><glyph glyph-name="" unicode="&#x1ea;" d="M30 240 Q31 143 74 79 Q116 16 191 0 Q157 -18 140 -44 Q123 -71 123 -102 Q124 -149 152 -177 Q180 -205 228 -205 Q245 -205 264 -201 Q284 -197 303 -189 L303 -131 Q282 -144 264 -150 Q247 -155 233 -155 Q206 -155 190 -138 Q173 -121 173 -92 Q174 -60 198 -35 Q223 -11 266 -3 Q346 10 393 74 Q439 138 440 240 Q439 352 384 418 Q329 483 235 485 Q141 483 86 418 Q31 352 30 240 L30 240 ZM98 240 Q99 329 136 381 Q172 434 235 435 Q298 434 334 381 Q371 329 372 240 Q371 151 334 99 Q298 46 235 45 Q172 46 136 99 Q99 151 98 240 L98 240 Z" /><glyph glyph-name="" unicode="&#x1eb;" d="M25 170 Q26 103 58 58 Q90 14 146 0 Q114 -18 97 -44 Q80 -70 80 -101 Q81 -148 109 -176 Q137 -204 185 -204 Q202 -204 221 -200 Q241 -196 260 -188 L260 -130 Q239 -143 221 -149 Q204 -154 190 -154 Q163 -154 147 -137 Q130 -120 130 -91 Q130 -59 154 -35 Q178 -12 219 -3 Q282 7 318 53 Q354 99 355 170 Q354 250 310 297 Q265 344 190 345 Q115 344 70 297 Q26 250 25 170 L25 170 ZM88 170 Q89 229 116 264 Q143 299 190 300 Q237 299 264 264 Q291 229 292 170 Q291 111 264 76 Q237 41 190 40 Q143 41 116 76 Q89 111 88 170 L88 170 Z" /><glyph glyph-name="" unicode="&#x1ec;" d="M145 550 L314 550 Q321 550 323 552 Q325 554 325 561 L325 600 L156 600 Q149 600 147 598 Q145 596 145 589 L145 550 ZM30 240 Q31 143 74 79 Q116 16 191 0 Q157 -18 140 -44 Q123 -71 123 -102 Q124 -149 152 -177 Q180 -205 228 -205 Q245 -205 264 -201 Q284 -197 303 -189 L303 -131 Q282 -144 264 -150 Q247 -155 233 -155 Q206 -155 190 -138 Q173 -121 173 -92 Q174 -60 198 -35 Q223 -11 266 -3 Q346 10 393 74 Q439 138 440 240 Q439 352 384 418 Q329 483 235 485 Q141 483 86 418 Q31 352 30 240 L30 240 ZM98 240 Q99 329 136 381 Q172 434 235 435 Q298 434 334 381 Q371 329 372 240 Q371 151 334 99 Q298 46 235 45 Q172 46 136 99 Q99 151 98 240 L98 240 Z" /><glyph glyph-name="" unicode="&#x1ed;" d="M100 430 L269 430 Q276 430 278 432 Q280 434 280 441 L280 480 L111 480 Q104 480 102 478 Q100 476 100 469 L100 430 ZM25 170 Q26 103 58 58 Q90 14 146 0 Q114 -18 97 -44 Q80 -70 80 -101 Q81 -148 109 -176 Q137 -204 185 -204 Q202 -204 221 -200 Q241 -196 260 -188 L260 -130 Q239 -143 221 -149 Q204 -154 190 -154 Q163 -154 147 -137 Q130 -120 130 -91 Q130 -59 154 -35 Q178 -12 219 -3 Q282 7 318 53 Q354 99 355 170 Q354 250 310 297 Q265 344 190 345 Q115 344 70 297 Q26 250 25 170 L25 170 ZM88 170 Q89 229 116 264 Q143 299 190 300 Q237 299 264 264 Q291 229 292 170 Q291 111 264 76 Q237 41 190 40 Q143 41 116 76 Q89 111 88 170 L88 170 Z" /><glyph glyph-name="" unicode="&#x1f0;" d="M72 415 L88 415 L184 486 L184 535 L170 535 L80 457 L-10 535 L-24 535 L-24 486 L72 415 ZM50 340 L50 -92 Q50 -123 36 -141 Q23 -160 0 -160 Q-20 -160 -38 -153 Q-57 -146 -73 -135 L-73 -193 Q-54 -199 -37 -202 Q-20 -205 0 -205 Q50 -204 80 -173 Q109 -142 110 -90 L110 340 L50 340 Z" /><glyph glyph-name="" unicode="&#x1f4;" d="M204 535 L317 606 L317 655 L273 655 L197 546 L204 535 ZM245 260 L245 210 L315 210 L315 60 Q286 50 252 50 Q182 51 140 104 Q99 156 98 245 Q99 329 144 379 Q190 429 267 430 Q292 430 313 423 Q334 417 355 403 L355 470 Q331 477 306 481 Q282 485 257 485 Q153 484 92 419 Q31 355 30 245 Q31 131 91 64 Q151 -3 252 -5 Q278 -5 303 0 Q329 4 350 10 L380 14 L380 260 L245 260 Z" /><glyph glyph-name="" unicode="&#x1f5;" d="M167 415 L280 486 L280 535 L236 535 L160 426 L167 415 ZM25 170 Q26 90 64 43 Q103 -4 168 -5 Q206 -5 238 17 Q270 38 290 75 L290 -35 Q289 -92 257 -126 Q225 -159 170 -160 Q144 -160 120 -153 Q96 -146 75 -131 L75 -193 Q122 -205 170 -205 Q252 -204 301 -158 Q349 -113 350 -35 L350 340 L297 340 L290 300 L255 340 L173 340 Q105 339 66 293 Q26 248 25 170 L25 170 ZM88 170 Q89 227 113 261 Q137 294 179 295 L290 295 L290 175 Q289 118 257 80 Q226 41 179 40 Q137 41 113 76 Q89 111 88 170 L88 170 Z" /><glyph glyph-name="" unicode="&#x1f8;" d="M258 535 L265 546 L189 655 L145 655 L145 606 L258 535 ZM55 0 L105 0 L105 363 L340 0 L385 0 L385 480 L335 480 L335 112 L100 480 L55 480 L55 0 Z" /><glyph glyph-name="" unicode="&#x1f9;" d="M233 415 L240 426 L164 535 L120 535 L120 486 L233 415 ZM50 0 L110 0 L110 165 Q111 222 145 260 Q179 299 230 300 Q264 300 284 282 Q305 265 305 235 L305 0 L365 0 L365 245 Q364 291 329 318 Q294 344 235 345 Q195 345 163 323 Q130 301 109 264 L105 340 L50 340 L50 0 Z" /><glyph glyph-name="" unicode="&#x1fc;" d="M277 535 L390 606 L390 655 L346 655 L270 546 L277 535 ZM15 0 L87 0 L129 145 L158 105 L278 105 L278 0 L528 0 L528 55 L343 55 L343 225 L488 225 L488 275 L343 275 L343 425 L528 425 L528 480 L175 480 L15 0 ZM278 425 L278 155 L132 155 L210 425 L278 425 Z" /><glyph glyph-name="" unicode="&#x1fd;" d="M257 415 L370 486 L370 535 L326 535 L250 426 L257 415 ZM260 190 L148 190 Q92 189 59 164 Q26 138 25 95 Q26 49 56 23 Q86 -4 138 -5 Q186 -4 226 24 Q265 53 287 96 Q306 48 342 22 Q379 -5 430 -5 Q455 -5 477 -2 Q498 1 520 8 L520 72 Q502 59 480 52 Q459 45 430 45 Q384 46 354 72 Q324 99 317 145 L537 145 Q551 145 559 153 Q567 160 567 175 L567 198 Q566 265 525 305 Q484 344 415 345 Q377 345 347 329 Q318 313 300 283 Q284 312 250 328 Q216 345 167 345 Q143 345 117 342 Q91 339 65 332 L65 268 Q83 281 110 288 Q137 295 165 295 Q212 295 236 280 Q260 265 260 240 L260 190 ZM260 180 L260 165 Q259 112 227 77 Q196 41 149 40 Q121 40 105 55 Q88 70 88 95 Q88 118 108 131 Q127 145 159 145 L225 145 L260 180 ZM316 153 Q315 162 315 170 Q316 229 343 264 Q369 299 415 300 Q460 300 483 272 Q507 244 507 190 L355 190 L316 153 Z" /><glyph glyph-name="" unicode="&#x1fe;" d="M202 535 L315 606 L315 655 L271 655 L195 546 L202 535 ZM30 240 Q30 181 46 135 Q63 88 93 55 L49 -17 L91 -43 L132 23 Q154 9 180 2 Q206 -5 235 -5 Q329 -3 384 62 Q439 128 440 240 Q440 299 424 345 Q407 392 377 425 L421 497 L379 523 L338 457 Q316 471 290 478 Q264 485 235 485 Q141 483 86 418 Q31 352 30 240 L30 240 ZM161 71 L343 368 Q357 343 364 311 Q372 279 372 240 Q371 151 334 99 Q298 46 235 45 Q192 45 161 71 L161 71 ZM127 112 Q113 137 106 169 Q98 201 98 240 Q99 329 136 381 Q172 434 235 435 Q278 435 309 409 L127 112 Z" /><glyph glyph-name="" unicode="&#x1ff;" d="M157 415 L270 486 L270 535 L226 535 L150 426 L157 415 ZM25 170 Q25 126 39 92 Q53 58 79 34 L49 -17 L91 -43 L122 8 Q152 -5 190 -5 Q265 -4 310 43 Q354 90 355 170 Q355 214 341 248 Q327 282 301 306 L331 357 L289 383 L258 332 Q228 345 190 345 Q115 344 70 297 Q26 250 25 170 L25 170 ZM147 49 L271 257 Q283 240 289 218 Q295 196 295 170 Q294 111 266 76 Q238 41 190 40 Q166 40 147 49 L147 49 ZM109 83 Q97 100 91 122 Q85 144 85 170 Q86 229 114 264 Q142 299 190 300 Q214 300 233 291 L109 83 Z" /><glyph glyph-name="" unicode="&#x200;" d="M323 535 L330 546 L229 655 L190 655 L190 616 L323 535 ZM183 535 L190 546 L89 655 L50 655 L50 616 L183 535 ZM187 480 L15 0 L81 0 L114 103 L325 103 L359 0 L425 0 L253 480 L187 480 ZM129 150 L220 432 L311 150 L129 150 Z" /><glyph glyph-name="" unicode="&#x201;" d="M313 415 L320 426 L219 535 L180 535 L180 496 L313 415 ZM173 415 L180 426 L79 535 L40 535 L40 496 L173 415 ZM25 170 Q26 90 64 43 Q103 -4 168 -5 Q209 -4 243 19 Q276 43 296 83 L300 1 L353 -2 Q353 0 352 30 Q350 60 350 92 L350 340 L297 340 L290 300 L255 340 L173 340 Q105 339 66 293 Q26 248 25 170 L25 170 ZM88 170 Q89 227 113 261 Q137 294 179 295 L290 295 L290 170 Q289 115 257 78 Q226 41 179 40 Q137 41 113 76 Q89 111 88 170 L88 170 Z" /><glyph glyph-name="" unicode="&#x202;" d="M220 610 Q254 609 277 588 Q299 567 300 535 L325 535 Q324 590 296 622 Q268 654 220 655 Q172 654 144 622 Q116 590 115 535 L145 535 Q146 567 167 588 Q188 609 220 610 L220 610 ZM187 480 L15 0 L81 0 L114 103 L325 103 L359 0 L425 0 L253 480 L187 480 ZM129 150 L220 432 L311 150 L129 150 Z" /><glyph glyph-name="" unicode="&#x203;" d="M200 490 Q234 489 257 468 Q279 447 280 415 L305 415 Q304 470 276 502 Q248 534 200 535 Q152 534 124 502 Q96 470 95 415 L125 415 Q126 447 147 468 Q168 489 200 490 L200 490 ZM25 170 Q26 90 64 43 Q103 -4 168 -5 Q209 -4 243 19 Q276 43 296 83 L300 1 L353 -2 Q353 0 352 30 Q350 60 350 92 L350 340 L297 340 L290 300 L255 340 L173 340 Q105 339 66 293 Q26 248 25 170 L25 170 ZM88 170 Q89 227 113 261 Q137 294 179 295 L290 295 L290 170 Q289 115 257 78 Q226 41 179 40 Q137 41 113 76 Q89 111 88 170 L88 170 Z" /><glyph glyph-name="" unicode="&#x204;" d="M315 535 L322 546 L221 655 L182 655 L182 616 L315 535 ZM175 535 L182 546 L81 655 L42 655 L42 616 L175 535 ZM55 0 L330 0 L330 50 L120 50 L120 220 L290 220 L290 270 L120 270 L120 430 L330 430 L330 480 L55 480 L55 0 Z" /><glyph glyph-name="" unicode="&#x205;" d="M298 415 L305 426 L204 535 L165 535 L165 496 L298 415 ZM158 415 L165 426 L64 535 L25 535 L25 496 L158 415 ZM85 170 Q85 234 111 267 Q136 300 185 300 Q230 300 254 272 Q278 244 278 190 L125 190 L86 153 Q85 161 85 170 L85 170 ZM25 170 Q26 90 73 43 Q120 -4 200 -5 Q224 -5 245 -2 Q267 1 290 8 L290 72 Q269 57 247 51 Q225 45 200 45 Q150 45 121 71 Q92 96 86 145 L305 145 Q319 145 327 153 Q335 160 335 175 L335 193 Q334 262 294 303 Q253 344 185 345 Q112 344 69 297 Q26 250 25 170 L25 170 Z" /><glyph glyph-name="" unicode="&#x206;" d="M202 610 Q236 609 259 588 Q281 567 282 535 L307 535 Q306 590 278 622 Q250 654 202 655 Q154 654 126 622 Q98 590 97 535 L127 535 Q128 567 149 588 Q170 609 202 610 L202 610 ZM55 0 L330 0 L330 50 L120 50 L120 220 L290 220 L290 270 L120 270 L120 430 L330 430 L330 480 L55 480 L55 0 Z" /><glyph glyph-name="" unicode="&#x207;" d="M185 490 Q219 489 242 468 Q264 447 265 415 L290 415 Q289 470 261 502 Q233 534 185 535 Q137 534 109 502 Q81 470 80 415 L110 415 Q111 447 132 468 Q153 489 185 490 L185 490 ZM85 170 Q85 234 111 267 Q136 300 185 300 Q230 300 254 272 Q278 244 278 190 L125 190 L86 153 Q85 161 85 170 L85 170 ZM25 170 Q26 90 73 43 Q120 -4 200 -5 Q224 -5 245 -2 Q267 1 290 8 L290 72 Q269 57 247 51 Q225 45 200 45 Q150 45 121 71 Q92 96 86 145 L305 145 Q319 145 327 153 Q335 160 335 175 L335 193 Q334 262 294 303 Q253 344 185 345 Q112 344 69 297 Q26 250 25 170 L25 170 Z" /><glyph glyph-name="" unicode="&#x208;" d="M201 535 L208 546 L107 655 L68 655 L68 616 L201 535 ZM61 535 L68 546 L-33 655 L-72 655 L-72 616 L61 535 ZM55 0 L120 0 L120 480 L55 480 L55 0 Z" /><glyph glyph-name="" unicode="&#x209;" d="M50 340 L50 90 L55 2 L113 -2 Q113 0 112 30 Q110 60 110 92 L110 340 L50 340 ZM169 421 L175 431 L106 540 L71 540 L71 505 L169 421 ZM58 421 L64 431 L-5 540 L-40 540 L-40 505 L58 421 Z" /><glyph glyph-name="" unicode="&#x20a;" d="M88 610 Q122 609 145 588 Q167 567 168 535 L193 535 Q192 590 164 622 Q136 654 88 655 Q40 654 12 622 Q-16 590 -17 535 L13 535 Q14 567 35 588 Q56 609 88 610 L88 610 ZM55 0 L120 0 L120 480 L55 480 L55 0 Z" /><glyph glyph-name="" unicode="&#x20b;" d="M80 490 Q114 489 137 468 Q159 447 160 415 L185 415 Q184 470 156 502 Q128 534 80 535 Q32 534 4 502 Q-24 470 -25 415 L5 415 Q6 447 27 468 Q48 489 80 490 L80 490 ZM50 340 L50 90 L55 2 L113 -2 Q113 0 112 30 Q110 60 110 92 L110 340 L50 340 Z" /><glyph glyph-name="" unicode="&#x20c;" d="M348 535 L355 546 L254 655 L215 655 L215 616 L348 535 ZM208 535 L215 546 L114 655 L75 655 L75 616 L208 535 ZM98 240 Q99 329 136 381 Q172 434 235 435 Q298 434 334 381 Q371 329 372 240 Q371 151 334 99 Q298 46 235 45 Q172 46 136 99 Q99 151 98 240 L98 240 ZM30 240 Q31 128 86 62 Q141 -3 235 -5 Q329 -3 384 62 Q439 128 440 240 Q439 352 384 418 Q329 483 235 485 Q141 483 86 418 Q31 352 30 240 L30 240 Z" /><glyph glyph-name="" unicode="&#x20d;" d="M303 415 L310 426 L209 535 L170 535 L170 496 L303 415 ZM163 415 L170 426 L69 535 L30 535 L30 496 L163 415 ZM88 170 Q89 229 116 264 Q143 299 190 300 Q237 299 264 264 Q291 229 292 170 Q291 111 264 76 Q237 41 190 40 Q143 41 116 76 Q89 111 88 170 L88 170 ZM25 170 Q26 90 70 43 Q115 -4 190 -5 Q265 -4 310 43 Q354 90 355 170 Q354 250 310 297 Q265 344 190 345 Q115 344 70 297 Q26 250 25 170 L25 170 Z" /><glyph glyph-name="" unicode="&#x20e;" d="M235 610 Q269 609 292 588 Q314 567 315 535 L340 535 Q339 590 311 622 Q283 654 235 655 Q187 654 159 622 Q131 590 130 535 L160 535 Q161 567 182 588 Q203 609 235 610 L235 610 ZM98 240 Q99 329 136 381 Q172 434 235 435 Q298 434 334 381 Q371 329 372 240 Q371 151 334 99 Q298 46 235 45 Q172 46 136 99 Q99 151 98 240 L98 240 ZM30 240 Q31 128 86 62 Q141 -3 235 -5 Q329 -3 384 62 Q439 128 440 240 Q439 352 384 418 Q329 483 235 485 Q141 483 86 418 Q31 352 30 240 L30 240 Z" /><glyph glyph-name="" unicode="&#x20f;" d="M190 490 Q224 489 247 468 Q269 447 270 415 L295 415 Q294 470 266 502 Q238 534 190 535 Q142 534 114 502 Q86 470 85 415 L115 415 Q116 447 137 468 Q158 489 190 490 L190 490 ZM88 170 Q89 229 116 264 Q143 299 190 300 Q237 299 264 264 Q291 229 292 170 Q291 111 264 76 Q237 41 190 40 Q143 41 116 76 Q89 111 88 170 L88 170 ZM25 170 Q26 90 70 43 Q115 -4 190 -5 Q265 -4 310 43 Q354 90 355 170 Q354 250 310 297 Q265 344 190 345 Q115 344 70 297 Q26 250 25 170 L25 170 Z" /><glyph glyph-name="" unicode="&#x210;" d="M315 535 L322 546 L221 655 L182 655 L182 616 L315 535 ZM175 535 L182 546 L81 655 L42 655 L42 616 L175 535 ZM55 0 L120 0 L120 215 L186 215 Q236 215 266 193 Q295 172 300 130 L315 0 L380 0 L364 130 Q359 171 333 199 Q307 227 262 240 Q310 253 339 284 Q368 314 369 355 Q368 412 323 446 Q277 479 200 480 L55 480 L55 0 ZM120 265 L120 430 L200 430 Q250 430 279 409 Q308 389 309 355 Q308 314 279 290 Q250 266 200 265 L120 265 Z" /><glyph glyph-name="" unicode="&#x211;" d="M263 415 L270 426 L169 535 L130 535 L130 496 L263 415 ZM123 415 L130 426 L29 535 L-10 535 L-10 496 L123 415 ZM50 340 L50 0 L110 0 L110 170 Q111 220 139 250 Q167 279 215 280 L265 280 L265 345 L237 345 Q197 345 164 322 Q131 300 109 261 L105 340 L50 340 Z" /><glyph glyph-name="" unicode="&#x212;" d="M202 610 Q236 609 259 588 Q281 567 282 535 L307 535 Q306 590 278 622 Q250 654 202 655 Q154 654 126 622 Q98 590 97 535 L127 535 Q128 567 149 588 Q170 609 202 610 L202 610 ZM55 0 L120 0 L120 215 L186 215 Q236 215 266 193 Q295 172 300 130 L315 0 L380 0 L364 130 Q359 171 333 199 Q307 227 262 240 Q310 253 339 284 Q368 314 369 355 Q368 412 323 446 Q277 479 200 480 L55 480 L55 0 ZM120 265 L120 430 L200 430 Q250 430 279 409 Q308 389 309 355 Q308 314 279 290 Q250 266 200 265 L120 265 Z" /><glyph glyph-name="" unicode="&#x213;" d="M150 490 Q184 489 207 468 Q229 447 230 415 L255 415 Q254 470 226 502 Q198 534 150 535 Q102 534 74 502 Q46 470 45 415 L75 415 Q76 447 97 468 Q118 489 150 490 L150 490 ZM50 340 L50 0 L110 0 L110 170 Q111 220 139 250 Q167 279 215 280 L265 280 L265 345 L237 345 Q197 345 164 322 Q131 300 109 261 L105 340 L50 340 Z" /><glyph glyph-name="" unicode="&#x214;" d="M320 535 L327 546 L226 655 L187 655 L187 616 L320 535 ZM180 535 L187 546 L86 655 L47 655 L47 616 L180 535 ZM210 45 Q164 46 138 73 Q111 99 110 145 L110 480 L45 480 L45 145 Q46 77 90 36 Q135 -4 210 -5 Q285 -4 330 36 Q374 77 375 145 L375 480 L310 480 L310 145 Q309 99 283 73 Q256 46 210 45 L210 45 Z" /><glyph glyph-name="" unicode="&#x215;" d="M313 415 L320 426 L219 535 L180 535 L180 496 L313 415 ZM173 415 L180 426 L79 535 L40 535 L40 496 L173 415 ZM360 0 L360 340 L300 340 L300 175 Q299 118 265 80 Q231 41 180 40 Q146 40 126 58 Q105 75 105 105 L105 340 L45 340 L45 95 Q46 49 81 23 Q116 -4 175 -5 Q215 -5 247 17 Q280 39 301 76 L305 0 L360 0 Z" /><glyph glyph-name="" unicode="&#x216;" d="M207 610 Q241 609 264 588 Q286 567 287 535 L312 535 Q311 590 283 622 Q255 654 207 655 Q159 654 131 622 Q103 590 102 535 L132 535 Q133 567 154 588 Q175 609 207 610 L207 610 ZM210 45 Q164 46 138 73 Q111 99 110 145 L110 480 L45 480 L45 145 Q46 77 90 36 Q135 -4 210 -5 Q285 -4 330 36 Q374 77 375 145 L375 480 L310 480 L310 145 Q309 99 283 73 Q256 46 210 45 L210 45 Z" /><glyph glyph-name="" unicode="&#x217;" d="M200 490 Q234 489 257 468 Q279 447 280 415 L305 415 Q304 470 276 502 Q248 534 200 535 Q152 534 124 502 Q96 470 95 415 L125 415 Q126 447 147 468 Q168 489 200 490 L200 490 ZM360 0 L360 340 L300 340 L300 175 Q299 118 265 80 Q231 41 180 40 Q146 40 126 58 Q105 75 105 105 L105 340 L45 340 L45 95 Q46 49 81 23 Q116 -4 175 -5 Q215 -5 247 17 Q280 39 301 76 L305 0 L360 0 Z" /><glyph glyph-name="" unicode="&#x218;" d="M174 -205 L216 -139 Q224 -126 230 -115 Q235 -104 235 -91 L235 -60 L185 -60 Q171 -59 168 -63 Q164 -66 165 -80 L165 -120 L185 -127 L155 -195 L174 -205 ZM40 32 Q108 -5 185 -5 Q265 -4 312 31 Q359 66 360 125 Q361 178 327 214 Q293 249 207 281 Q152 300 128 319 Q105 339 105 360 Q106 394 134 414 Q162 435 210 435 Q238 435 270 426 Q301 416 330 390 L330 454 Q300 470 271 477 Q241 485 210 485 Q132 484 87 451 Q41 417 40 360 Q38 322 71 285 Q103 249 188 217 Q248 195 272 171 Q296 148 295 120 Q294 86 264 66 Q234 45 185 45 Q153 44 118 56 Q84 68 40 99 L40 32 Z" /><glyph glyph-name="" unicode="&#x219;" d="M145 -205 L187 -139 Q195 -126 201 -115 Q206 -104 206 -91 L206 -60 L156 -60 Q142 -59 139 -63 Q135 -66 136 -80 L136 -120 L156 -127 L126 -195 L145 -205 ZM40 20 Q65 11 94 3 Q123 -5 150 -5 Q226 -5 265 22 Q305 49 305 100 Q303 147 270 168 Q237 188 194 198 Q159 206 133 219 Q106 231 105 255 Q106 273 126 284 Q147 295 180 295 Q209 295 236 288 Q264 280 285 265 L285 332 Q261 338 238 342 Q214 345 190 345 Q117 345 78 321 Q40 298 40 253 Q42 203 79 180 Q115 157 160 147 Q193 139 216 127 Q239 115 240 92 Q240 71 218 58 Q197 45 160 45 Q132 45 101 55 Q70 64 40 85 L40 20 Z" /><glyph glyph-name="" unicode="&#x21a;" d="M168 -205 L210 -139 Q218 -126 224 -115 Q229 -104 229 -91 L229 -60 L179 -60 Q165 -59 162 -63 Q158 -66 159 -80 L159 -120 L179 -127 L149 -195 L168 -205 ZM20 480 L20 430 L155 430 L155 0 L220 0 L220 430 L355 430 L355 480 L20 480 Z" /><glyph glyph-name="" unicode="&#x21b;" d="M135 -205 L177 -139 Q185 -126 191 -115 Q196 -104 196 -91 L196 -60 L146 -60 Q132 -59 129 -63 Q125 -66 126 -80 L126 -120 L146 -127 L116 -195 L135 -205 ZM47 437 L47 125 Q47 61 79 28 Q110 -5 170 -5 Q190 -5 211 -1 Q233 2 252 8 L252 67 Q235 55 213 47 Q191 40 170 40 Q139 40 123 62 Q107 83 107 125 L107 295 L242 295 L242 340 L107 340 L107 460 L47 437 Z" /><glyph glyph-name="" unicode="&#x21e;" d="M217 535 L233 535 L329 606 L329 655 L315 655 L225 577 L135 655 L121 655 L121 606 L217 535 ZM55 0 L120 0 L120 225 L330 225 L330 0 L395 0 L395 480 L330 480 L330 275 L120 275 L120 480 L55 480 L55 0 Z" /><glyph glyph-name="" unicode="&#x21f;" d="M202 555 L218 555 L314 626 L314 675 L300 675 L210 597 L120 675 L106 675 L106 626 L202 555 ZM50 540 L50 0 L110 0 L110 160 Q111 219 145 259 Q179 298 230 300 Q264 300 284 282 Q305 265 305 235 L305 0 L365 0 L365 245 Q364 291 329 318 Q294 344 235 345 Q195 345 163 322 Q131 300 110 262 L110 540 L50 540 Z" /><glyph glyph-name="" unicode="&#x226;" d="M190 570 L239 570 Q246 570 248 572 Q250 574 250 581 L250 630 L201 630 Q194 630 192 628 Q190 626 190 619 L190 570 ZM187 480 L15 0 L81 0 L114 103 L325 103 L359 0 L425 0 L253 480 L187 480 ZM129 150 L220 432 L311 150 L129 150 Z" /><glyph glyph-name="" unicode="&#x227;" d="M170 450 L219 450 Q226 450 228 452 Q230 454 230 461 L230 510 L181 510 Q174 510 172 508 Q170 506 170 499 L170 450 ZM25 170 Q26 90 64 43 Q103 -4 168 -5 Q209 -4 243 19 Q276 43 296 83 L300 1 L353 -2 Q353 0 352 30 Q350 60 350 92 L350 340 L297 340 L290 300 L255 340 L173 340 Q105 339 66 293 Q26 248 25 170 L25 170 ZM88 170 Q89 227 113 261 Q137 294 179 295 L290 295 L290 170 Q289 115 257 78 Q226 41 179 40 Q137 41 113 76 Q89 111 88 170 L88 170 Z" /><glyph glyph-name="" unicode="&#x228;" d="M55 0 L152 0 L142 -86 L188 -86 Q212 -86 226 -98 Q239 -110 240 -131 Q239 -150 225 -161 Q211 -173 187 -173 Q173 -173 160 -169 Q146 -164 136 -157 L136 -198 Q163 -205 187 -205 Q230 -204 255 -184 Q281 -163 282 -128 Q281 -94 256 -74 Q231 -53 189 -53 L179 -53 L185 0 L330 0 L330 50 L120 50 L120 220 L290 220 L290 270 L120 270 L120 430 L330 430 L330 480 L55 480 L55 0 Z" /><glyph glyph-name="" unicode="&#x229;" d="M25 170 Q26 100 62 55 Q99 10 163 -2 L153 -85 L199 -85 Q224 -85 237 -97 Q251 -109 251 -130 Q251 -149 236 -160 Q222 -172 198 -172 Q185 -172 171 -168 Q158 -163 147 -156 L147 -197 Q174 -204 198 -204 Q241 -203 267 -183 Q292 -162 293 -127 Q292 -93 268 -73 Q243 -52 200 -52 L190 -52 L196 -5 Q198 -5 200 -5 Q224 -5 245 -2 Q267 1 290 8 L290 72 Q269 57 247 51 Q225 45 200 45 Q150 45 121 71 Q92 96 86 145 L305 145 Q319 145 327 153 Q335 160 335 175 L335 193 Q334 262 294 303 Q253 344 185 345 Q112 344 69 297 Q26 250 25 170 L25 170 ZM85 170 Q85 234 111 267 Q136 300 185 300 Q230 300 254 272 Q278 244 278 190 L125 190 L86 153 Q85 161 85 170 L85 170 Z" /><glyph glyph-name="" unicode="&#x22e;" d="M205 570 L254 570 Q261 570 263 572 Q265 574 265 581 L265 630 L216 630 Q209 630 207 628 Q205 626 205 619 L205 570 ZM98 240 Q99 329 136 381 Q172 434 235 435 Q298 434 334 381 Q371 329 372 240 Q371 151 334 99 Q298 46 235 45 Q172 46 136 99 Q99 151 98 240 L98 240 ZM30 240 Q31 128 86 62 Q141 -3 235 -5 Q329 -3 384 62 Q439 128 440 240 Q439 352 384 418 Q329 483 235 485 Q141 483 86 418 Q31 352 30 240 L30 240 Z" /><glyph glyph-name="" unicode="&#x22f;" d="M160 450 L209 450 Q216 450 218 452 Q220 454 220 461 L220 510 L171 510 Q164 510 162 508 Q160 506 160 499 L160 450 ZM88 170 Q89 229 116 264 Q143 299 190 300 Q237 299 264 264 Q291 229 292 170 Q291 111 264 76 Q237 41 190 40 Q143 41 116 76 Q89 111 88 170 L88 170 ZM25 170 Q26 90 70 43 Q115 -4 190 -5 Q265 -4 310 43 Q354 90 355 170 Q354 250 310 297 Q265 344 190 345 Q115 344 70 297 Q26 250 25 170 L25 170 Z" /><glyph glyph-name="" unicode="&#x232;" d="M122 550 L291 550 Q298 550 300 552 Q302 554 302 561 L302 600 L133 600 Q126 600 124 598 Q122 596 122 589 L122 550 ZM177 0 L242 0 L242 189 L405 480 L327 480 L210 228 L92 480 L15 480 L177 189 L177 0 Z" /><glyph glyph-name="" unicode="&#x233;" d="M102 430 L271 430 Q278 430 280 432 Q282 434 282 441 L282 480 L113 480 Q106 480 104 478 Q102 476 102 469 L102 430 ZM15 340 L174 4 Q148 -59 110 -101 Q71 -143 5 -145 L5 -200 Q86 -198 136 -145 Q186 -92 218 -9 L360 340 L289 340 L198 64 L86 340 L15 340 Z" /><glyph glyph-name="" unicode="&#x237;" d="M50 340 L50 -92 Q50 -123 36 -141 Q23 -160 0 -160 Q-20 -160 -38 -153 Q-57 -146 -73 -135 L-73 -193 Q-54 -199 -37 -202 Q-20 -205 0 -205 Q50 -204 80 -173 Q109 -142 110 -90 L110 340 L50 340 Z" /><glyph glyph-name="" unicode="&#x2c6;" d="M133 535 L117 535 L21 464 L21 415 L35 415 L125 493 L215 415 L229 415 L229 464 L133 535 Z" /><glyph glyph-name="" unicode="&#x2c7;" d="M117 415 L133 415 L229 486 L229 535 L215 535 L125 457 L35 535 L21 535 L21 486 L117 415 Z" /><glyph glyph-name="" unicode="&#x2d8;" d="M125 460 Q91 461 68 482 Q46 503 45 535 L20 535 Q21 480 49 448 Q77 416 125 415 Q173 416 201 448 Q229 480 230 535 L200 535 Q199 503 178 482 Q157 461 125 460 L125 460 Z" /><glyph glyph-name="" unicode="&#x2d9;" d="M20 450 L69 450 Q76 450 78 452 Q80 454 80 461 L80 510 L31 510 Q24 510 22 508 Q20 506 20 499 L20 450 Z" /><glyph glyph-name="" unicode="&#x2da;" d="M18 475 Q19 436 41 413 Q63 391 100 390 Q137 391 159 413 Q181 436 182 475 Q181 514 159 537 Q137 559 100 560 Q63 559 41 537 Q19 514 18 475 L18 475 ZM58 475 Q58 496 70 508 Q81 520 100 520 Q119 520 130 508 Q142 496 142 475 Q142 454 130 442 Q119 430 100 430 Q81 430 70 442 Q58 454 58 475 L58 475 Z" /><glyph glyph-name="" unicode="&#x2db;" d="M300 0 L300 25 Q224 24 173 -12 Q122 -48 120 -102 Q121 -149 149 -177 Q177 -204 225 -205 Q242 -205 261 -201 Q281 -197 300 -189 L300 -131 Q279 -143 261 -149 Q244 -155 230 -155 Q203 -155 187 -138 Q170 -121 170 -92 Q171 -53 208 -27 Q245 -1 300 0 L300 0 Z" /><glyph glyph-name="" unicode="&#x2dc;" d="M240 469 L240 524 Q229 505 216 495 Q203 484 187 484 Q174 484 160 490 Q145 495 130 503 Q115 510 100 515 Q86 521 73 521 Q57 521 44 511 Q31 501 20 482 L20 427 Q31 446 44 456 Q57 467 73 467 Q86 467 100 461 Q115 456 130 449 Q145 441 160 436 Q174 430 187 430 Q203 430 216 440 Q229 450 240 469 L240 469 Z" /><glyph glyph-name="" unicode="&#x2dd;" d="M27 415 L160 496 L160 535 L121 535 L20 426 L27 415 ZM167 415 L300 496 L300 535 L261 535 L160 426 L167 415 Z" /><glyph glyph-name="" unicode="&#x300;" d="M33 415 L40 426 L-36 535 L-80 535 L-80 486 L33 415 Z" /><glyph glyph-name="" unicode="&#x301;" d="M-33 415 L80 486 L80 535 L36 535 L-40 426 L-33 415 Z" /><glyph glyph-name="" unicode="&#x302;" d="M8 535 L-8 535 L-104 464 L-104 415 L-90 415 L0 493 L90 415 L104 415 L104 464 L8 535 Z" /><glyph glyph-name="" unicode="&#x303;" d="M110 469 L110 524 Q99 505 86 495 Q73 484 57 484 Q44 484 30 490 Q15 495 0 503 Q-15 510 -30 515 Q-44 521 -57 521 Q-73 521 -86 511 Q-99 501 -110 482 L-110 427 Q-99 446 -86 456 Q-73 467 -57 467 Q-44 467 -30 461 Q-15 456 0 449 Q15 441 30 436 Q44 430 57 430 Q73 430 86 440 Q99 450 110 469 L110 469 Z" /><glyph glyph-name="" unicode="&#x304;" d="M-90 430 L79 430 Q86 430 88 432 Q90 434 90 441 L90 480 L-79 480 Q-86 480 -88 478 Q-90 476 -90 469 L-90 430 Z" /><glyph glyph-name="" unicode="&#x305;" d="M-115 430 L104 430 Q111 430 113 432 Q115 434 115 441 L115 480 L-104 480 Q-111 480 -113 478 Q-115 476 -115 469 L-115 430 Z" /><glyph glyph-name="" unicode="&#x306;" d="M0 460 Q-34 461 -57 482 Q-79 503 -80 535 L-105 535 Q-104 480 -76 448 Q-48 416 0 415 Q48 416 76 448 Q104 480 105 535 L75 535 Q74 503 53 482 Q32 461 0 460 L0 460 Z" /><glyph glyph-name="" unicode="&#x307;" d="M-30 450 L19 450 Q26 450 28 452 Q30 454 30 461 L30 510 L-19 510 Q-26 510 -28 508 Q-30 506 -30 499 L-30 450 Z" /><glyph glyph-name="" unicode="&#x308;" d="M40 450 L89 450 Q96 450 98 452 Q100 454 100 461 L100 510 L51 510 Q44 510 42 508 Q40 506 40 499 L40 450 ZM-100 450 L-51 450 Q-44 450 -42 452 Q-40 454 -40 461 L-40 510 L-89 510 Q-96 510 -98 508 Q-100 506 -100 499 L-100 450 Z" /><glyph glyph-name="" unicode="&#x30a;" d="M-82 475 Q-81 436 -59 413 Q-37 391 0 390 Q37 391 59 413 Q81 436 82 475 Q81 514 59 537 Q37 559 0 560 Q-37 559 -59 537 Q-81 514 -82 475 L-82 475 ZM-42 475 Q-42 496 -30 508 Q-19 520 0 520 Q19 520 30 508 Q42 496 42 475 Q42 454 30 442 Q19 430 0 430 Q-19 430 -30 442 Q-42 454 -42 475 L-42 475 Z" /><glyph glyph-name="" unicode="&#x30b;" d="M-113 415 L20 496 L20 535 L-19 535 L-120 426 L-113 415 ZM27 415 L160 496 L160 535 L121 535 L20 426 L27 415 Z" /><glyph glyph-name="" unicode="&#x30c;" d="M-8 415 L8 415 L104 486 L104 535 L90 535 L0 457 L-90 535 L-104 535 L-104 486 L-8 415 Z" /><glyph glyph-name="" unicode="&#x30d;" d="M-25 420 L25 420 L25 545 L-25 545 L-25 420 Z" /><glyph glyph-name="" unicode="&#x30e;" d="M35 420 L85 420 L85 545 L35 545 L35 420 ZM-85 420 L-35 420 L-35 545 L-85 545 L-85 420 Z" /><glyph glyph-name="" unicode="&#x30f;" d="M113 415 L120 426 L19 535 L-20 535 L-20 496 L113 415 ZM-27 415 L-20 426 L-121 535 L-160 535 L-160 496 L-27 415 Z" /><glyph glyph-name="" unicode="&#x310;" d="M-25 500 L14 500 Q21 500 23 502 Q25 504 25 511 L25 550 L-14 550 Q-21 550 -23 548 Q-25 546 -25 539 L-25 500 ZM0 435 Q-34 436 -57 457 Q-79 478 -80 510 L-105 510 Q-104 455 -76 423 Q-48 391 0 390 Q48 391 76 423 Q104 455 105 510 L75 510 Q74 478 53 457 Q32 436 0 435 L0 435 Z" /><glyph glyph-name="" unicode="&#x311;" d="M0 490 Q34 489 57 468 Q79 447 80 415 L105 415 Q104 470 76 502 Q48 534 0 535 Q-48 534 -76 502 Q-104 470 -105 415 L-75 415 Q-74 447 -53 468 Q-32 489 0 490 L0 490 Z" /><glyph glyph-name="" unicode="&#x312;" d="M29 545 L-21 466 Q-29 453 -35 442 Q-40 431 -40 418 L-40 387 L10 387 Q24 386 27 390 Q31 393 30 407 L30 447 L10 454 L47 535 L29 545 Z" /><glyph glyph-name="" unicode="&#x313;" d="M-29 387 L21 466 Q29 479 35 490 Q40 501 40 514 L40 545 L-10 545 Q-24 546 -27 542 Q-31 539 -30 525 L-30 485 L-10 478 L-47 397 L-29 387 Z" /><glyph glyph-name="" unicode="&#x314;" d="M29 387 L47 397 L10 478 L30 485 L30 525 Q31 539 27 542 Q24 546 10 545 L-40 545 L-40 514 Q-40 501 -35 490 Q-29 479 -21 466 L29 387 Z" /><glyph glyph-name="" unicode="&#x326;" d="M54 -205 L96 -139 Q104 -126 110 -115 Q115 -104 115 -91 L115 -60 L65 -60 Q51 -59 48 -63 Q44 -66 45 -80 L45 -120 L65 -127 L35 -195 L54 -205 Z" /><glyph glyph-name="" unicode="&#x400;" d="M235 535 L242 546 L166 655 L122 655 L122 606 L235 535 ZM55 0 L330 0 L330 50 L120 50 L120 220 L290 220 L290 270 L120 270 L120 430 L330 430 L330 480 L55 480 L55 0 Z" /><glyph glyph-name="" unicode="&#x401;" d="M242 570 L291 570 Q298 570 300 572 Q302 574 302 581 L302 630 L253 630 Q246 630 244 628 Q242 626 242 619 L242 570 ZM102 570 L151 570 Q158 570 160 572 Q162 574 162 581 L162 630 L113 630 Q106 630 104 628 Q102 626 102 619 L102 570 ZM55 0 L330 0 L330 50 L120 50 L120 220 L290 220 L290 270 L120 270 L120 430 L330 430 L330 480 L55 480 L55 0 Z" /><glyph glyph-name="" unicode="&#x402;" d="M155 0 L220 0 L220 120 Q221 179 254 219 Q286 258 335 260 Q367 260 386 242 Q405 225 405 195 L405 -55 Q404 -95 385 -113 Q366 -130 338 -130 Q319 -130 299 -123 Q278 -116 260 -103 L260 -167 Q303 -180 339 -180 Q398 -180 431 -147 Q464 -114 465 -50 L465 205 Q464 251 431 278 Q397 304 340 305 Q302 305 271 283 Q240 261 220 224 L220 425 L355 425 L355 480 L20 480 L20 425 L155 425 L155 0 Z" /><glyph glyph-name="" unicode="&#x403;" d="M160 535 L273 606 L273 655 L229 655 L153 546 L160 535 ZM55 480 L55 0 L120 0 L120 425 L330 425 L330 480 L55 480 Z" /><glyph glyph-name="" unicode="&#x404;" d="M350 10 L350 77 Q332 64 306 57 Q281 50 252 50 Q187 51 147 95 Q106 139 99 215 L290 215 L290 265 L99 265 Q107 341 150 385 Q193 429 262 430 Q290 430 311 423 Q332 416 350 403 L350 470 Q329 476 303 481 Q278 485 252 485 Q151 483 91 418 Q31 352 30 240 Q31 128 91 62 Q151 -3 252 -5 Q278 -5 303 -1 Q329 4 350 10 L350 10 Z" /><glyph glyph-name="" unicode="&#x405;" d="M40 32 Q108 -5 185 -5 Q265 -4 312 31 Q359 66 360 125 Q361 178 327 214 Q293 249 207 281 Q152 300 128 319 Q105 339 105 360 Q106 394 134 414 Q162 435 210 435 Q238 435 270 426 Q301 416 330 390 L330 454 Q300 470 271 477 Q241 485 210 485 Q132 484 87 451 Q41 417 40 360 Q38 322 71 285 Q103 249 188 217 Q248 195 272 171 Q296 148 295 120 Q294 86 264 66 Q234 45 185 45 Q153 44 118 56 Q84 68 40 99 L40 32 Z" /><glyph glyph-name="" unicode="&#x406;" d="M55 0 L120 0 L120 480 L55 480 L55 0 Z" /><glyph glyph-name="" unicode="&#x407;" d="M128 570 L177 570 Q184 570 186 572 Q188 574 188 581 L188 630 L139 630 Q132 630 130 628 Q128 626 128 619 L128 570 ZM-12 570 L37 570 Q44 570 46 572 Q48 574 48 581 L48 630 L-1 630 Q-8 630 -10 628 Q-12 626 -12 619 L-12 570 ZM55 0 L120 0 L120 480 L55 480 L55 0 Z" /><glyph glyph-name="" unicode="&#x408;" d="M260 480 L35 480 L35 430 L195 430 L195 145 Q194 99 171 73 Q148 46 109 45 Q87 45 67 53 Q48 61 30 74 L30 8 Q49 2 70 -1 Q90 -5 110 -5 Q178 -4 219 36 Q259 77 260 145 L260 480 Z" /><glyph glyph-name="" unicode="&#x409;" d="M20 59 L20 -5 Q88 -4 129 43 Q169 90 170 170 L170 430 L320 430 L320 0 L445 0 Q527 1 576 37 Q624 73 625 135 Q624 197 576 233 Q527 269 445 270 L385 270 L385 480 L105 480 L105 170 Q104 119 82 90 Q59 60 20 59 L20 59 ZM385 220 L450 220 Q499 219 528 197 Q556 174 557 135 Q556 96 528 73 Q499 51 450 50 L385 50 L385 220 Z" /><glyph glyph-name="" unicode="&#x40a;" d="M55 0 L120 0 L120 225 L320 225 L320 0 L445 0 Q527 1 576 37 Q624 73 625 135 Q624 199 576 237 Q527 274 445 275 L385 275 L385 480 L320 480 L320 275 L120 275 L120 480 L55 480 L55 0 ZM385 50 L385 225 L450 225 Q499 224 528 200 Q556 176 557 135 Q556 96 528 73 Q499 51 450 50 L385 50 Z" /><glyph glyph-name="" unicode="&#x40b;" d="M155 0 L220 0 L220 120 Q221 179 254 219 Q286 258 335 260 Q367 260 386 242 Q405 225 405 195 L405 0 L465 0 L465 205 Q464 251 431 278 Q397 304 340 305 Q302 305 271 283 Q240 261 220 224 L220 425 L355 425 L355 480 L20 480 L20 425 L155 425 L155 0 Z" /><glyph glyph-name="" unicode="&#x40c;" d="M159 535 L272 606 L272 655 L228 655 L152 546 L159 535 ZM132 245 L307 0 L395 0 L191 245 L378 480 L299 480 L132 245 ZM55 0 L120 0 L120 480 L55 480 L55 0 Z" /><glyph glyph-name="" unicode="&#x40d;" d="M248 535 L255 546 L179 655 L135 655 L135 606 L248 535 ZM55 0 L110 0 L325 358 L325 0 L385 0 L385 480 L330 480 L115 117 L115 480 L55 480 L55 0 Z" /><glyph glyph-name="" unicode="&#x40e;" d="M205 560 Q175 561 158 583 Q140 606 140 645 L100 645 Q101 595 129 565 Q157 536 205 535 Q253 536 281 565 Q309 595 310 645 L270 645 Q270 606 252 583 Q235 561 205 560 L205 560 ZM15 480 L180 150 Q157 97 124 76 Q90 54 25 55 L25 -5 Q107 -7 156 28 Q206 63 245 160 L375 480 L307 480 L208 216 L98 480 L15 480 Z" /><glyph glyph-name="" unicode="&#x40f;" d="M395 480 L330 480 L330 50 L120 50 L120 480 L55 480 L55 0 L204 0 L200 -106 L250 -106 L246 0 L395 0 L395 480 Z" /><glyph glyph-name="" unicode="&#x410;" d="M187 480 L15 0 L81 0 L114 103 L325 103 L359 0 L425 0 L253 480 L187 480 ZM129 150 L220 432 L311 150 L129 150 Z" /><glyph glyph-name="" unicode="&#x411;" d="M120 50 L120 230 L194 230 Q248 229 280 205 Q312 181 313 140 Q312 99 280 75 Q248 51 194 50 L120 50 ZM55 0 L190 0 Q277 1 328 39 Q379 76 380 140 Q379 204 328 242 Q277 279 190 280 L120 280 L120 430 L340 430 L340 480 L55 480 L55 0 Z" /><glyph glyph-name="" unicode="&#x412;" d="M55 0 L205 0 Q285 1 332 36 Q379 71 380 130 Q379 175 341 208 Q304 241 244 252 Q291 264 320 293 Q349 322 350 360 Q349 415 305 447 Q260 479 185 480 L55 480 L55 0 ZM120 225 L200 225 Q247 224 278 197 Q309 170 310 130 Q309 94 281 72 Q252 51 204 50 L120 50 L120 225 ZM120 275 L120 430 L185 430 Q233 430 261 411 Q289 392 290 360 Q289 324 259 300 Q230 276 185 275 L120 275 Z" /><glyph glyph-name="" unicode="&#x413;" d="M55 480 L55 0 L120 0 L120 425 L330 425 L330 480 L55 480 Z" /><glyph glyph-name="" unicode="&#x414;" d="M20 50 L20 -106 L70 -106 L70 0 L400 0 L400 -106 L450 -106 L450 50 L400 50 L400 480 L135 480 L135 170 Q134 115 112 83 Q89 51 50 50 L20 50 ZM335 50 L150 50 Q174 70 187 101 Q200 131 200 170 L200 430 L335 430 L335 50 Z" /><glyph glyph-name="" unicode="&#x415;" d="M55 0 L330 0 L330 50 L120 50 L120 220 L290 220 L290 270 L120 270 L120 430 L330 430 L330 480 L55 480 L55 0 Z" /><glyph glyph-name="" unicode="&#x416;" d="M276 245 L111 480 L32 480 L217 245 L15 0 L103 0 L276 245 ZM359 245 L532 0 L620 0 L418 245 L603 480 L524 480 L359 245 ZM284 0 L349 0 L349 480 L284 480 L284 0 Z" /><glyph glyph-name="" unicode="&#x417;" d="M25 8 Q54 1 88 -2 Q122 -5 146 -5 Q230 -4 279 34 Q329 71 330 135 Q329 187 291 224 Q253 260 193 271 Q241 282 270 311 Q299 339 300 375 Q299 425 254 455 Q209 484 133 485 Q110 485 84 481 Q57 478 35 472 L35 406 Q53 419 82 427 Q111 435 140 435 Q186 435 213 419 Q239 402 240 375 Q239 339 208 317 Q177 296 124 295 L80 295 L80 240 L149 240 Q200 239 229 211 Q259 183 260 135 Q259 94 228 70 Q197 46 144 45 Q116 45 82 52 Q47 59 25 74 L25 8 Z" /><glyph glyph-name="" unicode="&#x418;" d="M55 0 L110 0 L325 358 L325 0 L385 0 L385 480 L330 480 L115 117 L115 480 L55 480 L55 0 Z" /><glyph glyph-name="" unicode="&#x419;" d="M55 0 L110 0 L325 358 L325 0 L385 0 L385 480 L330 480 L115 117 L115 480 L55 480 L55 0 ZM215 560 Q185 561 168 583 Q150 606 150 645 L110 645 Q111 595 139 565 Q167 536 215 535 Q263 536 291 565 Q319 595 320 645 L280 645 Q280 606 262 583 Q245 561 215 560 L215 560 Z" /><glyph glyph-name="" unicode="&#x41a;" d="M132 245 L307 0 L395 0 L191 245 L378 480 L299 480 L132 245 ZM55 0 L120 0 L120 480 L55 480 L55 0 Z" /><glyph glyph-name="" unicode="&#x41b;" d="M20 59 L20 -5 Q88 -4 129 43 Q169 90 170 170 L170 430 L330 430 L330 0 L395 0 L395 480 L105 480 L105 170 Q104 119 82 90 Q59 60 20 59 L20 59 Z" /><glyph glyph-name="" unicode="&#x41c;" d="M55 0 L115 0 L115 362 L309 3 L311 3 L505 362 L505 0 L565 0 L565 480 L505 480 L310 119 L115 480 L55 480 L55 0 Z" /><glyph glyph-name="" unicode="&#x41d;" d="M55 0 L120 0 L120 225 L330 225 L330 0 L395 0 L395 480 L330 480 L330 275 L120 275 L120 480 L55 480 L55 0 Z" /><glyph glyph-name="" unicode="&#x41e;" d="M98 240 Q99 329 136 381 Q172 434 235 435 Q298 434 334 381 Q371 329 372 240 Q371 151 334 99 Q298 46 235 45 Q172 46 136 99 Q99 151 98 240 L98 240 ZM30 240 Q31 128 86 62 Q141 -3 235 -5 Q329 -3 384 62 Q439 128 440 240 Q439 352 384 418 Q329 483 235 485 Q141 483 86 418 Q31 352 30 240 L30 240 Z" /><glyph glyph-name="" unicode="&#x41f;" d="M55 0 L120 0 L120 430 L330 430 L330 0 L395 0 L395 480 L55 480 L55 0 Z" /><glyph glyph-name="" unicode="&#x420;" d="M55 0 L120 0 L120 170 L185 170 Q274 171 326 214 Q379 257 380 330 Q379 398 328 439 Q277 479 190 480 L55 480 L55 0 ZM120 220 L120 430 L194 430 Q248 429 280 403 Q312 376 313 330 Q312 280 280 250 Q248 221 194 220 L120 220 Z" /><glyph glyph-name="" unicode="&#x421;" d="M350 10 L350 77 Q329 62 303 56 Q278 50 252 50 Q182 51 140 102 Q99 153 98 240 Q99 327 143 378 Q187 429 262 430 Q287 430 308 424 Q330 418 350 403 L350 471 Q327 478 301 481 Q275 485 251 485 Q150 483 91 418 Q31 352 30 240 Q31 128 91 62 Q150 -3 251 -5 Q275 -5 301 -1 Q327 3 350 10 L350 10 Z" /><glyph glyph-name="" unicode="&#x422;" d="M20 480 L20 430 L155 430 L155 0 L220 0 L220 430 L355 430 L355 480 L20 480 Z" /><glyph glyph-name="" unicode="&#x423;" d="M15 480 L180 150 Q157 97 124 76 Q90 54 25 55 L25 -5 Q107 -7 156 28 Q206 63 245 160 L375 480 L307 480 L208 216 L98 480 L15 480 Z" /><glyph glyph-name="" unicode="&#x424;" d="M275 117 L275 363 Q336 356 371 323 Q406 291 407 240 Q406 189 371 157 Q336 124 275 117 L275 117 ZM215 0 L275 0 L275 66 Q365 74 417 120 Q469 166 470 240 Q469 314 417 360 Q365 406 275 414 L275 480 L215 480 L215 414 Q125 406 73 360 Q21 314 20 240 Q21 166 73 120 Q125 74 215 66 L215 0 ZM215 117 Q154 124 119 157 Q84 189 83 240 Q84 291 119 323 Q154 356 215 363 L215 117 Z" /><glyph glyph-name="" unicode="&#x425;" d="M15 0 L88 0 L210 203 L332 0 L405 0 L240 251 L388 480 L318 480 L210 299 L102 480 L32 480 L180 251 L15 0 Z" /><glyph glyph-name="" unicode="&#x426;" d="M55 0 L410 0 L410 -106 L460 -106 L460 50 L380 50 L380 480 L315 480 L315 50 L120 50 L120 480 L55 480 L55 0 Z" /><glyph glyph-name="" unicode="&#x427;" d="M370 0 L370 480 L305 480 L305 245 L305 245 L181 245 Q144 245 124 262 Q105 279 105 316 L105 480 L45 480 L45 293 Q46 248 79 222 Q112 196 168 195 L305 195 L305 0 L370 0 Z" /><glyph glyph-name="" unicode="&#x428;" d="M570 480 L505 480 L505 50 L345 50 L345 480 L280 480 L280 50 L120 50 L120 480 L55 480 L55 0 L570 0 L570 480 Z" /><glyph glyph-name="" unicode="&#x429;" d="M55 0 L590 0 L590 -106 L640 -106 L640 50 L560 50 L560 480 L495 480 L495 50 L340 50 L340 480 L275 480 L275 50 L120 50 L120 480 L55 480 L55 0 Z" /><glyph glyph-name="" unicode="&#x42a;" d="M180 50 L180 220 L255 220 Q304 219 333 197 Q361 174 362 135 Q361 96 333 73 Q304 51 255 50 L180 50 ZM115 0 L251 0 Q333 1 381 37 Q429 73 430 135 Q429 197 381 233 Q333 269 251 270 L180 270 L180 480 L20 480 L20 430 L115 430 L115 0 Z" /><glyph glyph-name="" unicode="&#x42b;" d="M55 0 L191 0 Q273 1 321 37 Q369 73 370 135 Q369 197 321 233 Q273 269 191 270 L120 270 L120 480 L55 480 L55 0 ZM120 50 L120 220 L195 220 Q244 219 273 197 Q301 174 302 135 Q301 96 273 73 Q244 51 195 50 L120 50 ZM425 0 L490 0 L490 480 L425 480 L425 0 Z" /><glyph glyph-name="" unicode="&#x42c;" d="M55 0 L191 0 Q273 1 321 37 Q369 73 370 135 Q369 197 321 233 Q273 269 191 270 L120 270 L120 480 L55 480 L55 0 ZM120 50 L120 220 L195 220 Q244 219 273 197 Q301 174 302 135 Q301 96 273 73 Q244 51 195 50 L120 50 Z" /><glyph glyph-name="" unicode="&#x42d;" d="M35 10 Q56 4 82 -1 Q107 -5 133 -5 Q234 -3 294 62 Q354 128 355 240 Q354 352 294 418 Q234 483 133 485 Q107 485 82 481 Q56 476 35 470 L35 403 Q53 416 74 423 Q95 430 123 430 Q190 429 232 388 Q275 347 285 275 L95 275 L95 225 L287 225 Q282 145 241 98 Q200 51 133 50 Q104 50 79 57 Q53 64 35 77 L35 10 Z" /><glyph glyph-name="" unicode="&#x42e;" d="M55 0 L120 0 L120 215 L191 215 Q198 114 251 55 Q304 -4 390 -5 Q481 -3 535 62 Q589 128 590 240 Q589 352 535 418 Q481 483 390 485 Q304 484 251 425 Q198 366 191 265 L120 265 L120 480 L55 480 L55 0 ZM258 240 Q259 329 294 381 Q330 434 390 435 Q450 434 486 381 Q521 329 522 240 Q521 151 486 99 Q450 46 390 45 Q330 46 294 99 Q259 151 258 240 L258 240 Z" /><glyph glyph-name="" unicode="&#x42f;" d="M355 0 L355 480 L290 480 L204 480 Q130 479 86 443 Q42 407 41 350 Q42 296 81 258 Q120 220 180 212 L180 201 Q179 144 148 108 Q118 71 76 68 L30 65 L30 -5 L75 0 Q132 6 176 52 Q221 98 223 186 L223 210 L290 210 L290 0 L355 0 ZM290 255 L213 255 Q164 256 135 281 Q107 307 106 350 Q107 387 135 408 Q164 430 213 430 L290 430 L290 255 Z" /><glyph glyph-name="" unicode="&#x430;" d="M25 170 Q26 90 64 43 Q103 -4 168 -5 Q209 -4 243 19 Q276 43 296 83 L300 1 L353 -2 Q353 0 352 30 Q350 60 350 92 L350 340 L297 340 L290 300 L255 340 L173 340 Q105 339 66 293 Q26 248 25 170 L25 170 ZM88 170 Q89 227 113 261 Q137 294 179 295 L290 295 L290 170 Q289 115 257 78 Q226 41 179 40 Q137 41 113 76 Q89 111 88 170 L88 170 Z" /><glyph glyph-name="" unicode="&#x431;" d="M375 170 Q374 250 332 297 Q291 344 220 345 Q180 345 147 324 Q114 303 94 268 Q101 345 137 389 Q173 434 231 435 Q272 435 293 445 Q315 455 315 470 L315 485 L229 485 Q138 483 85 418 Q31 352 30 240 Q31 128 79 62 Q126 -3 207 -5 Q284 -4 329 43 Q374 90 375 170 L375 170 ZM97 182 Q98 230 130 262 Q162 294 210 295 Q257 294 284 261 Q311 227 312 170 Q311 112 283 78 Q255 44 207 43 Q164 44 135 81 Q107 117 97 182 L97 182 Z" /><glyph glyph-name="" unicode="&#x432;" d="M50 0 L202 0 Q267 1 306 26 Q344 52 345 95 Q344 128 313 152 Q282 176 233 183 Q270 193 292 214 Q314 234 315 260 Q314 297 278 318 Q242 340 181 340 L50 340 L50 0 ZM110 157 L189 157 Q231 157 255 140 Q279 123 280 95 Q279 72 255 59 Q231 45 189 45 L110 45 L110 157 ZM110 295 L173 295 Q213 295 236 285 Q259 276 260 260 Q259 234 235 219 Q211 203 170 203 L110 203 L110 295 Z" /><glyph glyph-name="" unicode="&#x433;" d="M55 340 L55 0 L115 0 L115 290 L285 290 L285 340 L55 340 Z" /><glyph glyph-name="" unicode="&#x434;" d="M15 45 L15 -106 L60 -106 L60 0 L350 0 L350 -106 L395 -106 L395 45 L345 45 L345 340 L120 340 L120 160 Q119 108 97 77 Q74 46 35 45 L15 45 ZM285 45 L117 45 Q147 62 163 92 Q180 121 180 160 L180 295 L285 295 L285 45 Z" /><glyph glyph-name="" unicode="&#x435;" d="M85 170 Q85 234 111 267 Q136 300 185 300 Q230 300 254 272 Q278 244 278 190 L125 190 L86 153 Q85 161 85 170 L85 170 ZM25 170 Q26 90 73 43 Q120 -4 200 -5 Q224 -5 245 -2 Q267 1 290 8 L290 72 Q269 57 247 51 Q225 45 200 45 Q150 45 121 71 Q92 96 86 145 L305 145 Q319 145 327 153 Q335 160 335 175 L335 193 Q334 262 294 303 Q253 344 185 345 Q112 344 69 297 Q26 250 25 170 L25 170 Z" /><glyph glyph-name="" unicode="&#x436;" d="M15 0 L101 0 L250 175 L107 340 L32 340 L185 175 L15 0 ZM575 0 L405 175 L558 340 L483 340 L340 175 L489 0 L575 0 ZM265 0 L325 0 L325 340 L265 340 L265 0 Z" /><glyph glyph-name="" unicode="&#x437;" d="M79 203 L79 157 L129 157 Q171 156 195 137 Q219 119 220 90 Q219 68 195 54 Q170 41 128 41 Q101 41 74 48 Q46 55 25 70 L25 8 Q53 1 80 -2 Q107 -5 130 -5 Q196 -4 240 21 Q283 47 285 90 Q284 123 254 148 Q224 173 176 182 Q214 192 236 213 Q259 234 260 260 Q259 297 220 320 Q182 344 120 345 Q101 345 78 341 Q56 338 32 332 L32 273 Q53 288 76 295 Q99 302 121 302 Q162 300 183 288 Q205 276 205 260 Q204 234 180 219 Q156 203 115 203 L79 203 Z" /><glyph glyph-name="" unicode="&#x438;" d="M50 0 L100 0 L295 242 L295 0 L350 0 L350 340 L300 340 L105 93 L105 340 L50 340 L50 0 Z" /><glyph glyph-name="" unicode="&#x439;" d="M50 0 L100 0 L295 242 L295 0 L350 0 L350 340 L300 340 L105 93 L105 340 L50 340 L50 0 ZM195 440 Q165 441 148 463 Q130 486 130 525 L90 525 Q91 475 119 445 Q147 416 195 415 Q243 416 271 445 Q299 475 300 525 L260 525 Q260 486 242 463 Q225 441 195 440 L195 440 Z" /><glyph glyph-name="" unicode="&#x43a;" d="M365 0 L195 175 L348 340 L273 340 L128 175 L279 0 L365 0 ZM50 0 L110 0 L110 340 L50 340 L50 0 Z" /><glyph glyph-name="" unicode="&#x43b;" d="M20 54 L20 -5 Q86 -4 125 40 Q164 85 165 160 L165 290 L290 290 L290 0 L350 0 L350 340 L105 340 L105 160 Q104 112 82 83 Q59 55 20 54 L20 54 Z" /><glyph glyph-name="" unicode="&#x43c;" d="M50 0 L105 0 L105 250 L259 13 L261 13 L415 250 L415 0 L470 0 L470 340 L415 340 L260 99 L105 340 L50 340 L50 0 Z" /><glyph glyph-name="" unicode="&#x43d;" d="M50 0 L110 0 L110 155 L290 155 L290 0 L350 0 L350 340 L290 340 L290 205 L110 205 L110 340 L50 340 L50 0 Z" /><glyph glyph-name="" unicode="&#x43e;" d="M88 170 Q89 229 116 264 Q143 299 190 300 Q237 299 264 264 Q291 229 292 170 Q291 111 264 76 Q237 41 190 40 Q143 41 116 76 Q89 111 88 170 L88 170 ZM25 170 Q26 90 70 43 Q115 -4 190 -5 Q265 -4 310 43 Q354 90 355 170 Q354 250 310 297 Q265 344 190 345 Q115 344 70 297 Q26 250 25 170 L25 170 Z" /><glyph glyph-name="" unicode="&#x43f;" d="M50 0 L110 0 L110 290 L290 290 L290 0 L350 0 L350 340 L50 340 L50 0 Z" /><glyph glyph-name="" unicode="&#x440;" d="M50 340 L50 -200 L110 -200 L110 75 Q130 38 162 17 Q194 -5 232 -5 Q297 -4 336 43 Q374 90 375 170 Q374 248 334 293 Q295 339 227 340 L145 340 L110 300 L103 340 L50 340 ZM110 295 L221 295 Q263 294 287 261 Q311 227 312 170 Q311 111 287 76 Q263 41 221 40 Q174 41 143 79 Q112 117 110 174 L110 295 Z" /><glyph glyph-name="" unicode="&#x441;" d="M290 8 L290 70 Q272 57 250 50 Q229 43 200 43 Q149 44 119 78 Q89 112 88 170 Q89 228 119 262 Q149 296 200 297 Q229 297 250 290 Q272 283 290 270 L290 332 Q269 338 246 341 Q224 345 200 345 Q120 344 73 297 Q26 250 25 170 Q26 90 73 43 Q120 -4 200 -5 Q224 -5 246 -1 Q269 2 290 8 L290 8 Z" /><glyph glyph-name="" unicode="&#x442;" d="M20 340 L20 290 L135 290 L135 0 L195 0 L195 290 L310 290 L310 340 L20 340 Z" /><glyph glyph-name="" unicode="&#x443;" d="M15 340 L174 4 Q148 -59 110 -101 Q71 -143 5 -145 L5 -200 Q86 -198 136 -145 Q186 -92 218 -9 L360 340 L289 340 L198 64 L86 340 L15 340 Z" /><glyph glyph-name="" unicode="&#x444;" d="M335 295 L436 295 Q475 294 498 261 Q521 227 522 170 Q522 113 501 79 Q481 46 446 45 Q399 46 368 82 Q336 117 335 170 L335 295 ZM335 300 L335 540 L275 540 L275 300 L235 340 L163 340 Q100 339 63 293 Q26 248 25 170 Q26 90 60 43 Q95 -4 153 -5 Q191 -5 223 15 Q254 35 275 68 L275 -200 L335 -200 L335 68 Q356 35 387 15 Q419 -5 457 -5 Q515 -4 550 43 Q584 90 585 170 Q584 248 547 293 Q510 339 447 340 L375 340 L335 300 ZM275 295 L275 170 Q274 117 242 82 Q211 46 164 45 Q129 46 109 79 Q88 113 88 170 Q89 227 112 261 Q135 294 174 295 L275 295 Z" /><glyph glyph-name="" unicode="&#x445;" d="M95 0 L195 143 L295 0 L375 0 L223 180 L358 340 L282 340 L195 216 L108 340 L32 340 L167 180 L15 0 L95 0 Z" /><glyph glyph-name="" unicode="&#x446;" d="M50 0 L360 0 L360 -106 L410 -106 L410 50 L330 50 L330 340 L270 340 L270 50 L110 50 L110 340 L50 340 L50 0 Z" /><glyph glyph-name="" unicode="&#x447;" d="M330 0 L330 340 L270 340 L270 170 L270 170 L176 170 Q139 170 119 187 Q100 204 100 241 L100 340 L40 340 L40 218 Q41 173 74 147 Q107 121 163 120 L270 120 L270 0 L330 0 Z" /><glyph glyph-name="" unicode="&#x448;" d="M530 340 L470 340 L470 50 L320 50 L320 340 L260 340 L260 50 L110 50 L110 340 L50 340 L50 0 L530 0 L530 340 Z" /><glyph glyph-name="" unicode="&#x449;" d="M50 0 L550 0 L550 -106 L600 -106 L600 50 L520 50 L520 340 L460 340 L460 50 L315 50 L315 340 L255 340 L255 50 L110 50 L110 340 L50 340 L50 0 Z" /><glyph glyph-name="" unicode="&#x44a;" d="M165 45 L165 175 L238 175 Q274 175 295 157 Q317 140 317 110 Q317 80 295 63 Q274 45 238 45 L165 45 ZM105 0 L235 0 Q301 1 340 30 Q379 60 380 110 Q379 160 340 190 Q301 219 235 220 L165 220 L165 340 L20 340 L20 295 L105 295 L105 0 Z" /><glyph glyph-name="" unicode="&#x44b;" d="M50 0 L180 0 Q246 1 285 30 Q324 60 325 110 Q324 160 285 190 Q246 219 180 220 L110 220 L110 340 L50 340 L50 0 ZM110 45 L110 175 L183 175 Q218 175 240 157 Q261 140 262 110 Q262 80 240 63 Q219 45 183 45 L110 45 ZM380 0 L440 0 L440 340 L380 340 L380 0 Z" /><glyph glyph-name="" unicode="&#x44c;" d="M50 0 L180 0 Q246 1 285 30 Q324 60 325 110 Q324 160 285 190 Q246 219 180 220 L110 220 L110 340 L50 340 L50 0 ZM110 45 L110 175 L183 175 Q219 175 240 157 Q262 140 262 110 Q262 80 240 63 Q219 45 183 45 L110 45 Z" /><glyph glyph-name="" unicode="&#x44d;" d="M30 8 Q51 2 73 -1 Q94 -5 120 -5 Q198 -4 243 43 Q289 90 290 170 Q289 250 243 297 Q198 344 120 345 Q94 345 73 341 Q51 338 30 332 L30 265 Q48 278 70 285 Q91 292 120 292 Q163 291 191 266 Q218 240 225 195 L75 195 L75 145 L225 145 Q218 100 191 74 Q163 49 120 48 Q91 48 70 55 Q48 62 30 75 L30 8 Z" /><glyph glyph-name="" unicode="&#x44e;" d="M238 170 Q239 229 265 264 Q291 299 335 300 Q379 299 405 264 Q431 229 432 170 Q431 111 405 76 Q379 41 335 40 Q291 41 265 76 Q239 111 238 170 L238 170 ZM50 0 L110 0 L110 145 L176 145 Q184 76 226 36 Q268 -4 335 -5 Q408 -4 451 43 Q494 90 495 170 Q494 250 451 297 Q408 344 335 345 Q268 344 226 304 Q184 264 176 195 L110 195 L110 340 L50 340 L50 0 Z" /><glyph glyph-name="" unicode="&#x44f;" d="M265 165 L192 165 Q150 165 125 183 Q101 200 100 230 Q101 260 125 277 Q150 295 192 295 L265 295 L265 165 ZM325 340 L183 340 Q118 339 79 310 Q41 280 40 230 Q41 187 71 160 Q101 134 152 127 Q145 96 124 80 Q104 64 71 61 L30 59 L30 -5 L70 0 Q121 6 152 34 Q183 63 188 125 L265 125 L265 0 L325 0 L325 340 Z" /><glyph glyph-name="" unicode="&#x450;" d="M218 415 L225 426 L149 535 L105 535 L105 486 L218 415 ZM85 170 Q85 234 111 267 Q136 300 185 300 Q230 300 254 272 Q278 244 278 190 L125 190 L86 153 Q85 161 85 170 L85 170 ZM25 170 Q26 90 73 43 Q120 -4 200 -5 Q224 -5 245 -2 Q267 1 290 8 L290 72 Q269 57 247 51 Q225 45 200 45 Q150 45 121 71 Q92 96 86 145 L305 145 Q319 145 327 153 Q335 160 335 175 L335 193 Q334 262 294 303 Q253 344 185 345 Q112 344 69 297 Q26 250 25 170 L25 170 Z" /><glyph glyph-name="" unicode="&#x451;" d="M225 450 L274 450 Q281 450 283 452 Q285 454 285 461 L285 510 L236 510 Q229 510 227 508 Q225 506 225 499 L225 450 ZM85 450 L134 450 Q141 450 143 452 Q145 454 145 461 L145 510 L96 510 Q89 510 87 508 Q85 506 85 499 L85 450 ZM85 170 Q85 234 111 267 Q136 300 185 300 Q230 300 254 272 Q278 244 278 190 L125 190 L86 153 Q85 161 85 170 L85 170 ZM25 170 Q26 90 73 43 Q120 -4 200 -5 Q224 -5 245 -2 Q267 1 290 8 L290 72 Q269 57 247 51 Q225 45 200 45 Q150 45 121 71 Q92 96 86 145 L305 145 Q319 145 327 153 Q335 160 335 175 L335 193 Q334 262 294 303 Q253 344 185 345 Q112 344 69 297 Q26 250 25 170 L25 170 Z" /><glyph glyph-name="" unicode="&#x452;" d="M50 0 L110 0 L110 140 Q111 199 145 239 Q179 278 230 280 Q264 280 284 262 Q305 245 305 215 L305 -55 Q304 -95 285 -113 Q266 -130 238 -130 Q219 -130 199 -123 Q178 -116 160 -103 L160 -167 Q203 -180 239 -180 Q298 -180 331 -147 Q364 -114 365 -50 L365 225 Q364 271 329 298 Q294 324 235 325 Q195 325 163 302 Q131 280 110 242 L110 410 L240 410 L240 455 L110 455 L110 540 L50 540 L50 455 L15 455 L15 410 L50 410 L50 0 Z" /><glyph glyph-name="" unicode="&#x453;" d="M130 395 L243 466 L243 515 L199 515 L123 406 L130 395 ZM55 340 L55 0 L115 0 L115 290 L285 290 L285 340 L55 340 Z" /><glyph glyph-name="" unicode="&#x454;" d="M285 8 L285 75 Q267 62 245 55 Q224 48 195 48 Q152 49 124 74 Q97 100 90 145 L240 145 L240 195 L90 195 Q97 240 124 266 Q152 291 195 292 Q224 292 245 285 Q267 278 285 265 L285 332 Q264 338 242 341 Q221 345 195 345 Q117 344 72 297 Q26 250 25 170 Q26 90 72 43 Q117 -4 195 -5 Q221 -5 242 -1 Q264 2 285 8 L285 8 Z" /><glyph glyph-name="" unicode="&#x455;" d="M40 20 Q65 11 94 3 Q123 -5 150 -5 Q226 -5 265 22 Q305 49 305 100 Q303 147 270 168 Q237 188 194 198 Q159 206 133 219 Q106 231 105 255 Q106 273 126 284 Q147 295 180 295 Q209 295 236 288 Q264 280 285 265 L285 332 Q261 338 238 342 Q214 345 190 345 Q117 345 78 321 Q40 298 40 253 Q42 203 79 180 Q115 157 160 147 Q193 139 216 127 Q239 115 240 92 Q240 71 218 58 Q197 45 160 45 Q132 45 101 55 Q70 64 40 85 L40 20 Z" /><glyph glyph-name="" unicode="&#x456;" d="M50 450 L99 450 Q106 450 108 452 Q110 454 110 461 L110 510 L61 510 Q54 510 52 508 Q50 506 50 499 L50 450 ZM50 340 L50 90 L55 2 L113 -2 Q113 0 112 30 Q110 60 110 92 L110 340 L50 340 Z" /><glyph glyph-name="" unicode="&#x457;" d="M120 450 L169 450 Q176 450 178 452 Q180 454 180 461 L180 510 L131 510 Q124 510 122 508 Q120 506 120 499 L120 450 ZM-20 450 L29 450 Q36 450 38 452 Q40 454 40 461 L40 510 L-9 510 Q-16 510 -18 508 Q-20 506 -20 499 L-20 450 ZM50 340 L50 90 L55 2 L113 -2 Q113 0 112 30 Q110 60 110 92 L110 340 L50 340 Z" /><glyph glyph-name="" unicode="&#x458;" d="M50 450 L99 450 Q106 450 108 452 Q110 454 110 461 L110 510 L61 510 Q54 510 52 508 Q50 506 50 499 L50 450 ZM50 340 L50 -92 Q50 -123 36 -141 Q23 -160 0 -160 Q-20 -160 -38 -153 Q-57 -146 -73 -135 L-73 -193 Q-54 -199 -37 -202 Q-20 -205 0 -205 Q50 -204 80 -173 Q109 -142 110 -90 L110 340 L50 340 Z" /><glyph glyph-name="" unicode="&#x459;" d="M20 54 L20 -5 Q84 -4 122 39 Q159 82 160 155 L160 290 L280 290 L280 0 L398 0 Q465 1 505 29 Q544 57 545 105 Q544 153 505 181 Q465 209 398 210 L340 210 L340 340 L100 340 L100 155 Q100 109 78 82 Q57 55 20 54 L20 54 ZM340 45 L340 165 L400 165 Q437 165 459 149 Q481 132 482 105 Q481 78 459 62 Q437 45 400 45 L340 45 Z" /><glyph glyph-name="" unicode="&#x45a;" d="M340 45 L340 165 L400 165 Q437 165 459 149 Q481 132 482 105 Q481 78 459 62 Q437 45 400 45 L340 45 ZM50 0 L110 0 L110 165 L280 165 L280 0 L398 0 Q465 1 505 29 Q544 57 545 105 Q544 153 505 181 Q465 209 398 210 L340 210 L340 340 L280 340 L280 210 L110 210 L110 340 L50 340 L50 0 Z" /><glyph glyph-name="" unicode="&#x45b;" d="M50 0 L110 0 L110 140 Q111 199 145 239 Q179 278 230 280 Q264 280 284 262 Q305 245 305 215 L305 0 L365 0 L365 225 Q364 271 329 298 Q294 324 235 325 Q195 325 163 302 Q131 280 110 242 L110 410 L240 410 L240 455 L110 455 L110 540 L50 540 L50 455 L15 455 L15 410 L50 410 L50 0 Z" /><glyph glyph-name="" unicode="&#x45c;" d="M157 415 L270 486 L270 535 L226 535 L150 426 L157 415 ZM365 0 L195 175 L348 340 L273 340 L128 175 L279 0 L365 0 ZM50 0 L110 0 L110 340 L50 340 L50 0 Z" /><glyph glyph-name="" unicode="&#x45d;" d="M223 415 L230 426 L154 535 L110 535 L110 486 L223 415 ZM50 0 L100 0 L295 242 L295 0 L350 0 L350 340 L300 340 L105 93 L105 340 L50 340 L50 0 Z" /><glyph glyph-name="" unicode="&#x45e;" d="M15 340 L171 7 Q145 -55 110 -96 Q75 -138 10 -139 L10 -200 Q91 -199 142 -140 Q192 -81 230 20 L355 340 L290 340 L194 71 L93 340 L15 340 ZM187 440 Q157 441 140 463 Q122 486 122 525 L82 525 Q83 475 111 445 Q139 416 187 415 Q235 416 263 445 Q291 475 292 525 L252 525 Q252 486 234 463 Q217 441 187 440 L187 440 Z" /><glyph glyph-name="" unicode="&#x45f;" d="M350 340 L290 340 L290 50 L110 50 L110 340 L50 340 L50 0 L179 0 L175 -106 L225 -106 L221 0 L350 0 L350 340 Z" /><glyph glyph-name="" unicode="&#x462;" d="M150 50 L150 220 L225 220 Q274 219 303 197 Q331 174 332 135 Q331 96 303 73 Q274 51 225 50 L150 50 ZM85 0 L221 0 Q303 1 351 37 Q399 73 400 135 Q399 197 351 233 Q303 269 221 270 L150 270 L150 350 L275 350 L275 400 L150 400 L150 480 L85 480 L85 400 L15 400 L15 350 L85 350 L85 0 Z" /><glyph glyph-name="" unicode="&#x463;" d="M140 45 L140 175 L213 175 Q249 175 270 157 Q292 140 292 110 Q292 80 270 63 Q249 45 213 45 L140 45 ZM80 0 L210 0 Q276 1 315 30 Q354 60 355 110 Q354 160 315 190 Q276 219 210 220 L140 220 L140 300 L260 300 L260 345 L140 345 L140 430 L80 430 L80 345 L15 345 L15 300 L80 300 L80 0 Z" /><glyph glyph-name="" unicode="&#x464;" d="M505 10 L505 77 Q487 64 461 57 Q436 50 407 50 Q342 51 304 95 Q265 139 259 215 L445 215 L445 265 L259 265 Q266 341 307 385 Q348 429 417 430 Q445 430 466 423 Q487 416 505 403 L505 470 Q484 476 458 481 Q433 485 407 485 Q312 484 255 425 Q199 366 191 265 L120 265 L120 480 L55 480 L55 0 L120 0 L120 215 L191 215 Q199 114 255 55 Q312 -4 407 -5 Q433 -5 458 -1 Q484 4 505 10 L505 10 Z" /><glyph glyph-name="" unicode="&#x465;" d="M430 8 L430 75 Q412 62 390 55 Q369 48 340 48 Q297 49 272 74 Q246 100 240 145 L385 145 L385 195 L240 195 Q246 240 272 266 Q297 291 340 292 Q369 292 390 285 Q412 278 430 265 L430 332 Q409 338 387 341 Q366 345 340 345 Q271 344 228 304 Q184 264 176 195 L110 195 L110 340 L50 340 L50 0 L110 0 L110 145 L176 145 Q184 76 228 36 Q271 -4 340 -5 Q366 -5 387 -1 Q409 2 430 8 L430 8 Z" /><glyph glyph-name="" unicode="&#x472;" d="M30 240 Q31 128 86 62 Q141 -3 235 -5 Q329 -3 384 62 Q439 128 440 240 Q439 352 384 418 Q329 483 235 485 Q141 483 86 418 Q31 352 30 240 L30 240 ZM369 288 Q358 270 345 259 Q332 249 316 249 Q297 249 277 255 Q256 260 235 267 Q214 275 193 280 Q173 286 154 286 Q141 285 125 268 Q110 252 98 232 Q98 236 98 240 Q99 329 136 381 Q172 434 235 435 Q288 434 323 395 Q358 356 369 288 L369 288 ZM372 244 Q372 242 372 240 Q371 151 334 99 Q298 46 235 45 Q182 46 148 84 Q113 122 102 189 Q112 207 125 217 Q139 227 154 227 Q173 227 193 221 Q214 216 236 208 Q257 201 277 196 Q298 190 316 190 Q329 191 345 208 Q360 225 372 244 L372 244 Z" /><glyph glyph-name="" unicode="&#x473;" d="M25 170 Q26 90 70 43 Q115 -4 190 -5 Q265 -4 310 43 Q354 90 355 170 Q354 250 310 297 Q265 344 190 345 Q115 344 70 297 Q26 250 25 170 L25 170 ZM288 208 Q281 194 271 187 Q262 179 250 179 Q237 179 221 183 Q206 188 190 194 Q174 200 159 204 Q143 209 130 209 Q120 208 108 195 Q97 181 88 165 Q88 168 88 170 Q89 229 116 264 Q143 299 190 300 Q228 300 254 275 Q280 251 288 208 L288 208 ZM292 175 Q292 172 292 170 Q291 111 264 76 Q237 41 190 40 Q152 40 126 65 Q100 89 92 132 Q99 146 109 153 Q118 161 130 161 Q144 161 159 156 Q175 152 190 146 Q206 140 221 136 Q237 131 250 131 Q260 132 272 145 Q283 159 292 175 L292 175 Z" /><glyph glyph-name="" unicode="&#x490;" d="M55 0 L120 0 L120 425 L330 425 L330 580 L285 580 L280 480 L55 480 L55 0 Z" /><glyph glyph-name="" unicode="&#x491;" d="M55 0 L115 0 L115 290 L285 290 L285 435 L243 435 L238 340 L55 340 L55 0 Z" /><glyph glyph-name="" unicode="&#x4c0;" d="M55 0 L120 0 L120 480 L55 480 L55 0 Z" /><glyph glyph-name="" unicode="&#x4c1;" d="M318 560 Q288 561 271 583 Q253 606 253 645 L213 645 Q214 595 242 565 Q270 536 318 535 Q366 536 394 565 Q422 595 423 645 L383 645 Q383 606 365 583 Q348 561 318 560 L318 560 ZM276 245 L111 480 L32 480 L217 245 L15 0 L103 0 L276 245 ZM359 245 L532 0 L620 0 L418 245 L603 480 L524 480 L359 245 ZM284 0 L349 0 L349 480 L284 480 L284 0 Z" /><glyph glyph-name="" unicode="&#x4c2;" d="M295 440 Q265 441 248 463 Q230 486 230 525 L190 525 Q191 475 219 445 Q247 416 295 415 Q343 416 371 445 Q399 475 400 525 L360 525 Q360 486 342 463 Q325 441 295 440 L295 440 ZM15 0 L101 0 L250 175 L107 340 L32 340 L185 175 L15 0 ZM575 0 L405 175 L558 340 L483 340 L340 175 L489 0 L575 0 ZM265 0 L325 0 L325 340 L265 340 L265 0 Z" /><glyph glyph-name="" unicode="&#x4d0;" d="M220 580 Q186 581 163 602 Q141 623 140 655 L115 655 Q116 600 144 568 Q172 536 220 535 Q268 536 296 568 Q324 600 325 655 L295 655 Q294 623 273 602 Q252 581 220 580 L220 580 ZM187 480 L15 0 L81 0 L114 103 L325 103 L359 0 L425 0 L253 480 L187 480 ZM129 150 L220 432 L311 150 L129 150 Z" /><glyph glyph-name="" unicode="&#x4d1;" d="M200 460 Q166 461 143 482 Q121 503 120 535 L95 535 Q96 480 124 448 Q152 416 200 415 Q248 416 276 448 Q304 480 305 535 L275 535 Q274 503 253 482 Q232 461 200 460 L200 460 ZM25 170 Q26 90 64 43 Q103 -4 168 -5 Q209 -4 243 19 Q276 43 296 83 L300 1 L353 -2 Q353 0 352 30 Q350 60 350 92 L350 340 L297 340 L290 300 L255 340 L173 340 Q105 339 66 293 Q26 248 25 170 L25 170 ZM88 170 Q89 227 113 261 Q137 294 179 295 L290 295 L290 170 Q289 115 257 78 Q226 41 179 40 Q137 41 113 76 Q89 111 88 170 L88 170 Z" /><glyph glyph-name="" unicode="&#x4d2;" d="M260 570 L309 570 Q316 570 318 572 Q320 574 320 581 L320 630 L271 630 Q264 630 262 628 Q260 626 260 619 L260 570 ZM120 570 L169 570 Q176 570 178 572 Q180 574 180 581 L180 630 L131 630 Q124 630 122 628 Q120 626 120 619 L120 570 ZM187 480 L15 0 L81 0 L114 103 L325 103 L359 0 L425 0 L253 480 L187 480 ZM129 150 L220 432 L311 150 L129 150 Z" /><glyph glyph-name="" unicode="&#x4d3;" d="M240 450 L289 450 Q296 450 298 452 Q300 454 300 461 L300 510 L251 510 Q244 510 242 508 Q240 506 240 499 L240 450 ZM100 450 L149 450 Q156 450 158 452 Q160 454 160 461 L160 510 L111 510 Q104 510 102 508 Q100 506 100 499 L100 450 ZM25 170 Q26 90 64 43 Q103 -4 168 -5 Q209 -4 243 19 Q276 43 296 83 L300 1 L353 -2 Q353 0 352 30 Q350 60 350 92 L350 340 L297 340 L290 300 L255 340 L173 340 Q105 339 66 293 Q26 248 25 170 L25 170 ZM88 170 Q89 227 113 261 Q137 294 179 295 L290 295 L290 170 Q289 115 257 78 Q226 41 179 40 Q137 41 113 76 Q89 111 88 170 L88 170 Z" /><glyph glyph-name="" unicode="&#x4d4;" d="M15 0 L87 0 L129 145 L158 105 L278 105 L278 0 L528 0 L528 55 L343 55 L343 225 L488 225 L488 275 L343 275 L343 425 L528 425 L528 480 L175 480 L15 0 ZM278 425 L278 155 L132 155 L210 425 L278 425 Z" /><glyph glyph-name="" unicode="&#x4d5;" d="M260 190 L148 190 Q92 189 59 164 Q26 138 25 95 Q26 49 56 23 Q86 -4 138 -5 Q186 -4 226 24 Q265 53 287 96 Q306 48 342 22 Q379 -5 430 -5 Q455 -5 477 -2 Q498 1 520 8 L520 72 Q502 59 480 52 Q459 45 430 45 Q384 46 354 72 Q324 99 317 145 L537 145 Q551 145 559 153 Q567 160 567 175 L567 198 Q566 265 525 305 Q484 344 415 345 Q377 345 347 329 Q318 313 300 283 Q284 312 250 328 Q216 345 167 345 Q143 345 117 342 Q91 339 65 332 L65 268 Q83 281 110 288 Q137 295 165 295 Q212 295 236 280 Q260 265 260 240 L260 190 ZM260 180 L260 165 Q259 112 227 77 Q196 41 149 40 Q121 40 105 55 Q88 70 88 95 Q88 118 108 131 Q127 145 159 145 L225 145 L260 180 ZM316 153 Q315 162 315 170 Q316 229 343 264 Q369 299 415 300 Q460 300 483 272 Q507 244 507 190 L355 190 L316 153 Z" /><glyph glyph-name="" unicode="&#x4d6;" d="M195 560 Q165 561 148 583 Q130 606 130 645 L90 645 Q91 595 119 565 Q147 536 195 535 Q243 536 271 565 Q299 595 300 645 L260 645 Q260 606 242 583 Q225 561 195 560 L195 560 ZM55 0 L330 0 L330 50 L120 50 L120 220 L290 220 L290 270 L120 270 L120 430 L330 430 L330 480 L55 480 L55 0 Z" /><glyph glyph-name="" unicode="&#x4d7;" d="M185 460 Q151 461 128 482 Q106 503 105 535 L80 535 Q81 480 109 448 Q137 416 185 415 Q233 416 261 448 Q289 480 290 535 L260 535 Q259 503 238 482 Q217 461 185 460 L185 460 ZM85 170 Q85 234 111 267 Q136 300 185 300 Q230 300 254 272 Q278 244 278 190 L125 190 L86 153 Q85 161 85 170 L85 170 ZM25 170 Q26 90 73 43 Q120 -4 200 -5 Q224 -5 245 -2 Q267 1 290 8 L290 72 Q269 57 247 51 Q225 45 200 45 Q150 45 121 71 Q92 96 86 145 L305 145 Q319 145 327 153 Q335 160 335 175 L335 193 Q334 262 294 303 Q253 344 185 345 Q112 344 69 297 Q26 250 25 170 L25 170 Z" /><glyph glyph-name="" unicode="&#x4d8;" d="M377 256 Q377 248 377 240 Q376 151 335 99 Q294 46 225 45 Q168 46 134 92 Q101 139 100 217 L342 217 L377 256 ZM376 267 L60 267 Q46 267 38 259 Q30 252 30 237 L30 212 Q31 113 84 55 Q136 -4 225 -5 Q323 -3 381 62 Q439 128 440 240 Q439 352 378 418 Q318 483 215 485 Q184 485 151 481 Q118 478 95 470 L95 402 Q114 416 149 423 Q183 430 215 430 Q283 429 325 386 Q368 342 376 267 L376 267 Z" /><glyph glyph-name="" unicode="&#x4d9;" d="M275 170 Q274 111 248 76 Q221 41 175 40 Q130 40 107 68 Q83 96 83 150 L235 150 L274 187 Q275 178 275 170 L275 170 ZM335 170 Q334 250 287 297 Q240 344 160 345 Q135 345 113 342 Q92 339 70 332 L70 268 Q88 281 110 288 Q131 295 160 295 Q206 294 236 268 Q266 241 273 195 L53 195 Q39 195 31 187 Q23 180 23 165 L23 142 Q24 75 65 35 Q106 -4 175 -5 Q248 -4 291 43 Q334 90 335 170 L335 170 Z" /><glyph glyph-name="" unicode="&#x4da;" d="M263 571 L312 571 Q319 571 321 573 Q323 575 323 582 L323 631 L274 631 Q267 631 265 629 Q263 627 263 620 L263 571 ZM123 571 L172 571 Q179 571 181 573 Q183 575 183 582 L183 631 L134 631 Q127 631 125 629 Q123 627 123 620 L123 571 ZM377 256 Q377 248 377 240 Q376 151 335 99 Q294 46 225 45 Q168 46 134 92 Q101 139 100 217 L342 217 L377 256 ZM376 267 L60 267 Q46 267 38 259 Q30 252 30 237 L30 212 Q31 113 84 55 Q136 -4 225 -5 Q323 -3 381 62 Q439 128 440 240 Q439 352 378 418 Q318 483 215 485 Q184 485 151 481 Q118 478 95 470 L95 402 Q114 416 149 423 Q183 430 215 430 Q283 429 325 386 Q368 342 376 267 L376 267 Z" /><glyph glyph-name="" unicode="&#x4db;" d="M210 450 L259 450 Q266 450 268 452 Q270 454 270 461 L270 510 L221 510 Q214 510 212 508 Q210 506 210 499 L210 450 ZM70 450 L119 450 Q126 450 128 452 Q130 454 130 461 L130 510 L81 510 Q74 510 72 508 Q70 506 70 499 L70 450 ZM275 170 Q274 111 248 76 Q221 41 175 40 Q130 40 107 68 Q83 96 83 150 L235 150 L274 187 Q275 178 275 170 L275 170 ZM335 170 Q334 250 287 297 Q240 344 160 345 Q135 345 113 342 Q92 339 70 332 L70 268 Q88 281 110 288 Q131 295 160 295 Q206 294 236 268 Q266 241 273 195 L53 195 Q39 195 31 187 Q23 180 23 165 L23 142 Q24 75 65 35 Q106 -4 175 -5 Q248 -4 291 43 Q334 90 335 170 L335 170 Z" /><glyph glyph-name="" unicode="&#x4dc;" d="M357 570 L406 570 Q413 570 415 572 Q417 574 417 581 L417 630 L368 630 Q361 630 359 628 Q357 626 357 619 L357 570 ZM217 570 L266 570 Q273 570 275 572 Q277 574 277 581 L277 630 L228 630 Q221 630 219 628 Q217 626 217 619 L217 570 ZM276 245 L111 480 L32 480 L217 245 L15 0 L103 0 L276 245 ZM359 245 L532 0 L620 0 L418 245 L603 480 L524 480 L359 245 ZM284 0 L349 0 L349 480 L284 480 L284 0 Z" /><glyph glyph-name="" unicode="&#x4dd;" d="M335 450 L384 450 Q391 450 393 452 Q395 454 395 461 L395 510 L346 510 Q339 510 337 508 Q335 506 335 499 L335 450 ZM195 450 L244 450 Q251 450 253 452 Q255 454 255 461 L255 510 L206 510 Q199 510 197 508 Q195 506 195 499 L195 450 ZM15 0 L101 0 L250 175 L107 340 L32 340 L185 175 L15 0 ZM575 0 L405 175 L558 340 L483 340 L340 175 L489 0 L575 0 ZM265 0 L325 0 L325 340 L265 340 L265 0 Z" /><glyph glyph-name="" unicode="&#x4de;" d="M200 570 L249 570 Q256 570 258 572 Q260 574 260 581 L260 630 L211 630 Q204 630 202 628 Q200 626 200 619 L200 570 ZM60 570 L109 570 Q116 570 118 572 Q120 574 120 581 L120 630 L71 630 Q64 630 62 628 Q60 626 60 619 L60 570 ZM25 8 Q54 1 88 -2 Q122 -5 146 -5 Q230 -4 279 34 Q329 71 330 135 Q329 187 291 224 Q253 260 193 271 Q241 282 270 311 Q299 339 300 375 Q299 425 254 455 Q209 484 133 485 Q110 485 84 481 Q57 478 35 472 L35 406 Q53 419 82 427 Q111 435 140 435 Q186 435 213 419 Q239 402 240 375 Q239 339 208 317 Q177 296 124 295 L80 295 L80 240 L149 240 Q200 239 229 211 Q259 183 260 135 Q259 94 228 70 Q197 46 144 45 Q116 45 82 52 Q47 59 25 74 L25 8 Z" /><glyph glyph-name="" unicode="&#x4df;" d="M180 450 L229 450 Q236 450 238 452 Q240 454 240 461 L240 510 L191 510 Q184 510 182 508 Q180 506 180 499 L180 450 ZM40 450 L89 450 Q96 450 98 452 Q100 454 100 461 L100 510 L51 510 Q44 510 42 508 Q40 506 40 499 L40 450 ZM79 203 L79 157 L129 157 Q171 156 195 137 Q219 119 220 90 Q219 68 195 54 Q170 41 128 41 Q101 41 74 48 Q46 55 25 70 L25 8 Q53 1 80 -2 Q107 -5 130 -5 Q196 -4 240 21 Q283 47 285 90 Q284 123 254 148 Q224 173 176 182 Q214 192 236 213 Q259 234 260 260 Q259 297 220 320 Q182 344 120 345 Q101 345 78 341 Q56 338 32 332 L32 273 Q53 288 76 295 Q99 302 121 302 Q162 300 183 288 Q205 276 205 260 Q204 234 180 219 Q156 203 115 203 L79 203 Z" /><glyph glyph-name="" unicode="&#x4e0;" d="M63 300 L63 188 L199 188 L199 300 L63 300 Z" /><glyph glyph-name="" unicode="&#x4e1;" d="M63 300 L63 188 L199 188 L199 300 L63 300 Z" /><glyph glyph-name="" unicode="&#x4e2;" d="M125 550 L294 550 Q301 550 303 552 Q305 554 305 561 L305 600 L136 600 Q129 600 127 598 Q125 596 125 589 L125 550 ZM55 0 L110 0 L325 358 L325 0 L385 0 L385 480 L330 480 L115 117 L115 480 L55 480 L55 0 Z" /><glyph glyph-name="" unicode="&#x4e3;" d="M110 430 L279 430 Q286 430 288 432 Q290 434 290 441 L290 480 L121 480 Q114 480 112 478 Q110 476 110 469 L110 430 ZM50 0 L100 0 L295 242 L295 0 L350 0 L350 340 L300 340 L105 93 L105 340 L50 340 L50 0 Z" /><glyph glyph-name="" unicode="&#x4e4;" d="M255 570 L304 570 Q311 570 313 572 Q315 574 315 581 L315 630 L266 630 Q259 630 257 628 Q255 626 255 619 L255 570 ZM115 570 L164 570 Q171 570 173 572 Q175 574 175 581 L175 630 L126 630 Q119 630 117 628 Q115 626 115 619 L115 570 ZM55 0 L110 0 L325 358 L325 0 L385 0 L385 480 L330 480 L115 117 L115 480 L55 480 L55 0 Z" /><glyph glyph-name="" unicode="&#x4e5;" d="M240 450 L289 450 Q296 450 298 452 Q300 454 300 461 L300 510 L251 510 Q244 510 242 508 Q240 506 240 499 L240 450 ZM100 450 L149 450 Q156 450 158 452 Q160 454 160 461 L160 510 L111 510 Q104 510 102 508 Q100 506 100 499 L100 450 ZM50 0 L100 0 L295 242 L295 0 L350 0 L350 340 L300 340 L105 93 L105 340 L50 340 L50 0 Z" /><glyph glyph-name="" unicode="&#x4e6;" d="M275 570 L324 570 Q331 570 333 572 Q335 574 335 581 L335 630 L286 630 Q279 630 277 628 Q275 626 275 619 L275 570 ZM135 570 L184 570 Q191 570 193 572 Q195 574 195 581 L195 630 L146 630 Q139 630 137 628 Q135 626 135 619 L135 570 ZM98 240 Q99 329 136 381 Q172 434 235 435 Q298 434 334 381 Q371 329 372 240 Q371 151 334 99 Q298 46 235 45 Q172 46 136 99 Q99 151 98 240 L98 240 ZM30 240 Q31 128 86 62 Q141 -3 235 -5 Q329 -3 384 62 Q439 128 440 240 Q439 352 384 418 Q329 483 235 485 Q141 483 86 418 Q31 352 30 240 L30 240 Z" /><glyph glyph-name="" unicode="&#x4e7;" d="M230 450 L279 450 Q286 450 288 452 Q290 454 290 461 L290 510 L241 510 Q234 510 232 508 Q230 506 230 499 L230 450 ZM90 450 L139 450 Q146 450 148 452 Q150 454 150 461 L150 510 L101 510 Q94 510 92 508 Q90 506 90 499 L90 450 ZM88 170 Q89 229 116 264 Q143 299 190 300 Q237 299 264 264 Q291 229 292 170 Q291 111 264 76 Q237 41 190 40 Q143 41 116 76 Q89 111 88 170 L88 170 ZM25 170 Q26 90 70 43 Q115 -4 190 -5 Q265 -4 310 43 Q354 90 355 170 Q354 250 310 297 Q265 344 190 345 Q115 344 70 297 Q26 250 25 170 L25 170 Z" /><glyph glyph-name="" unicode="&#x4e8;" d="M30 240 Q31 128 86 62 Q141 -3 235 -5 Q329 -3 384 62 Q439 128 440 240 Q439 352 384 418 Q329 483 235 485 Q141 483 86 418 Q31 352 30 240 L30 240 ZM99 265 Q105 343 141 389 Q177 434 235 435 Q293 434 329 389 Q365 343 371 265 L99 265 ZM371 215 Q365 137 329 91 Q293 46 235 45 Q177 46 141 91 Q105 137 99 215 L371 215 Z" /><glyph glyph-name="" unicode="&#x4e9;" d="M25 170 Q26 90 70 43 Q115 -4 190 -5 Q265 -4 310 43 Q354 90 355 170 Q354 250 310 297 Q265 344 190 345 Q115 344 70 297 Q26 250 25 170 L25 170 ZM89 192 Q95 242 121 271 Q148 299 190 300 Q232 299 259 271 Q285 242 291 192 L89 192 ZM291 148 Q285 98 259 69 Q232 41 190 40 Q148 41 121 69 Q95 98 89 148 L291 148 Z" /><glyph glyph-name="" unicode="&#x4ea;" d="M275 570 L324 570 Q331 570 333 572 Q335 574 335 581 L335 630 L286 630 Q279 630 277 628 Q275 626 275 619 L275 570 ZM135 570 L184 570 Q191 570 193 572 Q195 574 195 581 L195 630 L146 630 Q139 630 137 628 Q135 626 135 619 L135 570 ZM30 240 Q31 128 86 62 Q141 -3 235 -5 Q329 -3 384 62 Q439 128 440 240 Q439 352 384 418 Q329 483 235 485 Q141 483 86 418 Q31 352 30 240 L30 240 ZM99 265 Q105 343 141 389 Q177 434 235 435 Q293 434 329 389 Q365 343 371 265 L99 265 ZM371 215 Q365 137 329 91 Q293 46 235 45 Q177 46 141 91 Q105 137 99 215 L371 215 Z" /><glyph glyph-name="" unicode="&#x4eb;" d="M230 450 L279 450 Q286 450 288 452 Q290 454 290 461 L290 510 L241 510 Q234 510 232 508 Q230 506 230 499 L230 450 ZM90 450 L139 450 Q146 450 148 452 Q150 454 150 461 L150 510 L101 510 Q94 510 92 508 Q90 506 90 499 L90 450 ZM25 170 Q26 90 70 43 Q115 -4 190 -5 Q265 -4 310 43 Q354 90 355 170 Q354 250 310 297 Q265 344 190 345 Q115 344 70 297 Q26 250 25 170 L25 170 ZM89 192 Q95 242 121 271 Q148 299 190 300 Q232 299 259 271 Q285 242 291 192 L89 192 ZM291 148 Q285 98 259 69 Q232 41 190 40 Q148 41 121 69 Q95 98 89 148 L291 148 Z" /><glyph glyph-name="" unicode="&#x4ec;" d="M197 570 L246 570 Q253 570 255 572 Q257 574 257 581 L257 630 L208 630 Q201 630 199 628 Q197 626 197 619 L197 570 ZM57 570 L106 570 Q113 570 115 572 Q117 574 117 581 L117 630 L68 630 Q61 630 59 628 Q57 626 57 619 L57 570 ZM35 10 Q56 4 82 -1 Q107 -5 133 -5 Q234 -3 294 62 Q354 128 355 240 Q354 352 294 418 Q234 483 133 485 Q107 485 82 481 Q56 476 35 470 L35 403 Q53 416 74 423 Q95 430 123 430 Q190 429 232 388 Q275 347 285 275 L95 275 L95 225 L287 225 Q282 145 241 98 Q200 51 133 50 Q104 50 79 57 Q53 64 35 77 L35 10 Z" /><glyph glyph-name="" unicode="&#x4ed;" d="M185 450 L234 450 Q241 450 243 452 Q245 454 245 461 L245 510 L196 510 Q189 510 187 508 Q185 506 185 499 L185 450 ZM45 450 L94 450 Q101 450 103 452 Q105 454 105 461 L105 510 L56 510 Q49 510 47 508 Q45 506 45 499 L45 450 ZM30 8 Q51 2 73 -1 Q94 -5 120 -5 Q198 -4 243 43 Q289 90 290 170 Q289 250 243 297 Q198 344 120 345 Q94 345 73 341 Q51 338 30 332 L30 265 Q48 278 70 285 Q91 292 120 292 Q163 291 191 266 Q218 240 225 195 L75 195 L75 145 L225 145 Q218 100 191 74 Q163 49 120 48 Q91 48 70 55 Q48 62 30 75 L30 8 Z" /><glyph glyph-name="" unicode="&#x4ee;" d="M117 550 L286 550 Q293 550 295 552 Q297 554 297 561 L297 600 L128 600 Q121 600 119 598 Q117 596 117 589 L117 550 ZM15 480 L180 150 Q157 97 124 76 Q90 54 25 55 L25 -5 Q107 -7 156 28 Q206 63 245 160 L375 480 L307 480 L208 216 L98 480 L15 480 Z" /><glyph glyph-name="" unicode="&#x4ef;" d="M97 430 L266 430 Q273 430 275 432 Q277 434 277 441 L277 480 L108 480 Q101 480 99 478 Q97 476 97 469 L97 430 ZM15 340 L174 4 Q148 -59 110 -101 Q71 -143 5 -145 L5 -200 Q86 -198 136 -145 Q186 -92 218 -9 L360 340 L289 340 L198 64 L86 340 L15 340 Z" /><glyph glyph-name="" unicode="&#x4f0;" d="M247 570 L296 570 Q303 570 305 572 Q307 574 307 581 L307 630 L258 630 Q251 630 249 628 Q247 626 247 619 L247 570 ZM107 570 L156 570 Q163 570 165 572 Q167 574 167 581 L167 630 L118 630 Q111 630 109 628 Q107 626 107 619 L107 570 ZM15 480 L180 150 Q157 97 124 76 Q90 54 25 55 L25 -5 Q107 -7 156 28 Q206 63 245 160 L375 480 L307 480 L208 216 L98 480 L15 480 Z" /><glyph glyph-name="" unicode="&#x4f1;" d="M227 450 L276 450 Q283 450 285 452 Q287 454 287 461 L287 510 L238 510 Q231 510 229 508 Q227 506 227 499 L227 450 ZM87 450 L136 450 Q143 450 145 452 Q147 454 147 461 L147 510 L98 510 Q91 510 89 508 Q87 506 87 499 L87 450 ZM15 340 L174 4 Q148 -59 110 -101 Q71 -143 5 -145 L5 -200 Q86 -198 136 -145 Q186 -92 218 -9 L360 340 L289 340 L198 64 L86 340 L15 340 Z" /><glyph glyph-name="" unicode="&#x4f2;" d="M94 535 L227 616 L227 655 L188 655 L87 546 L94 535 ZM234 535 L367 616 L367 655 L328 655 L227 546 L234 535 ZM15 480 L180 150 Q157 97 124 76 Q90 54 25 55 L25 -5 Q107 -7 156 28 Q206 63 245 160 L375 480 L307 480 L208 216 L98 480 L15 480 Z" /><glyph glyph-name="" unicode="&#x4f3;" d="M74 415 L207 496 L207 535 L168 535 L67 426 L74 415 ZM214 415 L347 496 L347 535 L308 535 L207 426 L214 415 ZM15 340 L174 4 Q148 -59 110 -101 Q71 -143 5 -145 L5 -200 Q86 -198 136 -145 Q186 -92 218 -9 L360 340 L289 340 L198 64 L86 340 L15 340 Z" /><glyph glyph-name="" unicode="&#x4f4;" d="M245 570 L294 570 Q301 570 303 572 Q305 574 305 581 L305 630 L256 630 Q249 630 247 628 Q245 626 245 619 L245 570 ZM105 570 L154 570 Q161 570 163 572 Q165 574 165 581 L165 630 L116 630 Q109 630 107 628 Q105 626 105 619 L105 570 ZM370 0 L370 480 L305 480 L305 245 L305 245 L181 245 Q144 245 124 262 Q105 279 105 316 L105 480 L45 480 L45 293 Q46 248 79 222 Q112 196 168 195 L305 195 L305 0 L370 0 Z" /><glyph glyph-name="" unicode="&#x4f5;" d="M220 450 L269 450 Q276 450 278 452 Q280 454 280 461 L280 510 L231 510 Q224 510 222 508 Q220 506 220 499 L220 450 ZM80 450 L129 450 Q136 450 138 452 Q140 454 140 461 L140 510 L91 510 Q84 510 82 508 Q80 506 80 499 L80 450 ZM330 0 L330 340 L270 340 L270 170 L270 170 L176 170 Q139 170 119 187 Q100 204 100 241 L100 340 L40 340 L40 218 Q41 173 74 147 Q107 121 163 120 L270 120 L270 0 L330 0 Z" /><glyph glyph-name="" unicode="&#x4f8;" d="M308 570 L357 570 Q364 570 366 572 Q368 574 368 581 L368 630 L319 630 Q312 630 310 628 Q308 626 308 619 L308 570 ZM168 570 L217 570 Q224 570 226 572 Q228 574 228 581 L228 630 L179 630 Q172 630 170 628 Q168 626 168 619 L168 570 ZM55 0 L191 0 Q273 1 321 37 Q369 73 370 135 Q369 197 321 233 Q273 269 191 270 L120 270 L120 480 L55 480 L55 0 ZM120 50 L120 220 L195 220 Q244 219 273 197 Q301 174 302 135 Q301 96 273 73 Q244 51 195 50 L120 50 ZM425 0 L490 0 L490 480 L425 480 L425 0 Z" /><glyph glyph-name="" unicode="&#x4f9;" d="M300 450 L349 450 Q356 450 358 452 Q360 454 360 461 L360 510 L311 510 Q304 510 302 508 Q300 506 300 499 L300 450 ZM160 450 L209 450 Q216 450 218 452 Q220 454 220 461 L220 510 L171 510 Q164 510 162 508 Q160 506 160 499 L160 450 ZM50 0 L180 0 Q246 1 285 30 Q324 60 325 110 Q324 160 285 190 Q246 219 180 220 L110 220 L110 340 L50 340 L50 0 ZM110 45 L110 175 L183 175 Q218 175 240 157 Q261 140 262 110 Q262 80 240 63 Q219 45 183 45 L110 45 ZM380 0 L440 0 L440 340 L380 340 L380 0 Z" /><glyph glyph-name="" unicode="&#x1e80;" d="M353 535 L360 546 L284 655 L240 655 L240 606 L353 535 ZM221 0 L320 368 L419 0 L481 0 L625 480 L549 480 L450 55 L351 480 L289 480 L190 55 L91 480 L15 480 L159 0 L221 0 Z" /><glyph glyph-name="" unicode="&#x1e81;" d="M318 415 L325 426 L249 535 L205 535 L205 486 L318 415 ZM136 0 L194 0 L285 267 L376 0 L434 0 L555 340 L480 340 L405 48 L315 340 L255 340 L165 48 L90 340 L15 340 L136 0 Z" /><glyph glyph-name="" unicode="&#x1e82;" d="M287 535 L400 606 L400 655 L356 655 L280 546 L287 535 ZM221 0 L320 368 L419 0 L481 0 L625 480 L549 480 L450 55 L351 480 L289 480 L190 55 L91 480 L15 480 L159 0 L221 0 Z" /><glyph glyph-name="" unicode="&#x1e83;" d="M252 415 L365 486 L365 535 L321 535 L245 426 L252 415 ZM136 0 L194 0 L285 267 L376 0 L434 0 L555 340 L480 340 L405 48 L315 340 L255 340 L165 48 L90 340 L15 340 L136 0 Z" /><glyph glyph-name="" unicode="&#x1e84;" d="M360 570 L409 570 Q416 570 418 572 Q420 574 420 581 L420 630 L371 630 Q364 630 362 628 Q360 626 360 619 L360 570 ZM220 570 L269 570 Q276 570 278 572 Q280 574 280 581 L280 630 L231 630 Q224 630 222 628 Q220 626 220 619 L220 570 ZM221 0 L320 368 L419 0 L481 0 L625 480 L549 480 L450 55 L351 480 L289 480 L190 55 L91 480 L15 480 L159 0 L221 0 Z" /><glyph glyph-name="" unicode="&#x1e85;" d="M325 450 L374 450 Q381 450 383 452 Q385 454 385 461 L385 510 L336 510 Q329 510 327 508 Q325 506 325 499 L325 450 ZM185 450 L234 450 Q241 450 243 452 Q245 454 245 461 L245 510 L196 510 Q189 510 187 508 Q185 506 185 499 L185 450 ZM136 0 L194 0 L285 267 L376 0 L434 0 L555 340 L480 340 L405 48 L315 340 L255 340 L165 48 L90 340 L15 340 L136 0 Z" /><glyph glyph-name="" unicode="&#x1e86;" d="M290 570 L339 570 Q346 570 348 572 Q350 574 350 581 L350 630 L301 630 Q294 630 292 628 Q290 626 290 619 L290 570 ZM221 0 L320 368 L419 0 L481 0 L625 480 L549 480 L450 55 L351 480 L289 480 L190 55 L91 480 L15 480 L159 0 L221 0 Z" /><glyph glyph-name="" unicode="&#x1e87;" d="M255 450 L304 450 Q311 450 313 452 Q315 454 315 461 L315 510 L266 510 Q259 510 257 508 Q255 506 255 499 L255 450 ZM136 0 L194 0 L285 267 L376 0 L434 0 L555 340 L480 340 L405 48 L315 340 L255 340 L165 48 L90 340 L15 340 L136 0 Z" /><glyph glyph-name="" unicode="&#x1e88;" d="M278 -125 L332 -125 Q339 -125 341 -123 Q343 -121 343 -114 L343 -60 L289 -60 Q281 -60 279 -62 Q277 -64 278 -71 L278 -125 ZM221 0 L320 368 L419 0 L481 0 L625 480 L549 480 L450 55 L351 480 L289 480 L190 55 L91 480 L15 480 L159 0 L221 0 Z" /><glyph glyph-name="" unicode="&#x1e89;" d="M253 -125 L307 -125 Q314 -125 316 -123 Q318 -121 318 -114 L318 -60 L264 -60 Q256 -60 254 -62 Q252 -64 253 -71 L253 -125 ZM136 0 L194 0 L285 267 L376 0 L434 0 L555 340 L480 340 L405 48 L315 340 L255 340 L165 48 L90 340 L15 340 L136 0 Z" /><glyph glyph-name="" unicode="&#x1e9e;" d="M55 0 L120 0 L120 325 Q121 373 142 401 Q164 429 200 430 L309 430 L180 282 L180 255 L234 255 Q291 255 325 224 Q359 194 360 135 Q360 94 338 70 Q317 46 281 45 Q256 46 231 56 Q207 67 185 81 L185 16 Q207 8 230 1 Q253 -5 275 -5 Q343 -4 384 34 Q424 71 425 135 Q423 203 376 246 Q328 289 257 290 L255 290 L383 437 L383 480 L200 480 Q134 479 95 435 Q56 390 55 315 L55 0 Z" /><glyph glyph-name="" unicode="&#x1ef2;" d="M240 535 L247 546 L171 655 L127 655 L127 606 L240 535 ZM177 0 L242 0 L242 189 L405 480 L327 480 L210 228 L92 480 L15 480 L177 189 L177 0 Z" /><glyph glyph-name="" unicode="&#x1ef3;" d="M220 415 L227 426 L151 535 L107 535 L107 486 L220 415 ZM15 340 L174 4 Q148 -59 110 -101 Q71 -143 5 -145 L5 -200 Q86 -198 136 -145 Q186 -92 218 -9 L360 340 L289 340 L198 64 L86 340 L15 340 Z" /><glyph glyph-name="" unicode="&#x1ef4;" d="M178 -120 L227 -120 Q234 -120 236 -118 Q238 -116 238 -109 L238 -60 L189 -60 Q181 -60 179 -62 Q177 -64 178 -71 L178 -120 ZM177 0 L242 0 L242 189 L405 480 L327 480 L210 228 L92 480 L15 480 L177 189 L177 0 Z" /><glyph glyph-name="" unicode="&#x1ef5;" d="M210 -200 L259 -200 Q266 -201 268 -199 Q270 -196 270 -189 L270 -140 L221 -140 Q214 -140 212 -142 Q210 -144 210 -151 L210 -200 ZM15 340 L174 4 Q148 -59 110 -101 Q71 -143 5 -145 L5 -200 Q86 -198 136 -145 Q186 -92 218 -9 L360 340 L289 340 L198 64 L86 340 L15 340 Z" /><glyph glyph-name="" unicode="&#x1ef8;" d="M317 589 L317 644 Q306 625 293 615 Q280 604 264 604 Q251 604 237 610 Q222 615 207 623 Q192 630 177 635 Q163 641 150 641 Q134 641 121 631 Q108 621 97 602 L97 547 Q108 566 121 576 Q134 587 150 587 Q163 587 177 581 Q192 576 207 569 Q222 561 237 556 Q251 550 264 550 Q280 550 293 560 Q306 570 317 589 L317 589 ZM177 0 L242 0 L242 189 L405 480 L327 480 L210 228 L92 480 L15 480 L177 189 L177 0 Z" /><glyph glyph-name="" unicode="&#x1ef9;" d="M297 469 L297 524 Q286 505 273 495 Q260 484 244 484 Q231 484 217 490 Q202 495 187 503 Q172 510 157 515 Q143 521 130 521 Q114 521 101 511 Q88 501 77 482 L77 427 Q88 446 101 456 Q114 467 130 467 Q143 467 157 461 Q172 456 187 449 Q202 441 217 436 Q231 430 244 430 Q260 430 273 440 Q286 450 297 469 L297 469 ZM15 340 L174 4 Q148 -59 110 -101 Q71 -143 5 -145 L5 -200 Q86 -198 136 -145 Q186 -92 218 -9 L360 340 L289 340 L198 64 L86 340 L15 340 Z" /><glyph glyph-name="" unicode="&#x2000;" d="" /><glyph glyph-name="" unicode="&#x2001;" d="" /><glyph glyph-name="" unicode="&#x2002;" d="" /><glyph glyph-name="" unicode="&#x2003;" d="" /><glyph glyph-name="" unicode="&#x2004;" d="" /><glyph glyph-name="" unicode="&#x2005;" d="" /><glyph glyph-name="" unicode="&#x2006;" d="" /><glyph glyph-name="" unicode="&#x2007;" d="" /><glyph glyph-name="" unicode="&#x2008;" d="" /><glyph glyph-name="" unicode="&#x2009;" d="" /><glyph glyph-name="" unicode="&#x200a;" d="" /><glyph glyph-name="" unicode="&#x200b;" d="" /><glyph glyph-name="" unicode="&#x2010;" d="M20 255 L20 200 L220 200 L220 255 L20 255 Z" /><glyph glyph-name="" unicode="&#x2011;" d="M20 255 L20 200 L220 200 L220 255 L20 255 Z" /><glyph glyph-name="" unicode="&#x2012;" d="M20 255 L20 200 L390 200 L390 255 L20 255 Z" /><glyph glyph-name="" unicode="&#x2013;" d="M20 255 L20 200 L440 200 L440 255 L20 255 Z" /><glyph glyph-name="" unicode="&#x2014;" d="M20 255 L20 200 L900 200 L900 255 L20 255 Z" /><glyph glyph-name="" unicode="&#x2015;" d="M20 255 L20 200 L900 200 L900 255 L20 255 Z" /><glyph glyph-name="" unicode="&#x2018;" d="M99 540 L49 461 Q41 448 35 437 Q30 426 30 413 L30 382 L80 382 Q94 381 97 385 Q101 388 100 402 L100 442 L80 449 L117 530 L99 540 Z" /><glyph glyph-name="" unicode="&#x2019;" d="M46 382 L96 461 Q104 474 110 485 Q115 496 115 509 L115 540 L65 540 Q51 541 48 537 Q44 534 45 520 L45 480 L65 473 L28 392 L46 382 Z" /><glyph glyph-name="" unicode="&#x201a;" d="M46 -98 L96 -19 Q104 -6 110 5 Q115 16 115 29 L115 60 L65 60 Q51 61 48 57 Q44 54 45 40 L45 0 L65 -7 L28 -88 L46 -98 Z" /><glyph glyph-name="" unicode="&#x201b;" d="M94 382 L112 392 L75 473 L95 480 L95 520 Q96 534 92 537 Q89 541 75 540 L25 540 L25 509 Q25 496 30 485 Q36 474 44 461 L94 382 Z" /><glyph glyph-name="" unicode="&#x201c;" d="M99 540 L49 461 Q41 448 35 437 Q30 426 30 413 L30 382 L80 382 Q94 381 97 385 Q101 388 100 402 L100 442 L80 449 L117 530 L99 540 ZM209 540 L159 461 Q151 448 145 437 Q140 426 140 413 L140 382 L190 382 Q204 381 207 385 Q211 388 210 402 L210 442 L190 449 L227 530 L209 540 Z" /><glyph glyph-name="" unicode="&#x201d;" d="M46 382 L96 461 Q104 474 110 485 Q115 496 115 509 L115 540 L65 540 Q51 541 48 537 Q44 534 45 520 L45 480 L65 473 L28 392 L46 382 ZM156 382 L206 461 Q214 474 220 485 Q225 496 225 509 L225 540 L175 540 Q161 541 158 537 Q154 534 155 520 L155 480 L175 473 L138 392 L156 382 Z" /><glyph glyph-name="" unicode="&#x201e;" d="M156 -98 L206 -19 Q214 -6 220 5 Q225 16 225 29 L225 60 L175 60 Q161 61 158 57 Q154 54 155 40 L155 0 L175 -7 L138 -88 L156 -98 ZM46 -98 L96 -19 Q104 -6 110 5 Q115 16 115 29 L115 60 L65 60 Q51 61 48 57 Q44 54 45 40 L45 0 L65 -7 L28 -88 L46 -98 Z" /><glyph glyph-name="" unicode="&#x201f;" d="M204 382 L222 392 L185 473 L205 480 L205 520 Q206 534 202 537 Q199 541 185 540 L135 540 L135 509 Q135 496 140 485 Q146 474 154 461 L204 382 ZM94 382 L112 392 L75 473 L95 480 L95 520 Q96 534 92 537 Q89 541 75 540 L25 540 L25 509 Q25 496 30 485 Q36 474 44 461 L94 382 Z" /><glyph glyph-name="" unicode="&#x2020;" d="M165 -40 L215 -40 L213 358 L360 350 L360 410 L213 403 L220 550 L160 550 L168 403 L20 410 L20 350 L168 358 L165 -40 Z" /><glyph glyph-name="" unicode="&#x2021;" d="M168 358 L165 255 L168 153 L20 160 L20 100 L168 108 L160 -40 L220 -40 L213 108 L360 100 L360 160 L213 153 L215 255 L213 358 L360 350 L360 410 L213 403 L220 550 L160 550 L168 403 L20 410 L20 350 L168 358 Z" /><glyph glyph-name="" unicode="&#x2022;" d="M35 240 Q36 199 59 175 Q82 151 122 150 Q162 151 185 175 Q208 199 209 240 Q208 281 185 305 Q162 329 122 330 Q82 329 59 305 Q36 281 35 240 L35 240 Z" /><glyph glyph-name="" unicode="&#x2023;" d="M40 330 L40 150 L224 240 L40 330 Z" /><glyph glyph-name="" unicode="&#x2024;" d="M50 -5 L104 -5 Q111 -5 113 -3 Q115 -1 115 6 L115 60 L61 60 Q54 60 52 58 Q50 56 50 49 L50 -5 Z" /><glyph glyph-name="" unicode="&#x2025;" d="M165 -5 L219 -5 Q226 -5 228 -3 Q230 -1 230 6 L230 60 L176 60 Q169 60 167 58 Q165 56 165 49 L165 -5 ZM50 -5 L104 -5 Q111 -5 113 -3 Q115 -1 115 6 L115 60 L61 60 Q54 60 52 58 Q50 56 50 49 L50 -5 Z" /><glyph glyph-name="" unicode="&#x2026;" d="M50 -5 L104 -5 Q111 -5 113 -3 Q115 -1 115 6 L115 60 L61 60 Q54 60 52 58 Q50 56 50 49 L50 -5 ZM280 -5 L334 -5 Q341 -5 343 -3 Q345 -1 345 6 L345 60 L291 60 Q284 60 282 58 Q280 56 280 49 L280 -5 ZM165 -5 L219 -5 Q226 -5 228 -3 Q230 -1 230 6 L230 60 L176 60 Q169 60 167 58 Q165 56 165 49 L165 -5 Z" /><glyph glyph-name="" unicode="&#x2030;" d="M770 118 Q770 156 790 178 Q810 200 843 201 Q876 200 896 178 Q916 156 916 118 Q916 80 896 58 Q876 36 843 35 Q810 36 790 58 Q770 80 770 118 L770 118 ZM715 118 Q716 62 750 29 Q785 -4 843 -5 Q901 -4 936 29 Q970 62 971 118 Q970 174 936 207 Q901 240 843 241 Q785 240 750 207 Q716 174 715 118 L715 118 ZM470 118 Q470 156 490 178 Q510 200 543 201 Q576 200 596 178 Q616 156 616 118 Q616 80 596 58 Q576 36 543 35 Q510 36 490 58 Q470 80 470 118 L470 118 ZM415 118 Q416 62 450 29 Q485 -4 543 -5 Q601 -4 636 29 Q670 62 671 118 Q670 174 636 207 Q601 240 543 241 Q485 240 450 207 Q416 174 415 118 L415 118 ZM140 26 L177 -6 L562 454 L526 486 L140 26 ZM90 362 Q90 400 110 422 Q130 444 163 445 Q196 444 216 422 Q236 400 236 362 Q236 324 216 302 Q196 280 163 279 Q130 280 110 302 Q90 324 90 362 L90 362 ZM35 362 Q36 306 70 273 Q105 240 163 239 Q221 240 256 273 Q290 306 291 362 Q290 418 256 451 Q221 484 163 485 Q105 484 70 451 Q36 418 35 362 L35 362 Z" /><glyph glyph-name="" unicode="&#x2039;" d="M130 48 L140 115 L81 180 L140 245 L130 312 L20 180 L130 48 Z" /><glyph glyph-name="" unicode="&#x203a;" d="M55 312 L45 245 L104 180 L45 115 L55 48 L165 180 L55 312 Z" /><glyph glyph-name="" unicode="&#x20ac;" d="M405 10 L405 77 Q387 64 361 57 Q336 50 307 50 Q255 50 218 79 Q182 108 165 160 L320 160 L331 200 L156 200 Q153 219 153 240 Q153 250 154 260 L347 260 L358 300 L160 300 Q175 361 216 395 Q257 429 317 430 Q339 430 357 426 Q374 421 389 413 L405 470 Q384 476 358 481 Q333 485 307 485 Q221 484 164 435 Q107 386 90 300 L43 300 L32 260 L86 260 Q85 250 85 240 Q85 219 87 200 L26 200 L15 160 L95 160 Q115 83 171 39 Q226 -4 307 -5 Q333 -5 358 -1 Q384 4 405 10 L405 10 Z" /><glyph glyph-name="" unicode="&#x2116;" d="M55 0 L105 0 L105 363 L340 0 L385 0 L385 480 L335 480 L335 112 L100 480 L55 480 L55 0 ZM495 150 L495 95 L665 95 L665 150 L495 150 ZM502 345 Q502 392 523 419 Q544 446 580 447 Q616 446 637 419 Q658 392 658 345 Q658 298 637 271 Q616 244 580 243 Q544 244 523 271 Q502 298 502 345 L502 345 ZM445 345 Q446 281 482 244 Q518 206 580 205 Q642 206 678 244 Q714 281 715 345 Q714 409 678 447 Q642 484 580 485 Q518 484 482 447 Q446 409 445 345 L445 345 Z" /><glyph glyph-name="" unicode="&#x2122;" d="M231 249 L231 188 L298 188 L298 249 L231 249 Z" /><glyph glyph-name="" unicode="&#x2190;" d="M68 250 L170 375 L142 397 L18 246 L18 218 L142 67 L170 89 L68 214 L661 214 L661 250 L68 250 Z" /><glyph glyph-name="" unicode="&#x2191;" d="M196 593 L321 491 L344 519 L193 643 L164 643 L13 519 L36 491 L161 593 L161 0 L196 0 L196 593 Z" /><glyph glyph-name="" unicode="&#x2192;" d="M611 214 L509 89 L537 67 L661 218 L661 246 L537 397 L509 375 L611 250 L18 250 L18 214 L611 214 Z" /><glyph glyph-name="" unicode="&#x2193;" d="M161 50 L36 152 L13 124 L164 0 L193 0 L344 124 L321 152 L196 50 L196 643 L161 643 L161 50 Z" /><glyph glyph-name="" unicode="&#x2194;" d="M611 214 L509 89 L537 67 L661 218 L661 246 L537 397 L509 375 L611 250 L68 250 L170 375 L142 397 L18 246 L18 218 L142 67 L170 89 L68 214 L611 214 Z" /><glyph glyph-name="" unicode="&#x2195;" d="M161 50 L36 152 L13 124 L164 0 L193 0 L344 124 L321 152 L196 50 L196 593 L321 491 L344 519 L193 643 L164 643 L13 519 L36 491 L161 593 L161 50 Z" /><glyph glyph-name="" unicode="&#x21e0;" d="M54 233 L96 286 L661 286 L661 321 L126 321 L170 375 L142 397 L18 246 L18 218 L142 67 L170 89 L126 143 L661 143 L661 179 L96 179 L54 231 L54 233 Z" /><glyph glyph-name="" unicode="&#x21e1;" d="M179 607 L232 564 L232 0 L268 0 L268 535 L321 491 L344 519 L193 643 L164 643 L13 519 L36 491 L89 535 L89 0 L125 0 L125 564 L178 607 L179 607 Z" /><glyph glyph-name="" unicode="&#x21e2;" d="M625 231 L582 179 L18 179 L18 143 L553 143 L509 89 L537 67 L661 218 L661 246 L537 397 L509 375 L553 321 L18 321 L18 286 L582 286 L625 233 L625 231 Z" /><glyph glyph-name="" unicode="&#x21e3;" d="M178 36 L125 79 L125 643 L89 643 L89 108 L36 152 L13 124 L164 0 L193 0 L344 124 L321 152 L268 108 L268 643 L232 643 L232 79 L179 36 L178 36 Z" /><glyph glyph-name="" unicode="&#x21e4;" d="M582 286 L625 233 L625 231 L582 179 L96 179 L54 231 L54 233 L96 286 L582 286 ZM553 321 L126 321 L170 375 L142 397 L18 246 L18 218 L142 67 L170 89 L126 143 L553 143 L509 89 L537 67 L661 218 L661 246 L537 397 L509 375 L553 321 Z" /><glyph glyph-name="" unicode="&#x21e5;" d="M232 79 L179 36 L178 36 L125 79 L125 564 L178 607 L179 607 L232 564 L232 79 ZM268 108 L268 535 L321 491 L344 519 L193 643 L164 643 L13 519 L36 491 L89 535 L89 108 L36 152 L13 124 L164 0 L193 0 L344 124 L321 152 L268 108 Z" /><glyph glyph-name="" unicode="&#x2212;" d="M30 215 L310 215 L310 265 L30 265 L30 215 Z" /><glyph glyph-name="" unicode="&#x2217;" d="M132 221 L114 132 L114 120 L164 120 L164 132 L146 221 L132 221 ZM152 224 L220 164 L230 158 L255 202 L245 208 L159 237 L152 224 ZM119 237 L33 208 L23 202 L48 158 L58 164 L126 224 L119 237 ZM132 259 L146 259 L164 348 L164 360 L114 360 L114 348 L132 259 ZM152 256 L159 243 L245 272 L255 278 L230 322 L220 316 L152 256 ZM119 243 L126 256 L58 316 L48 322 L23 278 L33 272 L119 243 Z" /><glyph glyph-name="" unicode="&#x221a;" d="M9 185 L18 151 L97 171 L166 -20 L198 -20 L378 580 L452 580 L452 616 L351 616 L180 46 L121 213 L9 185 Z" /><glyph glyph-name="" unicode="&#x221e;" d="M412 277 Q377 316 327 354 Q276 392 198 395 Q125 394 78 353 Q32 311 30 241 Q32 171 78 130 Q125 89 198 88 Q276 91 326 129 Q377 167 412 206 Q447 167 498 129 Q548 91 626 88 Q700 89 746 130 Q793 171 794 241 Q793 311 746 353 Q700 394 626 395 Q548 392 497 354 Q447 316 412 277 L412 277 ZM447 241 Q484 281 525 312 Q566 343 626 345 Q683 344 713 316 Q744 288 744 241 Q744 194 713 166 Q683 139 626 138 Q566 140 525 170 Q484 201 447 241 L447 241 ZM377 241 Q340 201 299 170 Q258 140 198 138 Q141 139 111 166 Q80 194 80 241 Q80 288 111 316 Q141 344 198 345 Q258 343 299 312 Q340 281 377 241 L377 241 Z" /></font>
</defs>
</svg>
